G04 #@! TF.GenerationSoftware,KiCad,Pcbnew,(5.0.2)-1*
G04 #@! TF.CreationDate,2019-01-04T15:23:43-05:00*
G04 #@! TF.ProjectId,HASwitchPlate,48415377-6974-4636-9850-6c6174652e6b,rev?*
G04 #@! TF.SameCoordinates,Original*
G04 #@! TF.FileFunction,Legend,Top*
G04 #@! TF.FilePolarity,Positive*
%FSLAX46Y46*%
G04 Gerber Fmt 4.6, Leading zero omitted, Abs format (unit mm)*
G04 Created by KiCad (PCBNEW (5.0.2)-1) date 1/4/2019 3:23:43 PM*
%MOMM*%
%LPD*%
G01*
G04 APERTURE LIST*
%ADD10C,0.300000*%
%ADD11C,0.200000*%
%ADD12C,0.150000*%
%ADD13C,0.120000*%
%ADD14C,0.010000*%
%ADD15C,2.150000*%
%ADD16R,2.150000X2.150000*%
%ADD17R,2.100000X2.100000*%
%ADD18O,2.100000X2.100000*%
%ADD19C,2.690000*%
%ADD20C,2.200000*%
%ADD21C,2.600000*%
%ADD22R,3.400000X3.400000*%
%ADD23C,3.400000*%
G04 APERTURE END LIST*
D10*
X159045428Y-136356857D02*
X158474000Y-136356857D01*
X158474000Y-135156857D01*
X158331142Y-131142857D02*
X158331142Y-129942857D01*
X159016857Y-131142857D01*
X159016857Y-129942857D01*
D11*
X101905000Y-105080000D02*
X103683000Y-105080000D01*
X107366000Y-137465000D02*
X117145000Y-137465000D01*
X103175000Y-138735000D02*
X106096000Y-138735000D01*
X149530000Y-138735000D02*
X149530000Y-137211000D01*
X126416000Y-138735000D02*
X149530000Y-138735000D01*
X149530000Y-100635000D02*
X149530000Y-126924000D01*
X126416000Y-100635000D02*
X149530000Y-100635000D01*
X126416000Y-138735000D02*
X126416000Y-100635000D01*
X126035000Y-106350000D02*
X124765000Y-105080000D01*
X100635000Y-106350000D02*
X101905000Y-105080000D01*
X100635000Y-132385000D02*
X100635000Y-106350000D01*
X103175000Y-138735000D02*
X103175000Y-133655000D01*
X106096000Y-138735000D02*
G75*
G02X107366000Y-137465000I1270000J0D01*
G01*
X117145000Y-137465000D02*
G75*
G02X118415000Y-138735000I0J-1270000D01*
G01*
X126035000Y-138735000D02*
X118415000Y-138735000D01*
X126035000Y-106350000D02*
X126035000Y-138735000D01*
X101905000Y-132385000D02*
X100635000Y-132385000D01*
X101905000Y-132385000D02*
G75*
G02X103175000Y-133655000I0J-1270000D01*
G01*
D10*
X151946285Y-135900000D02*
X152517714Y-135900000D01*
X151832000Y-136242857D02*
X152232000Y-135042857D01*
X152632000Y-136242857D01*
X153717714Y-136128571D02*
X153660571Y-136185714D01*
X153489142Y-136242857D01*
X153374857Y-136242857D01*
X153203428Y-136185714D01*
X153089142Y-136071428D01*
X153032000Y-135957142D01*
X152974857Y-135728571D01*
X152974857Y-135557142D01*
X153032000Y-135328571D01*
X153089142Y-135214285D01*
X153203428Y-135100000D01*
X153374857Y-135042857D01*
X153489142Y-135042857D01*
X153660571Y-135100000D01*
X153717714Y-135157142D01*
X151946285Y-130800000D02*
X152517714Y-130800000D01*
X151832000Y-131142857D02*
X152232000Y-129942857D01*
X152632000Y-131142857D01*
X153717714Y-131028571D02*
X153660571Y-131085714D01*
X153489142Y-131142857D01*
X153374857Y-131142857D01*
X153203428Y-131085714D01*
X153089142Y-130971428D01*
X153032000Y-130857142D01*
X152974857Y-130628571D01*
X152974857Y-130457142D01*
X153032000Y-130228571D01*
X153089142Y-130114285D01*
X153203428Y-130000000D01*
X153374857Y-129942857D01*
X153489142Y-129942857D01*
X153660571Y-130000000D01*
X153717714Y-130057142D01*
D12*
X160000000Y-101000000D02*
X160000000Y-127000000D01*
X160000000Y-132100000D02*
X160000000Y-129000000D01*
X143500000Y-128000000D02*
G75*
G03X144500000Y-129000000I1000000J0D01*
G01*
X144500000Y-127000000D02*
G75*
G03X143500000Y-128000000I0J-1000000D01*
G01*
X144500000Y-127000000D02*
X160000000Y-127000000D01*
X144500000Y-129000000D02*
X160000000Y-129000000D01*
X118500000Y-140000000D02*
X159000000Y-140000000D01*
X101000000Y-140000000D02*
X106000000Y-140000000D01*
X108000000Y-138000000D02*
X116500000Y-138000000D01*
X117500000Y-139000000D02*
G75*
G03X118500000Y-140000000I1000000J0D01*
G01*
X117500000Y-139000000D02*
G75*
G03X116500000Y-138000000I-1000000J0D01*
G01*
X107998255Y-138000002D02*
G75*
G03X107000000Y-139000000I1745J-999998D01*
G01*
X106000000Y-140000000D02*
G75*
G03X107000000Y-139000000I0J1000000D01*
G01*
X101000000Y-100000000D02*
G75*
G03X100000000Y-101000000I0J-1000000D01*
G01*
X100000000Y-139000000D02*
G75*
G03X101000000Y-140000000I1000000J0D01*
G01*
X159000000Y-140000000D02*
G75*
G03X160000000Y-139000000I0J1000000D01*
G01*
X160000000Y-101000000D02*
G75*
G03X159000000Y-100000000I-1000000J0D01*
G01*
D10*
X144366571Y-126514428D02*
X142866571Y-126514428D01*
X144366571Y-124943000D02*
X143652285Y-125443000D01*
X144366571Y-125800142D02*
X142866571Y-125800142D01*
X142866571Y-125228714D01*
X142938000Y-125085857D01*
X143009428Y-125014428D01*
X143152285Y-124943000D01*
X143366571Y-124943000D01*
X143509428Y-125014428D01*
X143580857Y-125085857D01*
X143652285Y-125228714D01*
X143652285Y-125800142D01*
X144366571Y-124300142D02*
X142866571Y-124300142D01*
X143938000Y-123800142D01*
X142866571Y-123300142D01*
X144366571Y-123300142D01*
X143795142Y-122585857D02*
X143795142Y-121443000D01*
X142866571Y-120443000D02*
X142866571Y-120300142D01*
X142938000Y-120157285D01*
X143009428Y-120085857D01*
X143152285Y-120014428D01*
X143438000Y-119943000D01*
X143795142Y-119943000D01*
X144080857Y-120014428D01*
X144223714Y-120085857D01*
X144295142Y-120157285D01*
X144366571Y-120300142D01*
X144366571Y-120443000D01*
X144295142Y-120585857D01*
X144223714Y-120657285D01*
X144080857Y-120728714D01*
X143795142Y-120800142D01*
X143438000Y-120800142D01*
X143152285Y-120728714D01*
X143009428Y-120657285D01*
X142938000Y-120585857D01*
X142866571Y-120443000D01*
X142866571Y-119443000D02*
X142866571Y-118514428D01*
X143438000Y-119014428D01*
X143438000Y-118800142D01*
X143509428Y-118657285D01*
X143580857Y-118585857D01*
X143723714Y-118514428D01*
X144080857Y-118514428D01*
X144223714Y-118585857D01*
X144295142Y-118657285D01*
X144366571Y-118800142D01*
X144366571Y-119228714D01*
X144295142Y-119371571D01*
X144223714Y-119443000D01*
X143795142Y-117871571D02*
X143795142Y-116728714D01*
X142866571Y-115728714D02*
X142866571Y-115585857D01*
X142938000Y-115443000D01*
X143009428Y-115371571D01*
X143152285Y-115300142D01*
X143438000Y-115228714D01*
X143795142Y-115228714D01*
X144080857Y-115300142D01*
X144223714Y-115371571D01*
X144295142Y-115443000D01*
X144366571Y-115585857D01*
X144366571Y-115728714D01*
X144295142Y-115871571D01*
X144223714Y-115943000D01*
X144080857Y-116014428D01*
X143795142Y-116085857D01*
X143438000Y-116085857D01*
X143152285Y-116014428D01*
X143009428Y-115943000D01*
X142938000Y-115871571D01*
X142866571Y-115728714D01*
X142866571Y-113871571D02*
X142866571Y-114585857D01*
X143580857Y-114657285D01*
X143509428Y-114585857D01*
X143438000Y-114443000D01*
X143438000Y-114085857D01*
X143509428Y-113943000D01*
X143580857Y-113871571D01*
X143723714Y-113800142D01*
X144080857Y-113800142D01*
X144223714Y-113871571D01*
X144295142Y-113943000D01*
X144366571Y-114085857D01*
X144366571Y-114443000D01*
X144295142Y-114585857D01*
X144223714Y-114657285D01*
X115778571Y-125028571D02*
X114278571Y-125028571D01*
X114278571Y-124671428D01*
X114350000Y-124457142D01*
X114492857Y-124314285D01*
X114635714Y-124242857D01*
X114921428Y-124171428D01*
X115135714Y-124171428D01*
X115421428Y-124242857D01*
X115564285Y-124314285D01*
X115707142Y-124457142D01*
X115778571Y-124671428D01*
X115778571Y-125028571D01*
X115778571Y-122742857D02*
X115778571Y-123600000D01*
X115778571Y-123171428D02*
X114278571Y-123171428D01*
X114492857Y-123314285D01*
X114635714Y-123457142D01*
X114707142Y-123600000D01*
X115778571Y-120957142D02*
X114278571Y-120957142D01*
X115350000Y-120457142D01*
X114278571Y-119957142D01*
X115778571Y-119957142D01*
X115778571Y-119242857D02*
X114778571Y-119242857D01*
X114278571Y-119242857D02*
X114350000Y-119314285D01*
X114421428Y-119242857D01*
X114350000Y-119171428D01*
X114278571Y-119242857D01*
X114421428Y-119242857D01*
X114778571Y-118528571D02*
X115778571Y-118528571D01*
X114921428Y-118528571D02*
X114850000Y-118457142D01*
X114778571Y-118314285D01*
X114778571Y-118100000D01*
X114850000Y-117957142D01*
X114992857Y-117885714D01*
X115778571Y-117885714D01*
X115778571Y-117171428D02*
X114778571Y-117171428D01*
X114278571Y-117171428D02*
X114350000Y-117242857D01*
X114421428Y-117171428D01*
X114350000Y-117100000D01*
X114278571Y-117171428D01*
X114421428Y-117171428D01*
X124078571Y-107792857D02*
X122578571Y-107792857D01*
X122578571Y-107435714D01*
X122650000Y-107221428D01*
X122792857Y-107078571D01*
X122935714Y-107007142D01*
X123221428Y-106935714D01*
X123435714Y-106935714D01*
X123721428Y-107007142D01*
X123864285Y-107078571D01*
X124007142Y-107221428D01*
X124078571Y-107435714D01*
X124078571Y-107792857D01*
X123292857Y-105792857D02*
X123364285Y-105578571D01*
X123435714Y-105507142D01*
X123578571Y-105435714D01*
X123792857Y-105435714D01*
X123935714Y-105507142D01*
X124007142Y-105578571D01*
X124078571Y-105721428D01*
X124078571Y-106292857D01*
X122578571Y-106292857D01*
X122578571Y-105792857D01*
X122650000Y-105650000D01*
X122721428Y-105578571D01*
X122864285Y-105507142D01*
X123007142Y-105507142D01*
X123150000Y-105578571D01*
X123221428Y-105650000D01*
X123292857Y-105792857D01*
X123292857Y-106292857D01*
X122650000Y-104007142D02*
X122578571Y-104150000D01*
X122578571Y-104364285D01*
X122650000Y-104578571D01*
X122792857Y-104721428D01*
X122935714Y-104792857D01*
X123221428Y-104864285D01*
X123435714Y-104864285D01*
X123721428Y-104792857D01*
X123864285Y-104721428D01*
X124007142Y-104578571D01*
X124078571Y-104364285D01*
X124078571Y-104221428D01*
X124007142Y-104007142D01*
X123935714Y-103935714D01*
X123435714Y-103935714D01*
X123435714Y-104221428D01*
X121478571Y-106207142D02*
X119978571Y-106207142D01*
X119978571Y-105850000D01*
X120050000Y-105635714D01*
X120192857Y-105492857D01*
X120335714Y-105421428D01*
X120621428Y-105350000D01*
X120835714Y-105350000D01*
X121121428Y-105421428D01*
X121264285Y-105492857D01*
X121407142Y-105635714D01*
X121478571Y-105850000D01*
X121478571Y-106207142D01*
X120121428Y-104778571D02*
X120050000Y-104707142D01*
X119978571Y-104564285D01*
X119978571Y-104207142D01*
X120050000Y-104064285D01*
X120121428Y-103992857D01*
X120264285Y-103921428D01*
X120407142Y-103921428D01*
X120621428Y-103992857D01*
X121478571Y-104850000D01*
X121478571Y-103921428D01*
X118878571Y-106207142D02*
X117378571Y-106207142D01*
X117378571Y-105850000D01*
X117450000Y-105635714D01*
X117592857Y-105492857D01*
X117735714Y-105421428D01*
X118021428Y-105350000D01*
X118235714Y-105350000D01*
X118521428Y-105421428D01*
X118664285Y-105492857D01*
X118807142Y-105635714D01*
X118878571Y-105850000D01*
X118878571Y-106207142D01*
X118878571Y-103921428D02*
X118878571Y-104778571D01*
X118878571Y-104350000D02*
X117378571Y-104350000D01*
X117592857Y-104492857D01*
X117735714Y-104635714D01*
X117807142Y-104778571D01*
X116378571Y-106207142D02*
X114878571Y-106207142D01*
X114878571Y-105850000D01*
X114950000Y-105635714D01*
X115092857Y-105492857D01*
X115235714Y-105421428D01*
X115521428Y-105350000D01*
X115735714Y-105350000D01*
X116021428Y-105421428D01*
X116164285Y-105492857D01*
X116307142Y-105635714D01*
X116378571Y-105850000D01*
X116378571Y-106207142D01*
X114878571Y-104421428D02*
X114878571Y-104278571D01*
X114950000Y-104135714D01*
X115021428Y-104064285D01*
X115164285Y-103992857D01*
X115450000Y-103921428D01*
X115807142Y-103921428D01*
X116092857Y-103992857D01*
X116235714Y-104064285D01*
X116307142Y-104135714D01*
X116378571Y-104278571D01*
X116378571Y-104421428D01*
X116307142Y-104564285D01*
X116235714Y-104635714D01*
X116092857Y-104707142D01*
X115807142Y-104778571D01*
X115450000Y-104778571D01*
X115164285Y-104707142D01*
X115021428Y-104635714D01*
X114950000Y-104564285D01*
X114878571Y-104421428D01*
X113350000Y-106071428D02*
X113350000Y-105357142D01*
X113778571Y-106214285D02*
X112278571Y-105714285D01*
X113778571Y-105214285D01*
X112278571Y-104428571D02*
X112278571Y-104285714D01*
X112350000Y-104142857D01*
X112421428Y-104071428D01*
X112564285Y-104000000D01*
X112850000Y-103928571D01*
X113207142Y-103928571D01*
X113492857Y-104000000D01*
X113635714Y-104071428D01*
X113707142Y-104142857D01*
X113778571Y-104285714D01*
X113778571Y-104428571D01*
X113707142Y-104571428D01*
X113635714Y-104642857D01*
X113492857Y-104714285D01*
X113207142Y-104785714D01*
X112850000Y-104785714D01*
X112564285Y-104714285D01*
X112421428Y-104642857D01*
X112350000Y-104571428D01*
X112278571Y-104428571D01*
X110807142Y-110100000D02*
X110807142Y-108957142D01*
X111378571Y-109528571D02*
X110235714Y-109528571D01*
X109878571Y-108385714D02*
X109878571Y-107457142D01*
X110450000Y-107957142D01*
X110450000Y-107742857D01*
X110521428Y-107600000D01*
X110592857Y-107528571D01*
X110735714Y-107457142D01*
X111092857Y-107457142D01*
X111235714Y-107528571D01*
X111307142Y-107600000D01*
X111378571Y-107742857D01*
X111378571Y-108171428D01*
X111307142Y-108314285D01*
X111235714Y-108385714D01*
X111235714Y-106814285D02*
X111307142Y-106742857D01*
X111378571Y-106814285D01*
X111307142Y-106885714D01*
X111235714Y-106814285D01*
X111378571Y-106814285D01*
X109878571Y-106242857D02*
X109878571Y-105314285D01*
X110450000Y-105814285D01*
X110450000Y-105600000D01*
X110521428Y-105457142D01*
X110592857Y-105385714D01*
X110735714Y-105314285D01*
X111092857Y-105314285D01*
X111235714Y-105385714D01*
X111307142Y-105457142D01*
X111378571Y-105600000D01*
X111378571Y-106028571D01*
X111307142Y-106171428D01*
X111235714Y-106242857D01*
X109878571Y-104885714D02*
X111378571Y-104385714D01*
X109878571Y-103885714D01*
X108207142Y-107928571D02*
X108207142Y-106785714D01*
X108778571Y-107357142D02*
X107635714Y-107357142D01*
X107278571Y-105357142D02*
X107278571Y-106071428D01*
X107992857Y-106142857D01*
X107921428Y-106071428D01*
X107850000Y-105928571D01*
X107850000Y-105571428D01*
X107921428Y-105428571D01*
X107992857Y-105357142D01*
X108135714Y-105285714D01*
X108492857Y-105285714D01*
X108635714Y-105357142D01*
X108707142Y-105428571D01*
X108778571Y-105571428D01*
X108778571Y-105928571D01*
X108707142Y-106071428D01*
X108635714Y-106142857D01*
X107278571Y-104857142D02*
X108778571Y-104357142D01*
X107278571Y-103857142D01*
X104750000Y-106842857D02*
X104678571Y-106985714D01*
X104678571Y-107200000D01*
X104750000Y-107414285D01*
X104892857Y-107557142D01*
X105035714Y-107628571D01*
X105321428Y-107700000D01*
X105535714Y-107700000D01*
X105821428Y-107628571D01*
X105964285Y-107557142D01*
X106107142Y-107414285D01*
X106178571Y-107200000D01*
X106178571Y-107057142D01*
X106107142Y-106842857D01*
X106035714Y-106771428D01*
X105535714Y-106771428D01*
X105535714Y-107057142D01*
X106178571Y-106128571D02*
X104678571Y-106128571D01*
X106178571Y-105271428D01*
X104678571Y-105271428D01*
X106178571Y-104557142D02*
X104678571Y-104557142D01*
X104678571Y-104200000D01*
X104750000Y-103985714D01*
X104892857Y-103842857D01*
X105035714Y-103771428D01*
X105321428Y-103700000D01*
X105535714Y-103700000D01*
X105821428Y-103771428D01*
X105964285Y-103842857D01*
X106107142Y-103985714D01*
X106178571Y-104200000D01*
X106178571Y-104557142D01*
D12*
X143500000Y-133100000D02*
G75*
G03X144500000Y-134100000I1000000J0D01*
G01*
X144500000Y-132100000D02*
G75*
G03X143500000Y-133100000I0J-1000000D01*
G01*
X160000000Y-134100000D02*
X160000000Y-139000000D01*
X144500000Y-134100000D02*
X160000000Y-134100000D01*
X144500000Y-132100000D02*
X160000000Y-132100000D01*
X101000000Y-100000000D02*
X159000000Y-100000000D01*
X100000000Y-101000000D02*
X100000000Y-139000000D01*
D13*
G04 #@! TO.C,J2*
X157700000Y-106400000D02*
X152500000Y-106400000D01*
X152500000Y-106400000D02*
X152500000Y-119120000D01*
X152500000Y-119120000D02*
X157700000Y-119120000D01*
X157700000Y-109700000D02*
X157700000Y-115780000D01*
X157700000Y-106400000D02*
X157700000Y-108200000D01*
X157700000Y-117330000D02*
X157700000Y-119120000D01*
X156200000Y-106400000D02*
X156200000Y-107150000D01*
X156200000Y-107150000D02*
X153250000Y-107150000D01*
X153250000Y-107150000D02*
X153250000Y-112700000D01*
X156200000Y-119120000D02*
X156200000Y-118370000D01*
X156200000Y-118370000D02*
X153250000Y-118370000D01*
X153250000Y-118250000D02*
X153250000Y-112700000D01*
G04 #@! TO.C,J3*
X124610000Y-103330000D02*
X124610000Y-100670000D01*
X106770000Y-103330000D02*
X124610000Y-103330000D01*
X106770000Y-100670000D02*
X124610000Y-100670000D01*
X106770000Y-103330000D02*
X106770000Y-100670000D01*
X105500000Y-103330000D02*
X104170000Y-103330000D01*
X104170000Y-103330000D02*
X104170000Y-102000000D01*
D14*
G04 #@! TO.C,G\002A\002A\002A*
G36*
X108062361Y-128976529D02*
X108123932Y-128870931D01*
X108205602Y-128777385D01*
X108290231Y-128717042D01*
X108335774Y-128705573D01*
X108392862Y-128720521D01*
X108501847Y-128761778D01*
X108650365Y-128824196D01*
X108826050Y-128902625D01*
X108969507Y-128969475D01*
X109298611Y-129122348D01*
X109579488Y-129243725D01*
X109826299Y-129337138D01*
X110053208Y-129406118D01*
X110274374Y-129454195D01*
X110503961Y-129484901D01*
X110756131Y-129501766D01*
X111045045Y-129508322D01*
X111132536Y-129508786D01*
X111381030Y-129507325D01*
X111574108Y-129500618D01*
X111727792Y-129487394D01*
X111858104Y-129466377D01*
X111955352Y-129443348D01*
X112263382Y-129342412D01*
X112506449Y-129219107D01*
X112688995Y-129068463D01*
X112815458Y-128885509D01*
X112890278Y-128665277D01*
X112917895Y-128402797D01*
X112918250Y-128365493D01*
X112898248Y-128107833D01*
X112832700Y-127886201D01*
X112713294Y-127675526D01*
X112669736Y-127615951D01*
X112573205Y-127512380D01*
X112451513Y-127413205D01*
X112324956Y-127332147D01*
X112213827Y-127282923D01*
X112164431Y-127274366D01*
X112086103Y-127251226D01*
X111993067Y-127193611D01*
X111968051Y-127172827D01*
X111895755Y-127097129D01*
X111863391Y-127020499D01*
X111856874Y-126908749D01*
X111856951Y-126903108D01*
X111867478Y-126790744D01*
X111891065Y-126703561D01*
X111903543Y-126681852D01*
X111953882Y-126642253D01*
X112051042Y-126581471D01*
X112177715Y-126510052D01*
X112237670Y-126478322D01*
X112506995Y-126320737D01*
X112709992Y-126159063D01*
X112851831Y-125986564D01*
X112937685Y-125796504D01*
X112972725Y-125582147D01*
X112974144Y-125519057D01*
X112940557Y-125257044D01*
X112845172Y-125022695D01*
X112693264Y-124824876D01*
X112490107Y-124672451D01*
X112461348Y-124657020D01*
X112263566Y-124580746D01*
X112013130Y-124524867D01*
X111726798Y-124492402D01*
X111508169Y-124485220D01*
X111013435Y-124511994D01*
X110536074Y-124590181D01*
X110085014Y-124716731D01*
X109669180Y-124888593D01*
X109297500Y-125102716D01*
X108989723Y-125345933D01*
X108840656Y-125480902D01*
X108728208Y-125572263D01*
X108639412Y-125627991D01*
X108561303Y-125656060D01*
X108480914Y-125664444D01*
X108471705Y-125664507D01*
X108361101Y-125633662D01*
X108287336Y-125544642D01*
X108254180Y-125402721D01*
X108252676Y-125358089D01*
X108280274Y-125185042D01*
X108365045Y-125012286D01*
X108509953Y-124836464D01*
X108717962Y-124654216D01*
X108992038Y-124462186D01*
X109107210Y-124390160D01*
X109540167Y-124163149D01*
X110018300Y-123978842D01*
X110526592Y-123841266D01*
X111050022Y-123754450D01*
X111573574Y-123722420D01*
X111597606Y-123722330D01*
X111999003Y-123743037D01*
X112350401Y-123808132D01*
X112660209Y-123920674D01*
X112936833Y-124083723D01*
X113188683Y-124300338D01*
X113190228Y-124301898D01*
X113363107Y-124497586D01*
X113495607Y-124700723D01*
X113599079Y-124932351D01*
X113684870Y-125213517D01*
X113687630Y-125224272D01*
X113733204Y-125422610D01*
X113753857Y-125579371D01*
X113749821Y-125719960D01*
X113721324Y-125869786D01*
X113694359Y-125968591D01*
X113622046Y-126180312D01*
X113530299Y-126371970D01*
X113405873Y-126568557D01*
X113300526Y-126711695D01*
X113123100Y-126943183D01*
X113268800Y-127135605D01*
X113470150Y-127450961D01*
X113612297Y-127781544D01*
X113695282Y-128119224D01*
X113719144Y-128455868D01*
X113683923Y-128783345D01*
X113589658Y-129093524D01*
X113436391Y-129378271D01*
X113256745Y-129597301D01*
X113036410Y-129798729D01*
X112811201Y-129954417D01*
X112564559Y-130072378D01*
X112279927Y-130160628D01*
X111962449Y-130223730D01*
X111481480Y-130271964D01*
X110971552Y-130269892D01*
X110452732Y-130219322D01*
X109945086Y-130122061D01*
X109542732Y-130005855D01*
X109355178Y-129938825D01*
X109148333Y-129859391D01*
X108934688Y-129772953D01*
X108726733Y-129684910D01*
X108536957Y-129600661D01*
X108377852Y-129525607D01*
X108261906Y-129465147D01*
X108204295Y-129427238D01*
X108107027Y-129303252D01*
X108048119Y-129155253D01*
X108038029Y-129073026D01*
X108062361Y-128976529D01*
X108062361Y-128976529D01*
G37*
X108062361Y-128976529D02*
X108123932Y-128870931D01*
X108205602Y-128777385D01*
X108290231Y-128717042D01*
X108335774Y-128705573D01*
X108392862Y-128720521D01*
X108501847Y-128761778D01*
X108650365Y-128824196D01*
X108826050Y-128902625D01*
X108969507Y-128969475D01*
X109298611Y-129122348D01*
X109579488Y-129243725D01*
X109826299Y-129337138D01*
X110053208Y-129406118D01*
X110274374Y-129454195D01*
X110503961Y-129484901D01*
X110756131Y-129501766D01*
X111045045Y-129508322D01*
X111132536Y-129508786D01*
X111381030Y-129507325D01*
X111574108Y-129500618D01*
X111727792Y-129487394D01*
X111858104Y-129466377D01*
X111955352Y-129443348D01*
X112263382Y-129342412D01*
X112506449Y-129219107D01*
X112688995Y-129068463D01*
X112815458Y-128885509D01*
X112890278Y-128665277D01*
X112917895Y-128402797D01*
X112918250Y-128365493D01*
X112898248Y-128107833D01*
X112832700Y-127886201D01*
X112713294Y-127675526D01*
X112669736Y-127615951D01*
X112573205Y-127512380D01*
X112451513Y-127413205D01*
X112324956Y-127332147D01*
X112213827Y-127282923D01*
X112164431Y-127274366D01*
X112086103Y-127251226D01*
X111993067Y-127193611D01*
X111968051Y-127172827D01*
X111895755Y-127097129D01*
X111863391Y-127020499D01*
X111856874Y-126908749D01*
X111856951Y-126903108D01*
X111867478Y-126790744D01*
X111891065Y-126703561D01*
X111903543Y-126681852D01*
X111953882Y-126642253D01*
X112051042Y-126581471D01*
X112177715Y-126510052D01*
X112237670Y-126478322D01*
X112506995Y-126320737D01*
X112709992Y-126159063D01*
X112851831Y-125986564D01*
X112937685Y-125796504D01*
X112972725Y-125582147D01*
X112974144Y-125519057D01*
X112940557Y-125257044D01*
X112845172Y-125022695D01*
X112693264Y-124824876D01*
X112490107Y-124672451D01*
X112461348Y-124657020D01*
X112263566Y-124580746D01*
X112013130Y-124524867D01*
X111726798Y-124492402D01*
X111508169Y-124485220D01*
X111013435Y-124511994D01*
X110536074Y-124590181D01*
X110085014Y-124716731D01*
X109669180Y-124888593D01*
X109297500Y-125102716D01*
X108989723Y-125345933D01*
X108840656Y-125480902D01*
X108728208Y-125572263D01*
X108639412Y-125627991D01*
X108561303Y-125656060D01*
X108480914Y-125664444D01*
X108471705Y-125664507D01*
X108361101Y-125633662D01*
X108287336Y-125544642D01*
X108254180Y-125402721D01*
X108252676Y-125358089D01*
X108280274Y-125185042D01*
X108365045Y-125012286D01*
X108509953Y-124836464D01*
X108717962Y-124654216D01*
X108992038Y-124462186D01*
X109107210Y-124390160D01*
X109540167Y-124163149D01*
X110018300Y-123978842D01*
X110526592Y-123841266D01*
X111050022Y-123754450D01*
X111573574Y-123722420D01*
X111597606Y-123722330D01*
X111999003Y-123743037D01*
X112350401Y-123808132D01*
X112660209Y-123920674D01*
X112936833Y-124083723D01*
X113188683Y-124300338D01*
X113190228Y-124301898D01*
X113363107Y-124497586D01*
X113495607Y-124700723D01*
X113599079Y-124932351D01*
X113684870Y-125213517D01*
X113687630Y-125224272D01*
X113733204Y-125422610D01*
X113753857Y-125579371D01*
X113749821Y-125719960D01*
X113721324Y-125869786D01*
X113694359Y-125968591D01*
X113622046Y-126180312D01*
X113530299Y-126371970D01*
X113405873Y-126568557D01*
X113300526Y-126711695D01*
X113123100Y-126943183D01*
X113268800Y-127135605D01*
X113470150Y-127450961D01*
X113612297Y-127781544D01*
X113695282Y-128119224D01*
X113719144Y-128455868D01*
X113683923Y-128783345D01*
X113589658Y-129093524D01*
X113436391Y-129378271D01*
X113256745Y-129597301D01*
X113036410Y-129798729D01*
X112811201Y-129954417D01*
X112564559Y-130072378D01*
X112279927Y-130160628D01*
X111962449Y-130223730D01*
X111481480Y-130271964D01*
X110971552Y-130269892D01*
X110452732Y-130219322D01*
X109945086Y-130122061D01*
X109542732Y-130005855D01*
X109355178Y-129938825D01*
X109148333Y-129859391D01*
X108934688Y-129772953D01*
X108726733Y-129684910D01*
X108536957Y-129600661D01*
X108377852Y-129525607D01*
X108261906Y-129465147D01*
X108204295Y-129427238D01*
X108107027Y-129303252D01*
X108048119Y-129155253D01*
X108038029Y-129073026D01*
X108062361Y-128976529D01*
G36*
X111516561Y-113018930D02*
X111519334Y-112967283D01*
X111531162Y-112760815D01*
X111544143Y-112615150D01*
X111563999Y-112519688D01*
X111596450Y-112463829D01*
X111647218Y-112436973D01*
X111722025Y-112428520D01*
X111810464Y-112427887D01*
X111930474Y-112431242D01*
X112019732Y-112439971D01*
X112055287Y-112450310D01*
X112056709Y-112494401D01*
X112029162Y-112566615D01*
X111978479Y-112703834D01*
X111953659Y-112856811D01*
X111952959Y-113009959D01*
X111974635Y-113147686D01*
X112016944Y-113254405D01*
X112078141Y-113314525D01*
X112113688Y-113322253D01*
X112166262Y-113309706D01*
X112215981Y-113265752D01*
X112268847Y-113180926D01*
X112330864Y-113045763D01*
X112401050Y-112869106D01*
X112497964Y-112643279D01*
X112595816Y-112480297D01*
X112703517Y-112371898D01*
X112829981Y-112309825D01*
X112984119Y-112285816D01*
X113031523Y-112284789D01*
X113133498Y-112290713D01*
X113210263Y-112317140D01*
X113289069Y-112377050D01*
X113351311Y-112437108D01*
X113489204Y-112613330D01*
X113562835Y-112785910D01*
X113606789Y-112980999D01*
X113633057Y-113201541D01*
X113640442Y-113422129D01*
X113627744Y-113617358D01*
X113607011Y-113722722D01*
X113560379Y-113863025D01*
X113506899Y-113946790D01*
X113428797Y-113988187D01*
X113308296Y-114001388D01*
X113256747Y-114001972D01*
X113146183Y-113999535D01*
X113079170Y-113984072D01*
X113050903Y-113943354D01*
X113056579Y-113865151D01*
X113091395Y-113737235D01*
X113118490Y-113649982D01*
X113166489Y-113456722D01*
X113187217Y-113279633D01*
X113180311Y-113134033D01*
X113145409Y-113035239D01*
X113133360Y-113020724D01*
X113060347Y-112968107D01*
X112993553Y-112967965D01*
X112928954Y-113024472D01*
X112862527Y-113141801D01*
X112790248Y-113324123D01*
X112762371Y-113405419D01*
X112672336Y-113636346D01*
X112573233Y-113803570D01*
X112456317Y-113914934D01*
X112312845Y-113978283D01*
X112134072Y-114001461D01*
X112097367Y-114001972D01*
X111938314Y-113971011D01*
X111798349Y-113876379D01*
X111674458Y-113715452D01*
X111598150Y-113567472D01*
X111553610Y-113463455D01*
X111525938Y-113377586D01*
X111512377Y-113288871D01*
X111510170Y-113176317D01*
X111516561Y-113018930D01*
X111516561Y-113018930D01*
G37*
X111516561Y-113018930D02*
X111519334Y-112967283D01*
X111531162Y-112760815D01*
X111544143Y-112615150D01*
X111563999Y-112519688D01*
X111596450Y-112463829D01*
X111647218Y-112436973D01*
X111722025Y-112428520D01*
X111810464Y-112427887D01*
X111930474Y-112431242D01*
X112019732Y-112439971D01*
X112055287Y-112450310D01*
X112056709Y-112494401D01*
X112029162Y-112566615D01*
X111978479Y-112703834D01*
X111953659Y-112856811D01*
X111952959Y-113009959D01*
X111974635Y-113147686D01*
X112016944Y-113254405D01*
X112078141Y-113314525D01*
X112113688Y-113322253D01*
X112166262Y-113309706D01*
X112215981Y-113265752D01*
X112268847Y-113180926D01*
X112330864Y-113045763D01*
X112401050Y-112869106D01*
X112497964Y-112643279D01*
X112595816Y-112480297D01*
X112703517Y-112371898D01*
X112829981Y-112309825D01*
X112984119Y-112285816D01*
X113031523Y-112284789D01*
X113133498Y-112290713D01*
X113210263Y-112317140D01*
X113289069Y-112377050D01*
X113351311Y-112437108D01*
X113489204Y-112613330D01*
X113562835Y-112785910D01*
X113606789Y-112980999D01*
X113633057Y-113201541D01*
X113640442Y-113422129D01*
X113627744Y-113617358D01*
X113607011Y-113722722D01*
X113560379Y-113863025D01*
X113506899Y-113946790D01*
X113428797Y-113988187D01*
X113308296Y-114001388D01*
X113256747Y-114001972D01*
X113146183Y-113999535D01*
X113079170Y-113984072D01*
X113050903Y-113943354D01*
X113056579Y-113865151D01*
X113091395Y-113737235D01*
X113118490Y-113649982D01*
X113166489Y-113456722D01*
X113187217Y-113279633D01*
X113180311Y-113134033D01*
X113145409Y-113035239D01*
X113133360Y-113020724D01*
X113060347Y-112968107D01*
X112993553Y-112967965D01*
X112928954Y-113024472D01*
X112862527Y-113141801D01*
X112790248Y-113324123D01*
X112762371Y-113405419D01*
X112672336Y-113636346D01*
X112573233Y-113803570D01*
X112456317Y-113914934D01*
X112312845Y-113978283D01*
X112134072Y-114001461D01*
X112097367Y-114001972D01*
X111938314Y-113971011D01*
X111798349Y-113876379D01*
X111674458Y-113715452D01*
X111598150Y-113567472D01*
X111553610Y-113463455D01*
X111525938Y-113377586D01*
X111512377Y-113288871D01*
X111510170Y-113176317D01*
X111516561Y-113018930D01*
G36*
X111482491Y-121883805D02*
X111530475Y-121623776D01*
X111624880Y-121417037D01*
X111767244Y-121261771D01*
X111959106Y-121156159D01*
X112202004Y-121098385D01*
X112421765Y-121085352D01*
X112688733Y-121085352D01*
X112693733Y-121666690D01*
X112694957Y-121874624D01*
X112695057Y-122067380D01*
X112694101Y-122229134D01*
X112692158Y-122344064D01*
X112690657Y-122382183D01*
X112690002Y-122470007D01*
X112712301Y-122507716D01*
X112772298Y-122516273D01*
X112785020Y-122516338D01*
X112925558Y-122482310D01*
X113044370Y-122386153D01*
X113100345Y-122301295D01*
X113138385Y-122173993D01*
X113152157Y-122001158D01*
X113142141Y-121804391D01*
X113108817Y-121605290D01*
X113082715Y-121508891D01*
X113046660Y-121392834D01*
X113020922Y-121308015D01*
X113011166Y-121273169D01*
X113043259Y-121268262D01*
X113126498Y-121265013D01*
X113206640Y-121264225D01*
X113339916Y-121275141D01*
X113430459Y-121316764D01*
X113493937Y-121402407D01*
X113546019Y-121545386D01*
X113548806Y-121554977D01*
X113571343Y-121671651D01*
X113588372Y-121833101D01*
X113599086Y-122016868D01*
X113602675Y-122200495D01*
X113598330Y-122361524D01*
X113585243Y-122477497D01*
X113582467Y-122489653D01*
X113520124Y-122672024D01*
X113433720Y-122840591D01*
X113335209Y-122975134D01*
X113253459Y-123046087D01*
X113033665Y-123146717D01*
X112775946Y-123208912D01*
X112506059Y-123226854D01*
X112461121Y-123225101D01*
X112240106Y-123194710D01*
X112240106Y-122508892D01*
X112271472Y-122483548D01*
X112287921Y-122411776D01*
X112294237Y-122284826D01*
X112295212Y-122122817D01*
X112294310Y-121950379D01*
X112290170Y-121837162D01*
X112280637Y-121770846D01*
X112263557Y-121739111D01*
X112236776Y-121729638D01*
X112226407Y-121729296D01*
X112132768Y-121759313D01*
X112035527Y-121835369D01*
X111956105Y-121936473D01*
X111917465Y-122032059D01*
X111922578Y-122182611D01*
X111984111Y-122327337D01*
X112089912Y-122439998D01*
X112113493Y-122455304D01*
X112189041Y-122496560D01*
X112240106Y-122508892D01*
X112240106Y-123194710D01*
X112218214Y-123191699D01*
X112017970Y-123115761D01*
X111840044Y-122988648D01*
X111788094Y-122939361D01*
X111645740Y-122772259D01*
X111552227Y-122596301D01*
X111498761Y-122390396D01*
X111479390Y-122198942D01*
X111482491Y-121883805D01*
X111482491Y-121883805D01*
G37*
X111482491Y-121883805D02*
X111530475Y-121623776D01*
X111624880Y-121417037D01*
X111767244Y-121261771D01*
X111959106Y-121156159D01*
X112202004Y-121098385D01*
X112421765Y-121085352D01*
X112688733Y-121085352D01*
X112693733Y-121666690D01*
X112694957Y-121874624D01*
X112695057Y-122067380D01*
X112694101Y-122229134D01*
X112692158Y-122344064D01*
X112690657Y-122382183D01*
X112690002Y-122470007D01*
X112712301Y-122507716D01*
X112772298Y-122516273D01*
X112785020Y-122516338D01*
X112925558Y-122482310D01*
X113044370Y-122386153D01*
X113100345Y-122301295D01*
X113138385Y-122173993D01*
X113152157Y-122001158D01*
X113142141Y-121804391D01*
X113108817Y-121605290D01*
X113082715Y-121508891D01*
X113046660Y-121392834D01*
X113020922Y-121308015D01*
X113011166Y-121273169D01*
X113043259Y-121268262D01*
X113126498Y-121265013D01*
X113206640Y-121264225D01*
X113339916Y-121275141D01*
X113430459Y-121316764D01*
X113493937Y-121402407D01*
X113546019Y-121545386D01*
X113548806Y-121554977D01*
X113571343Y-121671651D01*
X113588372Y-121833101D01*
X113599086Y-122016868D01*
X113602675Y-122200495D01*
X113598330Y-122361524D01*
X113585243Y-122477497D01*
X113582467Y-122489653D01*
X113520124Y-122672024D01*
X113433720Y-122840591D01*
X113335209Y-122975134D01*
X113253459Y-123046087D01*
X113033665Y-123146717D01*
X112775946Y-123208912D01*
X112506059Y-123226854D01*
X112461121Y-123225101D01*
X112240106Y-123194710D01*
X112240106Y-122508892D01*
X112271472Y-122483548D01*
X112287921Y-122411776D01*
X112294237Y-122284826D01*
X112295212Y-122122817D01*
X112294310Y-121950379D01*
X112290170Y-121837162D01*
X112280637Y-121770846D01*
X112263557Y-121739111D01*
X112236776Y-121729638D01*
X112226407Y-121729296D01*
X112132768Y-121759313D01*
X112035527Y-121835369D01*
X111956105Y-121936473D01*
X111917465Y-122032059D01*
X111922578Y-122182611D01*
X111984111Y-122327337D01*
X112089912Y-122439998D01*
X112113493Y-122455304D01*
X112189041Y-122496560D01*
X112240106Y-122508892D01*
X112240106Y-123194710D01*
X112218214Y-123191699D01*
X112017970Y-123115761D01*
X111840044Y-122988648D01*
X111788094Y-122939361D01*
X111645740Y-122772259D01*
X111552227Y-122596301D01*
X111498761Y-122390396D01*
X111479390Y-122198942D01*
X111482491Y-121883805D01*
G36*
X112129263Y-117114366D02*
X112487171Y-117114615D01*
X112780042Y-117115535D01*
X113014391Y-117117382D01*
X113196728Y-117120415D01*
X113333566Y-117124889D01*
X113431418Y-117131064D01*
X113496796Y-117139195D01*
X113536211Y-117149540D01*
X113556177Y-117162357D01*
X113561384Y-117170954D01*
X113571711Y-117232261D01*
X113579376Y-117343290D01*
X113582986Y-117482226D01*
X113583099Y-117511508D01*
X113583099Y-117795474D01*
X112626127Y-117771947D01*
X112374635Y-117766769D01*
X112149848Y-117764075D01*
X111960675Y-117763815D01*
X111816025Y-117765936D01*
X111724808Y-117770386D01*
X111695933Y-117777115D01*
X111696120Y-117777348D01*
X111734736Y-117798931D01*
X111830162Y-117845306D01*
X111973715Y-117912458D01*
X112156711Y-117996375D01*
X112370467Y-118093041D01*
X112606299Y-118198443D01*
X112626261Y-118207311D01*
X113529437Y-118608345D01*
X113538939Y-118871989D01*
X113548442Y-119135634D01*
X112616118Y-119544142D01*
X112375215Y-119650431D01*
X112156132Y-119748500D01*
X111967336Y-119834446D01*
X111817294Y-119904365D01*
X111714470Y-119954357D01*
X111667330Y-119980518D01*
X111665420Y-119982382D01*
X111694637Y-119990255D01*
X111786353Y-119997345D01*
X111931520Y-120003365D01*
X112121087Y-120008024D01*
X112346008Y-120011037D01*
X112597233Y-120012113D01*
X113550218Y-120012113D01*
X113539827Y-120307253D01*
X113529437Y-120602394D01*
X113028592Y-120611179D01*
X112843906Y-120612576D01*
X112605940Y-120611594D01*
X112332916Y-120608465D01*
X112043056Y-120603423D01*
X111754581Y-120596703D01*
X111633381Y-120593291D01*
X110739014Y-120566620D01*
X110739014Y-119611379D01*
X111680606Y-119234703D01*
X111966027Y-119118920D01*
X112202574Y-119019614D01*
X112386361Y-118938543D01*
X112513502Y-118877461D01*
X112580111Y-118838125D01*
X112588639Y-118824470D01*
X112548594Y-118801039D01*
X112452290Y-118751642D01*
X112308347Y-118680487D01*
X112125381Y-118591784D01*
X111912009Y-118489741D01*
X111676848Y-118378567D01*
X111647048Y-118364566D01*
X110739014Y-117938220D01*
X110718856Y-117114366D01*
X112129263Y-117114366D01*
X112129263Y-117114366D01*
G37*
X112129263Y-117114366D02*
X112487171Y-117114615D01*
X112780042Y-117115535D01*
X113014391Y-117117382D01*
X113196728Y-117120415D01*
X113333566Y-117124889D01*
X113431418Y-117131064D01*
X113496796Y-117139195D01*
X113536211Y-117149540D01*
X113556177Y-117162357D01*
X113561384Y-117170954D01*
X113571711Y-117232261D01*
X113579376Y-117343290D01*
X113582986Y-117482226D01*
X113583099Y-117511508D01*
X113583099Y-117795474D01*
X112626127Y-117771947D01*
X112374635Y-117766769D01*
X112149848Y-117764075D01*
X111960675Y-117763815D01*
X111816025Y-117765936D01*
X111724808Y-117770386D01*
X111695933Y-117777115D01*
X111696120Y-117777348D01*
X111734736Y-117798931D01*
X111830162Y-117845306D01*
X111973715Y-117912458D01*
X112156711Y-117996375D01*
X112370467Y-118093041D01*
X112606299Y-118198443D01*
X112626261Y-118207311D01*
X113529437Y-118608345D01*
X113538939Y-118871989D01*
X113548442Y-119135634D01*
X112616118Y-119544142D01*
X112375215Y-119650431D01*
X112156132Y-119748500D01*
X111967336Y-119834446D01*
X111817294Y-119904365D01*
X111714470Y-119954357D01*
X111667330Y-119980518D01*
X111665420Y-119982382D01*
X111694637Y-119990255D01*
X111786353Y-119997345D01*
X111931520Y-120003365D01*
X112121087Y-120008024D01*
X112346008Y-120011037D01*
X112597233Y-120012113D01*
X113550218Y-120012113D01*
X113539827Y-120307253D01*
X113529437Y-120602394D01*
X113028592Y-120611179D01*
X112843906Y-120612576D01*
X112605940Y-120611594D01*
X112332916Y-120608465D01*
X112043056Y-120603423D01*
X111754581Y-120596703D01*
X111633381Y-120593291D01*
X110739014Y-120566620D01*
X110739014Y-119611379D01*
X111680606Y-119234703D01*
X111966027Y-119118920D01*
X112202574Y-119019614D01*
X112386361Y-118938543D01*
X112513502Y-118877461D01*
X112580111Y-118838125D01*
X112588639Y-118824470D01*
X112548594Y-118801039D01*
X112452290Y-118751642D01*
X112308347Y-118680487D01*
X112125381Y-118591784D01*
X111912009Y-118489741D01*
X111676848Y-118378567D01*
X111647048Y-118364566D01*
X110739014Y-117938220D01*
X110718856Y-117114366D01*
X112129263Y-117114366D01*
G36*
X111740444Y-115212315D02*
X111823017Y-114993406D01*
X111956598Y-114819062D01*
X112136388Y-114694397D01*
X112357587Y-114624529D01*
X112520228Y-114610926D01*
X112752792Y-114640224D01*
X112947357Y-114729617D01*
X113101084Y-114876507D01*
X113211521Y-115074221D01*
X113276592Y-115305431D01*
X113292485Y-115545824D01*
X113255388Y-115771088D01*
X113245860Y-115799720D01*
X113135676Y-116018214D01*
X112982596Y-116180045D01*
X112789253Y-116283326D01*
X112558279Y-116326171D01*
X112509859Y-116327324D01*
X112269010Y-116296427D01*
X112065777Y-116206896D01*
X111904567Y-116063470D01*
X111789784Y-115870890D01*
X111725834Y-115633894D01*
X111713679Y-115470671D01*
X111740444Y-115212315D01*
X111740444Y-115212315D01*
G37*
X111740444Y-115212315D02*
X111823017Y-114993406D01*
X111956598Y-114819062D01*
X112136388Y-114694397D01*
X112357587Y-114624529D01*
X112520228Y-114610926D01*
X112752792Y-114640224D01*
X112947357Y-114729617D01*
X113101084Y-114876507D01*
X113211521Y-115074221D01*
X113276592Y-115305431D01*
X113292485Y-115545824D01*
X113255388Y-115771088D01*
X113245860Y-115799720D01*
X113135676Y-116018214D01*
X112982596Y-116180045D01*
X112789253Y-116283326D01*
X112558279Y-116326171D01*
X112509859Y-116327324D01*
X112269010Y-116296427D01*
X112065777Y-116206896D01*
X111904567Y-116063470D01*
X111789784Y-115870890D01*
X111725834Y-115633894D01*
X111713679Y-115470671D01*
X111740444Y-115212315D01*
G36*
X110339690Y-115298927D02*
X110398353Y-114986742D01*
X110505778Y-114691399D01*
X110658046Y-114431237D01*
X110713297Y-114361122D01*
X110818265Y-114237314D01*
X111029062Y-114465000D01*
X111123673Y-114569732D01*
X111195774Y-114654395D01*
X111234259Y-114705735D01*
X111237748Y-114714019D01*
X111222031Y-114754724D01*
X111182923Y-114840636D01*
X111130424Y-114950000D01*
X111076032Y-115071034D01*
X111044181Y-115177236D01*
X111029151Y-115296817D01*
X111025220Y-115457988D01*
X111025212Y-115468732D01*
X111028018Y-115627469D01*
X111040293Y-115741101D01*
X111067820Y-115835979D01*
X111116381Y-115938452D01*
X111136452Y-115975593D01*
X111247693Y-116178369D01*
X111025548Y-116398540D01*
X110803403Y-116618710D01*
X110708272Y-116505653D01*
X110526118Y-116238620D01*
X110396581Y-115940396D01*
X110384325Y-115900479D01*
X110333708Y-115609619D01*
X110339690Y-115298927D01*
X110339690Y-115298927D01*
G37*
X110339690Y-115298927D02*
X110398353Y-114986742D01*
X110505778Y-114691399D01*
X110658046Y-114431237D01*
X110713297Y-114361122D01*
X110818265Y-114237314D01*
X111029062Y-114465000D01*
X111123673Y-114569732D01*
X111195774Y-114654395D01*
X111234259Y-114705735D01*
X111237748Y-114714019D01*
X111222031Y-114754724D01*
X111182923Y-114840636D01*
X111130424Y-114950000D01*
X111076032Y-115071034D01*
X111044181Y-115177236D01*
X111029151Y-115296817D01*
X111025220Y-115457988D01*
X111025212Y-115468732D01*
X111028018Y-115627469D01*
X111040293Y-115741101D01*
X111067820Y-115835979D01*
X111116381Y-115938452D01*
X111136452Y-115975593D01*
X111247693Y-116178369D01*
X111025548Y-116398540D01*
X110803403Y-116618710D01*
X110708272Y-116505653D01*
X110526118Y-116238620D01*
X110396581Y-115940396D01*
X110384325Y-115900479D01*
X110333708Y-115609619D01*
X110339690Y-115298927D01*
G36*
X109315224Y-114893623D02*
X109423731Y-114502689D01*
X109474486Y-114370766D01*
X109557010Y-114198546D01*
X109665368Y-114009449D01*
X109786104Y-113824127D01*
X109905757Y-113663233D01*
X110010870Y-113547417D01*
X110011266Y-113547052D01*
X110097114Y-113467765D01*
X110304572Y-113699710D01*
X110396449Y-113806643D01*
X110464580Y-113894066D01*
X110498623Y-113948338D01*
X110500311Y-113957875D01*
X110477501Y-113998886D01*
X110427216Y-114084754D01*
X110359053Y-114199141D01*
X110337081Y-114235699D01*
X110149908Y-114603837D01*
X110026711Y-114976076D01*
X109967335Y-115346241D01*
X109971627Y-115708157D01*
X110039433Y-116055650D01*
X110170599Y-116382544D01*
X110364973Y-116682665D01*
X110398981Y-116724291D01*
X110537242Y-116888723D01*
X110293142Y-117130953D01*
X110049043Y-117373182D01*
X109883706Y-117163281D01*
X109727381Y-116938821D01*
X109577760Y-116677079D01*
X109447873Y-116403912D01*
X109350753Y-116145174D01*
X109324669Y-116054138D01*
X109264239Y-115685678D01*
X109261575Y-115293396D01*
X109315224Y-114893623D01*
X109315224Y-114893623D01*
G37*
X109315224Y-114893623D02*
X109423731Y-114502689D01*
X109474486Y-114370766D01*
X109557010Y-114198546D01*
X109665368Y-114009449D01*
X109786104Y-113824127D01*
X109905757Y-113663233D01*
X110010870Y-113547417D01*
X110011266Y-113547052D01*
X110097114Y-113467765D01*
X110304572Y-113699710D01*
X110396449Y-113806643D01*
X110464580Y-113894066D01*
X110498623Y-113948338D01*
X110500311Y-113957875D01*
X110477501Y-113998886D01*
X110427216Y-114084754D01*
X110359053Y-114199141D01*
X110337081Y-114235699D01*
X110149908Y-114603837D01*
X110026711Y-114976076D01*
X109967335Y-115346241D01*
X109971627Y-115708157D01*
X110039433Y-116055650D01*
X110170599Y-116382544D01*
X110364973Y-116682665D01*
X110398981Y-116724291D01*
X110537242Y-116888723D01*
X110293142Y-117130953D01*
X110049043Y-117373182D01*
X109883706Y-117163281D01*
X109727381Y-116938821D01*
X109577760Y-116677079D01*
X109447873Y-116403912D01*
X109350753Y-116145174D01*
X109324669Y-116054138D01*
X109264239Y-115685678D01*
X109261575Y-115293396D01*
X109315224Y-114893623D01*
G36*
X108269572Y-114824844D02*
X108320972Y-114556479D01*
X108452211Y-114149833D01*
X108635321Y-113746593D01*
X108859296Y-113367314D01*
X109113127Y-113032554D01*
X109172491Y-112966266D01*
X109343803Y-112781153D01*
X109555612Y-112996304D01*
X109767420Y-113211454D01*
X109627161Y-113347752D01*
X109398301Y-113618024D01*
X109209255Y-113942219D01*
X109062500Y-114313225D01*
X108960511Y-114723933D01*
X108905763Y-115167232D01*
X108896620Y-115446136D01*
X108929449Y-115924042D01*
X109028647Y-116376498D01*
X109195282Y-116806656D01*
X109430420Y-117217665D01*
X109556408Y-117393979D01*
X109643120Y-117508993D01*
X109710341Y-117599788D01*
X109748540Y-117653409D01*
X109753772Y-117662288D01*
X109728175Y-117687113D01*
X109661319Y-117747406D01*
X109565959Y-117831712D01*
X109531516Y-117861884D01*
X109310700Y-118054894D01*
X109137849Y-117861884D01*
X108956763Y-117634337D01*
X108778668Y-117365540D01*
X108621169Y-117084282D01*
X108504306Y-116825709D01*
X108383294Y-116446710D01*
X108297855Y-116039062D01*
X108249449Y-115620827D01*
X108239535Y-115210068D01*
X108269572Y-114824844D01*
X108269572Y-114824844D01*
G37*
X108269572Y-114824844D02*
X108320972Y-114556479D01*
X108452211Y-114149833D01*
X108635321Y-113746593D01*
X108859296Y-113367314D01*
X109113127Y-113032554D01*
X109172491Y-112966266D01*
X109343803Y-112781153D01*
X109555612Y-112996304D01*
X109767420Y-113211454D01*
X109627161Y-113347752D01*
X109398301Y-113618024D01*
X109209255Y-113942219D01*
X109062500Y-114313225D01*
X108960511Y-114723933D01*
X108905763Y-115167232D01*
X108896620Y-115446136D01*
X108929449Y-115924042D01*
X109028647Y-116376498D01*
X109195282Y-116806656D01*
X109430420Y-117217665D01*
X109556408Y-117393979D01*
X109643120Y-117508993D01*
X109710341Y-117599788D01*
X109748540Y-117653409D01*
X109753772Y-117662288D01*
X109728175Y-117687113D01*
X109661319Y-117747406D01*
X109565959Y-117831712D01*
X109531516Y-117861884D01*
X109310700Y-118054894D01*
X109137849Y-117861884D01*
X108956763Y-117634337D01*
X108778668Y-117365540D01*
X108621169Y-117084282D01*
X108504306Y-116825709D01*
X108383294Y-116446710D01*
X108297855Y-116039062D01*
X108249449Y-115620827D01*
X108239535Y-115210068D01*
X108269572Y-114824844D01*
G36*
X142283303Y-111172151D02*
X142283303Y-129183060D01*
X138865848Y-129183060D01*
X138865848Y-128444151D01*
X141575181Y-128444151D01*
X141575181Y-111941848D01*
X138865848Y-111941848D01*
X138865848Y-128444151D01*
X138865848Y-129183060D01*
X138126939Y-129183060D01*
X138126939Y-128385402D01*
X138126421Y-127381970D01*
X137980438Y-127301989D01*
X137881893Y-127247313D01*
X137754859Y-127175900D01*
X137624205Y-127101743D01*
X137603545Y-127089940D01*
X137301905Y-126917734D01*
X137043018Y-126770659D01*
X136816452Y-126642813D01*
X136611775Y-126528297D01*
X136541363Y-126489155D01*
X136443311Y-126433647D01*
X136325360Y-126365383D01*
X136255220Y-126324119D01*
X136167434Y-126273347D01*
X136102673Y-126238329D01*
X136077530Y-126227424D01*
X136044859Y-126212491D01*
X135979839Y-126174878D01*
X135948036Y-126155228D01*
X135872204Y-126109456D01*
X135759959Y-126044037D01*
X135628789Y-125969093D01*
X135540757Y-125919556D01*
X135409177Y-125845784D01*
X135289507Y-125778062D01*
X135168143Y-125708565D01*
X135031478Y-125629468D01*
X134865908Y-125532944D01*
X134709484Y-125441426D01*
X134593297Y-125374842D01*
X134453506Y-125296792D01*
X134324636Y-125226479D01*
X134219127Y-125168490D01*
X134133907Y-125119247D01*
X134084404Y-125087725D01*
X134079872Y-125084090D01*
X134104603Y-125079405D01*
X134186297Y-125075010D01*
X134320346Y-125070968D01*
X134502138Y-125067339D01*
X134727062Y-125064184D01*
X134990507Y-125061565D01*
X135287863Y-125059542D01*
X135614519Y-125058177D01*
X135965863Y-125057530D01*
X136089508Y-125057485D01*
X138128393Y-125057485D01*
X138111545Y-124001367D01*
X137957606Y-123917798D01*
X137847869Y-123857133D01*
X137740867Y-123796262D01*
X137695909Y-123769907D01*
X137615245Y-123723006D01*
X137503470Y-123659574D01*
X137383506Y-123592607D01*
X137372636Y-123586600D01*
X137292865Y-123542387D01*
X137199578Y-123490324D01*
X137087363Y-123427358D01*
X136950810Y-123350433D01*
X136784508Y-123256496D01*
X136583044Y-123142492D01*
X136341008Y-123005366D01*
X136052988Y-122842064D01*
X135925606Y-122769815D01*
X135703993Y-122644420D01*
X135532159Y-122547920D01*
X135406585Y-122478376D01*
X135323751Y-122433850D01*
X135280137Y-122412403D01*
X135271852Y-122409727D01*
X135239472Y-122393946D01*
X135180137Y-122355678D01*
X135176055Y-122352850D01*
X135103957Y-122306676D01*
X135003130Y-122246845D01*
X134925000Y-122202737D01*
X134672385Y-122063002D01*
X134470308Y-121949676D01*
X134314858Y-121860417D01*
X134202122Y-121792879D01*
X134128188Y-121744720D01*
X134089145Y-121713595D01*
X134081076Y-121697168D01*
X134113866Y-121692639D01*
X134203082Y-121688356D01*
X134343573Y-121684386D01*
X134530188Y-121680796D01*
X134757777Y-121677652D01*
X135021190Y-121675022D01*
X135315276Y-121672972D01*
X135634885Y-121671568D01*
X135974866Y-121670879D01*
X136112150Y-121670818D01*
X138126939Y-121670818D01*
X138126939Y-120747182D01*
X138126939Y-119700710D01*
X138126939Y-118637292D01*
X137980697Y-118556920D01*
X137881951Y-118502065D01*
X137754727Y-118430593D01*
X137623962Y-118356524D01*
X137603545Y-118344895D01*
X137463988Y-118265983D01*
X137300738Y-118174647D01*
X137144195Y-118087878D01*
X137110939Y-118069587D01*
X136973489Y-117993193D01*
X136834524Y-117914397D01*
X136717714Y-117846667D01*
X136686251Y-117827951D01*
X136598605Y-117776584D01*
X136533875Y-117741108D01*
X136508560Y-117729970D01*
X136475938Y-117714968D01*
X136411008Y-117677179D01*
X136379067Y-117657320D01*
X136316552Y-117619764D01*
X136210696Y-117558363D01*
X136072013Y-117479121D01*
X135911019Y-117388044D01*
X135738227Y-117291138D01*
X135725484Y-117284025D01*
X135544693Y-117182931D01*
X135367712Y-117083586D01*
X135207106Y-116993069D01*
X135075437Y-116918462D01*
X134986575Y-116867601D01*
X134856737Y-116793395D01*
X134718765Y-116715945D01*
X134617121Y-116659986D01*
X134412062Y-116546661D01*
X134261265Y-116458437D01*
X134163208Y-116394346D01*
X134116369Y-116353420D01*
X134112556Y-116338957D01*
X134145232Y-116334604D01*
X134234316Y-116330489D01*
X134374639Y-116326677D01*
X134561033Y-116323231D01*
X134788330Y-116320218D01*
X135051361Y-116317701D01*
X135344958Y-116315745D01*
X135663953Y-116314415D01*
X136003178Y-116313776D01*
X136127544Y-116313727D01*
X138126939Y-116313727D01*
X138126939Y-115278344D01*
X138012962Y-115223992D01*
X137931763Y-115181747D01*
X137819874Y-115119060D01*
X137698856Y-115048073D01*
X137674820Y-115033563D01*
X137570903Y-114971739D01*
X137487717Y-114924596D01*
X137438621Y-114899614D01*
X137431791Y-114897485D01*
X137395877Y-114881573D01*
X137334711Y-114843034D01*
X137331207Y-114840607D01*
X137259140Y-114794412D01*
X137158355Y-114734499D01*
X137080151Y-114690244D01*
X136968596Y-114628173D01*
X136831142Y-114551009D01*
X136695341Y-114474227D01*
X136679909Y-114465457D01*
X136464189Y-114342807D01*
X136291881Y-114244882D01*
X136152877Y-114165952D01*
X136037071Y-114100288D01*
X135934356Y-114042160D01*
X135834627Y-113985839D01*
X135727776Y-113925595D01*
X135704131Y-113912273D01*
X135565415Y-113834255D01*
X135430754Y-113758754D01*
X135318612Y-113696108D01*
X135264350Y-113665970D01*
X135156765Y-113605259D01*
X135050733Y-113543536D01*
X135017363Y-113523533D01*
X134970183Y-113495141D01*
X134918695Y-113464921D01*
X134853925Y-113427796D01*
X134766899Y-113378685D01*
X134648644Y-113312511D01*
X134490185Y-113224192D01*
X134388820Y-113167774D01*
X134283681Y-113108387D01*
X134197898Y-113058315D01*
X134147173Y-113026760D01*
X134142517Y-113023404D01*
X134099126Y-112995546D01*
X134020132Y-112949334D01*
X133939787Y-112904283D01*
X133828098Y-112842391D01*
X133690483Y-112765565D01*
X133554584Y-112689239D01*
X133539545Y-112680757D01*
X133405724Y-112605504D01*
X133266837Y-112527822D01*
X133150528Y-112463170D01*
X133139303Y-112456968D01*
X133033741Y-112396777D01*
X132937923Y-112338940D01*
X132888247Y-112306605D01*
X132827038Y-112267300D01*
X132790397Y-112249786D01*
X132789541Y-112249727D01*
X132755822Y-112235300D01*
X132686466Y-112198044D01*
X132621950Y-112160926D01*
X132518184Y-112099407D01*
X132443379Y-112060145D01*
X132392818Y-112049140D01*
X132361783Y-112072391D01*
X132345556Y-112135897D01*
X132339420Y-112245657D01*
X132338656Y-112407670D01*
X132338818Y-112520974D01*
X132340419Y-112725641D01*
X132345507Y-112874613D01*
X132354512Y-112973695D01*
X132367862Y-113028691D01*
X132377303Y-113042322D01*
X132424438Y-113073636D01*
X132504970Y-113121969D01*
X132569727Y-113158986D01*
X132679162Y-113220501D01*
X132811412Y-113295143D01*
X132923787Y-113358783D01*
X133031039Y-113419498D01*
X133180095Y-113503669D01*
X133359069Y-113604601D01*
X133556074Y-113715602D01*
X133759225Y-113829979D01*
X133956635Y-113941039D01*
X134136418Y-114042087D01*
X134286688Y-114126432D01*
X134351991Y-114163019D01*
X134452301Y-114218641D01*
X134529219Y-114260303D01*
X134569333Y-114280770D01*
X134572056Y-114281727D01*
X134600184Y-114296518D01*
X134667493Y-114335700D01*
X134760663Y-114391489D01*
X134782751Y-114404879D01*
X134881085Y-114463398D01*
X134957927Y-114506851D01*
X134999268Y-114527370D01*
X135002073Y-114528030D01*
X135035975Y-114543001D01*
X135101805Y-114580698D01*
X135133478Y-114600227D01*
X135212305Y-114647760D01*
X135330650Y-114716649D01*
X135474029Y-114798663D01*
X135627959Y-114885575D01*
X135777954Y-114969154D01*
X135909531Y-115041170D01*
X135910212Y-115041538D01*
X136085732Y-115138836D01*
X136229916Y-115223806D01*
X136336706Y-115292567D01*
X136400045Y-115341236D01*
X136414745Y-115364912D01*
X136382088Y-115369223D01*
X136292984Y-115373302D01*
X136152560Y-115377084D01*
X135965944Y-115380507D01*
X135738265Y-115383507D01*
X135474650Y-115386022D01*
X135180228Y-115387988D01*
X134860125Y-115389342D01*
X134519471Y-115390022D01*
X134369001Y-115390091D01*
X132338818Y-115390091D01*
X132338964Y-116390697D01*
X132515921Y-116482331D01*
X132637841Y-116547068D01*
X132762626Y-116615811D01*
X132831424Y-116655147D01*
X133044239Y-116778900D01*
X133251429Y-116897639D01*
X133436712Y-117002097D01*
X133570333Y-117075728D01*
X133671280Y-117131303D01*
X133804627Y-117205932D01*
X133949457Y-117287869D01*
X134032151Y-117335071D01*
X134232759Y-117449610D01*
X134446573Y-117570965D01*
X134657346Y-117689966D01*
X134848833Y-117797444D01*
X135004787Y-117884227D01*
X135017363Y-117891172D01*
X135125601Y-117952104D01*
X135250616Y-118024186D01*
X135318900Y-118064305D01*
X135406687Y-118115077D01*
X135471447Y-118150095D01*
X135496590Y-118161000D01*
X135529189Y-118176034D01*
X135594074Y-118213912D01*
X135626084Y-118233874D01*
X135697369Y-118277003D01*
X135807792Y-118341308D01*
X135942552Y-118418266D01*
X136086848Y-118499355D01*
X136093875Y-118503268D01*
X136446872Y-118699788D01*
X132354212Y-118730576D01*
X132354212Y-119685000D01*
X135240575Y-119692855D01*
X138126939Y-119700710D01*
X138126939Y-120747182D01*
X132338818Y-120747182D01*
X132339012Y-121247485D01*
X132339207Y-121747788D01*
X132439073Y-121806465D01*
X132593050Y-121895808D01*
X132781964Y-122003685D01*
X132986648Y-122119231D01*
X133187936Y-122231581D01*
X133231666Y-122255788D01*
X133381922Y-122339340D01*
X133546197Y-122431507D01*
X133694170Y-122515262D01*
X133724272Y-122532438D01*
X133851619Y-122604816D01*
X133978148Y-122675994D01*
X134079781Y-122732440D01*
X134093727Y-122740075D01*
X134200143Y-122799568D01*
X134325069Y-122871403D01*
X134401606Y-122916394D01*
X134528641Y-122990565D01*
X134667814Y-123069784D01*
X134740272Y-123110089D01*
X134934586Y-123217337D01*
X135109801Y-123315126D01*
X135256592Y-123398191D01*
X135365636Y-123461265D01*
X135417606Y-123492642D01*
X135483481Y-123531549D01*
X135582542Y-123587154D01*
X135693477Y-123647493D01*
X135694697Y-123648146D01*
X135803756Y-123706790D01*
X135899633Y-123759336D01*
X135999206Y-123815252D01*
X136119349Y-123884009D01*
X136264272Y-123967739D01*
X136418212Y-124056879D01*
X132354212Y-124087667D01*
X132354212Y-125129387D01*
X132571296Y-125257603D01*
X132709114Y-125337868D01*
X132859637Y-125423802D01*
X132986933Y-125494948D01*
X133192597Y-125608541D01*
X133375406Y-125710598D01*
X133527049Y-125796422D01*
X133639215Y-125861320D01*
X133693484Y-125894096D01*
X133759279Y-125933070D01*
X133858219Y-125988902D01*
X133969050Y-126049602D01*
X133970575Y-126050424D01*
X134103839Y-126123091D01*
X134256184Y-126207426D01*
X134386212Y-126280420D01*
X134500316Y-126345023D01*
X134648289Y-126428694D01*
X134810361Y-126520259D01*
X134955787Y-126602352D01*
X135104931Y-126686523D01*
X135250184Y-126768534D01*
X135375036Y-126839061D01*
X135462976Y-126888780D01*
X135463787Y-126889239D01*
X135564997Y-126946303D01*
X135695457Y-127019571D01*
X135830634Y-127095269D01*
X135861000Y-127112238D01*
X135977947Y-127177992D01*
X136080749Y-127236566D01*
X136152780Y-127278459D01*
X136168878Y-127288185D01*
X136230516Y-127324435D01*
X136323447Y-127376955D01*
X136402818Y-127420806D01*
X136514383Y-127482396D01*
X136651849Y-127559144D01*
X136787657Y-127635654D01*
X136803060Y-127644386D01*
X136938795Y-127720901D01*
X137100408Y-127811258D01*
X137259759Y-127899744D01*
X137311060Y-127928064D01*
X137430248Y-127994330D01*
X137530241Y-128051048D01*
X137598004Y-128090760D01*
X137618939Y-128104183D01*
X137658658Y-128128721D01*
X137738233Y-128174062D01*
X137843191Y-128232023D01*
X137888333Y-128256526D01*
X138126939Y-128385402D01*
X138126939Y-129183060D01*
X131630697Y-129183060D01*
X131630697Y-111172151D01*
X142283303Y-111172151D01*
X142283303Y-111172151D01*
G37*
X142283303Y-111172151D02*
X142283303Y-129183060D01*
X138865848Y-129183060D01*
X138865848Y-128444151D01*
X141575181Y-128444151D01*
X141575181Y-111941848D01*
X138865848Y-111941848D01*
X138865848Y-128444151D01*
X138865848Y-129183060D01*
X138126939Y-129183060D01*
X138126939Y-128385402D01*
X138126421Y-127381970D01*
X137980438Y-127301989D01*
X137881893Y-127247313D01*
X137754859Y-127175900D01*
X137624205Y-127101743D01*
X137603545Y-127089940D01*
X137301905Y-126917734D01*
X137043018Y-126770659D01*
X136816452Y-126642813D01*
X136611775Y-126528297D01*
X136541363Y-126489155D01*
X136443311Y-126433647D01*
X136325360Y-126365383D01*
X136255220Y-126324119D01*
X136167434Y-126273347D01*
X136102673Y-126238329D01*
X136077530Y-126227424D01*
X136044859Y-126212491D01*
X135979839Y-126174878D01*
X135948036Y-126155228D01*
X135872204Y-126109456D01*
X135759959Y-126044037D01*
X135628789Y-125969093D01*
X135540757Y-125919556D01*
X135409177Y-125845784D01*
X135289507Y-125778062D01*
X135168143Y-125708565D01*
X135031478Y-125629468D01*
X134865908Y-125532944D01*
X134709484Y-125441426D01*
X134593297Y-125374842D01*
X134453506Y-125296792D01*
X134324636Y-125226479D01*
X134219127Y-125168490D01*
X134133907Y-125119247D01*
X134084404Y-125087725D01*
X134079872Y-125084090D01*
X134104603Y-125079405D01*
X134186297Y-125075010D01*
X134320346Y-125070968D01*
X134502138Y-125067339D01*
X134727062Y-125064184D01*
X134990507Y-125061565D01*
X135287863Y-125059542D01*
X135614519Y-125058177D01*
X135965863Y-125057530D01*
X136089508Y-125057485D01*
X138128393Y-125057485D01*
X138111545Y-124001367D01*
X137957606Y-123917798D01*
X137847869Y-123857133D01*
X137740867Y-123796262D01*
X137695909Y-123769907D01*
X137615245Y-123723006D01*
X137503470Y-123659574D01*
X137383506Y-123592607D01*
X137372636Y-123586600D01*
X137292865Y-123542387D01*
X137199578Y-123490324D01*
X137087363Y-123427358D01*
X136950810Y-123350433D01*
X136784508Y-123256496D01*
X136583044Y-123142492D01*
X136341008Y-123005366D01*
X136052988Y-122842064D01*
X135925606Y-122769815D01*
X135703993Y-122644420D01*
X135532159Y-122547920D01*
X135406585Y-122478376D01*
X135323751Y-122433850D01*
X135280137Y-122412403D01*
X135271852Y-122409727D01*
X135239472Y-122393946D01*
X135180137Y-122355678D01*
X135176055Y-122352850D01*
X135103957Y-122306676D01*
X135003130Y-122246845D01*
X134925000Y-122202737D01*
X134672385Y-122063002D01*
X134470308Y-121949676D01*
X134314858Y-121860417D01*
X134202122Y-121792879D01*
X134128188Y-121744720D01*
X134089145Y-121713595D01*
X134081076Y-121697168D01*
X134113866Y-121692639D01*
X134203082Y-121688356D01*
X134343573Y-121684386D01*
X134530188Y-121680796D01*
X134757777Y-121677652D01*
X135021190Y-121675022D01*
X135315276Y-121672972D01*
X135634885Y-121671568D01*
X135974866Y-121670879D01*
X136112150Y-121670818D01*
X138126939Y-121670818D01*
X138126939Y-120747182D01*
X138126939Y-119700710D01*
X138126939Y-118637292D01*
X137980697Y-118556920D01*
X137881951Y-118502065D01*
X137754727Y-118430593D01*
X137623962Y-118356524D01*
X137603545Y-118344895D01*
X137463988Y-118265983D01*
X137300738Y-118174647D01*
X137144195Y-118087878D01*
X137110939Y-118069587D01*
X136973489Y-117993193D01*
X136834524Y-117914397D01*
X136717714Y-117846667D01*
X136686251Y-117827951D01*
X136598605Y-117776584D01*
X136533875Y-117741108D01*
X136508560Y-117729970D01*
X136475938Y-117714968D01*
X136411008Y-117677179D01*
X136379067Y-117657320D01*
X136316552Y-117619764D01*
X136210696Y-117558363D01*
X136072013Y-117479121D01*
X135911019Y-117388044D01*
X135738227Y-117291138D01*
X135725484Y-117284025D01*
X135544693Y-117182931D01*
X135367712Y-117083586D01*
X135207106Y-116993069D01*
X135075437Y-116918462D01*
X134986575Y-116867601D01*
X134856737Y-116793395D01*
X134718765Y-116715945D01*
X134617121Y-116659986D01*
X134412062Y-116546661D01*
X134261265Y-116458437D01*
X134163208Y-116394346D01*
X134116369Y-116353420D01*
X134112556Y-116338957D01*
X134145232Y-116334604D01*
X134234316Y-116330489D01*
X134374639Y-116326677D01*
X134561033Y-116323231D01*
X134788330Y-116320218D01*
X135051361Y-116317701D01*
X135344958Y-116315745D01*
X135663953Y-116314415D01*
X136003178Y-116313776D01*
X136127544Y-116313727D01*
X138126939Y-116313727D01*
X138126939Y-115278344D01*
X138012962Y-115223992D01*
X137931763Y-115181747D01*
X137819874Y-115119060D01*
X137698856Y-115048073D01*
X137674820Y-115033563D01*
X137570903Y-114971739D01*
X137487717Y-114924596D01*
X137438621Y-114899614D01*
X137431791Y-114897485D01*
X137395877Y-114881573D01*
X137334711Y-114843034D01*
X137331207Y-114840607D01*
X137259140Y-114794412D01*
X137158355Y-114734499D01*
X137080151Y-114690244D01*
X136968596Y-114628173D01*
X136831142Y-114551009D01*
X136695341Y-114474227D01*
X136679909Y-114465457D01*
X136464189Y-114342807D01*
X136291881Y-114244882D01*
X136152877Y-114165952D01*
X136037071Y-114100288D01*
X135934356Y-114042160D01*
X135834627Y-113985839D01*
X135727776Y-113925595D01*
X135704131Y-113912273D01*
X135565415Y-113834255D01*
X135430754Y-113758754D01*
X135318612Y-113696108D01*
X135264350Y-113665970D01*
X135156765Y-113605259D01*
X135050733Y-113543536D01*
X135017363Y-113523533D01*
X134970183Y-113495141D01*
X134918695Y-113464921D01*
X134853925Y-113427796D01*
X134766899Y-113378685D01*
X134648644Y-113312511D01*
X134490185Y-113224192D01*
X134388820Y-113167774D01*
X134283681Y-113108387D01*
X134197898Y-113058315D01*
X134147173Y-113026760D01*
X134142517Y-113023404D01*
X134099126Y-112995546D01*
X134020132Y-112949334D01*
X133939787Y-112904283D01*
X133828098Y-112842391D01*
X133690483Y-112765565D01*
X133554584Y-112689239D01*
X133539545Y-112680757D01*
X133405724Y-112605504D01*
X133266837Y-112527822D01*
X133150528Y-112463170D01*
X133139303Y-112456968D01*
X133033741Y-112396777D01*
X132937923Y-112338940D01*
X132888247Y-112306605D01*
X132827038Y-112267300D01*
X132790397Y-112249786D01*
X132789541Y-112249727D01*
X132755822Y-112235300D01*
X132686466Y-112198044D01*
X132621950Y-112160926D01*
X132518184Y-112099407D01*
X132443379Y-112060145D01*
X132392818Y-112049140D01*
X132361783Y-112072391D01*
X132345556Y-112135897D01*
X132339420Y-112245657D01*
X132338656Y-112407670D01*
X132338818Y-112520974D01*
X132340419Y-112725641D01*
X132345507Y-112874613D01*
X132354512Y-112973695D01*
X132367862Y-113028691D01*
X132377303Y-113042322D01*
X132424438Y-113073636D01*
X132504970Y-113121969D01*
X132569727Y-113158986D01*
X132679162Y-113220501D01*
X132811412Y-113295143D01*
X132923787Y-113358783D01*
X133031039Y-113419498D01*
X133180095Y-113503669D01*
X133359069Y-113604601D01*
X133556074Y-113715602D01*
X133759225Y-113829979D01*
X133956635Y-113941039D01*
X134136418Y-114042087D01*
X134286688Y-114126432D01*
X134351991Y-114163019D01*
X134452301Y-114218641D01*
X134529219Y-114260303D01*
X134569333Y-114280770D01*
X134572056Y-114281727D01*
X134600184Y-114296518D01*
X134667493Y-114335700D01*
X134760663Y-114391489D01*
X134782751Y-114404879D01*
X134881085Y-114463398D01*
X134957927Y-114506851D01*
X134999268Y-114527370D01*
X135002073Y-114528030D01*
X135035975Y-114543001D01*
X135101805Y-114580698D01*
X135133478Y-114600227D01*
X135212305Y-114647760D01*
X135330650Y-114716649D01*
X135474029Y-114798663D01*
X135627959Y-114885575D01*
X135777954Y-114969154D01*
X135909531Y-115041170D01*
X135910212Y-115041538D01*
X136085732Y-115138836D01*
X136229916Y-115223806D01*
X136336706Y-115292567D01*
X136400045Y-115341236D01*
X136414745Y-115364912D01*
X136382088Y-115369223D01*
X136292984Y-115373302D01*
X136152560Y-115377084D01*
X135965944Y-115380507D01*
X135738265Y-115383507D01*
X135474650Y-115386022D01*
X135180228Y-115387988D01*
X134860125Y-115389342D01*
X134519471Y-115390022D01*
X134369001Y-115390091D01*
X132338818Y-115390091D01*
X132338964Y-116390697D01*
X132515921Y-116482331D01*
X132637841Y-116547068D01*
X132762626Y-116615811D01*
X132831424Y-116655147D01*
X133044239Y-116778900D01*
X133251429Y-116897639D01*
X133436712Y-117002097D01*
X133570333Y-117075728D01*
X133671280Y-117131303D01*
X133804627Y-117205932D01*
X133949457Y-117287869D01*
X134032151Y-117335071D01*
X134232759Y-117449610D01*
X134446573Y-117570965D01*
X134657346Y-117689966D01*
X134848833Y-117797444D01*
X135004787Y-117884227D01*
X135017363Y-117891172D01*
X135125601Y-117952104D01*
X135250616Y-118024186D01*
X135318900Y-118064305D01*
X135406687Y-118115077D01*
X135471447Y-118150095D01*
X135496590Y-118161000D01*
X135529189Y-118176034D01*
X135594074Y-118213912D01*
X135626084Y-118233874D01*
X135697369Y-118277003D01*
X135807792Y-118341308D01*
X135942552Y-118418266D01*
X136086848Y-118499355D01*
X136093875Y-118503268D01*
X136446872Y-118699788D01*
X132354212Y-118730576D01*
X132354212Y-119685000D01*
X135240575Y-119692855D01*
X138126939Y-119700710D01*
X138126939Y-120747182D01*
X132338818Y-120747182D01*
X132339012Y-121247485D01*
X132339207Y-121747788D01*
X132439073Y-121806465D01*
X132593050Y-121895808D01*
X132781964Y-122003685D01*
X132986648Y-122119231D01*
X133187936Y-122231581D01*
X133231666Y-122255788D01*
X133381922Y-122339340D01*
X133546197Y-122431507D01*
X133694170Y-122515262D01*
X133724272Y-122532438D01*
X133851619Y-122604816D01*
X133978148Y-122675994D01*
X134079781Y-122732440D01*
X134093727Y-122740075D01*
X134200143Y-122799568D01*
X134325069Y-122871403D01*
X134401606Y-122916394D01*
X134528641Y-122990565D01*
X134667814Y-123069784D01*
X134740272Y-123110089D01*
X134934586Y-123217337D01*
X135109801Y-123315126D01*
X135256592Y-123398191D01*
X135365636Y-123461265D01*
X135417606Y-123492642D01*
X135483481Y-123531549D01*
X135582542Y-123587154D01*
X135693477Y-123647493D01*
X135694697Y-123648146D01*
X135803756Y-123706790D01*
X135899633Y-123759336D01*
X135999206Y-123815252D01*
X136119349Y-123884009D01*
X136264272Y-123967739D01*
X136418212Y-124056879D01*
X132354212Y-124087667D01*
X132354212Y-125129387D01*
X132571296Y-125257603D01*
X132709114Y-125337868D01*
X132859637Y-125423802D01*
X132986933Y-125494948D01*
X133192597Y-125608541D01*
X133375406Y-125710598D01*
X133527049Y-125796422D01*
X133639215Y-125861320D01*
X133693484Y-125894096D01*
X133759279Y-125933070D01*
X133858219Y-125988902D01*
X133969050Y-126049602D01*
X133970575Y-126050424D01*
X134103839Y-126123091D01*
X134256184Y-126207426D01*
X134386212Y-126280420D01*
X134500316Y-126345023D01*
X134648289Y-126428694D01*
X134810361Y-126520259D01*
X134955787Y-126602352D01*
X135104931Y-126686523D01*
X135250184Y-126768534D01*
X135375036Y-126839061D01*
X135462976Y-126888780D01*
X135463787Y-126889239D01*
X135564997Y-126946303D01*
X135695457Y-127019571D01*
X135830634Y-127095269D01*
X135861000Y-127112238D01*
X135977947Y-127177992D01*
X136080749Y-127236566D01*
X136152780Y-127278459D01*
X136168878Y-127288185D01*
X136230516Y-127324435D01*
X136323447Y-127376955D01*
X136402818Y-127420806D01*
X136514383Y-127482396D01*
X136651849Y-127559144D01*
X136787657Y-127635654D01*
X136803060Y-127644386D01*
X136938795Y-127720901D01*
X137100408Y-127811258D01*
X137259759Y-127899744D01*
X137311060Y-127928064D01*
X137430248Y-127994330D01*
X137530241Y-128051048D01*
X137598004Y-128090760D01*
X137618939Y-128104183D01*
X137658658Y-128128721D01*
X137738233Y-128174062D01*
X137843191Y-128232023D01*
X137888333Y-128256526D01*
X138126939Y-128385402D01*
X138126939Y-129183060D01*
X131630697Y-129183060D01*
X131630697Y-111172151D01*
X142283303Y-111172151D01*
G36*
X139300956Y-126273832D02*
X139303431Y-126200600D01*
X139312272Y-125934939D01*
X140259000Y-125926797D01*
X141205727Y-125918655D01*
X141205727Y-126289000D01*
X140589969Y-126289000D01*
X140402821Y-126290145D01*
X140238572Y-126293340D01*
X140106439Y-126298224D01*
X140015638Y-126304436D01*
X139975386Y-126311615D01*
X139974212Y-126313107D01*
X140002130Y-126329741D01*
X140075860Y-126351489D01*
X140180362Y-126374036D01*
X140197424Y-126377160D01*
X140325585Y-126400979D01*
X140445127Y-126424686D01*
X140528393Y-126442746D01*
X140622348Y-126464361D01*
X140741562Y-126490842D01*
X140805484Y-126504702D01*
X140925852Y-126531338D01*
X141042234Y-126558386D01*
X141090272Y-126570136D01*
X141205727Y-126599252D01*
X141205727Y-126797600D01*
X141203745Y-126905842D01*
X141194556Y-126967540D01*
X141173294Y-126997679D01*
X141136454Y-127010954D01*
X140951931Y-127050528D01*
X140758260Y-127091388D01*
X140568807Y-127130778D01*
X140396940Y-127165944D01*
X140256025Y-127194133D01*
X140159428Y-127212590D01*
X140147351Y-127214741D01*
X140057162Y-127233045D01*
X139995076Y-127250409D01*
X139980583Y-127257578D01*
X140004650Y-127262600D01*
X140081439Y-127267013D01*
X140202095Y-127270575D01*
X140357766Y-127273041D01*
X140539598Y-127274168D01*
X140584838Y-127274212D01*
X141205727Y-127274212D01*
X141205727Y-127675344D01*
X140259000Y-127667202D01*
X139312272Y-127659060D01*
X139312272Y-127104879D01*
X139435424Y-127067880D01*
X139536677Y-127040791D01*
X139663705Y-127011172D01*
X139743303Y-126994550D01*
X139868203Y-126969024D01*
X140020855Y-126936474D01*
X140169024Y-126903779D01*
X140174333Y-126902581D01*
X140305197Y-126873378D01*
X140426022Y-126847031D01*
X140513772Y-126828552D01*
X140523739Y-126826554D01*
X140590024Y-126805543D01*
X140595488Y-126781257D01*
X140540765Y-126754322D01*
X140426486Y-126725367D01*
X140420636Y-126724166D01*
X140319916Y-126703222D01*
X140182793Y-126674173D01*
X140033019Y-126642064D01*
X139974212Y-126629347D01*
X139828686Y-126597942D01*
X139688740Y-126568010D01*
X139576863Y-126544352D01*
X139543181Y-126537343D01*
X139426803Y-126512546D01*
X139354085Y-126487412D01*
X139315334Y-126448326D01*
X139300856Y-126381671D01*
X139300956Y-126273832D01*
X139300956Y-126273832D01*
G37*
X139300956Y-126273832D02*
X139303431Y-126200600D01*
X139312272Y-125934939D01*
X140259000Y-125926797D01*
X141205727Y-125918655D01*
X141205727Y-126289000D01*
X140589969Y-126289000D01*
X140402821Y-126290145D01*
X140238572Y-126293340D01*
X140106439Y-126298224D01*
X140015638Y-126304436D01*
X139975386Y-126311615D01*
X139974212Y-126313107D01*
X140002130Y-126329741D01*
X140075860Y-126351489D01*
X140180362Y-126374036D01*
X140197424Y-126377160D01*
X140325585Y-126400979D01*
X140445127Y-126424686D01*
X140528393Y-126442746D01*
X140622348Y-126464361D01*
X140741562Y-126490842D01*
X140805484Y-126504702D01*
X140925852Y-126531338D01*
X141042234Y-126558386D01*
X141090272Y-126570136D01*
X141205727Y-126599252D01*
X141205727Y-126797600D01*
X141203745Y-126905842D01*
X141194556Y-126967540D01*
X141173294Y-126997679D01*
X141136454Y-127010954D01*
X140951931Y-127050528D01*
X140758260Y-127091388D01*
X140568807Y-127130778D01*
X140396940Y-127165944D01*
X140256025Y-127194133D01*
X140159428Y-127212590D01*
X140147351Y-127214741D01*
X140057162Y-127233045D01*
X139995076Y-127250409D01*
X139980583Y-127257578D01*
X140004650Y-127262600D01*
X140081439Y-127267013D01*
X140202095Y-127270575D01*
X140357766Y-127273041D01*
X140539598Y-127274168D01*
X140584838Y-127274212D01*
X141205727Y-127274212D01*
X141205727Y-127675344D01*
X140259000Y-127667202D01*
X139312272Y-127659060D01*
X139312272Y-127104879D01*
X139435424Y-127067880D01*
X139536677Y-127040791D01*
X139663705Y-127011172D01*
X139743303Y-126994550D01*
X139868203Y-126969024D01*
X140020855Y-126936474D01*
X140169024Y-126903779D01*
X140174333Y-126902581D01*
X140305197Y-126873378D01*
X140426022Y-126847031D01*
X140513772Y-126828552D01*
X140523739Y-126826554D01*
X140590024Y-126805543D01*
X140595488Y-126781257D01*
X140540765Y-126754322D01*
X140426486Y-126725367D01*
X140420636Y-126724166D01*
X140319916Y-126703222D01*
X140182793Y-126674173D01*
X140033019Y-126642064D01*
X139974212Y-126629347D01*
X139828686Y-126597942D01*
X139688740Y-126568010D01*
X139576863Y-126544352D01*
X139543181Y-126537343D01*
X139426803Y-126512546D01*
X139354085Y-126487412D01*
X139315334Y-126448326D01*
X139300856Y-126381671D01*
X139300956Y-126273832D01*
G36*
X139296943Y-124726665D02*
X139298617Y-124561833D01*
X139304126Y-124443368D01*
X139315690Y-124363665D01*
X139335534Y-124315123D01*
X139365880Y-124290137D01*
X139408951Y-124281106D01*
X139466971Y-124280425D01*
X139491221Y-124280752D01*
X139572512Y-124282379D01*
X139627848Y-124284782D01*
X139643867Y-124302519D01*
X139655138Y-124357283D01*
X139662233Y-124455764D01*
X139665724Y-124604648D01*
X139666333Y-124734212D01*
X139666333Y-125180636D01*
X140034000Y-125180636D01*
X140042591Y-124772697D01*
X140051181Y-124364757D01*
X140389848Y-124364757D01*
X140398439Y-124772697D01*
X140407029Y-125180636D01*
X140834668Y-125180636D01*
X140851666Y-124241606D01*
X141028697Y-124232373D01*
X141205727Y-124223139D01*
X141205727Y-125611667D01*
X140300002Y-125611667D01*
X140068042Y-125611050D01*
X139854733Y-125609308D01*
X139668230Y-125606599D01*
X139516686Y-125603083D01*
X139408256Y-125598920D01*
X139351092Y-125594269D01*
X139345578Y-125592979D01*
X139328938Y-125579705D01*
X139316505Y-125549219D01*
X139307694Y-125493718D01*
X139301916Y-125405402D01*
X139298585Y-125276470D01*
X139297115Y-125099119D01*
X139296878Y-124945467D01*
X139296943Y-124726665D01*
X139296943Y-124726665D01*
G37*
X139296943Y-124726665D02*
X139298617Y-124561833D01*
X139304126Y-124443368D01*
X139315690Y-124363665D01*
X139335534Y-124315123D01*
X139365880Y-124290137D01*
X139408951Y-124281106D01*
X139466971Y-124280425D01*
X139491221Y-124280752D01*
X139572512Y-124282379D01*
X139627848Y-124284782D01*
X139643867Y-124302519D01*
X139655138Y-124357283D01*
X139662233Y-124455764D01*
X139665724Y-124604648D01*
X139666333Y-124734212D01*
X139666333Y-125180636D01*
X140034000Y-125180636D01*
X140042591Y-124772697D01*
X140051181Y-124364757D01*
X140389848Y-124364757D01*
X140398439Y-124772697D01*
X140407029Y-125180636D01*
X140834668Y-125180636D01*
X140851666Y-124241606D01*
X141028697Y-124232373D01*
X141205727Y-124223139D01*
X141205727Y-125611667D01*
X140300002Y-125611667D01*
X140068042Y-125611050D01*
X139854733Y-125609308D01*
X139668230Y-125606599D01*
X139516686Y-125603083D01*
X139408256Y-125598920D01*
X139351092Y-125594269D01*
X139345578Y-125592979D01*
X139328938Y-125579705D01*
X139316505Y-125549219D01*
X139307694Y-125493718D01*
X139301916Y-125405402D01*
X139298585Y-125276470D01*
X139297115Y-125099119D01*
X139296878Y-124945467D01*
X139296943Y-124726665D01*
G36*
X139303088Y-123107367D02*
X139320456Y-123027028D01*
X139335363Y-123004277D01*
X139370663Y-122989535D01*
X139455772Y-122958473D01*
X139582008Y-122914024D01*
X139740691Y-122859122D01*
X139923141Y-122796699D01*
X140120678Y-122729690D01*
X140324621Y-122661026D01*
X140526291Y-122593642D01*
X140717005Y-122530471D01*
X140888085Y-122474445D01*
X141030850Y-122428498D01*
X141136620Y-122395563D01*
X141137854Y-122395191D01*
X141174198Y-122386852D01*
X141194613Y-122397212D01*
X141202755Y-122438193D01*
X141202279Y-122521715D01*
X141199429Y-122595970D01*
X141190333Y-122818038D01*
X141021000Y-122868976D01*
X140851666Y-122919913D01*
X140851666Y-123561748D01*
X140944030Y-123582210D01*
X141070254Y-123613477D01*
X141147654Y-123647527D01*
X141188107Y-123697486D01*
X141203489Y-123776479D01*
X141205727Y-123871389D01*
X141201196Y-123991531D01*
X141186913Y-124056108D01*
X141167242Y-124071381D01*
X141127843Y-124061524D01*
X141039313Y-124034453D01*
X140910708Y-123993097D01*
X140751083Y-123940387D01*
X140569496Y-123879252D01*
X140497606Y-123854758D01*
X140434612Y-123833258D01*
X140434612Y-123416798D01*
X140455351Y-123403563D01*
X140464492Y-123357038D01*
X140466767Y-123264864D01*
X140466818Y-123228113D01*
X140466818Y-123026349D01*
X140305181Y-123083635D01*
X140176712Y-123127640D01*
X140040341Y-123172119D01*
X139989606Y-123187950D01*
X139910106Y-123217093D01*
X139875175Y-123240654D01*
X139881848Y-123250923D01*
X139934634Y-123267892D01*
X140031902Y-123298081D01*
X140159147Y-123337039D01*
X140301865Y-123380319D01*
X140397545Y-123409107D01*
X140434612Y-123416798D01*
X140434612Y-123833258D01*
X140310606Y-123790932D01*
X140142750Y-123733813D01*
X140002970Y-123686426D01*
X139900195Y-123651797D01*
X139843356Y-123632950D01*
X139835666Y-123630557D01*
X139686524Y-123585275D01*
X139589363Y-123548324D01*
X139520195Y-123518834D01*
X139429126Y-123481579D01*
X139412333Y-123474860D01*
X139296878Y-123428869D01*
X139296878Y-123230947D01*
X139303088Y-123107367D01*
X139303088Y-123107367D01*
G37*
X139303088Y-123107367D02*
X139320456Y-123027028D01*
X139335363Y-123004277D01*
X139370663Y-122989535D01*
X139455772Y-122958473D01*
X139582008Y-122914024D01*
X139740691Y-122859122D01*
X139923141Y-122796699D01*
X140120678Y-122729690D01*
X140324621Y-122661026D01*
X140526291Y-122593642D01*
X140717005Y-122530471D01*
X140888085Y-122474445D01*
X141030850Y-122428498D01*
X141136620Y-122395563D01*
X141137854Y-122395191D01*
X141174198Y-122386852D01*
X141194613Y-122397212D01*
X141202755Y-122438193D01*
X141202279Y-122521715D01*
X141199429Y-122595970D01*
X141190333Y-122818038D01*
X141021000Y-122868976D01*
X140851666Y-122919913D01*
X140851666Y-123561748D01*
X140944030Y-123582210D01*
X141070254Y-123613477D01*
X141147654Y-123647527D01*
X141188107Y-123697486D01*
X141203489Y-123776479D01*
X141205727Y-123871389D01*
X141201196Y-123991531D01*
X141186913Y-124056108D01*
X141167242Y-124071381D01*
X141127843Y-124061524D01*
X141039313Y-124034453D01*
X140910708Y-123993097D01*
X140751083Y-123940387D01*
X140569496Y-123879252D01*
X140497606Y-123854758D01*
X140434612Y-123833258D01*
X140434612Y-123416798D01*
X140455351Y-123403563D01*
X140464492Y-123357038D01*
X140466767Y-123264864D01*
X140466818Y-123228113D01*
X140466818Y-123026349D01*
X140305181Y-123083635D01*
X140176712Y-123127640D01*
X140040341Y-123172119D01*
X139989606Y-123187950D01*
X139910106Y-123217093D01*
X139875175Y-123240654D01*
X139881848Y-123250923D01*
X139934634Y-123267892D01*
X140031902Y-123298081D01*
X140159147Y-123337039D01*
X140301865Y-123380319D01*
X140397545Y-123409107D01*
X140434612Y-123416798D01*
X140434612Y-123833258D01*
X140310606Y-123790932D01*
X140142750Y-123733813D01*
X140002970Y-123686426D01*
X139900195Y-123651797D01*
X139843356Y-123632950D01*
X139835666Y-123630557D01*
X139686524Y-123585275D01*
X139589363Y-123548324D01*
X139520195Y-123518834D01*
X139429126Y-123481579D01*
X139412333Y-123474860D01*
X139296878Y-123428869D01*
X139296878Y-123230947D01*
X139303088Y-123107367D01*
G36*
X139411014Y-121711214D02*
X139543322Y-121642647D01*
X139703885Y-121558061D01*
X139876464Y-121466149D01*
X140044824Y-121375606D01*
X140192725Y-121295126D01*
X140303930Y-121233404D01*
X140312878Y-121228330D01*
X140482212Y-121132030D01*
X139897242Y-121114913D01*
X139714348Y-121109275D01*
X139553856Y-121103783D01*
X139425418Y-121098813D01*
X139338685Y-121094738D01*
X139303308Y-121091935D01*
X139303039Y-121091822D01*
X139299529Y-121060536D01*
X139299966Y-120985717D01*
X139303039Y-120908818D01*
X139312272Y-120731788D01*
X140260416Y-120723644D01*
X141208561Y-120715500D01*
X141199447Y-120923201D01*
X141190333Y-121130901D01*
X140974818Y-121249452D01*
X140847140Y-121319239D01*
X140689244Y-121404886D01*
X140517753Y-121497443D01*
X140349291Y-121587958D01*
X140200483Y-121667480D01*
X140087951Y-121727058D01*
X140081969Y-121730195D01*
X140053738Y-121746716D01*
X140045255Y-121759168D01*
X140063171Y-121768284D01*
X140114135Y-121774793D01*
X140204799Y-121779429D01*
X140341810Y-121782922D01*
X140531821Y-121786004D01*
X140597666Y-121786923D01*
X141205727Y-121795271D01*
X141205727Y-122195102D01*
X140259000Y-122186960D01*
X139312272Y-122178818D01*
X139303257Y-121974870D01*
X139294241Y-121770921D01*
X139411014Y-121711214D01*
X139411014Y-121711214D01*
G37*
X139411014Y-121711214D02*
X139543322Y-121642647D01*
X139703885Y-121558061D01*
X139876464Y-121466149D01*
X140044824Y-121375606D01*
X140192725Y-121295126D01*
X140303930Y-121233404D01*
X140312878Y-121228330D01*
X140482212Y-121132030D01*
X139897242Y-121114913D01*
X139714348Y-121109275D01*
X139553856Y-121103783D01*
X139425418Y-121098813D01*
X139338685Y-121094738D01*
X139303308Y-121091935D01*
X139303039Y-121091822D01*
X139299529Y-121060536D01*
X139299966Y-120985717D01*
X139303039Y-120908818D01*
X139312272Y-120731788D01*
X140260416Y-120723644D01*
X141208561Y-120715500D01*
X141199447Y-120923201D01*
X141190333Y-121130901D01*
X140974818Y-121249452D01*
X140847140Y-121319239D01*
X140689244Y-121404886D01*
X140517753Y-121497443D01*
X140349291Y-121587958D01*
X140200483Y-121667480D01*
X140087951Y-121727058D01*
X140081969Y-121730195D01*
X140053738Y-121746716D01*
X140045255Y-121759168D01*
X140063171Y-121768284D01*
X140114135Y-121774793D01*
X140204799Y-121779429D01*
X140341810Y-121782922D01*
X140531821Y-121786004D01*
X140597666Y-121786923D01*
X141205727Y-121795271D01*
X141205727Y-122195102D01*
X140259000Y-122186960D01*
X139312272Y-122178818D01*
X139303257Y-121974870D01*
X139294241Y-121770921D01*
X139411014Y-121711214D01*
G36*
X139302827Y-119358057D02*
X139312272Y-119192394D01*
X139466212Y-119153219D01*
X139553315Y-119132692D01*
X139684713Y-119103746D01*
X139844284Y-119069849D01*
X140015905Y-119034465D01*
X140061037Y-119025343D01*
X140260825Y-118983953D01*
X140402346Y-118951679D01*
X140488099Y-118927700D01*
X140520585Y-118911189D01*
X140502305Y-118901325D01*
X140448858Y-118897553D01*
X140366673Y-118892039D01*
X140312878Y-118883911D01*
X140251624Y-118870975D01*
X140144592Y-118850342D01*
X140006687Y-118824781D01*
X139852810Y-118797064D01*
X139727909Y-118775145D01*
X139604885Y-118753439D01*
X139484004Y-118731482D01*
X139435424Y-118722394D01*
X139312272Y-118698966D01*
X139303101Y-118506751D01*
X139300577Y-118410775D01*
X139310519Y-118344909D01*
X139342905Y-118300757D01*
X139407712Y-118269923D01*
X139514918Y-118244008D01*
X139643651Y-118220148D01*
X139778023Y-118195993D01*
X139916151Y-118171068D01*
X139989606Y-118157761D01*
X140108501Y-118136799D01*
X140224783Y-118117269D01*
X140260367Y-118111584D01*
X140394050Y-118088856D01*
X140468906Y-118070103D01*
X140487342Y-118052803D01*
X140451763Y-118034433D01*
X140364575Y-118012469D01*
X140356533Y-118010717D01*
X140232239Y-117983787D01*
X140110840Y-117957450D01*
X140051181Y-117944490D01*
X139946778Y-117922179D01*
X139820396Y-117895696D01*
X139758697Y-117882949D01*
X139631326Y-117855051D01*
X139501936Y-117824049D01*
X139450818Y-117810787D01*
X139312272Y-117773385D01*
X139302814Y-117608736D01*
X139302232Y-117511417D01*
X139310949Y-117439541D01*
X139320537Y-117416905D01*
X139359073Y-117414662D01*
X139447959Y-117427608D01*
X139578335Y-117454033D01*
X139741337Y-117492231D01*
X139837995Y-117516681D01*
X140012536Y-117561750D01*
X140174740Y-117603398D01*
X140311436Y-117638260D01*
X140409454Y-117662972D01*
X140443727Y-117671410D01*
X140567218Y-117701545D01*
X140707500Y-117736712D01*
X140881307Y-117781130D01*
X140997909Y-117811203D01*
X141205727Y-117864921D01*
X141205727Y-118058556D01*
X141203674Y-118165158D01*
X141194158Y-118225302D01*
X141172139Y-118254060D01*
X141136454Y-118265762D01*
X140909496Y-118309572D01*
X140687874Y-118351152D01*
X140480639Y-118388912D01*
X140296843Y-118421260D01*
X140145538Y-118446608D01*
X140035776Y-118463363D01*
X139976609Y-118469936D01*
X139974212Y-118469974D01*
X139924825Y-118474263D01*
X139931014Y-118491037D01*
X139943424Y-118499667D01*
X140006665Y-118521426D01*
X140085072Y-118529983D01*
X140188416Y-118539837D01*
X140269799Y-118557725D01*
X140334157Y-118573582D01*
X140443990Y-118596766D01*
X140584083Y-118624200D01*
X140739222Y-118652806D01*
X140743909Y-118653642D01*
X140893096Y-118680556D01*
X141021739Y-118704328D01*
X141116874Y-118722524D01*
X141165536Y-118732708D01*
X141167242Y-118733163D01*
X141192196Y-118771732D01*
X141204468Y-118868223D01*
X141205727Y-118927656D01*
X141202139Y-119035278D01*
X141188798Y-119095998D01*
X141161834Y-119124210D01*
X141151848Y-119128079D01*
X141099754Y-119142787D01*
X141004088Y-119168490D01*
X140880926Y-119200898D01*
X140805484Y-119220493D01*
X140470219Y-119307105D01*
X140189630Y-119379369D01*
X139958793Y-119438413D01*
X139772785Y-119485363D01*
X139626681Y-119521348D01*
X139515557Y-119547493D01*
X139434491Y-119564926D01*
X139378559Y-119574774D01*
X139342836Y-119578165D01*
X139322398Y-119576224D01*
X139312323Y-119570081D01*
X139308519Y-119563168D01*
X139301627Y-119511667D01*
X139300405Y-119422546D01*
X139302827Y-119358057D01*
X139302827Y-119358057D01*
G37*
X139302827Y-119358057D02*
X139312272Y-119192394D01*
X139466212Y-119153219D01*
X139553315Y-119132692D01*
X139684713Y-119103746D01*
X139844284Y-119069849D01*
X140015905Y-119034465D01*
X140061037Y-119025343D01*
X140260825Y-118983953D01*
X140402346Y-118951679D01*
X140488099Y-118927700D01*
X140520585Y-118911189D01*
X140502305Y-118901325D01*
X140448858Y-118897553D01*
X140366673Y-118892039D01*
X140312878Y-118883911D01*
X140251624Y-118870975D01*
X140144592Y-118850342D01*
X140006687Y-118824781D01*
X139852810Y-118797064D01*
X139727909Y-118775145D01*
X139604885Y-118753439D01*
X139484004Y-118731482D01*
X139435424Y-118722394D01*
X139312272Y-118698966D01*
X139303101Y-118506751D01*
X139300577Y-118410775D01*
X139310519Y-118344909D01*
X139342905Y-118300757D01*
X139407712Y-118269923D01*
X139514918Y-118244008D01*
X139643651Y-118220148D01*
X139778023Y-118195993D01*
X139916151Y-118171068D01*
X139989606Y-118157761D01*
X140108501Y-118136799D01*
X140224783Y-118117269D01*
X140260367Y-118111584D01*
X140394050Y-118088856D01*
X140468906Y-118070103D01*
X140487342Y-118052803D01*
X140451763Y-118034433D01*
X140364575Y-118012469D01*
X140356533Y-118010717D01*
X140232239Y-117983787D01*
X140110840Y-117957450D01*
X140051181Y-117944490D01*
X139946778Y-117922179D01*
X139820396Y-117895696D01*
X139758697Y-117882949D01*
X139631326Y-117855051D01*
X139501936Y-117824049D01*
X139450818Y-117810787D01*
X139312272Y-117773385D01*
X139302814Y-117608736D01*
X139302232Y-117511417D01*
X139310949Y-117439541D01*
X139320537Y-117416905D01*
X139359073Y-117414662D01*
X139447959Y-117427608D01*
X139578335Y-117454033D01*
X139741337Y-117492231D01*
X139837995Y-117516681D01*
X140012536Y-117561750D01*
X140174740Y-117603398D01*
X140311436Y-117638260D01*
X140409454Y-117662972D01*
X140443727Y-117671410D01*
X140567218Y-117701545D01*
X140707500Y-117736712D01*
X140881307Y-117781130D01*
X140997909Y-117811203D01*
X141205727Y-117864921D01*
X141205727Y-118058556D01*
X141203674Y-118165158D01*
X141194158Y-118225302D01*
X141172139Y-118254060D01*
X141136454Y-118265762D01*
X140909496Y-118309572D01*
X140687874Y-118351152D01*
X140480639Y-118388912D01*
X140296843Y-118421260D01*
X140145538Y-118446608D01*
X140035776Y-118463363D01*
X139976609Y-118469936D01*
X139974212Y-118469974D01*
X139924825Y-118474263D01*
X139931014Y-118491037D01*
X139943424Y-118499667D01*
X140006665Y-118521426D01*
X140085072Y-118529983D01*
X140188416Y-118539837D01*
X140269799Y-118557725D01*
X140334157Y-118573582D01*
X140443990Y-118596766D01*
X140584083Y-118624200D01*
X140739222Y-118652806D01*
X140743909Y-118653642D01*
X140893096Y-118680556D01*
X141021739Y-118704328D01*
X141116874Y-118722524D01*
X141165536Y-118732708D01*
X141167242Y-118733163D01*
X141192196Y-118771732D01*
X141204468Y-118868223D01*
X141205727Y-118927656D01*
X141202139Y-119035278D01*
X141188798Y-119095998D01*
X141161834Y-119124210D01*
X141151848Y-119128079D01*
X141099754Y-119142787D01*
X141004088Y-119168490D01*
X140880926Y-119200898D01*
X140805484Y-119220493D01*
X140470219Y-119307105D01*
X140189630Y-119379369D01*
X139958793Y-119438413D01*
X139772785Y-119485363D01*
X139626681Y-119521348D01*
X139515557Y-119547493D01*
X139434491Y-119564926D01*
X139378559Y-119574774D01*
X139342836Y-119578165D01*
X139322398Y-119576224D01*
X139312323Y-119570081D01*
X139308519Y-119563168D01*
X139301627Y-119511667D01*
X139300405Y-119422546D01*
X139302827Y-119358057D01*
G36*
X139489303Y-115858070D02*
X139666333Y-115848836D01*
X139666333Y-116744757D01*
X140035787Y-116744757D01*
X140035787Y-115944273D01*
X140405242Y-115944273D01*
X140405242Y-116744757D01*
X140836272Y-116744757D01*
X140836272Y-115821121D01*
X141205727Y-115821121D01*
X141205727Y-117145890D01*
X140259000Y-117137748D01*
X139312272Y-117129606D01*
X139312272Y-115867303D01*
X139489303Y-115858070D01*
X139489303Y-115858070D01*
G37*
X139489303Y-115858070D02*
X139666333Y-115848836D01*
X139666333Y-116744757D01*
X140035787Y-116744757D01*
X140035787Y-115944273D01*
X140405242Y-115944273D01*
X140405242Y-116744757D01*
X140836272Y-116744757D01*
X140836272Y-115821121D01*
X141205727Y-115821121D01*
X141205727Y-117145890D01*
X140259000Y-117137748D01*
X139312272Y-117129606D01*
X139312272Y-115867303D01*
X139489303Y-115858070D01*
G36*
X139302800Y-115294813D02*
X139312272Y-115128394D01*
X140066575Y-115111619D01*
X140275201Y-115106739D01*
X140462250Y-115101903D01*
X140619296Y-115097366D01*
X140737915Y-115093384D01*
X140809681Y-115090214D01*
X140827682Y-115088529D01*
X140830805Y-115057203D01*
X140834570Y-114975867D01*
X140838549Y-114856077D01*
X140842311Y-114709389D01*
X140843076Y-114674273D01*
X140851666Y-114266333D01*
X141028697Y-114257100D01*
X141205727Y-114247866D01*
X141205727Y-115513242D01*
X140289787Y-115512771D01*
X140057019Y-115511821D01*
X139843343Y-115509362D01*
X139656763Y-115505612D01*
X139505287Y-115500789D01*
X139396920Y-115495111D01*
X139339668Y-115488795D01*
X139333588Y-115486766D01*
X139307548Y-115436993D01*
X139301243Y-115331774D01*
X139302800Y-115294813D01*
X139302800Y-115294813D01*
G37*
X139302800Y-115294813D02*
X139312272Y-115128394D01*
X140066575Y-115111619D01*
X140275201Y-115106739D01*
X140462250Y-115101903D01*
X140619296Y-115097366D01*
X140737915Y-115093384D01*
X140809681Y-115090214D01*
X140827682Y-115088529D01*
X140830805Y-115057203D01*
X140834570Y-114975867D01*
X140838549Y-114856077D01*
X140842311Y-114709389D01*
X140843076Y-114674273D01*
X140851666Y-114266333D01*
X141028697Y-114257100D01*
X141205727Y-114247866D01*
X141205727Y-115513242D01*
X140289787Y-115512771D01*
X140057019Y-115511821D01*
X139843343Y-115509362D01*
X139656763Y-115505612D01*
X139505287Y-115500789D01*
X139396920Y-115495111D01*
X139339668Y-115488795D01*
X139333588Y-115486766D01*
X139307548Y-115436993D01*
X139301243Y-115331774D01*
X139302800Y-115294813D01*
G36*
X140836272Y-113604394D02*
X140836272Y-112742333D01*
X141205727Y-112742333D01*
X141205727Y-113973848D01*
X139296878Y-113973848D01*
X139296878Y-113604394D01*
X140836272Y-113604394D01*
X140836272Y-113604394D01*
G37*
X140836272Y-113604394D02*
X140836272Y-112742333D01*
X141205727Y-112742333D01*
X141205727Y-113973848D01*
X139296878Y-113973848D01*
X139296878Y-113604394D01*
X140836272Y-113604394D01*
D13*
G04 #@! TO.C,J1*
X158040000Y-128030000D02*
X158040000Y-138190000D01*
X159310000Y-128030000D02*
X151690000Y-128030000D01*
X151690000Y-128030000D02*
X151690000Y-138190000D01*
X151690000Y-138190000D02*
X159310000Y-138190000D01*
X159310000Y-138190000D02*
X159310000Y-128030000D01*
G04 #@! TD*
%LPC*%
D15*
G04 #@! TO.C,J2*
X156000000Y-108950000D03*
X156000000Y-111490000D03*
X156000000Y-114030000D03*
D16*
X156000000Y-116570000D03*
G04 #@! TD*
D17*
G04 #@! TO.C,J3*
X105500000Y-102000000D03*
D18*
X108040000Y-102000000D03*
X110580000Y-102000000D03*
X113120000Y-102000000D03*
X115660000Y-102000000D03*
X118200000Y-102000000D03*
X120740000Y-102000000D03*
X123280000Y-102000000D03*
G04 #@! TD*
D19*
G04 #@! TO.C,U1*
X147000000Y-105170000D03*
X147000000Y-135650000D03*
X147000000Y-130570000D03*
X129300000Y-110250000D03*
X129300000Y-105170000D03*
G04 #@! TD*
D20*
G04 #@! TO.C,U2*
X101570000Y-130390000D03*
X124430000Y-130390000D03*
X101570000Y-127850000D03*
X124430000Y-127850000D03*
X101570000Y-125310000D03*
X124430000Y-125310000D03*
X101570000Y-122770000D03*
X124430000Y-122770000D03*
X101570000Y-120230000D03*
X124430000Y-120230000D03*
X101570000Y-117690000D03*
X124430000Y-117690000D03*
X101570000Y-115150000D03*
X124430000Y-115150000D03*
X101570000Y-112610000D03*
X124430000Y-112610000D03*
G04 #@! TD*
D21*
G04 #@! TO.C,REF\002A\002A*
X102000000Y-102000000D03*
G04 #@! TD*
G04 #@! TO.C,REF\002A\002A*
X158000000Y-102000000D03*
G04 #@! TD*
G04 #@! TO.C,REF\002A\002A*
X102000000Y-138000000D03*
G04 #@! TD*
D22*
G04 #@! TO.C,J1*
X155500000Y-135650000D03*
D23*
X155500000Y-130570000D03*
G04 #@! TD*
M02*
