G04 #@! TF.GenerationSoftware,KiCad,Pcbnew,(5.0.2)-1*
G04 #@! TF.CreationDate,2019-01-04T15:23:43-05:00*
G04 #@! TF.ProjectId,HASwitchPlate,48415377-6974-4636-9850-6c6174652e6b,rev?*
G04 #@! TF.SameCoordinates,Original*
G04 #@! TF.FileFunction,Copper,L2,Bot*
G04 #@! TF.FilePolarity,Positive*
%FSLAX46Y46*%
G04 Gerber Fmt 4.6, Leading zero omitted, Abs format (unit mm)*
G04 Created by KiCad (PCBNEW (5.0.2)-1) date 1/4/2019 3:23:43 PM*
%MOMM*%
%LPD*%
G01*
G04 APERTURE LIST*
G04 #@! TA.AperFunction,NonConductor*
%ADD10C,0.150000*%
G04 #@! TD*
G04 #@! TA.AperFunction,ComponentPad*
%ADD11C,1.750000*%
G04 #@! TD*
G04 #@! TA.AperFunction,ComponentPad*
%ADD12R,1.750000X1.750000*%
G04 #@! TD*
G04 #@! TA.AperFunction,ComponentPad*
%ADD13R,1.700000X1.700000*%
G04 #@! TD*
G04 #@! TA.AperFunction,ComponentPad*
%ADD14O,1.700000X1.700000*%
G04 #@! TD*
G04 #@! TA.AperFunction,ComponentPad*
%ADD15C,2.290000*%
G04 #@! TD*
G04 #@! TA.AperFunction,ComponentPad*
%ADD16C,1.800000*%
G04 #@! TD*
G04 #@! TA.AperFunction,ComponentPad*
%ADD17R,3.000000X3.000000*%
G04 #@! TD*
G04 #@! TA.AperFunction,ComponentPad*
%ADD18C,3.000000*%
G04 #@! TD*
G04 #@! TA.AperFunction,ViaPad*
%ADD19C,0.600000*%
G04 #@! TD*
G04 #@! TA.AperFunction,Conductor*
%ADD20C,2.000000*%
G04 #@! TD*
G04 #@! TA.AperFunction,Conductor*
%ADD21C,1.000000*%
G04 #@! TD*
G04 #@! TA.AperFunction,Conductor*
%ADD22C,0.200000*%
G04 #@! TD*
G04 APERTURE END LIST*
D10*
X160000000Y-101000000D02*
X160000000Y-127000000D01*
X160000000Y-132100000D02*
X160000000Y-129000000D01*
X143500000Y-128000000D02*
G75*
G03X144500000Y-129000000I1000000J0D01*
G01*
X144500000Y-127000000D02*
G75*
G03X143500000Y-128000000I0J-1000000D01*
G01*
X144500000Y-127000000D02*
X160000000Y-127000000D01*
X144500000Y-129000000D02*
X160000000Y-129000000D01*
X118500000Y-140000000D02*
X159000000Y-140000000D01*
X101000000Y-140000000D02*
X106000000Y-140000000D01*
X108000000Y-138000000D02*
X116500000Y-138000000D01*
X117500000Y-139000000D02*
G75*
G03X118500000Y-140000000I1000000J0D01*
G01*
X117500000Y-139000000D02*
G75*
G03X116500000Y-138000000I-1000000J0D01*
G01*
X107998255Y-138000002D02*
G75*
G03X107000000Y-139000000I1745J-999998D01*
G01*
X106000000Y-140000000D02*
G75*
G03X107000000Y-139000000I0J1000000D01*
G01*
X101000000Y-100000000D02*
G75*
G03X100000000Y-101000000I0J-1000000D01*
G01*
X100000000Y-139000000D02*
G75*
G03X101000000Y-140000000I1000000J0D01*
G01*
X159000000Y-140000000D02*
G75*
G03X160000000Y-139000000I0J1000000D01*
G01*
X160000000Y-101000000D02*
G75*
G03X159000000Y-100000000I-1000000J0D01*
G01*
X143500000Y-133100000D02*
G75*
G03X144500000Y-134100000I1000000J0D01*
G01*
X144500000Y-132100000D02*
G75*
G03X143500000Y-133100000I0J-1000000D01*
G01*
X160000000Y-134100000D02*
X160000000Y-139000000D01*
X144500000Y-134100000D02*
X160000000Y-134100000D01*
X144500000Y-132100000D02*
X160000000Y-132100000D01*
X101000000Y-100000000D02*
X159000000Y-100000000D01*
X100000000Y-101000000D02*
X100000000Y-139000000D01*
D11*
G04 #@! TO.P,J2,4*
G04 #@! TO.N,/+5V*
X156000000Y-108950000D03*
G04 #@! TO.P,J2,3*
G04 #@! TO.N,/LCD_TX*
X156000000Y-111490000D03*
G04 #@! TO.P,J2,2*
G04 #@! TO.N,/LCD_RX*
X156000000Y-114030000D03*
D12*
G04 #@! TO.P,J2,1*
G04 #@! TO.N,/GND*
X156000000Y-116570000D03*
G04 #@! TD*
D13*
G04 #@! TO.P,J3,1*
G04 #@! TO.N,/GND*
X105500000Y-102000000D03*
D14*
G04 #@! TO.P,J3,2*
G04 #@! TO.N,/+5V*
X108040000Y-102000000D03*
G04 #@! TO.P,J3,3*
G04 #@! TO.N,/+3.3V*
X110580000Y-102000000D03*
G04 #@! TO.P,J3,4*
G04 #@! TO.N,/A0*
X113120000Y-102000000D03*
G04 #@! TO.P,J3,5*
G04 #@! TO.N,/D0*
X115660000Y-102000000D03*
G04 #@! TO.P,J3,6*
G04 #@! TO.N,/D1*
X118200000Y-102000000D03*
G04 #@! TO.P,J3,7*
G04 #@! TO.N,/D2*
X120740000Y-102000000D03*
G04 #@! TO.P,J3,8*
G04 #@! TO.N,/D8_DBG*
X123280000Y-102000000D03*
G04 #@! TD*
D15*
G04 #@! TO.P,U1,5*
G04 #@! TO.N,N/C*
X147000000Y-105170000D03*
G04 #@! TO.P,U1,1*
G04 #@! TO.N,/AC_L*
X147000000Y-135650000D03*
G04 #@! TO.P,U1,2*
G04 #@! TO.N,/AC_N*
X147000000Y-130570000D03*
G04 #@! TO.P,U1,3*
G04 #@! TO.N,/+5V*
X129300000Y-110250000D03*
G04 #@! TO.P,U1,4*
G04 #@! TO.N,/GND*
X129300000Y-105170000D03*
G04 #@! TD*
D16*
G04 #@! TO.P,U2,16*
G04 #@! TO.N,/+3.3V*
X101570000Y-130390000D03*
G04 #@! TO.P,U2,1*
G04 #@! TO.N,/+5V*
X124430000Y-130390000D03*
G04 #@! TO.P,U2,15*
G04 #@! TO.N,/D8_DBG*
X101570000Y-127850000D03*
G04 #@! TO.P,U2,2*
G04 #@! TO.N,/GND*
X124430000Y-127850000D03*
G04 #@! TO.P,U2,14*
G04 #@! TO.N,/LCD_TX*
X101570000Y-125310000D03*
G04 #@! TO.P,U2,3*
G04 #@! TO.N,/LCD_RX*
X124430000Y-125310000D03*
G04 #@! TO.P,U2,13*
G04 #@! TO.N,N/C*
X101570000Y-122770000D03*
G04 #@! TO.P,U2,4*
X124430000Y-122770000D03*
G04 #@! TO.P,U2,12*
X101570000Y-120230000D03*
G04 #@! TO.P,U2,5*
G04 #@! TO.N,/D2*
X124430000Y-120230000D03*
G04 #@! TO.P,U2,11*
G04 #@! TO.N,/D0*
X101570000Y-117690000D03*
G04 #@! TO.P,U2,6*
G04 #@! TO.N,/D1*
X124430000Y-117690000D03*
G04 #@! TO.P,U2,10*
G04 #@! TO.N,/A0*
X101570000Y-115150000D03*
G04 #@! TO.P,U2,7*
G04 #@! TO.N,N/C*
X124430000Y-115150000D03*
G04 #@! TO.P,U2,9*
X101570000Y-112610000D03*
G04 #@! TO.P,U2,8*
X124430000Y-112610000D03*
G04 #@! TD*
D17*
G04 #@! TO.P,J1,1*
G04 #@! TO.N,/AC_L*
X155500000Y-135650000D03*
D18*
G04 #@! TO.P,J1,2*
G04 #@! TO.N,/AC_N*
X155500000Y-130570000D03*
G04 #@! TD*
D19*
G04 #@! TO.N,/LCD_TX*
X107200000Y-125300000D03*
G04 #@! TD*
D20*
G04 #@! TO.N,/AC_L*
X147000000Y-135650000D02*
X155500000Y-135650000D01*
D21*
G04 #@! TO.N,/LCD_TX*
X107200000Y-125300000D02*
X114190001Y-132290001D01*
X114190001Y-132290001D02*
X133962563Y-132290001D01*
X133962563Y-132290001D02*
X154762564Y-111490000D01*
X154762564Y-111490000D02*
X156000000Y-111490000D01*
D20*
G04 #@! TO.N,/AC_N*
X147000000Y-130570000D02*
X155500000Y-130570000D01*
D21*
G04 #@! TO.N,/A0*
X101570000Y-115150000D02*
X102842792Y-115150000D01*
X113120000Y-104872792D02*
X113120000Y-103202081D01*
X102842792Y-115150000D02*
X113120000Y-104872792D01*
X113120000Y-103202081D02*
X113120000Y-102000000D01*
G04 #@! TO.N,/D0*
X101570000Y-117690000D02*
X102842792Y-117690000D01*
X115660000Y-104872792D02*
X115660000Y-103202081D01*
X102842792Y-117690000D02*
X115660000Y-104872792D01*
X115660000Y-103202081D02*
X115660000Y-102000000D01*
G04 #@! TO.N,/D8_DBG*
X101570000Y-127850000D02*
X101842002Y-127850000D01*
X101842002Y-127850000D02*
X123280000Y-106412002D01*
X123280000Y-106412002D02*
X123280000Y-103202081D01*
X123280000Y-103202081D02*
X123280000Y-102000000D01*
G04 #@! TD*
D22*
G04 #@! TO.N,/GND*
G36*
X157037027Y-100558810D02*
X156558810Y-101037027D01*
X156300000Y-101661849D01*
X156300000Y-102338151D01*
X156558810Y-102962973D01*
X157037027Y-103441190D01*
X157661849Y-103700000D01*
X158338151Y-103700000D01*
X158962973Y-103441190D01*
X159441190Y-102962973D01*
X159605000Y-102567501D01*
X159605001Y-126062000D01*
X141910000Y-126062000D01*
X141871732Y-126069612D01*
X141839289Y-126091289D01*
X141817612Y-126123732D01*
X141810000Y-126162000D01*
X141810000Y-139605000D01*
X118538902Y-139605000D01*
X118271440Y-139551799D01*
X118077671Y-139422327D01*
X117948201Y-139228561D01*
X117887410Y-138922940D01*
X117887410Y-138922939D01*
X117811290Y-138540257D01*
X117779537Y-138463597D01*
X117752310Y-138397867D01*
X117535538Y-138073443D01*
X117481047Y-138018953D01*
X117426557Y-137964462D01*
X117102133Y-137747689D01*
X116959743Y-137688710D01*
X116577060Y-137612590D01*
X116577058Y-137612590D01*
X116538901Y-137605000D01*
X107961099Y-137605000D01*
X107922603Y-137612657D01*
X107920857Y-137612659D01*
X107539919Y-137688777D01*
X107468722Y-137718341D01*
X107397867Y-137747690D01*
X107073443Y-137964462D01*
X107018953Y-138018953D01*
X106964462Y-138073443D01*
X106747689Y-138397867D01*
X106700272Y-138512343D01*
X106688710Y-138540257D01*
X106612590Y-138922939D01*
X106612590Y-138922940D01*
X106551799Y-139228560D01*
X106422327Y-139422329D01*
X106228561Y-139551799D01*
X105961098Y-139605000D01*
X102567501Y-139605000D01*
X102962973Y-139441190D01*
X103441190Y-138962973D01*
X103700000Y-138338151D01*
X103700000Y-137661849D01*
X103441190Y-137037027D01*
X102962973Y-136558810D01*
X102338151Y-136300000D01*
X101661849Y-136300000D01*
X101037027Y-136558810D01*
X100558810Y-137037027D01*
X100395000Y-137432499D01*
X100395000Y-131336321D01*
X100720318Y-131661639D01*
X101271631Y-131890000D01*
X101868369Y-131890000D01*
X102419682Y-131661639D01*
X102841639Y-131239682D01*
X103070000Y-130688369D01*
X103070000Y-130091631D01*
X102841639Y-129540318D01*
X102421321Y-129120000D01*
X102841639Y-128699682D01*
X103049305Y-128198331D01*
X105147636Y-126100000D01*
X106444366Y-126100000D01*
X113335575Y-132991210D01*
X113396945Y-133083057D01*
X113666598Y-133263233D01*
X113760802Y-133326178D01*
X114190000Y-133411551D01*
X114298339Y-133390001D01*
X133854224Y-133390001D01*
X133962563Y-133411551D01*
X134070902Y-133390001D01*
X134391762Y-133326178D01*
X134755619Y-133083057D01*
X134816991Y-132991207D01*
X150648698Y-117159500D01*
X154517000Y-117159500D01*
X154517000Y-117565939D01*
X154609563Y-117789405D01*
X154780596Y-117960438D01*
X155004062Y-118053000D01*
X155410500Y-118053000D01*
X155562500Y-117901000D01*
X155562500Y-117007500D01*
X156437500Y-117007500D01*
X156437500Y-117901000D01*
X156589500Y-118053000D01*
X156995938Y-118053000D01*
X157219404Y-117960438D01*
X157390437Y-117789405D01*
X157483000Y-117565939D01*
X157483000Y-117159500D01*
X157331000Y-117007500D01*
X156437500Y-117007500D01*
X155562500Y-117007500D01*
X154669000Y-117007500D01*
X154517000Y-117159500D01*
X150648698Y-117159500D01*
X155116117Y-112692082D01*
X155164480Y-112740445D01*
X155211690Y-112760000D01*
X155164480Y-112779555D01*
X154749555Y-113194480D01*
X154525000Y-113736604D01*
X154525000Y-114323396D01*
X154749555Y-114865520D01*
X154980708Y-115096673D01*
X154780596Y-115179562D01*
X154609563Y-115350595D01*
X154517000Y-115574061D01*
X154517000Y-115980500D01*
X154669000Y-116132500D01*
X155562500Y-116132500D01*
X155562500Y-115900000D01*
X156437500Y-115900000D01*
X156437500Y-116132500D01*
X157331000Y-116132500D01*
X157483000Y-115980500D01*
X157483000Y-115574061D01*
X157390437Y-115350595D01*
X157219404Y-115179562D01*
X157019292Y-115096673D01*
X157250445Y-114865520D01*
X157475000Y-114323396D01*
X157475000Y-113736604D01*
X157250445Y-113194480D01*
X156835520Y-112779555D01*
X156788310Y-112760000D01*
X156835520Y-112740445D01*
X157250445Y-112325520D01*
X157475000Y-111783396D01*
X157475000Y-111196604D01*
X157250445Y-110654480D01*
X156835520Y-110239555D01*
X156788310Y-110220000D01*
X156835520Y-110200445D01*
X157250445Y-109785520D01*
X157475000Y-109243396D01*
X157475000Y-108656604D01*
X157250445Y-108114480D01*
X156835520Y-107699555D01*
X156293396Y-107475000D01*
X155706604Y-107475000D01*
X155164480Y-107699555D01*
X154749555Y-108114480D01*
X154525000Y-108656604D01*
X154525000Y-109243396D01*
X154749555Y-109785520D01*
X155164480Y-110200445D01*
X155211690Y-110220000D01*
X155164480Y-110239555D01*
X155014035Y-110390000D01*
X154870903Y-110390000D01*
X154762564Y-110368450D01*
X154654225Y-110390000D01*
X154333365Y-110453823D01*
X153969508Y-110696944D01*
X153908138Y-110788791D01*
X133506929Y-131190001D01*
X125722218Y-131190001D01*
X125930000Y-130688369D01*
X125930000Y-130091631D01*
X125701639Y-129540318D01*
X125279682Y-129118361D01*
X124908016Y-128964412D01*
X124430000Y-128486396D01*
X123951984Y-128964412D01*
X123580318Y-129118361D01*
X123158361Y-129540318D01*
X122930000Y-130091631D01*
X122930000Y-130688369D01*
X123137782Y-131190001D01*
X114645636Y-131190001D01*
X111399986Y-127944351D01*
X122895355Y-127944351D01*
X122976066Y-128350115D01*
X123185187Y-128458417D01*
X123793604Y-127850000D01*
X125066396Y-127850000D01*
X125674813Y-128458417D01*
X125883934Y-128350115D01*
X125964645Y-127755649D01*
X125883934Y-127349885D01*
X125674813Y-127241583D01*
X125066396Y-127850000D01*
X123793604Y-127850000D01*
X123185187Y-127241583D01*
X122976066Y-127349885D01*
X122895355Y-127944351D01*
X111399986Y-127944351D01*
X109555634Y-126100000D01*
X123000000Y-126100000D01*
X123038268Y-126092388D01*
X123070711Y-126070711D01*
X123092388Y-126038268D01*
X123097476Y-126012691D01*
X123158361Y-126159682D01*
X123580318Y-126581639D01*
X123951984Y-126735588D01*
X124430000Y-127213604D01*
X124908016Y-126735588D01*
X125279682Y-126581639D01*
X125701639Y-126159682D01*
X125930000Y-125608369D01*
X125930000Y-125011631D01*
X125701639Y-124460318D01*
X125281321Y-124040000D01*
X125701639Y-123619682D01*
X125930000Y-123068369D01*
X125930000Y-122471631D01*
X125701639Y-121920318D01*
X125281321Y-121500000D01*
X125701639Y-121079682D01*
X125930000Y-120528369D01*
X125930000Y-119931631D01*
X125701639Y-119380318D01*
X125281321Y-118960000D01*
X125701639Y-118539682D01*
X125930000Y-117988369D01*
X125930000Y-117391631D01*
X125701639Y-116840318D01*
X125281321Y-116420000D01*
X125701639Y-115999682D01*
X125930000Y-115448369D01*
X125930000Y-114851631D01*
X125701639Y-114300318D01*
X125281321Y-113880000D01*
X125701639Y-113459682D01*
X125930000Y-112908369D01*
X125930000Y-112311631D01*
X125701639Y-111760318D01*
X125279682Y-111338361D01*
X124728369Y-111110000D01*
X124131631Y-111110000D01*
X123580318Y-111338361D01*
X123158361Y-111760318D01*
X123100000Y-111901214D01*
X123100000Y-109902898D01*
X127555000Y-109902898D01*
X127555000Y-110597102D01*
X127820660Y-111238463D01*
X128311537Y-111729340D01*
X128952898Y-111995000D01*
X129647102Y-111995000D01*
X130288463Y-111729340D01*
X130779340Y-111238463D01*
X131045000Y-110597102D01*
X131045000Y-109902898D01*
X130779340Y-109261537D01*
X130288463Y-108770660D01*
X129647102Y-108505000D01*
X128952898Y-108505000D01*
X128311537Y-108770660D01*
X127820660Y-109261537D01*
X127555000Y-109902898D01*
X123100000Y-109902898D01*
X123100000Y-108147637D01*
X123981209Y-107266428D01*
X124073056Y-107205058D01*
X124316177Y-106841201D01*
X124352616Y-106658007D01*
X128621631Y-106658007D01*
X128767940Y-106876313D01*
X129461418Y-106950038D01*
X129832060Y-106876313D01*
X129978369Y-106658007D01*
X129300000Y-105979637D01*
X128621631Y-106658007D01*
X124352616Y-106658007D01*
X124380000Y-106520341D01*
X124380000Y-106520340D01*
X124401550Y-106412002D01*
X124380000Y-106303663D01*
X124380000Y-105331418D01*
X127519962Y-105331418D01*
X127593687Y-105702060D01*
X127811993Y-105848369D01*
X128490363Y-105170000D01*
X130109637Y-105170000D01*
X130788007Y-105848369D01*
X131006313Y-105702060D01*
X131080038Y-105008582D01*
X131043104Y-104822898D01*
X145255000Y-104822898D01*
X145255000Y-105517102D01*
X145520660Y-106158463D01*
X146011537Y-106649340D01*
X146652898Y-106915000D01*
X147347102Y-106915000D01*
X147988463Y-106649340D01*
X148479340Y-106158463D01*
X148745000Y-105517102D01*
X148745000Y-104822898D01*
X148479340Y-104181537D01*
X147988463Y-103690660D01*
X147347102Y-103425000D01*
X146652898Y-103425000D01*
X146011537Y-103690660D01*
X145520660Y-104181537D01*
X145255000Y-104822898D01*
X131043104Y-104822898D01*
X131006313Y-104637940D01*
X130788007Y-104491631D01*
X130109637Y-105170000D01*
X128490363Y-105170000D01*
X127811993Y-104491631D01*
X127593687Y-104637940D01*
X127519962Y-105331418D01*
X124380000Y-105331418D01*
X124380000Y-103681993D01*
X128621631Y-103681993D01*
X129300000Y-104360363D01*
X129978369Y-103681993D01*
X129832060Y-103463687D01*
X129138582Y-103389962D01*
X128767940Y-103463687D01*
X128621631Y-103681993D01*
X124380000Y-103681993D01*
X124380000Y-102963665D01*
X124645870Y-102565762D01*
X124758407Y-102000000D01*
X124645870Y-101434238D01*
X124325392Y-100954608D01*
X123845762Y-100634130D01*
X123422812Y-100550000D01*
X123137188Y-100550000D01*
X122714238Y-100634130D01*
X122234608Y-100954608D01*
X122010000Y-101290758D01*
X121785392Y-100954608D01*
X121305762Y-100634130D01*
X120882812Y-100550000D01*
X120597188Y-100550000D01*
X120174238Y-100634130D01*
X119694608Y-100954608D01*
X119470000Y-101290758D01*
X119245392Y-100954608D01*
X118765762Y-100634130D01*
X118342812Y-100550000D01*
X118057188Y-100550000D01*
X117634238Y-100634130D01*
X117154608Y-100954608D01*
X116930000Y-101290758D01*
X116705392Y-100954608D01*
X116225762Y-100634130D01*
X115802812Y-100550000D01*
X115517188Y-100550000D01*
X115094238Y-100634130D01*
X114614608Y-100954608D01*
X114390000Y-101290758D01*
X114165392Y-100954608D01*
X113685762Y-100634130D01*
X113262812Y-100550000D01*
X112977188Y-100550000D01*
X112554238Y-100634130D01*
X112074608Y-100954608D01*
X111850000Y-101290758D01*
X111625392Y-100954608D01*
X111145762Y-100634130D01*
X110722812Y-100550000D01*
X110437188Y-100550000D01*
X110014238Y-100634130D01*
X109534608Y-100954608D01*
X109310000Y-101290758D01*
X109085392Y-100954608D01*
X108605762Y-100634130D01*
X108182812Y-100550000D01*
X107897188Y-100550000D01*
X107474238Y-100634130D01*
X106994608Y-100954608D01*
X106952972Y-101016921D01*
X106865437Y-100805595D01*
X106694404Y-100634562D01*
X106470938Y-100542000D01*
X106077000Y-100542000D01*
X105925000Y-100694000D01*
X105925000Y-101575000D01*
X106170000Y-101575000D01*
X106170000Y-102400000D01*
X103674381Y-102400000D01*
X103700000Y-102338151D01*
X103700000Y-101661849D01*
X103441190Y-101037027D01*
X103433224Y-101029061D01*
X104042000Y-101029061D01*
X104042000Y-101423000D01*
X104194000Y-101575000D01*
X105075000Y-101575000D01*
X105075000Y-100694000D01*
X104923000Y-100542000D01*
X104529062Y-100542000D01*
X104305596Y-100634562D01*
X104134563Y-100805595D01*
X104042000Y-101029061D01*
X103433224Y-101029061D01*
X102962973Y-100558810D01*
X102567501Y-100395000D01*
X157432499Y-100395000D01*
X157037027Y-100558810D01*
X157037027Y-100558810D01*
G37*
X157037027Y-100558810D02*
X156558810Y-101037027D01*
X156300000Y-101661849D01*
X156300000Y-102338151D01*
X156558810Y-102962973D01*
X157037027Y-103441190D01*
X157661849Y-103700000D01*
X158338151Y-103700000D01*
X158962973Y-103441190D01*
X159441190Y-102962973D01*
X159605000Y-102567501D01*
X159605001Y-126062000D01*
X141910000Y-126062000D01*
X141871732Y-126069612D01*
X141839289Y-126091289D01*
X141817612Y-126123732D01*
X141810000Y-126162000D01*
X141810000Y-139605000D01*
X118538902Y-139605000D01*
X118271440Y-139551799D01*
X118077671Y-139422327D01*
X117948201Y-139228561D01*
X117887410Y-138922940D01*
X117887410Y-138922939D01*
X117811290Y-138540257D01*
X117779537Y-138463597D01*
X117752310Y-138397867D01*
X117535538Y-138073443D01*
X117481047Y-138018953D01*
X117426557Y-137964462D01*
X117102133Y-137747689D01*
X116959743Y-137688710D01*
X116577060Y-137612590D01*
X116577058Y-137612590D01*
X116538901Y-137605000D01*
X107961099Y-137605000D01*
X107922603Y-137612657D01*
X107920857Y-137612659D01*
X107539919Y-137688777D01*
X107468722Y-137718341D01*
X107397867Y-137747690D01*
X107073443Y-137964462D01*
X107018953Y-138018953D01*
X106964462Y-138073443D01*
X106747689Y-138397867D01*
X106700272Y-138512343D01*
X106688710Y-138540257D01*
X106612590Y-138922939D01*
X106612590Y-138922940D01*
X106551799Y-139228560D01*
X106422327Y-139422329D01*
X106228561Y-139551799D01*
X105961098Y-139605000D01*
X102567501Y-139605000D01*
X102962973Y-139441190D01*
X103441190Y-138962973D01*
X103700000Y-138338151D01*
X103700000Y-137661849D01*
X103441190Y-137037027D01*
X102962973Y-136558810D01*
X102338151Y-136300000D01*
X101661849Y-136300000D01*
X101037027Y-136558810D01*
X100558810Y-137037027D01*
X100395000Y-137432499D01*
X100395000Y-131336321D01*
X100720318Y-131661639D01*
X101271631Y-131890000D01*
X101868369Y-131890000D01*
X102419682Y-131661639D01*
X102841639Y-131239682D01*
X103070000Y-130688369D01*
X103070000Y-130091631D01*
X102841639Y-129540318D01*
X102421321Y-129120000D01*
X102841639Y-128699682D01*
X103049305Y-128198331D01*
X105147636Y-126100000D01*
X106444366Y-126100000D01*
X113335575Y-132991210D01*
X113396945Y-133083057D01*
X113666598Y-133263233D01*
X113760802Y-133326178D01*
X114190000Y-133411551D01*
X114298339Y-133390001D01*
X133854224Y-133390001D01*
X133962563Y-133411551D01*
X134070902Y-133390001D01*
X134391762Y-133326178D01*
X134755619Y-133083057D01*
X134816991Y-132991207D01*
X150648698Y-117159500D01*
X154517000Y-117159500D01*
X154517000Y-117565939D01*
X154609563Y-117789405D01*
X154780596Y-117960438D01*
X155004062Y-118053000D01*
X155410500Y-118053000D01*
X155562500Y-117901000D01*
X155562500Y-117007500D01*
X156437500Y-117007500D01*
X156437500Y-117901000D01*
X156589500Y-118053000D01*
X156995938Y-118053000D01*
X157219404Y-117960438D01*
X157390437Y-117789405D01*
X157483000Y-117565939D01*
X157483000Y-117159500D01*
X157331000Y-117007500D01*
X156437500Y-117007500D01*
X155562500Y-117007500D01*
X154669000Y-117007500D01*
X154517000Y-117159500D01*
X150648698Y-117159500D01*
X155116117Y-112692082D01*
X155164480Y-112740445D01*
X155211690Y-112760000D01*
X155164480Y-112779555D01*
X154749555Y-113194480D01*
X154525000Y-113736604D01*
X154525000Y-114323396D01*
X154749555Y-114865520D01*
X154980708Y-115096673D01*
X154780596Y-115179562D01*
X154609563Y-115350595D01*
X154517000Y-115574061D01*
X154517000Y-115980500D01*
X154669000Y-116132500D01*
X155562500Y-116132500D01*
X155562500Y-115900000D01*
X156437500Y-115900000D01*
X156437500Y-116132500D01*
X157331000Y-116132500D01*
X157483000Y-115980500D01*
X157483000Y-115574061D01*
X157390437Y-115350595D01*
X157219404Y-115179562D01*
X157019292Y-115096673D01*
X157250445Y-114865520D01*
X157475000Y-114323396D01*
X157475000Y-113736604D01*
X157250445Y-113194480D01*
X156835520Y-112779555D01*
X156788310Y-112760000D01*
X156835520Y-112740445D01*
X157250445Y-112325520D01*
X157475000Y-111783396D01*
X157475000Y-111196604D01*
X157250445Y-110654480D01*
X156835520Y-110239555D01*
X156788310Y-110220000D01*
X156835520Y-110200445D01*
X157250445Y-109785520D01*
X157475000Y-109243396D01*
X157475000Y-108656604D01*
X157250445Y-108114480D01*
X156835520Y-107699555D01*
X156293396Y-107475000D01*
X155706604Y-107475000D01*
X155164480Y-107699555D01*
X154749555Y-108114480D01*
X154525000Y-108656604D01*
X154525000Y-109243396D01*
X154749555Y-109785520D01*
X155164480Y-110200445D01*
X155211690Y-110220000D01*
X155164480Y-110239555D01*
X155014035Y-110390000D01*
X154870903Y-110390000D01*
X154762564Y-110368450D01*
X154654225Y-110390000D01*
X154333365Y-110453823D01*
X153969508Y-110696944D01*
X153908138Y-110788791D01*
X133506929Y-131190001D01*
X125722218Y-131190001D01*
X125930000Y-130688369D01*
X125930000Y-130091631D01*
X125701639Y-129540318D01*
X125279682Y-129118361D01*
X124908016Y-128964412D01*
X124430000Y-128486396D01*
X123951984Y-128964412D01*
X123580318Y-129118361D01*
X123158361Y-129540318D01*
X122930000Y-130091631D01*
X122930000Y-130688369D01*
X123137782Y-131190001D01*
X114645636Y-131190001D01*
X111399986Y-127944351D01*
X122895355Y-127944351D01*
X122976066Y-128350115D01*
X123185187Y-128458417D01*
X123793604Y-127850000D01*
X125066396Y-127850000D01*
X125674813Y-128458417D01*
X125883934Y-128350115D01*
X125964645Y-127755649D01*
X125883934Y-127349885D01*
X125674813Y-127241583D01*
X125066396Y-127850000D01*
X123793604Y-127850000D01*
X123185187Y-127241583D01*
X122976066Y-127349885D01*
X122895355Y-127944351D01*
X111399986Y-127944351D01*
X109555634Y-126100000D01*
X123000000Y-126100000D01*
X123038268Y-126092388D01*
X123070711Y-126070711D01*
X123092388Y-126038268D01*
X123097476Y-126012691D01*
X123158361Y-126159682D01*
X123580318Y-126581639D01*
X123951984Y-126735588D01*
X124430000Y-127213604D01*
X124908016Y-126735588D01*
X125279682Y-126581639D01*
X125701639Y-126159682D01*
X125930000Y-125608369D01*
X125930000Y-125011631D01*
X125701639Y-124460318D01*
X125281321Y-124040000D01*
X125701639Y-123619682D01*
X125930000Y-123068369D01*
X125930000Y-122471631D01*
X125701639Y-121920318D01*
X125281321Y-121500000D01*
X125701639Y-121079682D01*
X125930000Y-120528369D01*
X125930000Y-119931631D01*
X125701639Y-119380318D01*
X125281321Y-118960000D01*
X125701639Y-118539682D01*
X125930000Y-117988369D01*
X125930000Y-117391631D01*
X125701639Y-116840318D01*
X125281321Y-116420000D01*
X125701639Y-115999682D01*
X125930000Y-115448369D01*
X125930000Y-114851631D01*
X125701639Y-114300318D01*
X125281321Y-113880000D01*
X125701639Y-113459682D01*
X125930000Y-112908369D01*
X125930000Y-112311631D01*
X125701639Y-111760318D01*
X125279682Y-111338361D01*
X124728369Y-111110000D01*
X124131631Y-111110000D01*
X123580318Y-111338361D01*
X123158361Y-111760318D01*
X123100000Y-111901214D01*
X123100000Y-109902898D01*
X127555000Y-109902898D01*
X127555000Y-110597102D01*
X127820660Y-111238463D01*
X128311537Y-111729340D01*
X128952898Y-111995000D01*
X129647102Y-111995000D01*
X130288463Y-111729340D01*
X130779340Y-111238463D01*
X131045000Y-110597102D01*
X131045000Y-109902898D01*
X130779340Y-109261537D01*
X130288463Y-108770660D01*
X129647102Y-108505000D01*
X128952898Y-108505000D01*
X128311537Y-108770660D01*
X127820660Y-109261537D01*
X127555000Y-109902898D01*
X123100000Y-109902898D01*
X123100000Y-108147637D01*
X123981209Y-107266428D01*
X124073056Y-107205058D01*
X124316177Y-106841201D01*
X124352616Y-106658007D01*
X128621631Y-106658007D01*
X128767940Y-106876313D01*
X129461418Y-106950038D01*
X129832060Y-106876313D01*
X129978369Y-106658007D01*
X129300000Y-105979637D01*
X128621631Y-106658007D01*
X124352616Y-106658007D01*
X124380000Y-106520341D01*
X124380000Y-106520340D01*
X124401550Y-106412002D01*
X124380000Y-106303663D01*
X124380000Y-105331418D01*
X127519962Y-105331418D01*
X127593687Y-105702060D01*
X127811993Y-105848369D01*
X128490363Y-105170000D01*
X130109637Y-105170000D01*
X130788007Y-105848369D01*
X131006313Y-105702060D01*
X131080038Y-105008582D01*
X131043104Y-104822898D01*
X145255000Y-104822898D01*
X145255000Y-105517102D01*
X145520660Y-106158463D01*
X146011537Y-106649340D01*
X146652898Y-106915000D01*
X147347102Y-106915000D01*
X147988463Y-106649340D01*
X148479340Y-106158463D01*
X148745000Y-105517102D01*
X148745000Y-104822898D01*
X148479340Y-104181537D01*
X147988463Y-103690660D01*
X147347102Y-103425000D01*
X146652898Y-103425000D01*
X146011537Y-103690660D01*
X145520660Y-104181537D01*
X145255000Y-104822898D01*
X131043104Y-104822898D01*
X131006313Y-104637940D01*
X130788007Y-104491631D01*
X130109637Y-105170000D01*
X128490363Y-105170000D01*
X127811993Y-104491631D01*
X127593687Y-104637940D01*
X127519962Y-105331418D01*
X124380000Y-105331418D01*
X124380000Y-103681993D01*
X128621631Y-103681993D01*
X129300000Y-104360363D01*
X129978369Y-103681993D01*
X129832060Y-103463687D01*
X129138582Y-103389962D01*
X128767940Y-103463687D01*
X128621631Y-103681993D01*
X124380000Y-103681993D01*
X124380000Y-102963665D01*
X124645870Y-102565762D01*
X124758407Y-102000000D01*
X124645870Y-101434238D01*
X124325392Y-100954608D01*
X123845762Y-100634130D01*
X123422812Y-100550000D01*
X123137188Y-100550000D01*
X122714238Y-100634130D01*
X122234608Y-100954608D01*
X122010000Y-101290758D01*
X121785392Y-100954608D01*
X121305762Y-100634130D01*
X120882812Y-100550000D01*
X120597188Y-100550000D01*
X120174238Y-100634130D01*
X119694608Y-100954608D01*
X119470000Y-101290758D01*
X119245392Y-100954608D01*
X118765762Y-100634130D01*
X118342812Y-100550000D01*
X118057188Y-100550000D01*
X117634238Y-100634130D01*
X117154608Y-100954608D01*
X116930000Y-101290758D01*
X116705392Y-100954608D01*
X116225762Y-100634130D01*
X115802812Y-100550000D01*
X115517188Y-100550000D01*
X115094238Y-100634130D01*
X114614608Y-100954608D01*
X114390000Y-101290758D01*
X114165392Y-100954608D01*
X113685762Y-100634130D01*
X113262812Y-100550000D01*
X112977188Y-100550000D01*
X112554238Y-100634130D01*
X112074608Y-100954608D01*
X111850000Y-101290758D01*
X111625392Y-100954608D01*
X111145762Y-100634130D01*
X110722812Y-100550000D01*
X110437188Y-100550000D01*
X110014238Y-100634130D01*
X109534608Y-100954608D01*
X109310000Y-101290758D01*
X109085392Y-100954608D01*
X108605762Y-100634130D01*
X108182812Y-100550000D01*
X107897188Y-100550000D01*
X107474238Y-100634130D01*
X106994608Y-100954608D01*
X106952972Y-101016921D01*
X106865437Y-100805595D01*
X106694404Y-100634562D01*
X106470938Y-100542000D01*
X106077000Y-100542000D01*
X105925000Y-100694000D01*
X105925000Y-101575000D01*
X106170000Y-101575000D01*
X106170000Y-102400000D01*
X103674381Y-102400000D01*
X103700000Y-102338151D01*
X103700000Y-101661849D01*
X103441190Y-101037027D01*
X103433224Y-101029061D01*
X104042000Y-101029061D01*
X104042000Y-101423000D01*
X104194000Y-101575000D01*
X105075000Y-101575000D01*
X105075000Y-100694000D01*
X104923000Y-100542000D01*
X104529062Y-100542000D01*
X104305596Y-100634562D01*
X104134563Y-100805595D01*
X104042000Y-101029061D01*
X103433224Y-101029061D01*
X102962973Y-100558810D01*
X102567501Y-100395000D01*
X157432499Y-100395000D01*
X157037027Y-100558810D01*
G04 #@! TD*
M02*
