M48
;DRILL file {KiCad (5.0.2)-1} date 1/4/2019 3:23:45 PM
;FORMAT={-:-/ absolute / inch / decimal}
FMAT,2
INCH,TZ
T1C0.0157
T2C0.0299
T3C0.0394
T4C0.0400
T5C0.0598
%
G90
G05
T1
X4.2205Y-4.9331
T2
X5.0906Y-4.1406
X5.0906Y-4.3406
X5.7874Y-4.1406
X5.7874Y-5.1406
X5.7874Y-5.3406
T3
X4.1535Y-4.0157
X4.2535Y-4.0157
X4.3535Y-4.0157
X4.4535Y-4.0157
X4.5535Y-4.0157
X4.6535Y-4.0157
X4.7535Y-4.0157
X4.8535Y-4.0157
X6.1417Y-4.2894
X6.1417Y-4.3894
X6.1417Y-4.4894
X6.1417Y-4.5894
T4
X3.9988Y-4.4335
X3.9988Y-4.5335
X3.9988Y-4.6335
X3.9988Y-4.7335
X3.9988Y-4.8335
X3.9988Y-4.9335
X3.9988Y-5.0335
X3.9988Y-5.1335
X4.8988Y-4.4335
X4.8988Y-4.5335
X4.8988Y-4.6335
X4.8988Y-4.7335
X4.8988Y-4.8335
X4.8988Y-4.9335
X4.8988Y-5.0335
X4.8988Y-5.1335
T5
X6.122Y-5.1406
X6.122Y-5.3406
T0
M30
