G04 #@! TF.GenerationSoftware,KiCad,Pcbnew,(5.0.2)-1*
G04 #@! TF.CreationDate,2019-01-04T15:23:43-05:00*
G04 #@! TF.ProjectId,HASwitchPlate,48415377-6974-4636-9850-6c6174652e6b,rev?*
G04 #@! TF.SameCoordinates,Original*
G04 #@! TF.FileFunction,Copper,L1,Top*
G04 #@! TF.FilePolarity,Positive*
%FSLAX46Y46*%
G04 Gerber Fmt 4.6, Leading zero omitted, Abs format (unit mm)*
G04 Created by KiCad (PCBNEW (5.0.2)-1) date 1/4/2019 3:23:43 PM*
%MOMM*%
%LPD*%
G01*
G04 APERTURE LIST*
G04 #@! TA.AperFunction,NonConductor*
%ADD10C,0.150000*%
G04 #@! TD*
G04 #@! TA.AperFunction,ComponentPad*
%ADD11C,1.750000*%
G04 #@! TD*
G04 #@! TA.AperFunction,ComponentPad*
%ADD12R,1.750000X1.750000*%
G04 #@! TD*
G04 #@! TA.AperFunction,ComponentPad*
%ADD13R,1.700000X1.700000*%
G04 #@! TD*
G04 #@! TA.AperFunction,ComponentPad*
%ADD14O,1.700000X1.700000*%
G04 #@! TD*
G04 #@! TA.AperFunction,ComponentPad*
%ADD15C,2.290000*%
G04 #@! TD*
G04 #@! TA.AperFunction,ComponentPad*
%ADD16C,1.800000*%
G04 #@! TD*
G04 #@! TA.AperFunction,ComponentPad*
%ADD17R,3.000000X3.000000*%
G04 #@! TD*
G04 #@! TA.AperFunction,ComponentPad*
%ADD18C,3.000000*%
G04 #@! TD*
G04 #@! TA.AperFunction,ViaPad*
%ADD19C,0.600000*%
G04 #@! TD*
G04 #@! TA.AperFunction,Conductor*
%ADD20C,2.000000*%
G04 #@! TD*
G04 #@! TA.AperFunction,Conductor*
%ADD21C,1.000000*%
G04 #@! TD*
G04 #@! TA.AperFunction,Conductor*
%ADD22C,0.200000*%
G04 #@! TD*
G04 APERTURE END LIST*
D10*
X160000000Y-101000000D02*
X160000000Y-127000000D01*
X160000000Y-132100000D02*
X160000000Y-129000000D01*
X143500000Y-128000000D02*
G75*
G03X144500000Y-129000000I1000000J0D01*
G01*
X144500000Y-127000000D02*
G75*
G03X143500000Y-128000000I0J-1000000D01*
G01*
X144500000Y-127000000D02*
X160000000Y-127000000D01*
X144500000Y-129000000D02*
X160000000Y-129000000D01*
X118500000Y-140000000D02*
X159000000Y-140000000D01*
X101000000Y-140000000D02*
X106000000Y-140000000D01*
X108000000Y-138000000D02*
X116500000Y-138000000D01*
X117500000Y-139000000D02*
G75*
G03X118500000Y-140000000I1000000J0D01*
G01*
X117500000Y-139000000D02*
G75*
G03X116500000Y-138000000I-1000000J0D01*
G01*
X107998255Y-138000002D02*
G75*
G03X107000000Y-139000000I1745J-999998D01*
G01*
X106000000Y-140000000D02*
G75*
G03X107000000Y-139000000I0J1000000D01*
G01*
X101000000Y-100000000D02*
G75*
G03X100000000Y-101000000I0J-1000000D01*
G01*
X100000000Y-139000000D02*
G75*
G03X101000000Y-140000000I1000000J0D01*
G01*
X159000000Y-140000000D02*
G75*
G03X160000000Y-139000000I0J1000000D01*
G01*
X160000000Y-101000000D02*
G75*
G03X159000000Y-100000000I-1000000J0D01*
G01*
X143500000Y-133100000D02*
G75*
G03X144500000Y-134100000I1000000J0D01*
G01*
X144500000Y-132100000D02*
G75*
G03X143500000Y-133100000I0J-1000000D01*
G01*
X160000000Y-134100000D02*
X160000000Y-139000000D01*
X144500000Y-134100000D02*
X160000000Y-134100000D01*
X144500000Y-132100000D02*
X160000000Y-132100000D01*
X101000000Y-100000000D02*
X159000000Y-100000000D01*
X100000000Y-101000000D02*
X100000000Y-139000000D01*
D11*
G04 #@! TO.P,J2,4*
G04 #@! TO.N,/+5V*
X156000000Y-108950000D03*
G04 #@! TO.P,J2,3*
G04 #@! TO.N,/LCD_TX*
X156000000Y-111490000D03*
G04 #@! TO.P,J2,2*
G04 #@! TO.N,/LCD_RX*
X156000000Y-114030000D03*
D12*
G04 #@! TO.P,J2,1*
G04 #@! TO.N,/GND*
X156000000Y-116570000D03*
G04 #@! TD*
D13*
G04 #@! TO.P,J3,1*
G04 #@! TO.N,/GND*
X105500000Y-102000000D03*
D14*
G04 #@! TO.P,J3,2*
G04 #@! TO.N,/+5V*
X108040000Y-102000000D03*
G04 #@! TO.P,J3,3*
G04 #@! TO.N,/+3.3V*
X110580000Y-102000000D03*
G04 #@! TO.P,J3,4*
G04 #@! TO.N,/A0*
X113120000Y-102000000D03*
G04 #@! TO.P,J3,5*
G04 #@! TO.N,/D0*
X115660000Y-102000000D03*
G04 #@! TO.P,J3,6*
G04 #@! TO.N,/D1*
X118200000Y-102000000D03*
G04 #@! TO.P,J3,7*
G04 #@! TO.N,/D2*
X120740000Y-102000000D03*
G04 #@! TO.P,J3,8*
G04 #@! TO.N,/D8_DBG*
X123280000Y-102000000D03*
G04 #@! TD*
D15*
G04 #@! TO.P,U1,5*
G04 #@! TO.N,N/C*
X147000000Y-105170000D03*
G04 #@! TO.P,U1,1*
G04 #@! TO.N,/AC_L*
X147000000Y-135650000D03*
G04 #@! TO.P,U1,2*
G04 #@! TO.N,/AC_N*
X147000000Y-130570000D03*
G04 #@! TO.P,U1,3*
G04 #@! TO.N,/+5V*
X129300000Y-110250000D03*
G04 #@! TO.P,U1,4*
G04 #@! TO.N,/GND*
X129300000Y-105170000D03*
G04 #@! TD*
D16*
G04 #@! TO.P,U2,16*
G04 #@! TO.N,/+3.3V*
X101570000Y-130390000D03*
G04 #@! TO.P,U2,1*
G04 #@! TO.N,/+5V*
X124430000Y-130390000D03*
G04 #@! TO.P,U2,15*
G04 #@! TO.N,/D8_DBG*
X101570000Y-127850000D03*
G04 #@! TO.P,U2,2*
G04 #@! TO.N,/GND*
X124430000Y-127850000D03*
G04 #@! TO.P,U2,14*
G04 #@! TO.N,/LCD_TX*
X101570000Y-125310000D03*
G04 #@! TO.P,U2,3*
G04 #@! TO.N,/LCD_RX*
X124430000Y-125310000D03*
G04 #@! TO.P,U2,13*
G04 #@! TO.N,N/C*
X101570000Y-122770000D03*
G04 #@! TO.P,U2,4*
X124430000Y-122770000D03*
G04 #@! TO.P,U2,12*
X101570000Y-120230000D03*
G04 #@! TO.P,U2,5*
G04 #@! TO.N,/D2*
X124430000Y-120230000D03*
G04 #@! TO.P,U2,11*
G04 #@! TO.N,/D0*
X101570000Y-117690000D03*
G04 #@! TO.P,U2,6*
G04 #@! TO.N,/D1*
X124430000Y-117690000D03*
G04 #@! TO.P,U2,10*
G04 #@! TO.N,/A0*
X101570000Y-115150000D03*
G04 #@! TO.P,U2,7*
G04 #@! TO.N,N/C*
X124430000Y-115150000D03*
G04 #@! TO.P,U2,9*
X101570000Y-112610000D03*
G04 #@! TO.P,U2,8*
X124430000Y-112610000D03*
G04 #@! TD*
D17*
G04 #@! TO.P,J1,1*
G04 #@! TO.N,/AC_L*
X155500000Y-135650000D03*
D18*
G04 #@! TO.P,J1,2*
G04 #@! TO.N,/AC_N*
X155500000Y-130570000D03*
G04 #@! TD*
D19*
G04 #@! TO.N,/LCD_TX*
X107200000Y-125300000D03*
G04 #@! TD*
D20*
G04 #@! TO.N,/AC_L*
X147000000Y-135650000D02*
X155500000Y-135650000D01*
D21*
G04 #@! TO.N,/LCD_TX*
X101570000Y-125310000D02*
X107190000Y-125310000D01*
X107190000Y-125310000D02*
X107200000Y-125300000D01*
G04 #@! TO.N,/LCD_RX*
X124430000Y-125310000D02*
X133440000Y-125310000D01*
X144720000Y-114030000D02*
X156000000Y-114030000D01*
X133440000Y-125310000D02*
X144720000Y-114030000D01*
D20*
G04 #@! TO.N,/AC_N*
X147000000Y-130570000D02*
X155500000Y-130570000D01*
D21*
G04 #@! TO.N,/+3.3V*
X105610000Y-130390000D02*
X110580000Y-125420000D01*
X110580000Y-125420000D02*
X110580000Y-102000000D01*
X101570000Y-130390000D02*
X105610000Y-130390000D01*
G04 #@! TO.N,/D1*
X124430000Y-117690000D02*
X123157208Y-117690000D01*
X123157208Y-117690000D02*
X118200000Y-112732792D01*
X118200000Y-112732792D02*
X118200000Y-103202081D01*
X118200000Y-103202081D02*
X118200000Y-102000000D01*
G04 #@! TO.N,/D2*
X124430000Y-120230000D02*
X125702792Y-120230000D01*
X125702792Y-120230000D02*
X126330001Y-119602791D01*
X126330001Y-119602791D02*
X126330001Y-108792082D01*
X126330001Y-108792082D02*
X120740000Y-103202081D01*
X120740000Y-103202081D02*
X120740000Y-102000000D01*
G04 #@! TD*
D22*
G04 #@! TO.N,/+5V*
G36*
X157037027Y-100558810D02*
X156558810Y-101037027D01*
X156300000Y-101661849D01*
X156300000Y-102338151D01*
X156558810Y-102962973D01*
X157037027Y-103441190D01*
X157661849Y-103700000D01*
X158338151Y-103700000D01*
X158962973Y-103441190D01*
X159441190Y-102962973D01*
X159605000Y-102567501D01*
X159605001Y-126062000D01*
X141910000Y-126062000D01*
X141871732Y-126069612D01*
X141839289Y-126091289D01*
X141817612Y-126123732D01*
X141810000Y-126162000D01*
X141810000Y-139605000D01*
X118538902Y-139605000D01*
X118271440Y-139551799D01*
X118077671Y-139422327D01*
X117948201Y-139228561D01*
X117887410Y-138922940D01*
X117887410Y-138922939D01*
X117811290Y-138540257D01*
X117779537Y-138463597D01*
X117752310Y-138397867D01*
X117535538Y-138073443D01*
X117481047Y-138018953D01*
X117426557Y-137964462D01*
X117102133Y-137747689D01*
X116959743Y-137688710D01*
X116577060Y-137612590D01*
X116577058Y-137612590D01*
X116538901Y-137605000D01*
X107961099Y-137605000D01*
X107922603Y-137612657D01*
X107920857Y-137612659D01*
X107539919Y-137688777D01*
X107468722Y-137718341D01*
X107397867Y-137747690D01*
X107073443Y-137964462D01*
X107018953Y-138018953D01*
X106964462Y-138073443D01*
X106747689Y-138397867D01*
X106700272Y-138512343D01*
X106688710Y-138540257D01*
X106612590Y-138922939D01*
X106612590Y-138922940D01*
X106551799Y-139228560D01*
X106422327Y-139422329D01*
X106228561Y-139551799D01*
X105961098Y-139605000D01*
X102567501Y-139605000D01*
X102962973Y-139441190D01*
X103441190Y-138962973D01*
X103700000Y-138338151D01*
X103700000Y-137661849D01*
X103441190Y-137037027D01*
X102962973Y-136558810D01*
X102338151Y-136300000D01*
X101661849Y-136300000D01*
X101037027Y-136558810D01*
X100558810Y-137037027D01*
X100395000Y-137432499D01*
X100395000Y-131336321D01*
X100720318Y-131661639D01*
X101271631Y-131890000D01*
X101868369Y-131890000D01*
X102419682Y-131661639D01*
X102446508Y-131634813D01*
X123821583Y-131634813D01*
X123929885Y-131843934D01*
X124524351Y-131924645D01*
X124930115Y-131843934D01*
X125038417Y-131634813D01*
X124430000Y-131026396D01*
X123821583Y-131634813D01*
X102446508Y-131634813D01*
X102591321Y-131490000D01*
X105501661Y-131490000D01*
X105610000Y-131511550D01*
X105718339Y-131490000D01*
X106039199Y-131426177D01*
X106403056Y-131183056D01*
X106464428Y-131091206D01*
X107071283Y-130484351D01*
X122895355Y-130484351D01*
X122976066Y-130890115D01*
X123185187Y-130998417D01*
X123793604Y-130390000D01*
X125066396Y-130390000D01*
X125674813Y-130998417D01*
X125883934Y-130890115D01*
X125964645Y-130295649D01*
X125883934Y-129889885D01*
X125674813Y-129781583D01*
X125066396Y-130390000D01*
X123793604Y-130390000D01*
X123185187Y-129781583D01*
X122976066Y-129889885D01*
X122895355Y-130484351D01*
X107071283Y-130484351D01*
X111281209Y-126274426D01*
X111373056Y-126213056D01*
X111448597Y-126100000D01*
X123000000Y-126100000D01*
X123038268Y-126092388D01*
X123070711Y-126070711D01*
X123092388Y-126038268D01*
X123097476Y-126012691D01*
X123158361Y-126159682D01*
X123578679Y-126580000D01*
X123158361Y-127000318D01*
X122930000Y-127551631D01*
X122930000Y-128148369D01*
X123158361Y-128699682D01*
X123580318Y-129121639D01*
X123951984Y-129275588D01*
X124430000Y-129753604D01*
X124908016Y-129275588D01*
X125279682Y-129121639D01*
X125701639Y-128699682D01*
X125930000Y-128148369D01*
X125930000Y-127551631D01*
X125701639Y-127000318D01*
X125281321Y-126580000D01*
X125451321Y-126410000D01*
X133331661Y-126410000D01*
X133440000Y-126431550D01*
X133548339Y-126410000D01*
X133869199Y-126346177D01*
X134233056Y-126103056D01*
X134294428Y-126011206D01*
X145175635Y-115130000D01*
X154890612Y-115130000D01*
X154692425Y-115262425D01*
X154559813Y-115460892D01*
X154513246Y-115695000D01*
X154513246Y-117445000D01*
X154559813Y-117679108D01*
X154692425Y-117877575D01*
X154890892Y-118010187D01*
X155125000Y-118056754D01*
X156875000Y-118056754D01*
X157109108Y-118010187D01*
X157307575Y-117877575D01*
X157440187Y-117679108D01*
X157486754Y-117445000D01*
X157486754Y-115695000D01*
X157440187Y-115460892D01*
X157307575Y-115262425D01*
X157109108Y-115129813D01*
X157006552Y-115109413D01*
X157250445Y-114865520D01*
X157475000Y-114323396D01*
X157475000Y-113736604D01*
X157250445Y-113194480D01*
X156835520Y-112779555D01*
X156788310Y-112760000D01*
X156835520Y-112740445D01*
X157250445Y-112325520D01*
X157475000Y-111783396D01*
X157475000Y-111196604D01*
X157250445Y-110654480D01*
X156835520Y-110239555D01*
X156554389Y-110123107D01*
X156000000Y-109568718D01*
X155445611Y-110123107D01*
X155164480Y-110239555D01*
X154749555Y-110654480D01*
X154525000Y-111196604D01*
X154525000Y-111783396D01*
X154749555Y-112325520D01*
X155164480Y-112740445D01*
X155211690Y-112760000D01*
X155164480Y-112779555D01*
X155014035Y-112930000D01*
X144828339Y-112930000D01*
X144720000Y-112908450D01*
X144611661Y-112930000D01*
X144290801Y-112993823D01*
X143926944Y-113236944D01*
X143865574Y-113328791D01*
X132984366Y-124210000D01*
X125451321Y-124210000D01*
X125281321Y-124040000D01*
X125701639Y-123619682D01*
X125930000Y-123068369D01*
X125930000Y-122471631D01*
X125701639Y-121920318D01*
X125281321Y-121500000D01*
X125451321Y-121330000D01*
X125594453Y-121330000D01*
X125702792Y-121351550D01*
X125811131Y-121330000D01*
X126131991Y-121266177D01*
X126495848Y-121023056D01*
X126557220Y-120931206D01*
X127031207Y-120457219D01*
X127123057Y-120395847D01*
X127366178Y-120031990D01*
X127430001Y-119711130D01*
X127430001Y-119711129D01*
X127451551Y-119602792D01*
X127430001Y-119494454D01*
X127430001Y-111738007D01*
X128621631Y-111738007D01*
X128767940Y-111956313D01*
X129461418Y-112030038D01*
X129832060Y-111956313D01*
X129978369Y-111738007D01*
X129300000Y-111059637D01*
X128621631Y-111738007D01*
X127430001Y-111738007D01*
X127430001Y-110411418D01*
X127519962Y-110411418D01*
X127593687Y-110782060D01*
X127811993Y-110928369D01*
X128490363Y-110250000D01*
X130109637Y-110250000D01*
X130788007Y-110928369D01*
X131006313Y-110782060D01*
X131080038Y-110088582D01*
X131006313Y-109717940D01*
X130788007Y-109571631D01*
X130109637Y-110250000D01*
X128490363Y-110250000D01*
X127811993Y-109571631D01*
X127593687Y-109717940D01*
X127519962Y-110411418D01*
X127430001Y-110411418D01*
X127430001Y-108900420D01*
X127451551Y-108792081D01*
X127445567Y-108761993D01*
X128621631Y-108761993D01*
X129300000Y-109440363D01*
X129702833Y-109037529D01*
X154490483Y-109037529D01*
X154571892Y-109446802D01*
X154780053Y-109551229D01*
X155381282Y-108950000D01*
X156618718Y-108950000D01*
X157219947Y-109551229D01*
X157428108Y-109446802D01*
X157509517Y-108862471D01*
X157428108Y-108453198D01*
X157219947Y-108348771D01*
X156618718Y-108950000D01*
X155381282Y-108950000D01*
X154780053Y-108348771D01*
X154571892Y-108453198D01*
X154490483Y-109037529D01*
X129702833Y-109037529D01*
X129978369Y-108761993D01*
X129832060Y-108543687D01*
X129138582Y-108469962D01*
X128767940Y-108543687D01*
X128621631Y-108761993D01*
X127445567Y-108761993D01*
X127366178Y-108362883D01*
X127345063Y-108331282D01*
X127123057Y-107999026D01*
X127031210Y-107937656D01*
X126823607Y-107730053D01*
X155398771Y-107730053D01*
X156000000Y-108331282D01*
X156601229Y-107730053D01*
X156496802Y-107521892D01*
X155912471Y-107440483D01*
X155503198Y-107521892D01*
X155398771Y-107730053D01*
X126823607Y-107730053D01*
X123916452Y-104822898D01*
X127555000Y-104822898D01*
X127555000Y-105517102D01*
X127820660Y-106158463D01*
X128311537Y-106649340D01*
X128952898Y-106915000D01*
X129647102Y-106915000D01*
X130288463Y-106649340D01*
X130779340Y-106158463D01*
X131045000Y-105517102D01*
X131045000Y-104822898D01*
X145255000Y-104822898D01*
X145255000Y-105517102D01*
X145520660Y-106158463D01*
X146011537Y-106649340D01*
X146652898Y-106915000D01*
X147347102Y-106915000D01*
X147988463Y-106649340D01*
X148479340Y-106158463D01*
X148745000Y-105517102D01*
X148745000Y-104822898D01*
X148479340Y-104181537D01*
X147988463Y-103690660D01*
X147347102Y-103425000D01*
X146652898Y-103425000D01*
X146011537Y-103690660D01*
X145520660Y-104181537D01*
X145255000Y-104822898D01*
X131045000Y-104822898D01*
X130779340Y-104181537D01*
X130288463Y-103690660D01*
X129647102Y-103425000D01*
X128952898Y-103425000D01*
X128311537Y-103690660D01*
X127820660Y-104181537D01*
X127555000Y-104822898D01*
X123916452Y-104822898D01*
X123100000Y-104006447D01*
X123100000Y-103442603D01*
X123137188Y-103450000D01*
X123422812Y-103450000D01*
X123845762Y-103365870D01*
X124325392Y-103045392D01*
X124645870Y-102565762D01*
X124758407Y-102000000D01*
X124645870Y-101434238D01*
X124325392Y-100954608D01*
X123845762Y-100634130D01*
X123422812Y-100550000D01*
X123137188Y-100550000D01*
X122714238Y-100634130D01*
X122234608Y-100954608D01*
X122010000Y-101290758D01*
X121785392Y-100954608D01*
X121305762Y-100634130D01*
X120882812Y-100550000D01*
X120597188Y-100550000D01*
X120174238Y-100634130D01*
X119694608Y-100954608D01*
X119470000Y-101290758D01*
X119245392Y-100954608D01*
X118765762Y-100634130D01*
X118342812Y-100550000D01*
X118057188Y-100550000D01*
X117634238Y-100634130D01*
X117154608Y-100954608D01*
X116930000Y-101290758D01*
X116705392Y-100954608D01*
X116225762Y-100634130D01*
X115802812Y-100550000D01*
X115517188Y-100550000D01*
X115094238Y-100634130D01*
X114614608Y-100954608D01*
X114390000Y-101290758D01*
X114165392Y-100954608D01*
X113685762Y-100634130D01*
X113262812Y-100550000D01*
X112977188Y-100550000D01*
X112554238Y-100634130D01*
X112074608Y-100954608D01*
X111850000Y-101290758D01*
X111625392Y-100954608D01*
X111145762Y-100634130D01*
X110722812Y-100550000D01*
X110437188Y-100550000D01*
X110014238Y-100634130D01*
X109534608Y-100954608D01*
X109303891Y-101299901D01*
X109007130Y-100908891D01*
X108677944Y-100688973D01*
X108465000Y-100765087D01*
X108465000Y-101575000D01*
X108710000Y-101575000D01*
X108710000Y-102400000D01*
X107370000Y-102400000D01*
X107370000Y-101575000D01*
X107615000Y-101575000D01*
X107615000Y-100765087D01*
X107402056Y-100688973D01*
X107072870Y-100908891D01*
X106946828Y-101074963D01*
X106915187Y-100915892D01*
X106782575Y-100717425D01*
X106584108Y-100584813D01*
X106350000Y-100538246D01*
X104650000Y-100538246D01*
X104415892Y-100584813D01*
X104217425Y-100717425D01*
X104084813Y-100915892D01*
X104038246Y-101150000D01*
X104038246Y-102400000D01*
X103674381Y-102400000D01*
X103700000Y-102338151D01*
X103700000Y-101661849D01*
X103441190Y-101037027D01*
X102962973Y-100558810D01*
X102567501Y-100395000D01*
X157432499Y-100395000D01*
X157037027Y-100558810D01*
X157037027Y-100558810D01*
G37*
X157037027Y-100558810D02*
X156558810Y-101037027D01*
X156300000Y-101661849D01*
X156300000Y-102338151D01*
X156558810Y-102962973D01*
X157037027Y-103441190D01*
X157661849Y-103700000D01*
X158338151Y-103700000D01*
X158962973Y-103441190D01*
X159441190Y-102962973D01*
X159605000Y-102567501D01*
X159605001Y-126062000D01*
X141910000Y-126062000D01*
X141871732Y-126069612D01*
X141839289Y-126091289D01*
X141817612Y-126123732D01*
X141810000Y-126162000D01*
X141810000Y-139605000D01*
X118538902Y-139605000D01*
X118271440Y-139551799D01*
X118077671Y-139422327D01*
X117948201Y-139228561D01*
X117887410Y-138922940D01*
X117887410Y-138922939D01*
X117811290Y-138540257D01*
X117779537Y-138463597D01*
X117752310Y-138397867D01*
X117535538Y-138073443D01*
X117481047Y-138018953D01*
X117426557Y-137964462D01*
X117102133Y-137747689D01*
X116959743Y-137688710D01*
X116577060Y-137612590D01*
X116577058Y-137612590D01*
X116538901Y-137605000D01*
X107961099Y-137605000D01*
X107922603Y-137612657D01*
X107920857Y-137612659D01*
X107539919Y-137688777D01*
X107468722Y-137718341D01*
X107397867Y-137747690D01*
X107073443Y-137964462D01*
X107018953Y-138018953D01*
X106964462Y-138073443D01*
X106747689Y-138397867D01*
X106700272Y-138512343D01*
X106688710Y-138540257D01*
X106612590Y-138922939D01*
X106612590Y-138922940D01*
X106551799Y-139228560D01*
X106422327Y-139422329D01*
X106228561Y-139551799D01*
X105961098Y-139605000D01*
X102567501Y-139605000D01*
X102962973Y-139441190D01*
X103441190Y-138962973D01*
X103700000Y-138338151D01*
X103700000Y-137661849D01*
X103441190Y-137037027D01*
X102962973Y-136558810D01*
X102338151Y-136300000D01*
X101661849Y-136300000D01*
X101037027Y-136558810D01*
X100558810Y-137037027D01*
X100395000Y-137432499D01*
X100395000Y-131336321D01*
X100720318Y-131661639D01*
X101271631Y-131890000D01*
X101868369Y-131890000D01*
X102419682Y-131661639D01*
X102446508Y-131634813D01*
X123821583Y-131634813D01*
X123929885Y-131843934D01*
X124524351Y-131924645D01*
X124930115Y-131843934D01*
X125038417Y-131634813D01*
X124430000Y-131026396D01*
X123821583Y-131634813D01*
X102446508Y-131634813D01*
X102591321Y-131490000D01*
X105501661Y-131490000D01*
X105610000Y-131511550D01*
X105718339Y-131490000D01*
X106039199Y-131426177D01*
X106403056Y-131183056D01*
X106464428Y-131091206D01*
X107071283Y-130484351D01*
X122895355Y-130484351D01*
X122976066Y-130890115D01*
X123185187Y-130998417D01*
X123793604Y-130390000D01*
X125066396Y-130390000D01*
X125674813Y-130998417D01*
X125883934Y-130890115D01*
X125964645Y-130295649D01*
X125883934Y-129889885D01*
X125674813Y-129781583D01*
X125066396Y-130390000D01*
X123793604Y-130390000D01*
X123185187Y-129781583D01*
X122976066Y-129889885D01*
X122895355Y-130484351D01*
X107071283Y-130484351D01*
X111281209Y-126274426D01*
X111373056Y-126213056D01*
X111448597Y-126100000D01*
X123000000Y-126100000D01*
X123038268Y-126092388D01*
X123070711Y-126070711D01*
X123092388Y-126038268D01*
X123097476Y-126012691D01*
X123158361Y-126159682D01*
X123578679Y-126580000D01*
X123158361Y-127000318D01*
X122930000Y-127551631D01*
X122930000Y-128148369D01*
X123158361Y-128699682D01*
X123580318Y-129121639D01*
X123951984Y-129275588D01*
X124430000Y-129753604D01*
X124908016Y-129275588D01*
X125279682Y-129121639D01*
X125701639Y-128699682D01*
X125930000Y-128148369D01*
X125930000Y-127551631D01*
X125701639Y-127000318D01*
X125281321Y-126580000D01*
X125451321Y-126410000D01*
X133331661Y-126410000D01*
X133440000Y-126431550D01*
X133548339Y-126410000D01*
X133869199Y-126346177D01*
X134233056Y-126103056D01*
X134294428Y-126011206D01*
X145175635Y-115130000D01*
X154890612Y-115130000D01*
X154692425Y-115262425D01*
X154559813Y-115460892D01*
X154513246Y-115695000D01*
X154513246Y-117445000D01*
X154559813Y-117679108D01*
X154692425Y-117877575D01*
X154890892Y-118010187D01*
X155125000Y-118056754D01*
X156875000Y-118056754D01*
X157109108Y-118010187D01*
X157307575Y-117877575D01*
X157440187Y-117679108D01*
X157486754Y-117445000D01*
X157486754Y-115695000D01*
X157440187Y-115460892D01*
X157307575Y-115262425D01*
X157109108Y-115129813D01*
X157006552Y-115109413D01*
X157250445Y-114865520D01*
X157475000Y-114323396D01*
X157475000Y-113736604D01*
X157250445Y-113194480D01*
X156835520Y-112779555D01*
X156788310Y-112760000D01*
X156835520Y-112740445D01*
X157250445Y-112325520D01*
X157475000Y-111783396D01*
X157475000Y-111196604D01*
X157250445Y-110654480D01*
X156835520Y-110239555D01*
X156554389Y-110123107D01*
X156000000Y-109568718D01*
X155445611Y-110123107D01*
X155164480Y-110239555D01*
X154749555Y-110654480D01*
X154525000Y-111196604D01*
X154525000Y-111783396D01*
X154749555Y-112325520D01*
X155164480Y-112740445D01*
X155211690Y-112760000D01*
X155164480Y-112779555D01*
X155014035Y-112930000D01*
X144828339Y-112930000D01*
X144720000Y-112908450D01*
X144611661Y-112930000D01*
X144290801Y-112993823D01*
X143926944Y-113236944D01*
X143865574Y-113328791D01*
X132984366Y-124210000D01*
X125451321Y-124210000D01*
X125281321Y-124040000D01*
X125701639Y-123619682D01*
X125930000Y-123068369D01*
X125930000Y-122471631D01*
X125701639Y-121920318D01*
X125281321Y-121500000D01*
X125451321Y-121330000D01*
X125594453Y-121330000D01*
X125702792Y-121351550D01*
X125811131Y-121330000D01*
X126131991Y-121266177D01*
X126495848Y-121023056D01*
X126557220Y-120931206D01*
X127031207Y-120457219D01*
X127123057Y-120395847D01*
X127366178Y-120031990D01*
X127430001Y-119711130D01*
X127430001Y-119711129D01*
X127451551Y-119602792D01*
X127430001Y-119494454D01*
X127430001Y-111738007D01*
X128621631Y-111738007D01*
X128767940Y-111956313D01*
X129461418Y-112030038D01*
X129832060Y-111956313D01*
X129978369Y-111738007D01*
X129300000Y-111059637D01*
X128621631Y-111738007D01*
X127430001Y-111738007D01*
X127430001Y-110411418D01*
X127519962Y-110411418D01*
X127593687Y-110782060D01*
X127811993Y-110928369D01*
X128490363Y-110250000D01*
X130109637Y-110250000D01*
X130788007Y-110928369D01*
X131006313Y-110782060D01*
X131080038Y-110088582D01*
X131006313Y-109717940D01*
X130788007Y-109571631D01*
X130109637Y-110250000D01*
X128490363Y-110250000D01*
X127811993Y-109571631D01*
X127593687Y-109717940D01*
X127519962Y-110411418D01*
X127430001Y-110411418D01*
X127430001Y-108900420D01*
X127451551Y-108792081D01*
X127445567Y-108761993D01*
X128621631Y-108761993D01*
X129300000Y-109440363D01*
X129702833Y-109037529D01*
X154490483Y-109037529D01*
X154571892Y-109446802D01*
X154780053Y-109551229D01*
X155381282Y-108950000D01*
X156618718Y-108950000D01*
X157219947Y-109551229D01*
X157428108Y-109446802D01*
X157509517Y-108862471D01*
X157428108Y-108453198D01*
X157219947Y-108348771D01*
X156618718Y-108950000D01*
X155381282Y-108950000D01*
X154780053Y-108348771D01*
X154571892Y-108453198D01*
X154490483Y-109037529D01*
X129702833Y-109037529D01*
X129978369Y-108761993D01*
X129832060Y-108543687D01*
X129138582Y-108469962D01*
X128767940Y-108543687D01*
X128621631Y-108761993D01*
X127445567Y-108761993D01*
X127366178Y-108362883D01*
X127345063Y-108331282D01*
X127123057Y-107999026D01*
X127031210Y-107937656D01*
X126823607Y-107730053D01*
X155398771Y-107730053D01*
X156000000Y-108331282D01*
X156601229Y-107730053D01*
X156496802Y-107521892D01*
X155912471Y-107440483D01*
X155503198Y-107521892D01*
X155398771Y-107730053D01*
X126823607Y-107730053D01*
X123916452Y-104822898D01*
X127555000Y-104822898D01*
X127555000Y-105517102D01*
X127820660Y-106158463D01*
X128311537Y-106649340D01*
X128952898Y-106915000D01*
X129647102Y-106915000D01*
X130288463Y-106649340D01*
X130779340Y-106158463D01*
X131045000Y-105517102D01*
X131045000Y-104822898D01*
X145255000Y-104822898D01*
X145255000Y-105517102D01*
X145520660Y-106158463D01*
X146011537Y-106649340D01*
X146652898Y-106915000D01*
X147347102Y-106915000D01*
X147988463Y-106649340D01*
X148479340Y-106158463D01*
X148745000Y-105517102D01*
X148745000Y-104822898D01*
X148479340Y-104181537D01*
X147988463Y-103690660D01*
X147347102Y-103425000D01*
X146652898Y-103425000D01*
X146011537Y-103690660D01*
X145520660Y-104181537D01*
X145255000Y-104822898D01*
X131045000Y-104822898D01*
X130779340Y-104181537D01*
X130288463Y-103690660D01*
X129647102Y-103425000D01*
X128952898Y-103425000D01*
X128311537Y-103690660D01*
X127820660Y-104181537D01*
X127555000Y-104822898D01*
X123916452Y-104822898D01*
X123100000Y-104006447D01*
X123100000Y-103442603D01*
X123137188Y-103450000D01*
X123422812Y-103450000D01*
X123845762Y-103365870D01*
X124325392Y-103045392D01*
X124645870Y-102565762D01*
X124758407Y-102000000D01*
X124645870Y-101434238D01*
X124325392Y-100954608D01*
X123845762Y-100634130D01*
X123422812Y-100550000D01*
X123137188Y-100550000D01*
X122714238Y-100634130D01*
X122234608Y-100954608D01*
X122010000Y-101290758D01*
X121785392Y-100954608D01*
X121305762Y-100634130D01*
X120882812Y-100550000D01*
X120597188Y-100550000D01*
X120174238Y-100634130D01*
X119694608Y-100954608D01*
X119470000Y-101290758D01*
X119245392Y-100954608D01*
X118765762Y-100634130D01*
X118342812Y-100550000D01*
X118057188Y-100550000D01*
X117634238Y-100634130D01*
X117154608Y-100954608D01*
X116930000Y-101290758D01*
X116705392Y-100954608D01*
X116225762Y-100634130D01*
X115802812Y-100550000D01*
X115517188Y-100550000D01*
X115094238Y-100634130D01*
X114614608Y-100954608D01*
X114390000Y-101290758D01*
X114165392Y-100954608D01*
X113685762Y-100634130D01*
X113262812Y-100550000D01*
X112977188Y-100550000D01*
X112554238Y-100634130D01*
X112074608Y-100954608D01*
X111850000Y-101290758D01*
X111625392Y-100954608D01*
X111145762Y-100634130D01*
X110722812Y-100550000D01*
X110437188Y-100550000D01*
X110014238Y-100634130D01*
X109534608Y-100954608D01*
X109303891Y-101299901D01*
X109007130Y-100908891D01*
X108677944Y-100688973D01*
X108465000Y-100765087D01*
X108465000Y-101575000D01*
X108710000Y-101575000D01*
X108710000Y-102400000D01*
X107370000Y-102400000D01*
X107370000Y-101575000D01*
X107615000Y-101575000D01*
X107615000Y-100765087D01*
X107402056Y-100688973D01*
X107072870Y-100908891D01*
X106946828Y-101074963D01*
X106915187Y-100915892D01*
X106782575Y-100717425D01*
X106584108Y-100584813D01*
X106350000Y-100538246D01*
X104650000Y-100538246D01*
X104415892Y-100584813D01*
X104217425Y-100717425D01*
X104084813Y-100915892D01*
X104038246Y-101150000D01*
X104038246Y-102400000D01*
X103674381Y-102400000D01*
X103700000Y-102338151D01*
X103700000Y-101661849D01*
X103441190Y-101037027D01*
X102962973Y-100558810D01*
X102567501Y-100395000D01*
X157432499Y-100395000D01*
X157037027Y-100558810D01*
G04 #@! TD*
M02*
