G04 #@! TF.GenerationSoftware,KiCad,Pcbnew,(5.0.2)-1*
G04 #@! TF.CreationDate,2019-02-07T08:47:28-05:00*
G04 #@! TF.ProjectId,HASwitchPlate,48415377-6974-4636-9850-6c6174652e6b,rev?*
G04 #@! TF.SameCoordinates,Original*
G04 #@! TF.FileFunction,Copper,L2,Bot*
G04 #@! TF.FilePolarity,Positive*
%FSLAX46Y46*%
G04 Gerber Fmt 4.6, Leading zero omitted, Abs format (unit mm)*
G04 Created by KiCad (PCBNEW (5.0.2)-1) date 2/7/2019 8:47:28 AM*
%MOMM*%
%LPD*%
G01*
G04 APERTURE LIST*
G04 #@! TA.AperFunction,NonConductor*
%ADD10C,0.150000*%
G04 #@! TD*
G04 #@! TA.AperFunction,ComponentPad*
%ADD11R,1.100000X1.800000*%
G04 #@! TD*
G04 #@! TA.AperFunction,Conductor*
%ADD12C,0.100000*%
G04 #@! TD*
G04 #@! TA.AperFunction,ComponentPad*
%ADD13C,1.100000*%
G04 #@! TD*
G04 #@! TA.AperFunction,ComponentPad*
%ADD14C,1.524000*%
G04 #@! TD*
G04 #@! TA.AperFunction,ComponentPad*
%ADD15C,2.290000*%
G04 #@! TD*
G04 #@! TA.AperFunction,ComponentPad*
%ADD16O,1.600000X1.600000*%
G04 #@! TD*
G04 #@! TA.AperFunction,ComponentPad*
%ADD17C,1.600000*%
G04 #@! TD*
G04 #@! TA.AperFunction,ComponentPad*
%ADD18C,1.750000*%
G04 #@! TD*
G04 #@! TA.AperFunction,ComponentPad*
%ADD19R,1.750000X1.750000*%
G04 #@! TD*
G04 #@! TA.AperFunction,ComponentPad*
%ADD20R,1.700000X1.700000*%
G04 #@! TD*
G04 #@! TA.AperFunction,ComponentPad*
%ADD21O,1.700000X1.700000*%
G04 #@! TD*
G04 #@! TA.AperFunction,ComponentPad*
%ADD22C,1.800000*%
G04 #@! TD*
G04 #@! TA.AperFunction,ComponentPad*
%ADD23R,3.000000X3.000000*%
G04 #@! TD*
G04 #@! TA.AperFunction,ComponentPad*
%ADD24C,3.000000*%
G04 #@! TD*
G04 #@! TA.AperFunction,ViaPad*
%ADD25C,0.600000*%
G04 #@! TD*
G04 #@! TA.AperFunction,Conductor*
%ADD26C,1.000000*%
G04 #@! TD*
G04 #@! TA.AperFunction,Conductor*
%ADD27C,0.500000*%
G04 #@! TD*
G04 #@! TA.AperFunction,Conductor*
%ADD28C,0.254000*%
G04 #@! TD*
G04 APERTURE END LIST*
D10*
X160000000Y-101000000D02*
X160000000Y-122000000D01*
X160000000Y-132100000D02*
X160000000Y-124000000D01*
X141500000Y-123000000D02*
G75*
G03X142500000Y-124000000I1000000J0D01*
G01*
X142500000Y-122000000D02*
G75*
G03X141500000Y-123000000I0J-1000000D01*
G01*
X142500000Y-122000000D02*
X160000000Y-122000000D01*
X142500000Y-124000000D02*
X160000000Y-124000000D01*
X118500000Y-140000000D02*
X159000000Y-140000000D01*
X101000000Y-140000000D02*
X106000000Y-140000000D01*
X108000000Y-138000000D02*
X116500000Y-138000000D01*
X117500000Y-139000000D02*
G75*
G03X118500000Y-140000000I1000000J0D01*
G01*
X117500000Y-139000000D02*
G75*
G03X116500000Y-138000000I-1000000J0D01*
G01*
X107998255Y-138000002D02*
G75*
G03X107000000Y-139000000I1745J-999998D01*
G01*
X106000000Y-140000000D02*
G75*
G03X107000000Y-139000000I0J1000000D01*
G01*
X101000000Y-100000000D02*
G75*
G03X100000000Y-101000000I0J-1000000D01*
G01*
X100000000Y-139000000D02*
G75*
G03X101000000Y-140000000I1000000J0D01*
G01*
X159000000Y-140000000D02*
G75*
G03X160000000Y-139000000I0J1000000D01*
G01*
X160000000Y-101000000D02*
G75*
G03X159000000Y-100000000I-1000000J0D01*
G01*
X141500000Y-133100000D02*
G75*
G03X142500000Y-134100000I1000000J0D01*
G01*
X142500000Y-132100000D02*
G75*
G03X141500000Y-133100000I0J-1000000D01*
G01*
X160000000Y-134100000D02*
X160000000Y-139000000D01*
X142500000Y-134100000D02*
X160000000Y-134100000D01*
X142500000Y-132100000D02*
X160000000Y-132100000D01*
X101000000Y-100000000D02*
X159000000Y-100000000D01*
X100000000Y-101000000D02*
X100000000Y-139000000D01*
D11*
G04 #@! TO.P,Q1,1*
G04 #@! TO.N,/GND*
X152070000Y-105226000D03*
D12*
G04 #@! TD*
G04 #@! TO.N,/LCD_GND*
G04 #@! TO.C,Q1*
G36*
X154911955Y-104327324D02*
X154938650Y-104331284D01*
X154964828Y-104337841D01*
X154990238Y-104346933D01*
X155014634Y-104358472D01*
X155037782Y-104372346D01*
X155059458Y-104388422D01*
X155079454Y-104406546D01*
X155097578Y-104426542D01*
X155113654Y-104448218D01*
X155127528Y-104471366D01*
X155139067Y-104495762D01*
X155148159Y-104521172D01*
X155154716Y-104547350D01*
X155158676Y-104574045D01*
X155160000Y-104601000D01*
X155160000Y-105851000D01*
X155158676Y-105877955D01*
X155154716Y-105904650D01*
X155148159Y-105930828D01*
X155139067Y-105956238D01*
X155127528Y-105980634D01*
X155113654Y-106003782D01*
X155097578Y-106025458D01*
X155079454Y-106045454D01*
X155059458Y-106063578D01*
X155037782Y-106079654D01*
X155014634Y-106093528D01*
X154990238Y-106105067D01*
X154964828Y-106114159D01*
X154938650Y-106120716D01*
X154911955Y-106124676D01*
X154885000Y-106126000D01*
X154335000Y-106126000D01*
X154308045Y-106124676D01*
X154281350Y-106120716D01*
X154255172Y-106114159D01*
X154229762Y-106105067D01*
X154205366Y-106093528D01*
X154182218Y-106079654D01*
X154160542Y-106063578D01*
X154140546Y-106045454D01*
X154122422Y-106025458D01*
X154106346Y-106003782D01*
X154092472Y-105980634D01*
X154080933Y-105956238D01*
X154071841Y-105930828D01*
X154065284Y-105904650D01*
X154061324Y-105877955D01*
X154060000Y-105851000D01*
X154060000Y-104601000D01*
X154061324Y-104574045D01*
X154065284Y-104547350D01*
X154071841Y-104521172D01*
X154080933Y-104495762D01*
X154092472Y-104471366D01*
X154106346Y-104448218D01*
X154122422Y-104426542D01*
X154140546Y-104406546D01*
X154160542Y-104388422D01*
X154182218Y-104372346D01*
X154205366Y-104358472D01*
X154229762Y-104346933D01*
X154255172Y-104337841D01*
X154281350Y-104331284D01*
X154308045Y-104327324D01*
X154335000Y-104326000D01*
X154885000Y-104326000D01*
X154911955Y-104327324D01*
X154911955Y-104327324D01*
G37*
D13*
G04 #@! TO.P,Q1,3*
G04 #@! TO.N,/LCD_GND*
X154610000Y-105226000D03*
D12*
G04 #@! TD*
G04 #@! TO.N,/LCD_CTL*
G04 #@! TO.C,Q1*
G36*
X153641955Y-102257324D02*
X153668650Y-102261284D01*
X153694828Y-102267841D01*
X153720238Y-102276933D01*
X153744634Y-102288472D01*
X153767782Y-102302346D01*
X153789458Y-102318422D01*
X153809454Y-102336546D01*
X153827578Y-102356542D01*
X153843654Y-102378218D01*
X153857528Y-102401366D01*
X153869067Y-102425762D01*
X153878159Y-102451172D01*
X153884716Y-102477350D01*
X153888676Y-102504045D01*
X153890000Y-102531000D01*
X153890000Y-103781000D01*
X153888676Y-103807955D01*
X153884716Y-103834650D01*
X153878159Y-103860828D01*
X153869067Y-103886238D01*
X153857528Y-103910634D01*
X153843654Y-103933782D01*
X153827578Y-103955458D01*
X153809454Y-103975454D01*
X153789458Y-103993578D01*
X153767782Y-104009654D01*
X153744634Y-104023528D01*
X153720238Y-104035067D01*
X153694828Y-104044159D01*
X153668650Y-104050716D01*
X153641955Y-104054676D01*
X153615000Y-104056000D01*
X153065000Y-104056000D01*
X153038045Y-104054676D01*
X153011350Y-104050716D01*
X152985172Y-104044159D01*
X152959762Y-104035067D01*
X152935366Y-104023528D01*
X152912218Y-104009654D01*
X152890542Y-103993578D01*
X152870546Y-103975454D01*
X152852422Y-103955458D01*
X152836346Y-103933782D01*
X152822472Y-103910634D01*
X152810933Y-103886238D01*
X152801841Y-103860828D01*
X152795284Y-103834650D01*
X152791324Y-103807955D01*
X152790000Y-103781000D01*
X152790000Y-102531000D01*
X152791324Y-102504045D01*
X152795284Y-102477350D01*
X152801841Y-102451172D01*
X152810933Y-102425762D01*
X152822472Y-102401366D01*
X152836346Y-102378218D01*
X152852422Y-102356542D01*
X152870546Y-102336546D01*
X152890542Y-102318422D01*
X152912218Y-102302346D01*
X152935366Y-102288472D01*
X152959762Y-102276933D01*
X152985172Y-102267841D01*
X153011350Y-102261284D01*
X153038045Y-102257324D01*
X153065000Y-102256000D01*
X153615000Y-102256000D01*
X153641955Y-102257324D01*
X153641955Y-102257324D01*
G37*
D13*
G04 #@! TO.P,Q1,2*
G04 #@! TO.N,/LCD_CTL*
X153340000Y-103156000D03*
G04 #@! TD*
D14*
G04 #@! TO.P,U3,8*
G04 #@! TO.N,N/C*
X129220000Y-125490000D03*
G04 #@! TO.P,U3,9*
G04 #@! TO.N,/+5V*
X129220000Y-135650000D03*
D15*
G04 #@! TO.P,U3,16*
G04 #@! TO.N,/AC_L*
X147000000Y-135650000D03*
D14*
G04 #@! TO.P,U3,10*
G04 #@! TO.N,/GND*
X131760000Y-135650000D03*
G04 #@! TO.P,U3,1*
G04 #@! TO.N,/AC_N*
X147000000Y-125490000D03*
G04 #@! TO.P,U3,7*
G04 #@! TO.N,N/C*
X131760000Y-125490000D03*
G04 #@! TD*
D16*
G04 #@! TO.P,R1,2*
G04 #@! TO.N,/LCD_CTL*
X151943000Y-108509000D03*
D17*
G04 #@! TO.P,R1,1*
G04 #@! TO.N,Net-(R1-Pad1)*
X151943000Y-118669000D03*
G04 #@! TD*
D18*
G04 #@! TO.P,J2,4*
G04 #@! TO.N,/+5V*
X157785000Y-110795000D03*
G04 #@! TO.P,J2,3*
G04 #@! TO.N,/LCD_TX*
X157785000Y-113335000D03*
G04 #@! TO.P,J2,2*
G04 #@! TO.N,/LCD_RX*
X157785000Y-115875000D03*
D19*
G04 #@! TO.P,J2,1*
G04 #@! TO.N,/LCD_GND*
X157785000Y-118415000D03*
G04 #@! TD*
D20*
G04 #@! TO.P,J3,1*
G04 #@! TO.N,/GND*
X105500000Y-102000000D03*
D21*
G04 #@! TO.P,J3,2*
G04 #@! TO.N,/+5V*
X108040000Y-102000000D03*
G04 #@! TO.P,J3,3*
G04 #@! TO.N,/+3.3V*
X110580000Y-102000000D03*
G04 #@! TO.P,J3,4*
G04 #@! TO.N,/A0*
X113120000Y-102000000D03*
G04 #@! TO.P,J3,5*
G04 #@! TO.N,/D0*
X115660000Y-102000000D03*
G04 #@! TO.P,J3,6*
G04 #@! TO.N,/D1*
X118200000Y-102000000D03*
G04 #@! TO.P,J3,7*
G04 #@! TO.N,/D2*
X120740000Y-102000000D03*
G04 #@! TO.P,J3,8*
G04 #@! TO.N,/D8_DBG*
X123280000Y-102000000D03*
G04 #@! TD*
D15*
G04 #@! TO.P,U1,5*
G04 #@! TO.N,N/C*
X147000000Y-105170000D03*
G04 #@! TO.P,U1,1*
G04 #@! TO.N,/AC_L*
X147000000Y-135650000D03*
G04 #@! TO.P,U1,2*
G04 #@! TO.N,/AC_N*
X147000000Y-130570000D03*
G04 #@! TO.P,U1,3*
G04 #@! TO.N,/+5V*
X129300000Y-110250000D03*
G04 #@! TO.P,U1,4*
G04 #@! TO.N,/GND*
X129300000Y-105170000D03*
G04 #@! TD*
D22*
G04 #@! TO.P,U2,16*
G04 #@! TO.N,/+3.3V*
X101570000Y-130390000D03*
G04 #@! TO.P,U2,1*
G04 #@! TO.N,/+5V*
X124430000Y-130390000D03*
G04 #@! TO.P,U2,15*
G04 #@! TO.N,/D8_DBG*
X101570000Y-127850000D03*
G04 #@! TO.P,U2,2*
G04 #@! TO.N,/GND*
X124430000Y-127850000D03*
G04 #@! TO.P,U2,14*
G04 #@! TO.N,/LCD_TX*
X101570000Y-125310000D03*
G04 #@! TO.P,U2,3*
G04 #@! TO.N,/LCD_RX*
X124430000Y-125310000D03*
G04 #@! TO.P,U2,13*
G04 #@! TO.N,Net-(R1-Pad1)*
X101570000Y-122770000D03*
G04 #@! TO.P,U2,4*
G04 #@! TO.N,Net-(U2-Pad4)*
X124430000Y-122770000D03*
G04 #@! TO.P,U2,12*
G04 #@! TO.N,Net-(U2-Pad12)*
X101570000Y-120230000D03*
G04 #@! TO.P,U2,5*
G04 #@! TO.N,/D2*
X124430000Y-120230000D03*
G04 #@! TO.P,U2,11*
G04 #@! TO.N,/D0*
X101570000Y-117690000D03*
G04 #@! TO.P,U2,6*
G04 #@! TO.N,/D1*
X124430000Y-117690000D03*
G04 #@! TO.P,U2,10*
G04 #@! TO.N,/A0*
X101570000Y-115150000D03*
G04 #@! TO.P,U2,7*
G04 #@! TO.N,Net-(U2-Pad7)*
X124430000Y-115150000D03*
G04 #@! TO.P,U2,9*
G04 #@! TO.N,Net-(U2-Pad9)*
X101570000Y-112610000D03*
G04 #@! TO.P,U2,8*
G04 #@! TO.N,Net-(U2-Pad8)*
X124430000Y-112610000D03*
G04 #@! TD*
D23*
G04 #@! TO.P,J1,1*
G04 #@! TO.N,/AC_L*
X155500000Y-135650000D03*
D24*
G04 #@! TO.P,J1,2*
G04 #@! TO.N,/AC_N*
X155500000Y-130570000D03*
G04 #@! TD*
D25*
G04 #@! TO.N,/LCD_TX*
X105207000Y-125310000D03*
G04 #@! TO.N,/LCD_RX*
X135941000Y-115113000D03*
G04 #@! TO.N,/LCD_GND*
X153594000Y-113812990D03*
G04 #@! TO.N,Net-(R1-Pad1)*
X111811000Y-122225000D03*
G04 #@! TD*
D26*
G04 #@! TO.N,/LCD_TX*
X157785000Y-113335000D02*
X156910001Y-112460001D01*
X148118999Y-112460001D02*
X126924000Y-133655000D01*
X156910001Y-112460001D02*
X148118999Y-112460001D01*
X126924000Y-133655000D02*
X113552000Y-133655000D01*
X113552000Y-133655000D02*
X105506999Y-125609999D01*
X105506999Y-125609999D02*
X105207000Y-125310000D01*
G04 #@! TO.N,/LCD_RX*
X125744000Y-125310000D02*
X124430000Y-125310000D01*
X135941000Y-115113000D02*
X125744000Y-125310000D01*
G04 #@! TO.N,/A0*
X102482001Y-114510001D02*
X103556000Y-113436002D01*
X101745999Y-114510001D02*
X102482001Y-114510001D01*
X101570000Y-115150000D02*
X101570000Y-114686000D01*
X101570000Y-114686000D02*
X101745999Y-114510001D01*
X103556000Y-113436002D02*
X103556000Y-105588000D01*
X103556000Y-105588000D02*
X104826000Y-104318000D01*
X113120000Y-103202081D02*
X113120000Y-102000000D01*
X112004081Y-104318000D02*
X113120000Y-103202081D01*
X104826000Y-104318000D02*
X112004081Y-104318000D01*
G04 #@! TO.N,/D0*
X115660000Y-103202081D02*
X115660000Y-102000000D01*
X101570000Y-117690000D02*
X102842792Y-117690000D01*
X102842792Y-117690000D02*
X105056010Y-115476782D01*
X105056010Y-115476782D02*
X105056010Y-106500990D01*
X105056010Y-106500990D02*
X105738990Y-105818010D01*
X105738990Y-105818010D02*
X113044071Y-105818010D01*
X113044071Y-105818010D02*
X115660000Y-103202081D01*
G04 #@! TO.N,/D8_DBG*
X103706989Y-126985803D02*
X103706989Y-124688676D01*
X122430001Y-102849999D02*
X123280000Y-102000000D01*
X103706989Y-124688676D02*
X104646665Y-123749000D01*
X104646665Y-123749000D02*
X119812000Y-123749000D01*
X119812000Y-123749000D02*
X122430001Y-121130999D01*
X122430001Y-121130999D02*
X122430001Y-102849999D01*
X102842792Y-127850000D02*
X103706989Y-126985803D01*
X101570000Y-127850000D02*
X102842792Y-127850000D01*
D27*
G04 #@! TO.N,/LCD_GND*
X156410000Y-118415000D02*
X153594000Y-115599000D01*
X157785000Y-118415000D02*
X156410000Y-118415000D01*
X153594000Y-114237254D02*
X153594000Y-113812990D01*
X153594000Y-115599000D02*
X153594000Y-114237254D01*
D26*
G04 #@! TO.N,Net-(R1-Pad1)*
X103387792Y-122225000D02*
X111386736Y-122225000D01*
X102842792Y-122770000D02*
X103387792Y-122225000D01*
X101570000Y-122770000D02*
X102842792Y-122770000D01*
X111386736Y-122225000D02*
X111811000Y-122225000D01*
D27*
G04 #@! TO.N,/LCD_CTL*
X155289584Y-103556000D02*
X153340000Y-103556000D01*
X155910010Y-104176426D02*
X155289584Y-103556000D01*
X155910010Y-106275574D02*
X155910010Y-104176426D01*
X153676584Y-108509000D02*
X155910010Y-106275574D01*
X151943000Y-108509000D02*
X153676584Y-108509000D01*
G04 #@! TD*
D28*
G04 #@! TO.N,/+5V*
G36*
X136068000Y-139578000D02*
X118541561Y-139578000D01*
X118281973Y-139526365D01*
X118097139Y-139402863D01*
X117973635Y-139218027D01*
X117913891Y-138917672D01*
X117837771Y-138534989D01*
X117793125Y-138427204D01*
X117774760Y-138382866D01*
X117557987Y-138058443D01*
X117441558Y-137942013D01*
X117441555Y-137942012D01*
X117117133Y-137725240D01*
X116965011Y-137662229D01*
X116582328Y-137586109D01*
X116541561Y-137578000D01*
X107958439Y-137578000D01*
X107917308Y-137586181D01*
X107915566Y-137586183D01*
X107534629Y-137662300D01*
X107458578Y-137693879D01*
X107382866Y-137725240D01*
X107058443Y-137942013D01*
X106942013Y-138058442D01*
X106942013Y-138058443D01*
X106725241Y-138382866D01*
X106725240Y-138382867D01*
X106662229Y-138534989D01*
X106586109Y-138917672D01*
X106526365Y-139218027D01*
X106402863Y-139402861D01*
X106218027Y-139526365D01*
X105958439Y-139578000D01*
X102703240Y-139578000D01*
X102978267Y-139464080D01*
X103464080Y-138978267D01*
X103727000Y-138343522D01*
X103727000Y-137656478D01*
X103464080Y-137021733D01*
X103072560Y-136630213D01*
X128419392Y-136630213D01*
X128488857Y-136872397D01*
X129012302Y-137059144D01*
X129567368Y-137031362D01*
X129951143Y-136872397D01*
X130020608Y-136630213D01*
X129220000Y-135829605D01*
X128419392Y-136630213D01*
X103072560Y-136630213D01*
X102978267Y-136535920D01*
X102343522Y-136273000D01*
X101656478Y-136273000D01*
X101021733Y-136535920D01*
X100535920Y-137021733D01*
X100422000Y-137296760D01*
X100422000Y-135442302D01*
X127810856Y-135442302D01*
X127838638Y-135997368D01*
X127997603Y-136381143D01*
X128239787Y-136450608D01*
X129040395Y-135650000D01*
X129399605Y-135650000D01*
X130200213Y-136450608D01*
X130442397Y-136381143D01*
X130496543Y-136229375D01*
X130582463Y-136436805D01*
X130973195Y-136827537D01*
X131483711Y-137039000D01*
X132036289Y-137039000D01*
X132546805Y-136827537D01*
X132937537Y-136436805D01*
X133149000Y-135926289D01*
X133149000Y-135373711D01*
X132937537Y-134863195D01*
X132546805Y-134472463D01*
X132036289Y-134261000D01*
X131483711Y-134261000D01*
X130973195Y-134472463D01*
X130582463Y-134863195D01*
X130500902Y-135060100D01*
X130442397Y-134918857D01*
X130200213Y-134849392D01*
X129399605Y-135650000D01*
X129040395Y-135650000D01*
X128239787Y-134849392D01*
X127997603Y-134918857D01*
X127810856Y-135442302D01*
X100422000Y-135442302D01*
X100422000Y-131401504D01*
X100705024Y-131684528D01*
X101266261Y-131917000D01*
X101873739Y-131917000D01*
X102434976Y-131684528D01*
X102864528Y-131254976D01*
X103097000Y-130693739D01*
X103097000Y-130086261D01*
X102864528Y-129525024D01*
X102459504Y-129120000D01*
X102602504Y-128977000D01*
X102731794Y-128977000D01*
X102842792Y-128999079D01*
X102953790Y-128977000D01*
X102953791Y-128977000D01*
X103282525Y-128911611D01*
X103655314Y-128662522D01*
X103718192Y-128568418D01*
X104425410Y-127861201D01*
X104519511Y-127798325D01*
X104768600Y-127425536D01*
X104833989Y-127096802D01*
X104833989Y-127096801D01*
X104856068Y-126985804D01*
X104833989Y-126874806D01*
X104833989Y-126530807D01*
X112676600Y-134373418D01*
X112739478Y-134467522D01*
X113112267Y-134716611D01*
X113441001Y-134782000D01*
X113441002Y-134782000D01*
X113552000Y-134804079D01*
X113662998Y-134782000D01*
X126813002Y-134782000D01*
X126924000Y-134804079D01*
X127034998Y-134782000D01*
X127034999Y-134782000D01*
X127363733Y-134716611D01*
X127433810Y-134669787D01*
X128419392Y-134669787D01*
X129220000Y-135470395D01*
X130020608Y-134669787D01*
X129951143Y-134427603D01*
X129427698Y-134240856D01*
X128872632Y-134268638D01*
X128488857Y-134427603D01*
X128419392Y-134669787D01*
X127433810Y-134669787D01*
X127736522Y-134467522D01*
X127799400Y-134373418D01*
X136068000Y-126104818D01*
X136068000Y-139578000D01*
X136068000Y-139578000D01*
G37*
X136068000Y-139578000D02*
X118541561Y-139578000D01*
X118281973Y-139526365D01*
X118097139Y-139402863D01*
X117973635Y-139218027D01*
X117913891Y-138917672D01*
X117837771Y-138534989D01*
X117793125Y-138427204D01*
X117774760Y-138382866D01*
X117557987Y-138058443D01*
X117441558Y-137942013D01*
X117441555Y-137942012D01*
X117117133Y-137725240D01*
X116965011Y-137662229D01*
X116582328Y-137586109D01*
X116541561Y-137578000D01*
X107958439Y-137578000D01*
X107917308Y-137586181D01*
X107915566Y-137586183D01*
X107534629Y-137662300D01*
X107458578Y-137693879D01*
X107382866Y-137725240D01*
X107058443Y-137942013D01*
X106942013Y-138058442D01*
X106942013Y-138058443D01*
X106725241Y-138382866D01*
X106725240Y-138382867D01*
X106662229Y-138534989D01*
X106586109Y-138917672D01*
X106526365Y-139218027D01*
X106402863Y-139402861D01*
X106218027Y-139526365D01*
X105958439Y-139578000D01*
X102703240Y-139578000D01*
X102978267Y-139464080D01*
X103464080Y-138978267D01*
X103727000Y-138343522D01*
X103727000Y-137656478D01*
X103464080Y-137021733D01*
X103072560Y-136630213D01*
X128419392Y-136630213D01*
X128488857Y-136872397D01*
X129012302Y-137059144D01*
X129567368Y-137031362D01*
X129951143Y-136872397D01*
X130020608Y-136630213D01*
X129220000Y-135829605D01*
X128419392Y-136630213D01*
X103072560Y-136630213D01*
X102978267Y-136535920D01*
X102343522Y-136273000D01*
X101656478Y-136273000D01*
X101021733Y-136535920D01*
X100535920Y-137021733D01*
X100422000Y-137296760D01*
X100422000Y-135442302D01*
X127810856Y-135442302D01*
X127838638Y-135997368D01*
X127997603Y-136381143D01*
X128239787Y-136450608D01*
X129040395Y-135650000D01*
X129399605Y-135650000D01*
X130200213Y-136450608D01*
X130442397Y-136381143D01*
X130496543Y-136229375D01*
X130582463Y-136436805D01*
X130973195Y-136827537D01*
X131483711Y-137039000D01*
X132036289Y-137039000D01*
X132546805Y-136827537D01*
X132937537Y-136436805D01*
X133149000Y-135926289D01*
X133149000Y-135373711D01*
X132937537Y-134863195D01*
X132546805Y-134472463D01*
X132036289Y-134261000D01*
X131483711Y-134261000D01*
X130973195Y-134472463D01*
X130582463Y-134863195D01*
X130500902Y-135060100D01*
X130442397Y-134918857D01*
X130200213Y-134849392D01*
X129399605Y-135650000D01*
X129040395Y-135650000D01*
X128239787Y-134849392D01*
X127997603Y-134918857D01*
X127810856Y-135442302D01*
X100422000Y-135442302D01*
X100422000Y-131401504D01*
X100705024Y-131684528D01*
X101266261Y-131917000D01*
X101873739Y-131917000D01*
X102434976Y-131684528D01*
X102864528Y-131254976D01*
X103097000Y-130693739D01*
X103097000Y-130086261D01*
X102864528Y-129525024D01*
X102459504Y-129120000D01*
X102602504Y-128977000D01*
X102731794Y-128977000D01*
X102842792Y-128999079D01*
X102953790Y-128977000D01*
X102953791Y-128977000D01*
X103282525Y-128911611D01*
X103655314Y-128662522D01*
X103718192Y-128568418D01*
X104425410Y-127861201D01*
X104519511Y-127798325D01*
X104768600Y-127425536D01*
X104833989Y-127096802D01*
X104833989Y-127096801D01*
X104856068Y-126985804D01*
X104833989Y-126874806D01*
X104833989Y-126530807D01*
X112676600Y-134373418D01*
X112739478Y-134467522D01*
X113112267Y-134716611D01*
X113441001Y-134782000D01*
X113441002Y-134782000D01*
X113552000Y-134804079D01*
X113662998Y-134782000D01*
X126813002Y-134782000D01*
X126924000Y-134804079D01*
X127034998Y-134782000D01*
X127034999Y-134782000D01*
X127363733Y-134716611D01*
X127433810Y-134669787D01*
X128419392Y-134669787D01*
X129220000Y-135470395D01*
X130020608Y-134669787D01*
X129951143Y-134427603D01*
X129427698Y-134240856D01*
X128872632Y-134268638D01*
X128488857Y-134427603D01*
X128419392Y-134669787D01*
X127433810Y-134669787D01*
X127736522Y-134467522D01*
X127799400Y-134373418D01*
X136068000Y-126104818D01*
X136068000Y-139578000D01*
G36*
X157021733Y-100535920D02*
X156535920Y-101021733D01*
X156273000Y-101656478D01*
X156273000Y-102343522D01*
X156535920Y-102978267D01*
X157021733Y-103464080D01*
X157656478Y-103727000D01*
X158343522Y-103727000D01*
X158978267Y-103464080D01*
X159464080Y-102978267D01*
X159578000Y-102703240D01*
X159578001Y-121463000D01*
X140709819Y-121463000D01*
X143787667Y-118385152D01*
X150516000Y-118385152D01*
X150516000Y-118952848D01*
X150733247Y-119477331D01*
X151134669Y-119878753D01*
X151659152Y-120096000D01*
X152226848Y-120096000D01*
X152751331Y-119878753D01*
X153152753Y-119477331D01*
X153370000Y-118952848D01*
X153370000Y-118385152D01*
X153152753Y-117860669D01*
X152751331Y-117459247D01*
X152226848Y-117242000D01*
X151659152Y-117242000D01*
X151134669Y-117459247D01*
X150733247Y-117860669D01*
X150516000Y-118385152D01*
X143787667Y-118385152D01*
X148585818Y-113587001D01*
X152684230Y-113587001D01*
X152667000Y-113628598D01*
X152667000Y-113997382D01*
X152717000Y-114118093D01*
X152717000Y-114323628D01*
X152717001Y-114323632D01*
X152717000Y-115512629D01*
X152699820Y-115599000D01*
X152717000Y-115685370D01*
X152717000Y-115685374D01*
X152767884Y-115941187D01*
X152961719Y-116231281D01*
X153034946Y-116280210D01*
X155728792Y-118974057D01*
X155777719Y-119047281D01*
X155850943Y-119096208D01*
X156067810Y-119241115D01*
X156067811Y-119241115D01*
X156067812Y-119241116D01*
X156270717Y-119281476D01*
X156270717Y-119290000D01*
X156319380Y-119534643D01*
X156457959Y-119742041D01*
X156665357Y-119880620D01*
X156910000Y-119929283D01*
X158660000Y-119929283D01*
X158904643Y-119880620D01*
X159112041Y-119742041D01*
X159250620Y-119534643D01*
X159299283Y-119290000D01*
X159299283Y-117540000D01*
X159250620Y-117295357D01*
X159112041Y-117087959D01*
X158904643Y-116949380D01*
X158846362Y-116937787D01*
X159058334Y-116725815D01*
X159287000Y-116173766D01*
X159287000Y-115576234D01*
X159058334Y-115024185D01*
X158639149Y-114605000D01*
X159058334Y-114185815D01*
X159287000Y-113633766D01*
X159287000Y-113036234D01*
X159058334Y-112484185D01*
X158635815Y-112061666D01*
X158604546Y-112048714D01*
X158667455Y-111857060D01*
X157785000Y-110974605D01*
X157770858Y-110988748D01*
X157591253Y-110809143D01*
X157605395Y-110795000D01*
X157964605Y-110795000D01*
X158847060Y-111677455D01*
X159100953Y-111594116D01*
X159306590Y-111029694D01*
X159280579Y-110429542D01*
X159100953Y-109995884D01*
X158847060Y-109912545D01*
X157964605Y-110795000D01*
X157605395Y-110795000D01*
X156722940Y-109912545D01*
X156469047Y-109995884D01*
X156263410Y-110560306D01*
X156289421Y-111160458D01*
X156360890Y-111333001D01*
X148229996Y-111333001D01*
X148118998Y-111310922D01*
X148008000Y-111333001D01*
X147679266Y-111398390D01*
X147679265Y-111398391D01*
X147679264Y-111398391D01*
X147559557Y-111478377D01*
X147306477Y-111647479D01*
X147243601Y-111741580D01*
X137522181Y-121463000D01*
X136195000Y-121463000D01*
X136146399Y-121472667D01*
X136105197Y-121500197D01*
X136077667Y-121541399D01*
X136068000Y-121590000D01*
X136068000Y-122917181D01*
X133099578Y-125885603D01*
X133149000Y-125766289D01*
X133149000Y-125213711D01*
X132937537Y-124703195D01*
X132546805Y-124312463D01*
X132036289Y-124101000D01*
X131483711Y-124101000D01*
X130973195Y-124312463D01*
X130582463Y-124703195D01*
X130490000Y-124926420D01*
X130397537Y-124703195D01*
X130006805Y-124312463D01*
X129496289Y-124101000D01*
X128943711Y-124101000D01*
X128433195Y-124312463D01*
X128042463Y-124703195D01*
X127831000Y-125213711D01*
X127831000Y-125766289D01*
X128042463Y-126276805D01*
X128433195Y-126667537D01*
X128943711Y-126879000D01*
X129496289Y-126879000D01*
X130006805Y-126667537D01*
X130397537Y-126276805D01*
X130490000Y-126053580D01*
X130582463Y-126276805D01*
X130973195Y-126667537D01*
X131483711Y-126879000D01*
X132036289Y-126879000D01*
X132155603Y-126829578D01*
X126457182Y-132528000D01*
X114018818Y-132528000D01*
X112960977Y-131470159D01*
X123529446Y-131470159D01*
X123615852Y-131726643D01*
X124189336Y-131936458D01*
X124799460Y-131910839D01*
X125244148Y-131726643D01*
X125330554Y-131470159D01*
X124430000Y-130569605D01*
X123529446Y-131470159D01*
X112960977Y-131470159D01*
X111640154Y-130149336D01*
X122883542Y-130149336D01*
X122909161Y-130759460D01*
X123093357Y-131204148D01*
X123349841Y-131290554D01*
X124250395Y-130390000D01*
X124609605Y-130390000D01*
X125510159Y-131290554D01*
X125766643Y-131204148D01*
X125976458Y-130630664D01*
X125950839Y-130020540D01*
X125766643Y-129575852D01*
X125510159Y-129489446D01*
X124609605Y-130390000D01*
X124250395Y-130390000D01*
X123349841Y-129489446D01*
X123093357Y-129575852D01*
X122883542Y-130149336D01*
X111640154Y-130149336D01*
X107617818Y-126127000D01*
X123000000Y-126127000D01*
X123048601Y-126117333D01*
X123089803Y-126089803D01*
X123096216Y-126080205D01*
X123135472Y-126174976D01*
X123540496Y-126580000D01*
X123135472Y-126985024D01*
X122903000Y-127546261D01*
X122903000Y-128153739D01*
X123135472Y-128714976D01*
X123565024Y-129144528D01*
X123582675Y-129151839D01*
X123529446Y-129309841D01*
X124430000Y-130210395D01*
X125330554Y-129309841D01*
X125277325Y-129151839D01*
X125294976Y-129144528D01*
X125724528Y-128714976D01*
X125957000Y-128153739D01*
X125957000Y-127546261D01*
X125724528Y-126985024D01*
X125319504Y-126580000D01*
X125462504Y-126437000D01*
X125633002Y-126437000D01*
X125744000Y-126459079D01*
X125854998Y-126437000D01*
X125854999Y-126437000D01*
X126183733Y-126371611D01*
X126556522Y-126122522D01*
X126619400Y-126028418D01*
X136816397Y-115831421D01*
X137002610Y-115552734D01*
X137090079Y-115113000D01*
X137002610Y-114673266D01*
X136753521Y-114300479D01*
X136380734Y-114051390D01*
X135941000Y-113963921D01*
X135501266Y-114051390D01*
X135222579Y-114237603D01*
X125369843Y-124090339D01*
X125319504Y-124040000D01*
X125724528Y-123634976D01*
X125957000Y-123073739D01*
X125957000Y-122466261D01*
X125724528Y-121905024D01*
X125319504Y-121500000D01*
X125724528Y-121094976D01*
X125957000Y-120533739D01*
X125957000Y-119926261D01*
X125724528Y-119365024D01*
X125319504Y-118960000D01*
X125724528Y-118554976D01*
X125957000Y-117993739D01*
X125957000Y-117386261D01*
X125724528Y-116825024D01*
X125319504Y-116420000D01*
X125724528Y-116014976D01*
X125957000Y-115453739D01*
X125957000Y-114846261D01*
X125724528Y-114285024D01*
X125319504Y-113880000D01*
X125724528Y-113474976D01*
X125957000Y-112913739D01*
X125957000Y-112306261D01*
X125724528Y-111745024D01*
X125486913Y-111507409D01*
X128222196Y-111507409D01*
X128338605Y-111789312D01*
X129000856Y-112040049D01*
X129708649Y-112018267D01*
X130261395Y-111789312D01*
X130377804Y-111507409D01*
X129300000Y-110429605D01*
X128222196Y-111507409D01*
X125486913Y-111507409D01*
X125294976Y-111315472D01*
X124733739Y-111083000D01*
X124126261Y-111083000D01*
X123565024Y-111315472D01*
X123557001Y-111323495D01*
X123557001Y-109950856D01*
X127509951Y-109950856D01*
X127531733Y-110658649D01*
X127760688Y-111211395D01*
X128042591Y-111327804D01*
X129120395Y-110250000D01*
X129479605Y-110250000D01*
X130557409Y-111327804D01*
X130839312Y-111211395D01*
X131090049Y-110549144D01*
X131068267Y-109841351D01*
X130839312Y-109288605D01*
X130557409Y-109172196D01*
X129479605Y-110250000D01*
X129120395Y-110250000D01*
X128042591Y-109172196D01*
X127760688Y-109288605D01*
X127509951Y-109950856D01*
X123557001Y-109950856D01*
X123557001Y-108992591D01*
X128222196Y-108992591D01*
X129300000Y-110070395D01*
X130377804Y-108992591D01*
X130261395Y-108710688D01*
X129728694Y-108509000D01*
X150488044Y-108509000D01*
X150598796Y-109065788D01*
X150914191Y-109537809D01*
X151386212Y-109853204D01*
X151802456Y-109936000D01*
X152083544Y-109936000D01*
X152499788Y-109853204D01*
X152679775Y-109732940D01*
X156902545Y-109732940D01*
X157785000Y-110615395D01*
X158667455Y-109732940D01*
X158584116Y-109479047D01*
X158019694Y-109273410D01*
X157419542Y-109299421D01*
X156985884Y-109479047D01*
X156902545Y-109732940D01*
X152679775Y-109732940D01*
X152971809Y-109537809D01*
X153073245Y-109386000D01*
X153590214Y-109386000D01*
X153676584Y-109403180D01*
X153762954Y-109386000D01*
X153762959Y-109386000D01*
X154018772Y-109335116D01*
X154308865Y-109141281D01*
X154357794Y-109068054D01*
X156469067Y-106956782D01*
X156542291Y-106907855D01*
X156637555Y-106765283D01*
X156736125Y-106617764D01*
X156736125Y-106617763D01*
X156736126Y-106617762D01*
X156787010Y-106361949D01*
X156787010Y-106361945D01*
X156804190Y-106275575D01*
X156787010Y-106189205D01*
X156787010Y-104262796D01*
X156804190Y-104176426D01*
X156787010Y-104090056D01*
X156787010Y-104090051D01*
X156736126Y-103834238D01*
X156670071Y-103735380D01*
X156591219Y-103617369D01*
X156591216Y-103617366D01*
X156542291Y-103544145D01*
X156469069Y-103495219D01*
X155970793Y-102996945D01*
X155921865Y-102923719D01*
X155631772Y-102729884D01*
X155375959Y-102679000D01*
X155375954Y-102679000D01*
X155289584Y-102661820D01*
X155203214Y-102679000D01*
X154529283Y-102679000D01*
X154529283Y-102531000D01*
X154459687Y-102181119D01*
X154261496Y-101884504D01*
X153964881Y-101686313D01*
X153615000Y-101616717D01*
X153065000Y-101616717D01*
X152715119Y-101686313D01*
X152418504Y-101884504D01*
X152220313Y-102181119D01*
X152150717Y-102531000D01*
X152150717Y-103686717D01*
X151520000Y-103686717D01*
X151275357Y-103735380D01*
X151067959Y-103873959D01*
X150929380Y-104081357D01*
X150880717Y-104326000D01*
X150880717Y-106126000D01*
X150929380Y-106370643D01*
X151067959Y-106578041D01*
X151275357Y-106716620D01*
X151520000Y-106765283D01*
X152620000Y-106765283D01*
X152864643Y-106716620D01*
X153072041Y-106578041D01*
X153210620Y-106370643D01*
X153259283Y-106126000D01*
X153259283Y-104695283D01*
X153420717Y-104695283D01*
X153420717Y-105851000D01*
X153490313Y-106200881D01*
X153688504Y-106497496D01*
X153985119Y-106695687D01*
X154205747Y-106739573D01*
X153313320Y-107632000D01*
X153073245Y-107632000D01*
X152971809Y-107480191D01*
X152499788Y-107164796D01*
X152083544Y-107082000D01*
X151802456Y-107082000D01*
X151386212Y-107164796D01*
X150914191Y-107480191D01*
X150598796Y-107952212D01*
X150488044Y-108509000D01*
X129728694Y-108509000D01*
X129599144Y-108459951D01*
X128891351Y-108481733D01*
X128338605Y-108710688D01*
X128222196Y-108992591D01*
X123557001Y-108992591D01*
X123557001Y-104817527D01*
X127528000Y-104817527D01*
X127528000Y-105522473D01*
X127797771Y-106173758D01*
X128296242Y-106672229D01*
X128947527Y-106942000D01*
X129652473Y-106942000D01*
X130303758Y-106672229D01*
X130802229Y-106173758D01*
X131072000Y-105522473D01*
X131072000Y-104817527D01*
X145228000Y-104817527D01*
X145228000Y-105522473D01*
X145497771Y-106173758D01*
X145996242Y-106672229D01*
X146647527Y-106942000D01*
X147352473Y-106942000D01*
X148003758Y-106672229D01*
X148502229Y-106173758D01*
X148772000Y-105522473D01*
X148772000Y-104817527D01*
X148502229Y-104166242D01*
X148003758Y-103667771D01*
X147352473Y-103398000D01*
X146647527Y-103398000D01*
X145996242Y-103667771D01*
X145497771Y-104166242D01*
X145228000Y-104817527D01*
X131072000Y-104817527D01*
X130802229Y-104166242D01*
X130303758Y-103667771D01*
X129652473Y-103398000D01*
X128947527Y-103398000D01*
X128296242Y-103667771D01*
X127797771Y-104166242D01*
X127528000Y-104817527D01*
X123557001Y-104817527D01*
X123557001Y-103450837D01*
X123856297Y-103391303D01*
X124344858Y-103064858D01*
X124671303Y-102576297D01*
X124785936Y-102000000D01*
X124671303Y-101423703D01*
X124344858Y-100935142D01*
X123856297Y-100608697D01*
X123425471Y-100523000D01*
X123134529Y-100523000D01*
X122703703Y-100608697D01*
X122215142Y-100935142D01*
X122010000Y-101242160D01*
X121804858Y-100935142D01*
X121316297Y-100608697D01*
X120885471Y-100523000D01*
X120594529Y-100523000D01*
X120163703Y-100608697D01*
X119675142Y-100935142D01*
X119470000Y-101242160D01*
X119264858Y-100935142D01*
X118776297Y-100608697D01*
X118345471Y-100523000D01*
X118054529Y-100523000D01*
X117623703Y-100608697D01*
X117135142Y-100935142D01*
X116930000Y-101242160D01*
X116724858Y-100935142D01*
X116236297Y-100608697D01*
X115805471Y-100523000D01*
X115514529Y-100523000D01*
X115083703Y-100608697D01*
X114595142Y-100935142D01*
X114390000Y-101242160D01*
X114184858Y-100935142D01*
X113696297Y-100608697D01*
X113265471Y-100523000D01*
X112974529Y-100523000D01*
X112543703Y-100608697D01*
X112055142Y-100935142D01*
X111850000Y-101242160D01*
X111644858Y-100935142D01*
X111156297Y-100608697D01*
X110725471Y-100523000D01*
X110434529Y-100523000D01*
X110003703Y-100608697D01*
X109515142Y-100935142D01*
X109300128Y-101256934D01*
X109235183Y-101118642D01*
X108806924Y-100728355D01*
X108396890Y-100558524D01*
X108167000Y-100679845D01*
X108167000Y-101873000D01*
X108187000Y-101873000D01*
X108187000Y-102127000D01*
X108167000Y-102127000D01*
X108167000Y-102147000D01*
X107913000Y-102147000D01*
X107913000Y-102127000D01*
X107893000Y-102127000D01*
X107893000Y-101873000D01*
X107913000Y-101873000D01*
X107913000Y-100679845D01*
X107683110Y-100558524D01*
X107273076Y-100728355D01*
X106961833Y-101012001D01*
X106940620Y-100905357D01*
X106802041Y-100697959D01*
X106594643Y-100559380D01*
X106350000Y-100510717D01*
X104650000Y-100510717D01*
X104405357Y-100559380D01*
X104197959Y-100697959D01*
X104059380Y-100905357D01*
X104010717Y-101150000D01*
X104010717Y-102373000D01*
X103675440Y-102373000D01*
X103727000Y-102248522D01*
X103727000Y-101561478D01*
X103464080Y-100926733D01*
X102978267Y-100440920D01*
X102932590Y-100422000D01*
X157296760Y-100422000D01*
X157021733Y-100535920D01*
X157021733Y-100535920D01*
G37*
X157021733Y-100535920D02*
X156535920Y-101021733D01*
X156273000Y-101656478D01*
X156273000Y-102343522D01*
X156535920Y-102978267D01*
X157021733Y-103464080D01*
X157656478Y-103727000D01*
X158343522Y-103727000D01*
X158978267Y-103464080D01*
X159464080Y-102978267D01*
X159578000Y-102703240D01*
X159578001Y-121463000D01*
X140709819Y-121463000D01*
X143787667Y-118385152D01*
X150516000Y-118385152D01*
X150516000Y-118952848D01*
X150733247Y-119477331D01*
X151134669Y-119878753D01*
X151659152Y-120096000D01*
X152226848Y-120096000D01*
X152751331Y-119878753D01*
X153152753Y-119477331D01*
X153370000Y-118952848D01*
X153370000Y-118385152D01*
X153152753Y-117860669D01*
X152751331Y-117459247D01*
X152226848Y-117242000D01*
X151659152Y-117242000D01*
X151134669Y-117459247D01*
X150733247Y-117860669D01*
X150516000Y-118385152D01*
X143787667Y-118385152D01*
X148585818Y-113587001D01*
X152684230Y-113587001D01*
X152667000Y-113628598D01*
X152667000Y-113997382D01*
X152717000Y-114118093D01*
X152717000Y-114323628D01*
X152717001Y-114323632D01*
X152717000Y-115512629D01*
X152699820Y-115599000D01*
X152717000Y-115685370D01*
X152717000Y-115685374D01*
X152767884Y-115941187D01*
X152961719Y-116231281D01*
X153034946Y-116280210D01*
X155728792Y-118974057D01*
X155777719Y-119047281D01*
X155850943Y-119096208D01*
X156067810Y-119241115D01*
X156067811Y-119241115D01*
X156067812Y-119241116D01*
X156270717Y-119281476D01*
X156270717Y-119290000D01*
X156319380Y-119534643D01*
X156457959Y-119742041D01*
X156665357Y-119880620D01*
X156910000Y-119929283D01*
X158660000Y-119929283D01*
X158904643Y-119880620D01*
X159112041Y-119742041D01*
X159250620Y-119534643D01*
X159299283Y-119290000D01*
X159299283Y-117540000D01*
X159250620Y-117295357D01*
X159112041Y-117087959D01*
X158904643Y-116949380D01*
X158846362Y-116937787D01*
X159058334Y-116725815D01*
X159287000Y-116173766D01*
X159287000Y-115576234D01*
X159058334Y-115024185D01*
X158639149Y-114605000D01*
X159058334Y-114185815D01*
X159287000Y-113633766D01*
X159287000Y-113036234D01*
X159058334Y-112484185D01*
X158635815Y-112061666D01*
X158604546Y-112048714D01*
X158667455Y-111857060D01*
X157785000Y-110974605D01*
X157770858Y-110988748D01*
X157591253Y-110809143D01*
X157605395Y-110795000D01*
X157964605Y-110795000D01*
X158847060Y-111677455D01*
X159100953Y-111594116D01*
X159306590Y-111029694D01*
X159280579Y-110429542D01*
X159100953Y-109995884D01*
X158847060Y-109912545D01*
X157964605Y-110795000D01*
X157605395Y-110795000D01*
X156722940Y-109912545D01*
X156469047Y-109995884D01*
X156263410Y-110560306D01*
X156289421Y-111160458D01*
X156360890Y-111333001D01*
X148229996Y-111333001D01*
X148118998Y-111310922D01*
X148008000Y-111333001D01*
X147679266Y-111398390D01*
X147679265Y-111398391D01*
X147679264Y-111398391D01*
X147559557Y-111478377D01*
X147306477Y-111647479D01*
X147243601Y-111741580D01*
X137522181Y-121463000D01*
X136195000Y-121463000D01*
X136146399Y-121472667D01*
X136105197Y-121500197D01*
X136077667Y-121541399D01*
X136068000Y-121590000D01*
X136068000Y-122917181D01*
X133099578Y-125885603D01*
X133149000Y-125766289D01*
X133149000Y-125213711D01*
X132937537Y-124703195D01*
X132546805Y-124312463D01*
X132036289Y-124101000D01*
X131483711Y-124101000D01*
X130973195Y-124312463D01*
X130582463Y-124703195D01*
X130490000Y-124926420D01*
X130397537Y-124703195D01*
X130006805Y-124312463D01*
X129496289Y-124101000D01*
X128943711Y-124101000D01*
X128433195Y-124312463D01*
X128042463Y-124703195D01*
X127831000Y-125213711D01*
X127831000Y-125766289D01*
X128042463Y-126276805D01*
X128433195Y-126667537D01*
X128943711Y-126879000D01*
X129496289Y-126879000D01*
X130006805Y-126667537D01*
X130397537Y-126276805D01*
X130490000Y-126053580D01*
X130582463Y-126276805D01*
X130973195Y-126667537D01*
X131483711Y-126879000D01*
X132036289Y-126879000D01*
X132155603Y-126829578D01*
X126457182Y-132528000D01*
X114018818Y-132528000D01*
X112960977Y-131470159D01*
X123529446Y-131470159D01*
X123615852Y-131726643D01*
X124189336Y-131936458D01*
X124799460Y-131910839D01*
X125244148Y-131726643D01*
X125330554Y-131470159D01*
X124430000Y-130569605D01*
X123529446Y-131470159D01*
X112960977Y-131470159D01*
X111640154Y-130149336D01*
X122883542Y-130149336D01*
X122909161Y-130759460D01*
X123093357Y-131204148D01*
X123349841Y-131290554D01*
X124250395Y-130390000D01*
X124609605Y-130390000D01*
X125510159Y-131290554D01*
X125766643Y-131204148D01*
X125976458Y-130630664D01*
X125950839Y-130020540D01*
X125766643Y-129575852D01*
X125510159Y-129489446D01*
X124609605Y-130390000D01*
X124250395Y-130390000D01*
X123349841Y-129489446D01*
X123093357Y-129575852D01*
X122883542Y-130149336D01*
X111640154Y-130149336D01*
X107617818Y-126127000D01*
X123000000Y-126127000D01*
X123048601Y-126117333D01*
X123089803Y-126089803D01*
X123096216Y-126080205D01*
X123135472Y-126174976D01*
X123540496Y-126580000D01*
X123135472Y-126985024D01*
X122903000Y-127546261D01*
X122903000Y-128153739D01*
X123135472Y-128714976D01*
X123565024Y-129144528D01*
X123582675Y-129151839D01*
X123529446Y-129309841D01*
X124430000Y-130210395D01*
X125330554Y-129309841D01*
X125277325Y-129151839D01*
X125294976Y-129144528D01*
X125724528Y-128714976D01*
X125957000Y-128153739D01*
X125957000Y-127546261D01*
X125724528Y-126985024D01*
X125319504Y-126580000D01*
X125462504Y-126437000D01*
X125633002Y-126437000D01*
X125744000Y-126459079D01*
X125854998Y-126437000D01*
X125854999Y-126437000D01*
X126183733Y-126371611D01*
X126556522Y-126122522D01*
X126619400Y-126028418D01*
X136816397Y-115831421D01*
X137002610Y-115552734D01*
X137090079Y-115113000D01*
X137002610Y-114673266D01*
X136753521Y-114300479D01*
X136380734Y-114051390D01*
X135941000Y-113963921D01*
X135501266Y-114051390D01*
X135222579Y-114237603D01*
X125369843Y-124090339D01*
X125319504Y-124040000D01*
X125724528Y-123634976D01*
X125957000Y-123073739D01*
X125957000Y-122466261D01*
X125724528Y-121905024D01*
X125319504Y-121500000D01*
X125724528Y-121094976D01*
X125957000Y-120533739D01*
X125957000Y-119926261D01*
X125724528Y-119365024D01*
X125319504Y-118960000D01*
X125724528Y-118554976D01*
X125957000Y-117993739D01*
X125957000Y-117386261D01*
X125724528Y-116825024D01*
X125319504Y-116420000D01*
X125724528Y-116014976D01*
X125957000Y-115453739D01*
X125957000Y-114846261D01*
X125724528Y-114285024D01*
X125319504Y-113880000D01*
X125724528Y-113474976D01*
X125957000Y-112913739D01*
X125957000Y-112306261D01*
X125724528Y-111745024D01*
X125486913Y-111507409D01*
X128222196Y-111507409D01*
X128338605Y-111789312D01*
X129000856Y-112040049D01*
X129708649Y-112018267D01*
X130261395Y-111789312D01*
X130377804Y-111507409D01*
X129300000Y-110429605D01*
X128222196Y-111507409D01*
X125486913Y-111507409D01*
X125294976Y-111315472D01*
X124733739Y-111083000D01*
X124126261Y-111083000D01*
X123565024Y-111315472D01*
X123557001Y-111323495D01*
X123557001Y-109950856D01*
X127509951Y-109950856D01*
X127531733Y-110658649D01*
X127760688Y-111211395D01*
X128042591Y-111327804D01*
X129120395Y-110250000D01*
X129479605Y-110250000D01*
X130557409Y-111327804D01*
X130839312Y-111211395D01*
X131090049Y-110549144D01*
X131068267Y-109841351D01*
X130839312Y-109288605D01*
X130557409Y-109172196D01*
X129479605Y-110250000D01*
X129120395Y-110250000D01*
X128042591Y-109172196D01*
X127760688Y-109288605D01*
X127509951Y-109950856D01*
X123557001Y-109950856D01*
X123557001Y-108992591D01*
X128222196Y-108992591D01*
X129300000Y-110070395D01*
X130377804Y-108992591D01*
X130261395Y-108710688D01*
X129728694Y-108509000D01*
X150488044Y-108509000D01*
X150598796Y-109065788D01*
X150914191Y-109537809D01*
X151386212Y-109853204D01*
X151802456Y-109936000D01*
X152083544Y-109936000D01*
X152499788Y-109853204D01*
X152679775Y-109732940D01*
X156902545Y-109732940D01*
X157785000Y-110615395D01*
X158667455Y-109732940D01*
X158584116Y-109479047D01*
X158019694Y-109273410D01*
X157419542Y-109299421D01*
X156985884Y-109479047D01*
X156902545Y-109732940D01*
X152679775Y-109732940D01*
X152971809Y-109537809D01*
X153073245Y-109386000D01*
X153590214Y-109386000D01*
X153676584Y-109403180D01*
X153762954Y-109386000D01*
X153762959Y-109386000D01*
X154018772Y-109335116D01*
X154308865Y-109141281D01*
X154357794Y-109068054D01*
X156469067Y-106956782D01*
X156542291Y-106907855D01*
X156637555Y-106765283D01*
X156736125Y-106617764D01*
X156736125Y-106617763D01*
X156736126Y-106617762D01*
X156787010Y-106361949D01*
X156787010Y-106361945D01*
X156804190Y-106275575D01*
X156787010Y-106189205D01*
X156787010Y-104262796D01*
X156804190Y-104176426D01*
X156787010Y-104090056D01*
X156787010Y-104090051D01*
X156736126Y-103834238D01*
X156670071Y-103735380D01*
X156591219Y-103617369D01*
X156591216Y-103617366D01*
X156542291Y-103544145D01*
X156469069Y-103495219D01*
X155970793Y-102996945D01*
X155921865Y-102923719D01*
X155631772Y-102729884D01*
X155375959Y-102679000D01*
X155375954Y-102679000D01*
X155289584Y-102661820D01*
X155203214Y-102679000D01*
X154529283Y-102679000D01*
X154529283Y-102531000D01*
X154459687Y-102181119D01*
X154261496Y-101884504D01*
X153964881Y-101686313D01*
X153615000Y-101616717D01*
X153065000Y-101616717D01*
X152715119Y-101686313D01*
X152418504Y-101884504D01*
X152220313Y-102181119D01*
X152150717Y-102531000D01*
X152150717Y-103686717D01*
X151520000Y-103686717D01*
X151275357Y-103735380D01*
X151067959Y-103873959D01*
X150929380Y-104081357D01*
X150880717Y-104326000D01*
X150880717Y-106126000D01*
X150929380Y-106370643D01*
X151067959Y-106578041D01*
X151275357Y-106716620D01*
X151520000Y-106765283D01*
X152620000Y-106765283D01*
X152864643Y-106716620D01*
X153072041Y-106578041D01*
X153210620Y-106370643D01*
X153259283Y-106126000D01*
X153259283Y-104695283D01*
X153420717Y-104695283D01*
X153420717Y-105851000D01*
X153490313Y-106200881D01*
X153688504Y-106497496D01*
X153985119Y-106695687D01*
X154205747Y-106739573D01*
X153313320Y-107632000D01*
X153073245Y-107632000D01*
X152971809Y-107480191D01*
X152499788Y-107164796D01*
X152083544Y-107082000D01*
X151802456Y-107082000D01*
X151386212Y-107164796D01*
X150914191Y-107480191D01*
X150598796Y-107952212D01*
X150488044Y-108509000D01*
X129728694Y-108509000D01*
X129599144Y-108459951D01*
X128891351Y-108481733D01*
X128338605Y-108710688D01*
X128222196Y-108992591D01*
X123557001Y-108992591D01*
X123557001Y-104817527D01*
X127528000Y-104817527D01*
X127528000Y-105522473D01*
X127797771Y-106173758D01*
X128296242Y-106672229D01*
X128947527Y-106942000D01*
X129652473Y-106942000D01*
X130303758Y-106672229D01*
X130802229Y-106173758D01*
X131072000Y-105522473D01*
X131072000Y-104817527D01*
X145228000Y-104817527D01*
X145228000Y-105522473D01*
X145497771Y-106173758D01*
X145996242Y-106672229D01*
X146647527Y-106942000D01*
X147352473Y-106942000D01*
X148003758Y-106672229D01*
X148502229Y-106173758D01*
X148772000Y-105522473D01*
X148772000Y-104817527D01*
X148502229Y-104166242D01*
X148003758Y-103667771D01*
X147352473Y-103398000D01*
X146647527Y-103398000D01*
X145996242Y-103667771D01*
X145497771Y-104166242D01*
X145228000Y-104817527D01*
X131072000Y-104817527D01*
X130802229Y-104166242D01*
X130303758Y-103667771D01*
X129652473Y-103398000D01*
X128947527Y-103398000D01*
X128296242Y-103667771D01*
X127797771Y-104166242D01*
X127528000Y-104817527D01*
X123557001Y-104817527D01*
X123557001Y-103450837D01*
X123856297Y-103391303D01*
X124344858Y-103064858D01*
X124671303Y-102576297D01*
X124785936Y-102000000D01*
X124671303Y-101423703D01*
X124344858Y-100935142D01*
X123856297Y-100608697D01*
X123425471Y-100523000D01*
X123134529Y-100523000D01*
X122703703Y-100608697D01*
X122215142Y-100935142D01*
X122010000Y-101242160D01*
X121804858Y-100935142D01*
X121316297Y-100608697D01*
X120885471Y-100523000D01*
X120594529Y-100523000D01*
X120163703Y-100608697D01*
X119675142Y-100935142D01*
X119470000Y-101242160D01*
X119264858Y-100935142D01*
X118776297Y-100608697D01*
X118345471Y-100523000D01*
X118054529Y-100523000D01*
X117623703Y-100608697D01*
X117135142Y-100935142D01*
X116930000Y-101242160D01*
X116724858Y-100935142D01*
X116236297Y-100608697D01*
X115805471Y-100523000D01*
X115514529Y-100523000D01*
X115083703Y-100608697D01*
X114595142Y-100935142D01*
X114390000Y-101242160D01*
X114184858Y-100935142D01*
X113696297Y-100608697D01*
X113265471Y-100523000D01*
X112974529Y-100523000D01*
X112543703Y-100608697D01*
X112055142Y-100935142D01*
X111850000Y-101242160D01*
X111644858Y-100935142D01*
X111156297Y-100608697D01*
X110725471Y-100523000D01*
X110434529Y-100523000D01*
X110003703Y-100608697D01*
X109515142Y-100935142D01*
X109300128Y-101256934D01*
X109235183Y-101118642D01*
X108806924Y-100728355D01*
X108396890Y-100558524D01*
X108167000Y-100679845D01*
X108167000Y-101873000D01*
X108187000Y-101873000D01*
X108187000Y-102127000D01*
X108167000Y-102127000D01*
X108167000Y-102147000D01*
X107913000Y-102147000D01*
X107913000Y-102127000D01*
X107893000Y-102127000D01*
X107893000Y-101873000D01*
X107913000Y-101873000D01*
X107913000Y-100679845D01*
X107683110Y-100558524D01*
X107273076Y-100728355D01*
X106961833Y-101012001D01*
X106940620Y-100905357D01*
X106802041Y-100697959D01*
X106594643Y-100559380D01*
X106350000Y-100510717D01*
X104650000Y-100510717D01*
X104405357Y-100559380D01*
X104197959Y-100697959D01*
X104059380Y-100905357D01*
X104010717Y-101150000D01*
X104010717Y-102373000D01*
X103675440Y-102373000D01*
X103727000Y-102248522D01*
X103727000Y-101561478D01*
X103464080Y-100926733D01*
X102978267Y-100440920D01*
X102932590Y-100422000D01*
X157296760Y-100422000D01*
X157021733Y-100535920D01*
G04 #@! TO.N,/AC_L*
G36*
X145742589Y-134572197D02*
X145460688Y-134688605D01*
X145209951Y-135350856D01*
X145231733Y-136058649D01*
X145460688Y-136611395D01*
X145742591Y-136727804D01*
X146820395Y-135650000D01*
X146806253Y-135635858D01*
X146985858Y-135456253D01*
X147000000Y-135470395D01*
X147014143Y-135456253D01*
X147193748Y-135635858D01*
X147179605Y-135650000D01*
X148257409Y-136727804D01*
X148539312Y-136611395D01*
X148790049Y-135949144D01*
X148789637Y-135935750D01*
X153365000Y-135935750D01*
X153365000Y-137276309D01*
X153461673Y-137509698D01*
X153640301Y-137688327D01*
X153873690Y-137785000D01*
X155214250Y-137785000D01*
X155373000Y-137626250D01*
X155373000Y-135777000D01*
X155627000Y-135777000D01*
X155627000Y-137626250D01*
X155785750Y-137785000D01*
X157126310Y-137785000D01*
X157359699Y-137688327D01*
X157538327Y-137509698D01*
X157635000Y-137276309D01*
X157635000Y-135935750D01*
X157476250Y-135777000D01*
X155627000Y-135777000D01*
X155373000Y-135777000D01*
X153523750Y-135777000D01*
X153365000Y-135935750D01*
X148789637Y-135935750D01*
X148768267Y-135241351D01*
X148539312Y-134688605D01*
X148257411Y-134572197D01*
X148307608Y-134522000D01*
X153365000Y-134522000D01*
X153365000Y-135364250D01*
X153523750Y-135523000D01*
X155373000Y-135523000D01*
X155373000Y-135503000D01*
X155627000Y-135503000D01*
X155627000Y-135523000D01*
X157476250Y-135523000D01*
X157635000Y-135364250D01*
X157635000Y-134522000D01*
X159578000Y-134522000D01*
X159578001Y-138958434D01*
X159526365Y-139218027D01*
X159402863Y-139402861D01*
X159218027Y-139526365D01*
X158958439Y-139578000D01*
X143307000Y-139578000D01*
X143307000Y-136907409D01*
X145922196Y-136907409D01*
X146038605Y-137189312D01*
X146700856Y-137440049D01*
X147408649Y-137418267D01*
X147961395Y-137189312D01*
X148077804Y-136907409D01*
X147000000Y-135829605D01*
X145922196Y-136907409D01*
X143307000Y-136907409D01*
X143307000Y-134522000D01*
X145692392Y-134522000D01*
X145742589Y-134572197D01*
X145742589Y-134572197D01*
G37*
X145742589Y-134572197D02*
X145460688Y-134688605D01*
X145209951Y-135350856D01*
X145231733Y-136058649D01*
X145460688Y-136611395D01*
X145742591Y-136727804D01*
X146820395Y-135650000D01*
X146806253Y-135635858D01*
X146985858Y-135456253D01*
X147000000Y-135470395D01*
X147014143Y-135456253D01*
X147193748Y-135635858D01*
X147179605Y-135650000D01*
X148257409Y-136727804D01*
X148539312Y-136611395D01*
X148790049Y-135949144D01*
X148789637Y-135935750D01*
X153365000Y-135935750D01*
X153365000Y-137276309D01*
X153461673Y-137509698D01*
X153640301Y-137688327D01*
X153873690Y-137785000D01*
X155214250Y-137785000D01*
X155373000Y-137626250D01*
X155373000Y-135777000D01*
X155627000Y-135777000D01*
X155627000Y-137626250D01*
X155785750Y-137785000D01*
X157126310Y-137785000D01*
X157359699Y-137688327D01*
X157538327Y-137509698D01*
X157635000Y-137276309D01*
X157635000Y-135935750D01*
X157476250Y-135777000D01*
X155627000Y-135777000D01*
X155373000Y-135777000D01*
X153523750Y-135777000D01*
X153365000Y-135935750D01*
X148789637Y-135935750D01*
X148768267Y-135241351D01*
X148539312Y-134688605D01*
X148257411Y-134572197D01*
X148307608Y-134522000D01*
X153365000Y-134522000D01*
X153365000Y-135364250D01*
X153523750Y-135523000D01*
X155373000Y-135523000D01*
X155373000Y-135503000D01*
X155627000Y-135503000D01*
X155627000Y-135523000D01*
X157476250Y-135523000D01*
X157635000Y-135364250D01*
X157635000Y-134522000D01*
X159578000Y-134522000D01*
X159578001Y-138958434D01*
X159526365Y-139218027D01*
X159402863Y-139402861D01*
X159218027Y-139526365D01*
X158958439Y-139578000D01*
X143307000Y-139578000D01*
X143307000Y-136907409D01*
X145922196Y-136907409D01*
X146038605Y-137189312D01*
X146700856Y-137440049D01*
X147408649Y-137418267D01*
X147961395Y-137189312D01*
X148077804Y-136907409D01*
X147000000Y-135829605D01*
X145922196Y-136907409D01*
X143307000Y-136907409D01*
X143307000Y-134522000D01*
X145692392Y-134522000D01*
X145742589Y-134572197D01*
G04 #@! TO.N,/AC_N*
G36*
X146199392Y-124509787D02*
X147000000Y-125310395D01*
X147800608Y-124509787D01*
X147775428Y-124422000D01*
X159578001Y-124422000D01*
X159578000Y-131678000D01*
X157358839Y-131678000D01*
X157642723Y-130953813D01*
X157626497Y-130104613D01*
X157332739Y-129395418D01*
X157013970Y-129235635D01*
X155679605Y-130570000D01*
X155693748Y-130584143D01*
X155514143Y-130763748D01*
X155500000Y-130749605D01*
X155485858Y-130763748D01*
X155306253Y-130584143D01*
X155320395Y-130570000D01*
X153986030Y-129235635D01*
X153667261Y-129395418D01*
X153357277Y-130186187D01*
X153373503Y-131035387D01*
X153639682Y-131678000D01*
X148287608Y-131678000D01*
X148257411Y-131647803D01*
X148539312Y-131531395D01*
X148790049Y-130869144D01*
X148768267Y-130161351D01*
X148539312Y-129608605D01*
X148257409Y-129492196D01*
X147179605Y-130570000D01*
X147193748Y-130584143D01*
X147014143Y-130763748D01*
X147000000Y-130749605D01*
X146985858Y-130763748D01*
X146806253Y-130584143D01*
X146820395Y-130570000D01*
X145742591Y-129492196D01*
X145460688Y-129608605D01*
X145209951Y-130270856D01*
X145231733Y-130978649D01*
X145460688Y-131531395D01*
X145742589Y-131647803D01*
X145712392Y-131678000D01*
X143307000Y-131678000D01*
X143307000Y-129312591D01*
X145922196Y-129312591D01*
X147000000Y-130390395D01*
X148077804Y-129312591D01*
X147971860Y-129056030D01*
X154165635Y-129056030D01*
X155500000Y-130390395D01*
X156834365Y-129056030D01*
X156674582Y-128737261D01*
X155883813Y-128427277D01*
X155034613Y-128443503D01*
X154325418Y-128737261D01*
X154165635Y-129056030D01*
X147971860Y-129056030D01*
X147961395Y-129030688D01*
X147299144Y-128779951D01*
X146591351Y-128801733D01*
X146038605Y-129030688D01*
X145922196Y-129312591D01*
X143307000Y-129312591D01*
X143307000Y-126470213D01*
X146199392Y-126470213D01*
X146268857Y-126712397D01*
X146792302Y-126899144D01*
X147347368Y-126871362D01*
X147731143Y-126712397D01*
X147800608Y-126470213D01*
X147000000Y-125669605D01*
X146199392Y-126470213D01*
X143307000Y-126470213D01*
X143307000Y-125282302D01*
X145590856Y-125282302D01*
X145618638Y-125837368D01*
X145777603Y-126221143D01*
X146019787Y-126290608D01*
X146820395Y-125490000D01*
X147179605Y-125490000D01*
X147980213Y-126290608D01*
X148222397Y-126221143D01*
X148409144Y-125697698D01*
X148381362Y-125142632D01*
X148222397Y-124758857D01*
X147980213Y-124689392D01*
X147179605Y-125490000D01*
X146820395Y-125490000D01*
X146019787Y-124689392D01*
X145777603Y-124758857D01*
X145590856Y-125282302D01*
X143307000Y-125282302D01*
X143307000Y-124422000D01*
X146224572Y-124422000D01*
X146199392Y-124509787D01*
X146199392Y-124509787D01*
G37*
X146199392Y-124509787D02*
X147000000Y-125310395D01*
X147800608Y-124509787D01*
X147775428Y-124422000D01*
X159578001Y-124422000D01*
X159578000Y-131678000D01*
X157358839Y-131678000D01*
X157642723Y-130953813D01*
X157626497Y-130104613D01*
X157332739Y-129395418D01*
X157013970Y-129235635D01*
X155679605Y-130570000D01*
X155693748Y-130584143D01*
X155514143Y-130763748D01*
X155500000Y-130749605D01*
X155485858Y-130763748D01*
X155306253Y-130584143D01*
X155320395Y-130570000D01*
X153986030Y-129235635D01*
X153667261Y-129395418D01*
X153357277Y-130186187D01*
X153373503Y-131035387D01*
X153639682Y-131678000D01*
X148287608Y-131678000D01*
X148257411Y-131647803D01*
X148539312Y-131531395D01*
X148790049Y-130869144D01*
X148768267Y-130161351D01*
X148539312Y-129608605D01*
X148257409Y-129492196D01*
X147179605Y-130570000D01*
X147193748Y-130584143D01*
X147014143Y-130763748D01*
X147000000Y-130749605D01*
X146985858Y-130763748D01*
X146806253Y-130584143D01*
X146820395Y-130570000D01*
X145742591Y-129492196D01*
X145460688Y-129608605D01*
X145209951Y-130270856D01*
X145231733Y-130978649D01*
X145460688Y-131531395D01*
X145742589Y-131647803D01*
X145712392Y-131678000D01*
X143307000Y-131678000D01*
X143307000Y-129312591D01*
X145922196Y-129312591D01*
X147000000Y-130390395D01*
X148077804Y-129312591D01*
X147971860Y-129056030D01*
X154165635Y-129056030D01*
X155500000Y-130390395D01*
X156834365Y-129056030D01*
X156674582Y-128737261D01*
X155883813Y-128427277D01*
X155034613Y-128443503D01*
X154325418Y-128737261D01*
X154165635Y-129056030D01*
X147971860Y-129056030D01*
X147961395Y-129030688D01*
X147299144Y-128779951D01*
X146591351Y-128801733D01*
X146038605Y-129030688D01*
X145922196Y-129312591D01*
X143307000Y-129312591D01*
X143307000Y-126470213D01*
X146199392Y-126470213D01*
X146268857Y-126712397D01*
X146792302Y-126899144D01*
X147347368Y-126871362D01*
X147731143Y-126712397D01*
X147800608Y-126470213D01*
X147000000Y-125669605D01*
X146199392Y-126470213D01*
X143307000Y-126470213D01*
X143307000Y-125282302D01*
X145590856Y-125282302D01*
X145618638Y-125837368D01*
X145777603Y-126221143D01*
X146019787Y-126290608D01*
X146820395Y-125490000D01*
X147179605Y-125490000D01*
X147980213Y-126290608D01*
X148222397Y-126221143D01*
X148409144Y-125697698D01*
X148381362Y-125142632D01*
X148222397Y-124758857D01*
X147980213Y-124689392D01*
X147179605Y-125490000D01*
X146820395Y-125490000D01*
X146019787Y-124689392D01*
X145777603Y-124758857D01*
X145590856Y-125282302D01*
X143307000Y-125282302D01*
X143307000Y-124422000D01*
X146224572Y-124422000D01*
X146199392Y-124509787D01*
G04 #@! TD*
M02*
