G04 #@! TF.GenerationSoftware,KiCad,Pcbnew,(5.0.2)-1*
G04 #@! TF.CreationDate,2019-02-07T08:47:28-05:00*
G04 #@! TF.ProjectId,HASwitchPlate,48415377-6974-4636-9850-6c6174652e6b,rev?*
G04 #@! TF.SameCoordinates,Original*
G04 #@! TF.FileFunction,Soldermask,Top*
G04 #@! TF.FilePolarity,Negative*
%FSLAX46Y46*%
G04 Gerber Fmt 4.6, Leading zero omitted, Abs format (unit mm)*
G04 Created by KiCad (PCBNEW (5.0.2)-1) date 2/7/2019 8:47:28 AM*
%MOMM*%
%LPD*%
G01*
G04 APERTURE LIST*
%ADD10C,0.150000*%
%ADD11C,0.100000*%
G04 APERTURE END LIST*
D10*
X160000000Y-101000000D02*
X160000000Y-122000000D01*
X160000000Y-132100000D02*
X160000000Y-124000000D01*
X141500000Y-123000000D02*
G75*
G03X142500000Y-124000000I1000000J0D01*
G01*
X142500000Y-122000000D02*
G75*
G03X141500000Y-123000000I0J-1000000D01*
G01*
X142500000Y-122000000D02*
X160000000Y-122000000D01*
X142500000Y-124000000D02*
X160000000Y-124000000D01*
X118500000Y-140000000D02*
X159000000Y-140000000D01*
X101000000Y-140000000D02*
X106000000Y-140000000D01*
X108000000Y-138000000D02*
X116500000Y-138000000D01*
X117500000Y-139000000D02*
G75*
G03X118500000Y-140000000I1000000J0D01*
G01*
X117500000Y-139000000D02*
G75*
G03X116500000Y-138000000I-1000000J0D01*
G01*
X107998255Y-138000002D02*
G75*
G03X107000000Y-139000000I1745J-999998D01*
G01*
X106000000Y-140000000D02*
G75*
G03X107000000Y-139000000I0J1000000D01*
G01*
X101000000Y-100000000D02*
G75*
G03X100000000Y-101000000I0J-1000000D01*
G01*
X100000000Y-139000000D02*
G75*
G03X101000000Y-140000000I1000000J0D01*
G01*
X159000000Y-140000000D02*
G75*
G03X160000000Y-139000000I0J1000000D01*
G01*
X160000000Y-101000000D02*
G75*
G03X159000000Y-100000000I-1000000J0D01*
G01*
X141500000Y-133100000D02*
G75*
G03X142500000Y-134100000I1000000J0D01*
G01*
X142500000Y-132100000D02*
G75*
G03X141500000Y-133100000I0J-1000000D01*
G01*
X160000000Y-134100000D02*
X160000000Y-139000000D01*
X142500000Y-134100000D02*
X160000000Y-134100000D01*
X142500000Y-132100000D02*
X160000000Y-132100000D01*
X101000000Y-100000000D02*
X159000000Y-100000000D01*
X100000000Y-101000000D02*
X100000000Y-139000000D01*
D11*
G36*
X102379196Y-136749958D02*
X102615780Y-136847954D01*
X102828705Y-136990226D01*
X103009774Y-137171295D01*
X103152046Y-137384220D01*
X103250042Y-137620804D01*
X103300000Y-137871960D01*
X103300000Y-138128040D01*
X103250042Y-138379196D01*
X103152046Y-138615780D01*
X103009774Y-138828705D01*
X102828705Y-139009774D01*
X102615780Y-139152046D01*
X102379196Y-139250042D01*
X102128040Y-139300000D01*
X101871960Y-139300000D01*
X101620804Y-139250042D01*
X101384220Y-139152046D01*
X101171295Y-139009774D01*
X100990226Y-138828705D01*
X100847954Y-138615780D01*
X100749958Y-138379196D01*
X100700000Y-138128040D01*
X100700000Y-137871960D01*
X100749958Y-137620804D01*
X100847954Y-137384220D01*
X100990226Y-137171295D01*
X101171295Y-136990226D01*
X101384220Y-136847954D01*
X101620804Y-136749958D01*
X101871960Y-136700000D01*
X102128040Y-136700000D01*
X102379196Y-136749958D01*
X102379196Y-136749958D01*
G37*
G36*
X157200000Y-137350000D02*
X153800000Y-137350000D01*
X153800000Y-133950000D01*
X157200000Y-133950000D01*
X157200000Y-137350000D01*
X157200000Y-137350000D01*
G37*
G36*
X147197434Y-134317922D02*
X147392322Y-134356687D01*
X147637096Y-134458076D01*
X147637097Y-134458077D01*
X147857391Y-134605272D01*
X148044728Y-134792609D01*
X148044730Y-134792612D01*
X148191924Y-135012904D01*
X148293313Y-135257678D01*
X148345000Y-135517529D01*
X148345000Y-135782471D01*
X148293313Y-136042322D01*
X148191924Y-136287096D01*
X148191923Y-136287097D01*
X148044728Y-136507391D01*
X147857391Y-136694728D01*
X147857388Y-136694730D01*
X147637096Y-136841924D01*
X147392322Y-136943313D01*
X147197434Y-136982078D01*
X147132472Y-136995000D01*
X146867528Y-136995000D01*
X146802566Y-136982078D01*
X146607678Y-136943313D01*
X146362904Y-136841924D01*
X146142612Y-136694730D01*
X146142609Y-136694728D01*
X145955272Y-136507391D01*
X145808077Y-136287097D01*
X145808076Y-136287096D01*
X145706687Y-136042322D01*
X145655000Y-135782471D01*
X145655000Y-135517529D01*
X145706687Y-135257678D01*
X145808076Y-135012904D01*
X145955270Y-134792612D01*
X145955272Y-134792609D01*
X146142609Y-134605272D01*
X146362903Y-134458077D01*
X146362904Y-134458076D01*
X146607678Y-134356687D01*
X146802566Y-134317922D01*
X146867528Y-134305000D01*
X147132472Y-134305000D01*
X147197434Y-134317922D01*
X147197434Y-134317922D01*
G37*
G36*
X132040603Y-134724968D02*
X132040606Y-134724969D01*
X132040605Y-134724969D01*
X132215678Y-134797486D01*
X132215679Y-134797487D01*
X132373241Y-134902767D01*
X132507233Y-135036759D01*
X132507234Y-135036761D01*
X132612514Y-135194322D01*
X132638758Y-135257681D01*
X132685032Y-135369397D01*
X132722000Y-135555250D01*
X132722000Y-135744750D01*
X132685032Y-135930603D01*
X132685031Y-135930605D01*
X132612514Y-136105678D01*
X132612513Y-136105679D01*
X132507233Y-136263241D01*
X132373241Y-136397233D01*
X132293923Y-136450232D01*
X132215678Y-136502514D01*
X132080266Y-136558603D01*
X132040603Y-136575032D01*
X131854750Y-136612000D01*
X131665250Y-136612000D01*
X131479397Y-136575032D01*
X131439734Y-136558603D01*
X131304322Y-136502514D01*
X131226077Y-136450232D01*
X131146759Y-136397233D01*
X131012767Y-136263241D01*
X130907487Y-136105679D01*
X130907486Y-136105678D01*
X130834969Y-135930605D01*
X130834968Y-135930603D01*
X130798000Y-135744750D01*
X130798000Y-135555250D01*
X130834968Y-135369397D01*
X130881242Y-135257681D01*
X130907486Y-135194322D01*
X131012766Y-135036761D01*
X131012767Y-135036759D01*
X131146759Y-134902767D01*
X131304321Y-134797487D01*
X131304322Y-134797486D01*
X131479395Y-134724969D01*
X131479394Y-134724969D01*
X131479397Y-134724968D01*
X131665250Y-134688000D01*
X131854750Y-134688000D01*
X132040603Y-134724968D01*
X132040603Y-134724968D01*
G37*
G36*
X129500603Y-134724968D02*
X129500606Y-134724969D01*
X129500605Y-134724969D01*
X129675678Y-134797486D01*
X129675679Y-134797487D01*
X129833241Y-134902767D01*
X129967233Y-135036759D01*
X129967234Y-135036761D01*
X130072514Y-135194322D01*
X130098758Y-135257681D01*
X130145032Y-135369397D01*
X130182000Y-135555250D01*
X130182000Y-135744750D01*
X130145032Y-135930603D01*
X130145031Y-135930605D01*
X130072514Y-136105678D01*
X130072513Y-136105679D01*
X129967233Y-136263241D01*
X129833241Y-136397233D01*
X129753923Y-136450232D01*
X129675678Y-136502514D01*
X129540266Y-136558603D01*
X129500603Y-136575032D01*
X129314750Y-136612000D01*
X129125250Y-136612000D01*
X128939397Y-136575032D01*
X128899734Y-136558603D01*
X128764322Y-136502514D01*
X128686077Y-136450232D01*
X128606759Y-136397233D01*
X128472767Y-136263241D01*
X128367487Y-136105679D01*
X128367486Y-136105678D01*
X128294969Y-135930605D01*
X128294968Y-135930603D01*
X128258000Y-135744750D01*
X128258000Y-135555250D01*
X128294968Y-135369397D01*
X128341242Y-135257681D01*
X128367486Y-135194322D01*
X128472766Y-135036761D01*
X128472767Y-135036759D01*
X128606759Y-134902767D01*
X128764321Y-134797487D01*
X128764322Y-134797486D01*
X128939395Y-134724969D01*
X128939394Y-134724969D01*
X128939397Y-134724968D01*
X129125250Y-134688000D01*
X129314750Y-134688000D01*
X129500603Y-134724968D01*
X129500603Y-134724968D01*
G37*
G36*
X155857102Y-128907727D02*
X155995872Y-128935330D01*
X156305252Y-129063479D01*
X156583687Y-129249523D01*
X156820477Y-129486313D01*
X157006521Y-129764748D01*
X157132605Y-130069143D01*
X157134670Y-130074129D01*
X157175951Y-130281659D01*
X157200000Y-130402565D01*
X157200000Y-130737435D01*
X157134670Y-131065872D01*
X157006521Y-131375252D01*
X156820477Y-131653687D01*
X156583687Y-131890477D01*
X156305252Y-132076521D01*
X155995872Y-132204670D01*
X155886393Y-132226447D01*
X155667437Y-132270000D01*
X155332563Y-132270000D01*
X155113607Y-132226447D01*
X155004128Y-132204670D01*
X154694748Y-132076521D01*
X154416313Y-131890477D01*
X154179523Y-131653687D01*
X153993479Y-131375252D01*
X153865330Y-131065872D01*
X153800000Y-130737435D01*
X153800000Y-130402565D01*
X153824050Y-130281659D01*
X153865330Y-130074129D01*
X153867395Y-130069143D01*
X153993479Y-129764748D01*
X154179523Y-129486313D01*
X154416313Y-129249523D01*
X154694748Y-129063479D01*
X155004128Y-128935330D01*
X155142898Y-128907727D01*
X155332563Y-128870000D01*
X155667437Y-128870000D01*
X155857102Y-128907727D01*
X155857102Y-128907727D01*
G37*
G36*
X147197434Y-129237922D02*
X147392322Y-129276687D01*
X147637096Y-129378076D01*
X147854424Y-129523289D01*
X147857391Y-129525272D01*
X148044728Y-129712609D01*
X148044730Y-129712612D01*
X148191924Y-129932904D01*
X148293313Y-130177678D01*
X148345000Y-130437529D01*
X148345000Y-130702471D01*
X148293313Y-130962322D01*
X148191924Y-131207096D01*
X148086545Y-131364807D01*
X148044728Y-131427391D01*
X147857391Y-131614728D01*
X147857388Y-131614730D01*
X147637096Y-131761924D01*
X147392322Y-131863313D01*
X147197434Y-131902078D01*
X147132472Y-131915000D01*
X146867528Y-131915000D01*
X146802566Y-131902078D01*
X146607678Y-131863313D01*
X146362904Y-131761924D01*
X146142612Y-131614730D01*
X146142609Y-131614728D01*
X145955272Y-131427391D01*
X145913455Y-131364807D01*
X145808076Y-131207096D01*
X145706687Y-130962322D01*
X145655000Y-130702471D01*
X145655000Y-130437529D01*
X145706687Y-130177678D01*
X145808076Y-129932904D01*
X145955270Y-129712612D01*
X145955272Y-129712609D01*
X146142609Y-129525272D01*
X146145576Y-129523289D01*
X146362904Y-129378076D01*
X146607678Y-129276687D01*
X146802566Y-129237922D01*
X146867528Y-129225000D01*
X147132472Y-129225000D01*
X147197434Y-129237922D01*
X147197434Y-129237922D01*
G37*
G36*
X124750857Y-129332272D02*
X124951042Y-129415191D01*
X124951045Y-129415193D01*
X125115790Y-129525272D01*
X125131213Y-129535578D01*
X125284422Y-129688787D01*
X125284424Y-129688790D01*
X125284425Y-129688791D01*
X125335178Y-129764748D01*
X125404809Y-129868958D01*
X125487728Y-130069143D01*
X125530000Y-130281658D01*
X125530000Y-130498342D01*
X125487728Y-130710857D01*
X125404809Y-130911042D01*
X125404807Y-130911045D01*
X125301355Y-131065872D01*
X125284422Y-131091213D01*
X125131213Y-131244422D01*
X124951042Y-131364809D01*
X124750857Y-131447728D01*
X124538342Y-131490000D01*
X124321658Y-131490000D01*
X124109143Y-131447728D01*
X123908958Y-131364809D01*
X123728787Y-131244422D01*
X123575578Y-131091213D01*
X123558646Y-131065872D01*
X123455193Y-130911045D01*
X123455191Y-130911042D01*
X123372272Y-130710857D01*
X123330000Y-130498342D01*
X123330000Y-130281658D01*
X123372272Y-130069143D01*
X123455191Y-129868958D01*
X123524822Y-129764748D01*
X123575575Y-129688791D01*
X123575576Y-129688790D01*
X123575578Y-129688787D01*
X123728787Y-129535578D01*
X123744211Y-129525272D01*
X123908955Y-129415193D01*
X123908958Y-129415191D01*
X124109143Y-129332272D01*
X124321658Y-129290000D01*
X124538342Y-129290000D01*
X124750857Y-129332272D01*
X124750857Y-129332272D01*
G37*
G36*
X101890857Y-129332272D02*
X102091042Y-129415191D01*
X102091045Y-129415193D01*
X102255790Y-129525272D01*
X102271213Y-129535578D01*
X102424422Y-129688787D01*
X102424424Y-129688790D01*
X102424425Y-129688791D01*
X102475178Y-129764748D01*
X102544809Y-129868958D01*
X102627728Y-130069143D01*
X102670000Y-130281658D01*
X102670000Y-130498342D01*
X102627728Y-130710857D01*
X102544809Y-130911042D01*
X102544807Y-130911045D01*
X102441355Y-131065872D01*
X102424422Y-131091213D01*
X102271213Y-131244422D01*
X102091042Y-131364809D01*
X101890857Y-131447728D01*
X101678342Y-131490000D01*
X101461658Y-131490000D01*
X101249143Y-131447728D01*
X101048958Y-131364809D01*
X100868787Y-131244422D01*
X100715578Y-131091213D01*
X100698646Y-131065872D01*
X100595193Y-130911045D01*
X100595191Y-130911042D01*
X100512272Y-130710857D01*
X100470000Y-130498342D01*
X100470000Y-130281658D01*
X100512272Y-130069143D01*
X100595191Y-129868958D01*
X100664822Y-129764748D01*
X100715575Y-129688791D01*
X100715576Y-129688790D01*
X100715578Y-129688787D01*
X100868787Y-129535578D01*
X100884211Y-129525272D01*
X101048955Y-129415193D01*
X101048958Y-129415191D01*
X101249143Y-129332272D01*
X101461658Y-129290000D01*
X101678342Y-129290000D01*
X101890857Y-129332272D01*
X101890857Y-129332272D01*
G37*
G36*
X101890857Y-126792272D02*
X102091042Y-126875191D01*
X102271213Y-126995578D01*
X102424422Y-127148787D01*
X102544809Y-127328958D01*
X102627728Y-127529143D01*
X102670000Y-127741658D01*
X102670000Y-127958342D01*
X102627728Y-128170857D01*
X102544809Y-128371042D01*
X102424422Y-128551213D01*
X102271213Y-128704422D01*
X102091042Y-128824809D01*
X101890857Y-128907728D01*
X101678342Y-128950000D01*
X101461658Y-128950000D01*
X101249143Y-128907728D01*
X101048958Y-128824809D01*
X100868787Y-128704422D01*
X100715578Y-128551213D01*
X100595191Y-128371042D01*
X100512272Y-128170857D01*
X100470000Y-127958342D01*
X100470000Y-127741658D01*
X100512272Y-127529143D01*
X100595191Y-127328958D01*
X100715578Y-127148787D01*
X100868787Y-126995578D01*
X101048958Y-126875191D01*
X101249143Y-126792272D01*
X101461658Y-126750000D01*
X101678342Y-126750000D01*
X101890857Y-126792272D01*
X101890857Y-126792272D01*
G37*
G36*
X124750857Y-126792272D02*
X124951042Y-126875191D01*
X125131213Y-126995578D01*
X125284422Y-127148787D01*
X125404809Y-127328958D01*
X125487728Y-127529143D01*
X125530000Y-127741658D01*
X125530000Y-127958342D01*
X125487728Y-128170857D01*
X125404809Y-128371042D01*
X125284422Y-128551213D01*
X125131213Y-128704422D01*
X124951042Y-128824809D01*
X124750857Y-128907728D01*
X124538342Y-128950000D01*
X124321658Y-128950000D01*
X124109143Y-128907728D01*
X123908958Y-128824809D01*
X123728787Y-128704422D01*
X123575578Y-128551213D01*
X123455191Y-128371042D01*
X123372272Y-128170857D01*
X123330000Y-127958342D01*
X123330000Y-127741658D01*
X123372272Y-127529143D01*
X123455191Y-127328958D01*
X123575578Y-127148787D01*
X123728787Y-126995578D01*
X123908958Y-126875191D01*
X124109143Y-126792272D01*
X124321658Y-126750000D01*
X124538342Y-126750000D01*
X124750857Y-126792272D01*
X124750857Y-126792272D01*
G37*
G36*
X129500603Y-124564968D02*
X129500606Y-124564969D01*
X129500605Y-124564969D01*
X129675678Y-124637486D01*
X129675679Y-124637487D01*
X129833241Y-124742767D01*
X129967233Y-124876759D01*
X129967234Y-124876761D01*
X130072514Y-125034322D01*
X130128603Y-125169734D01*
X130145032Y-125209397D01*
X130182000Y-125395250D01*
X130182000Y-125584750D01*
X130145032Y-125770603D01*
X130145031Y-125770605D01*
X130072514Y-125945678D01*
X130072513Y-125945679D01*
X129967233Y-126103241D01*
X129833241Y-126237233D01*
X129762042Y-126284807D01*
X129675678Y-126342514D01*
X129540266Y-126398603D01*
X129500603Y-126415032D01*
X129314750Y-126452000D01*
X129125250Y-126452000D01*
X128939397Y-126415032D01*
X128899734Y-126398603D01*
X128764322Y-126342514D01*
X128677958Y-126284807D01*
X128606759Y-126237233D01*
X128472767Y-126103241D01*
X128367487Y-125945679D01*
X128367486Y-125945678D01*
X128294969Y-125770605D01*
X128294968Y-125770603D01*
X128258000Y-125584750D01*
X128258000Y-125395250D01*
X128294968Y-125209397D01*
X128311397Y-125169734D01*
X128367486Y-125034322D01*
X128472766Y-124876761D01*
X128472767Y-124876759D01*
X128606759Y-124742767D01*
X128764321Y-124637487D01*
X128764322Y-124637486D01*
X128939395Y-124564969D01*
X128939394Y-124564969D01*
X128939397Y-124564968D01*
X129125250Y-124528000D01*
X129314750Y-124528000D01*
X129500603Y-124564968D01*
X129500603Y-124564968D01*
G37*
G36*
X132040603Y-124564968D02*
X132040606Y-124564969D01*
X132040605Y-124564969D01*
X132215678Y-124637486D01*
X132215679Y-124637487D01*
X132373241Y-124742767D01*
X132507233Y-124876759D01*
X132507234Y-124876761D01*
X132612514Y-125034322D01*
X132668603Y-125169734D01*
X132685032Y-125209397D01*
X132722000Y-125395250D01*
X132722000Y-125584750D01*
X132685032Y-125770603D01*
X132685031Y-125770605D01*
X132612514Y-125945678D01*
X132612513Y-125945679D01*
X132507233Y-126103241D01*
X132373241Y-126237233D01*
X132302042Y-126284807D01*
X132215678Y-126342514D01*
X132080266Y-126398603D01*
X132040603Y-126415032D01*
X131854750Y-126452000D01*
X131665250Y-126452000D01*
X131479397Y-126415032D01*
X131439734Y-126398603D01*
X131304322Y-126342514D01*
X131217958Y-126284807D01*
X131146759Y-126237233D01*
X131012767Y-126103241D01*
X130907487Y-125945679D01*
X130907486Y-125945678D01*
X130834969Y-125770605D01*
X130834968Y-125770603D01*
X130798000Y-125584750D01*
X130798000Y-125395250D01*
X130834968Y-125209397D01*
X130851397Y-125169734D01*
X130907486Y-125034322D01*
X131012766Y-124876761D01*
X131012767Y-124876759D01*
X131146759Y-124742767D01*
X131304321Y-124637487D01*
X131304322Y-124637486D01*
X131479395Y-124564969D01*
X131479394Y-124564969D01*
X131479397Y-124564968D01*
X131665250Y-124528000D01*
X131854750Y-124528000D01*
X132040603Y-124564968D01*
X132040603Y-124564968D01*
G37*
G36*
X147280603Y-124564968D02*
X147280606Y-124564969D01*
X147280605Y-124564969D01*
X147455678Y-124637486D01*
X147455679Y-124637487D01*
X147613241Y-124742767D01*
X147747233Y-124876759D01*
X147747234Y-124876761D01*
X147852514Y-125034322D01*
X147908603Y-125169734D01*
X147925032Y-125209397D01*
X147962000Y-125395250D01*
X147962000Y-125584750D01*
X147925032Y-125770603D01*
X147925031Y-125770605D01*
X147852514Y-125945678D01*
X147852513Y-125945679D01*
X147747233Y-126103241D01*
X147613241Y-126237233D01*
X147542042Y-126284807D01*
X147455678Y-126342514D01*
X147320266Y-126398603D01*
X147280603Y-126415032D01*
X147094750Y-126452000D01*
X146905250Y-126452000D01*
X146719397Y-126415032D01*
X146679734Y-126398603D01*
X146544322Y-126342514D01*
X146457958Y-126284807D01*
X146386759Y-126237233D01*
X146252767Y-126103241D01*
X146147487Y-125945679D01*
X146147486Y-125945678D01*
X146074969Y-125770605D01*
X146074968Y-125770603D01*
X146038000Y-125584750D01*
X146038000Y-125395250D01*
X146074968Y-125209397D01*
X146091397Y-125169734D01*
X146147486Y-125034322D01*
X146252766Y-124876761D01*
X146252767Y-124876759D01*
X146386759Y-124742767D01*
X146544321Y-124637487D01*
X146544322Y-124637486D01*
X146719395Y-124564969D01*
X146719394Y-124564969D01*
X146719397Y-124564968D01*
X146905250Y-124528000D01*
X147094750Y-124528000D01*
X147280603Y-124564968D01*
X147280603Y-124564968D01*
G37*
G36*
X101890857Y-124252272D02*
X102091042Y-124335191D01*
X102271213Y-124455578D01*
X102424422Y-124608787D01*
X102544809Y-124788958D01*
X102627728Y-124989143D01*
X102670000Y-125201658D01*
X102670000Y-125418342D01*
X102627728Y-125630857D01*
X102544809Y-125831042D01*
X102544807Y-125831045D01*
X102468212Y-125945678D01*
X102424422Y-126011213D01*
X102271213Y-126164422D01*
X102091042Y-126284809D01*
X101890857Y-126367728D01*
X101678342Y-126410000D01*
X101461658Y-126410000D01*
X101249143Y-126367728D01*
X101048958Y-126284809D01*
X100868787Y-126164422D01*
X100715578Y-126011213D01*
X100671789Y-125945678D01*
X100595193Y-125831045D01*
X100595191Y-125831042D01*
X100512272Y-125630857D01*
X100470000Y-125418342D01*
X100470000Y-125201658D01*
X100512272Y-124989143D01*
X100595191Y-124788958D01*
X100715578Y-124608787D01*
X100868787Y-124455578D01*
X101048958Y-124335191D01*
X101249143Y-124252272D01*
X101461658Y-124210000D01*
X101678342Y-124210000D01*
X101890857Y-124252272D01*
X101890857Y-124252272D01*
G37*
G36*
X124750857Y-124252272D02*
X124951042Y-124335191D01*
X125131213Y-124455578D01*
X125284422Y-124608787D01*
X125404809Y-124788958D01*
X125487728Y-124989143D01*
X125530000Y-125201658D01*
X125530000Y-125418342D01*
X125487728Y-125630857D01*
X125404809Y-125831042D01*
X125404807Y-125831045D01*
X125328212Y-125945678D01*
X125284422Y-126011213D01*
X125131213Y-126164422D01*
X124951042Y-126284809D01*
X124750857Y-126367728D01*
X124538342Y-126410000D01*
X124321658Y-126410000D01*
X124109143Y-126367728D01*
X123908958Y-126284809D01*
X123728787Y-126164422D01*
X123575578Y-126011213D01*
X123531789Y-125945678D01*
X123455193Y-125831045D01*
X123455191Y-125831042D01*
X123372272Y-125630857D01*
X123330000Y-125418342D01*
X123330000Y-125201658D01*
X123372272Y-124989143D01*
X123455191Y-124788958D01*
X123575578Y-124608787D01*
X123728787Y-124455578D01*
X123908958Y-124335191D01*
X124109143Y-124252272D01*
X124321658Y-124210000D01*
X124538342Y-124210000D01*
X124750857Y-124252272D01*
X124750857Y-124252272D01*
G37*
G36*
X101890857Y-121712272D02*
X102091042Y-121795191D01*
X102271213Y-121915578D01*
X102424422Y-122068787D01*
X102544809Y-122248958D01*
X102627728Y-122449143D01*
X102670000Y-122661658D01*
X102670000Y-122878342D01*
X102627728Y-123090857D01*
X102544809Y-123291042D01*
X102424422Y-123471213D01*
X102271213Y-123624422D01*
X102091042Y-123744809D01*
X101890857Y-123827728D01*
X101678342Y-123870000D01*
X101461658Y-123870000D01*
X101249143Y-123827728D01*
X101048958Y-123744809D01*
X100868787Y-123624422D01*
X100715578Y-123471213D01*
X100595191Y-123291042D01*
X100512272Y-123090857D01*
X100470000Y-122878342D01*
X100470000Y-122661658D01*
X100512272Y-122449143D01*
X100595191Y-122248958D01*
X100715578Y-122068787D01*
X100868787Y-121915578D01*
X101048958Y-121795191D01*
X101249143Y-121712272D01*
X101461658Y-121670000D01*
X101678342Y-121670000D01*
X101890857Y-121712272D01*
X101890857Y-121712272D01*
G37*
G36*
X124750857Y-121712272D02*
X124951042Y-121795191D01*
X125131213Y-121915578D01*
X125284422Y-122068787D01*
X125404809Y-122248958D01*
X125487728Y-122449143D01*
X125530000Y-122661658D01*
X125530000Y-122878342D01*
X125487728Y-123090857D01*
X125404809Y-123291042D01*
X125284422Y-123471213D01*
X125131213Y-123624422D01*
X124951042Y-123744809D01*
X124750857Y-123827728D01*
X124538342Y-123870000D01*
X124321658Y-123870000D01*
X124109143Y-123827728D01*
X123908958Y-123744809D01*
X123728787Y-123624422D01*
X123575578Y-123471213D01*
X123455191Y-123291042D01*
X123372272Y-123090857D01*
X123330000Y-122878342D01*
X123330000Y-122661658D01*
X123372272Y-122449143D01*
X123455191Y-122248958D01*
X123575578Y-122068787D01*
X123728787Y-121915578D01*
X123908958Y-121795191D01*
X124109143Y-121712272D01*
X124321658Y-121670000D01*
X124538342Y-121670000D01*
X124750857Y-121712272D01*
X124750857Y-121712272D01*
G37*
G36*
X124750857Y-119172272D02*
X124951042Y-119255191D01*
X125131213Y-119375578D01*
X125284422Y-119528787D01*
X125284424Y-119528790D01*
X125284425Y-119528791D01*
X125352432Y-119630571D01*
X125404809Y-119708958D01*
X125487728Y-119909143D01*
X125530000Y-120121658D01*
X125530000Y-120338342D01*
X125487728Y-120550857D01*
X125404809Y-120751042D01*
X125284422Y-120931213D01*
X125131213Y-121084422D01*
X124951042Y-121204809D01*
X124750857Y-121287728D01*
X124538342Y-121330000D01*
X124321658Y-121330000D01*
X124109143Y-121287728D01*
X123908958Y-121204809D01*
X123728787Y-121084422D01*
X123575578Y-120931213D01*
X123455191Y-120751042D01*
X123372272Y-120550857D01*
X123330000Y-120338342D01*
X123330000Y-120121658D01*
X123372272Y-119909143D01*
X123455191Y-119708958D01*
X123507568Y-119630571D01*
X123575575Y-119528791D01*
X123575576Y-119528790D01*
X123575578Y-119528787D01*
X123728787Y-119375578D01*
X123908958Y-119255191D01*
X124109143Y-119172272D01*
X124321658Y-119130000D01*
X124538342Y-119130000D01*
X124750857Y-119172272D01*
X124750857Y-119172272D01*
G37*
G36*
X101890857Y-119172272D02*
X102091042Y-119255191D01*
X102271213Y-119375578D01*
X102424422Y-119528787D01*
X102424424Y-119528790D01*
X102424425Y-119528791D01*
X102492432Y-119630571D01*
X102544809Y-119708958D01*
X102627728Y-119909143D01*
X102670000Y-120121658D01*
X102670000Y-120338342D01*
X102627728Y-120550857D01*
X102544809Y-120751042D01*
X102424422Y-120931213D01*
X102271213Y-121084422D01*
X102091042Y-121204809D01*
X101890857Y-121287728D01*
X101678342Y-121330000D01*
X101461658Y-121330000D01*
X101249143Y-121287728D01*
X101048958Y-121204809D01*
X100868787Y-121084422D01*
X100715578Y-120931213D01*
X100595191Y-120751042D01*
X100512272Y-120550857D01*
X100470000Y-120338342D01*
X100470000Y-120121658D01*
X100512272Y-119909143D01*
X100595191Y-119708958D01*
X100647568Y-119630571D01*
X100715575Y-119528791D01*
X100715576Y-119528790D01*
X100715578Y-119528787D01*
X100868787Y-119375578D01*
X101048958Y-119255191D01*
X101249143Y-119172272D01*
X101461658Y-119130000D01*
X101678342Y-119130000D01*
X101890857Y-119172272D01*
X101890857Y-119172272D01*
G37*
G36*
X152118770Y-117684372D02*
X152234689Y-117707429D01*
X152416678Y-117782811D01*
X152580463Y-117892249D01*
X152719751Y-118031537D01*
X152829189Y-118195322D01*
X152904571Y-118377311D01*
X152943000Y-118570509D01*
X152943000Y-118767491D01*
X152904571Y-118960689D01*
X152829189Y-119142678D01*
X152719751Y-119306463D01*
X152580463Y-119445751D01*
X152416678Y-119555189D01*
X152234689Y-119630571D01*
X152118770Y-119653628D01*
X152041493Y-119669000D01*
X151844507Y-119669000D01*
X151767230Y-119653628D01*
X151651311Y-119630571D01*
X151469322Y-119555189D01*
X151305537Y-119445751D01*
X151166249Y-119306463D01*
X151056811Y-119142678D01*
X150981429Y-118960689D01*
X150943000Y-118767491D01*
X150943000Y-118570509D01*
X150981429Y-118377311D01*
X151056811Y-118195322D01*
X151166249Y-118031537D01*
X151305537Y-117892249D01*
X151469322Y-117782811D01*
X151651311Y-117707429D01*
X151767230Y-117684372D01*
X151844507Y-117669000D01*
X152041493Y-117669000D01*
X152118770Y-117684372D01*
X152118770Y-117684372D01*
G37*
G36*
X158860000Y-119490000D02*
X156710000Y-119490000D01*
X156710000Y-117340000D01*
X158860000Y-117340000D01*
X158860000Y-119490000D01*
X158860000Y-119490000D01*
G37*
G36*
X124750857Y-116632272D02*
X124951042Y-116715191D01*
X124951045Y-116715193D01*
X125119353Y-116827653D01*
X125131213Y-116835578D01*
X125284422Y-116988787D01*
X125404809Y-117168958D01*
X125487728Y-117369143D01*
X125530000Y-117581658D01*
X125530000Y-117798342D01*
X125487728Y-118010857D01*
X125404809Y-118211042D01*
X125284422Y-118391213D01*
X125131213Y-118544422D01*
X125131210Y-118544424D01*
X125131209Y-118544425D01*
X124951045Y-118664807D01*
X124951042Y-118664809D01*
X124750857Y-118747728D01*
X124538342Y-118790000D01*
X124321658Y-118790000D01*
X124109143Y-118747728D01*
X123908958Y-118664809D01*
X123908955Y-118664807D01*
X123728791Y-118544425D01*
X123728790Y-118544424D01*
X123728787Y-118544422D01*
X123575578Y-118391213D01*
X123455191Y-118211042D01*
X123372272Y-118010857D01*
X123330000Y-117798342D01*
X123330000Y-117581658D01*
X123372272Y-117369143D01*
X123455191Y-117168958D01*
X123575578Y-116988787D01*
X123728787Y-116835578D01*
X123740648Y-116827653D01*
X123908955Y-116715193D01*
X123908958Y-116715191D01*
X124109143Y-116632272D01*
X124321658Y-116590000D01*
X124538342Y-116590000D01*
X124750857Y-116632272D01*
X124750857Y-116632272D01*
G37*
G36*
X101890857Y-116632272D02*
X102091042Y-116715191D01*
X102091045Y-116715193D01*
X102259353Y-116827653D01*
X102271213Y-116835578D01*
X102424422Y-116988787D01*
X102544809Y-117168958D01*
X102627728Y-117369143D01*
X102670000Y-117581658D01*
X102670000Y-117798342D01*
X102627728Y-118010857D01*
X102544809Y-118211042D01*
X102424422Y-118391213D01*
X102271213Y-118544422D01*
X102271210Y-118544424D01*
X102271209Y-118544425D01*
X102091045Y-118664807D01*
X102091042Y-118664809D01*
X101890857Y-118747728D01*
X101678342Y-118790000D01*
X101461658Y-118790000D01*
X101249143Y-118747728D01*
X101048958Y-118664809D01*
X101048955Y-118664807D01*
X100868791Y-118544425D01*
X100868790Y-118544424D01*
X100868787Y-118544422D01*
X100715578Y-118391213D01*
X100595191Y-118211042D01*
X100512272Y-118010857D01*
X100470000Y-117798342D01*
X100470000Y-117581658D01*
X100512272Y-117369143D01*
X100595191Y-117168958D01*
X100715578Y-116988787D01*
X100868787Y-116835578D01*
X100880648Y-116827653D01*
X101048955Y-116715193D01*
X101048958Y-116715191D01*
X101249143Y-116632272D01*
X101461658Y-116590000D01*
X101678342Y-116590000D01*
X101890857Y-116632272D01*
X101890857Y-116632272D01*
G37*
G36*
X158098566Y-114841312D02*
X158294203Y-114922347D01*
X158470275Y-115039995D01*
X158620005Y-115189725D01*
X158737653Y-115365797D01*
X158818688Y-115561434D01*
X158860000Y-115769122D01*
X158860000Y-115980878D01*
X158818688Y-116188566D01*
X158737653Y-116384203D01*
X158620005Y-116560275D01*
X158470275Y-116710005D01*
X158294203Y-116827653D01*
X158098566Y-116908688D01*
X157890878Y-116950000D01*
X157679122Y-116950000D01*
X157471434Y-116908688D01*
X157275797Y-116827653D01*
X157099725Y-116710005D01*
X156949995Y-116560275D01*
X156832347Y-116384203D01*
X156751312Y-116188566D01*
X156710000Y-115980878D01*
X156710000Y-115769122D01*
X156751312Y-115561434D01*
X156832347Y-115365797D01*
X156949995Y-115189725D01*
X157099725Y-115039995D01*
X157275797Y-114922347D01*
X157471434Y-114841312D01*
X157679122Y-114800000D01*
X157890878Y-114800000D01*
X158098566Y-114841312D01*
X158098566Y-114841312D01*
G37*
G36*
X101890857Y-114092272D02*
X102091042Y-114175191D01*
X102091045Y-114175193D01*
X102259353Y-114287653D01*
X102271213Y-114295578D01*
X102424422Y-114448787D01*
X102544809Y-114628958D01*
X102627728Y-114829143D01*
X102670000Y-115041658D01*
X102670000Y-115258342D01*
X102627728Y-115470857D01*
X102544809Y-115671042D01*
X102424422Y-115851213D01*
X102271213Y-116004422D01*
X102091042Y-116124809D01*
X101890857Y-116207728D01*
X101678342Y-116250000D01*
X101461658Y-116250000D01*
X101249143Y-116207728D01*
X101048958Y-116124809D01*
X100868787Y-116004422D01*
X100715578Y-115851213D01*
X100595191Y-115671042D01*
X100512272Y-115470857D01*
X100470000Y-115258342D01*
X100470000Y-115041658D01*
X100512272Y-114829143D01*
X100595191Y-114628958D01*
X100715578Y-114448787D01*
X100868787Y-114295578D01*
X100880648Y-114287653D01*
X101048955Y-114175193D01*
X101048958Y-114175191D01*
X101249143Y-114092272D01*
X101461658Y-114050000D01*
X101678342Y-114050000D01*
X101890857Y-114092272D01*
X101890857Y-114092272D01*
G37*
G36*
X124750857Y-114092272D02*
X124951042Y-114175191D01*
X124951045Y-114175193D01*
X125119353Y-114287653D01*
X125131213Y-114295578D01*
X125284422Y-114448787D01*
X125404809Y-114628958D01*
X125487728Y-114829143D01*
X125530000Y-115041658D01*
X125530000Y-115258342D01*
X125487728Y-115470857D01*
X125404809Y-115671042D01*
X125284422Y-115851213D01*
X125131213Y-116004422D01*
X124951042Y-116124809D01*
X124750857Y-116207728D01*
X124538342Y-116250000D01*
X124321658Y-116250000D01*
X124109143Y-116207728D01*
X123908958Y-116124809D01*
X123728787Y-116004422D01*
X123575578Y-115851213D01*
X123455191Y-115671042D01*
X123372272Y-115470857D01*
X123330000Y-115258342D01*
X123330000Y-115041658D01*
X123372272Y-114829143D01*
X123455191Y-114628958D01*
X123575578Y-114448787D01*
X123728787Y-114295578D01*
X123740648Y-114287653D01*
X123908955Y-114175193D01*
X123908958Y-114175191D01*
X124109143Y-114092272D01*
X124321658Y-114050000D01*
X124538342Y-114050000D01*
X124750857Y-114092272D01*
X124750857Y-114092272D01*
G37*
G36*
X158098566Y-112301312D02*
X158294203Y-112382347D01*
X158470275Y-112499995D01*
X158620005Y-112649725D01*
X158737653Y-112825797D01*
X158818688Y-113021434D01*
X158860000Y-113229122D01*
X158860000Y-113440878D01*
X158818688Y-113648566D01*
X158737653Y-113844203D01*
X158620005Y-114020275D01*
X158470275Y-114170005D01*
X158294203Y-114287653D01*
X158098566Y-114368688D01*
X157890878Y-114410000D01*
X157679122Y-114410000D01*
X157471434Y-114368688D01*
X157275797Y-114287653D01*
X157099725Y-114170005D01*
X156949995Y-114020275D01*
X156832347Y-113844203D01*
X156751312Y-113648566D01*
X156710000Y-113440878D01*
X156710000Y-113229122D01*
X156751312Y-113021434D01*
X156832347Y-112825797D01*
X156949995Y-112649725D01*
X157099725Y-112499995D01*
X157275797Y-112382347D01*
X157471434Y-112301312D01*
X157679122Y-112260000D01*
X157890878Y-112260000D01*
X158098566Y-112301312D01*
X158098566Y-112301312D01*
G37*
G36*
X101890857Y-111552272D02*
X102091042Y-111635191D01*
X102091045Y-111635193D01*
X102259353Y-111747653D01*
X102271213Y-111755578D01*
X102424422Y-111908787D01*
X102544809Y-112088958D01*
X102627728Y-112289143D01*
X102670000Y-112501658D01*
X102670000Y-112718342D01*
X102627728Y-112930857D01*
X102544809Y-113131042D01*
X102424422Y-113311213D01*
X102271213Y-113464422D01*
X102091042Y-113584809D01*
X101890857Y-113667728D01*
X101678342Y-113710000D01*
X101461658Y-113710000D01*
X101249143Y-113667728D01*
X101048958Y-113584809D01*
X100868787Y-113464422D01*
X100715578Y-113311213D01*
X100595191Y-113131042D01*
X100512272Y-112930857D01*
X100470000Y-112718342D01*
X100470000Y-112501658D01*
X100512272Y-112289143D01*
X100595191Y-112088958D01*
X100715578Y-111908787D01*
X100868787Y-111755578D01*
X100880648Y-111747653D01*
X101048955Y-111635193D01*
X101048958Y-111635191D01*
X101249143Y-111552272D01*
X101461658Y-111510000D01*
X101678342Y-111510000D01*
X101890857Y-111552272D01*
X101890857Y-111552272D01*
G37*
G36*
X124750857Y-111552272D02*
X124951042Y-111635191D01*
X124951045Y-111635193D01*
X125119353Y-111747653D01*
X125131213Y-111755578D01*
X125284422Y-111908787D01*
X125404809Y-112088958D01*
X125487728Y-112289143D01*
X125530000Y-112501658D01*
X125530000Y-112718342D01*
X125487728Y-112930857D01*
X125404809Y-113131042D01*
X125284422Y-113311213D01*
X125131213Y-113464422D01*
X124951042Y-113584809D01*
X124750857Y-113667728D01*
X124538342Y-113710000D01*
X124321658Y-113710000D01*
X124109143Y-113667728D01*
X123908958Y-113584809D01*
X123728787Y-113464422D01*
X123575578Y-113311213D01*
X123455191Y-113131042D01*
X123372272Y-112930857D01*
X123330000Y-112718342D01*
X123330000Y-112501658D01*
X123372272Y-112289143D01*
X123455191Y-112088958D01*
X123575578Y-111908787D01*
X123728787Y-111755578D01*
X123740648Y-111747653D01*
X123908955Y-111635193D01*
X123908958Y-111635191D01*
X124109143Y-111552272D01*
X124321658Y-111510000D01*
X124538342Y-111510000D01*
X124750857Y-111552272D01*
X124750857Y-111552272D01*
G37*
G36*
X158098566Y-109761312D02*
X158294203Y-109842347D01*
X158470275Y-109959995D01*
X158620005Y-110109725D01*
X158737653Y-110285797D01*
X158818688Y-110481434D01*
X158860000Y-110689122D01*
X158860000Y-110900878D01*
X158818688Y-111108566D01*
X158737653Y-111304203D01*
X158620005Y-111480275D01*
X158470275Y-111630005D01*
X158294203Y-111747653D01*
X158098566Y-111828688D01*
X157890878Y-111870000D01*
X157679122Y-111870000D01*
X157471434Y-111828688D01*
X157275797Y-111747653D01*
X157099725Y-111630005D01*
X156949995Y-111480275D01*
X156832347Y-111304203D01*
X156751312Y-111108566D01*
X156710000Y-110900878D01*
X156710000Y-110689122D01*
X156751312Y-110481434D01*
X156832347Y-110285797D01*
X156949995Y-110109725D01*
X157099725Y-109959995D01*
X157275797Y-109842347D01*
X157471434Y-109761312D01*
X157679122Y-109720000D01*
X157890878Y-109720000D01*
X158098566Y-109761312D01*
X158098566Y-109761312D01*
G37*
G36*
X129497434Y-108917922D02*
X129692322Y-108956687D01*
X129937096Y-109058076D01*
X130154424Y-109203289D01*
X130157391Y-109205272D01*
X130344728Y-109392609D01*
X130344730Y-109392612D01*
X130491924Y-109612904D01*
X130593313Y-109857678D01*
X130645000Y-110117529D01*
X130645000Y-110382471D01*
X130593313Y-110642322D01*
X130491924Y-110887096D01*
X130491923Y-110887097D01*
X130344728Y-111107391D01*
X130157391Y-111294728D01*
X130157388Y-111294730D01*
X129937096Y-111441924D01*
X129692322Y-111543313D01*
X129497434Y-111582078D01*
X129432472Y-111595000D01*
X129167528Y-111595000D01*
X129102566Y-111582078D01*
X128907678Y-111543313D01*
X128662904Y-111441924D01*
X128442612Y-111294730D01*
X128442609Y-111294728D01*
X128255272Y-111107391D01*
X128108077Y-110887097D01*
X128108076Y-110887096D01*
X128006687Y-110642322D01*
X127955000Y-110382471D01*
X127955000Y-110117529D01*
X128006687Y-109857678D01*
X128108076Y-109612904D01*
X128255270Y-109392612D01*
X128255272Y-109392609D01*
X128442609Y-109205272D01*
X128445576Y-109203289D01*
X128662904Y-109058076D01*
X128907678Y-108956687D01*
X129102566Y-108917922D01*
X129167528Y-108905000D01*
X129432472Y-108905000D01*
X129497434Y-108917922D01*
X129497434Y-108917922D01*
G37*
G36*
X152139030Y-107523469D02*
X152139033Y-107523470D01*
X152139034Y-107523470D01*
X152327535Y-107580651D01*
X152327537Y-107580652D01*
X152501260Y-107673509D01*
X152653528Y-107798472D01*
X152778491Y-107950740D01*
X152871348Y-108124463D01*
X152928531Y-108312970D01*
X152947838Y-108509000D01*
X152928531Y-108705030D01*
X152871348Y-108893537D01*
X152778491Y-109067260D01*
X152653528Y-109219528D01*
X152501260Y-109344491D01*
X152501258Y-109344492D01*
X152327535Y-109437349D01*
X152139034Y-109494530D01*
X152139033Y-109494530D01*
X152139030Y-109494531D01*
X151992124Y-109509000D01*
X151893876Y-109509000D01*
X151746970Y-109494531D01*
X151746967Y-109494530D01*
X151746966Y-109494530D01*
X151558465Y-109437349D01*
X151384742Y-109344492D01*
X151384740Y-109344491D01*
X151232472Y-109219528D01*
X151107509Y-109067260D01*
X151014652Y-108893537D01*
X150957469Y-108705030D01*
X150938162Y-108509000D01*
X150957469Y-108312970D01*
X151014652Y-108124463D01*
X151107509Y-107950740D01*
X151232472Y-107798472D01*
X151384740Y-107673509D01*
X151558463Y-107580652D01*
X151558465Y-107580651D01*
X151746966Y-107523470D01*
X151746967Y-107523470D01*
X151746970Y-107523469D01*
X151893876Y-107509000D01*
X151992124Y-107509000D01*
X152139030Y-107523469D01*
X152139030Y-107523469D01*
G37*
G36*
X129497434Y-103837922D02*
X129692322Y-103876687D01*
X129937096Y-103978076D01*
X130059592Y-104059925D01*
X130157391Y-104125272D01*
X130344728Y-104312609D01*
X130344730Y-104312612D01*
X130491924Y-104532904D01*
X130593313Y-104777678D01*
X130645000Y-105037529D01*
X130645000Y-105302471D01*
X130593313Y-105562322D01*
X130491924Y-105807096D01*
X130491923Y-105807097D01*
X130344728Y-106027391D01*
X130157391Y-106214728D01*
X130157388Y-106214730D01*
X129937096Y-106361924D01*
X129692322Y-106463313D01*
X129497434Y-106502078D01*
X129432472Y-106515000D01*
X129167528Y-106515000D01*
X129102566Y-106502078D01*
X128907678Y-106463313D01*
X128662904Y-106361924D01*
X128442612Y-106214730D01*
X128442609Y-106214728D01*
X128255272Y-106027391D01*
X128108077Y-105807097D01*
X128108076Y-105807096D01*
X128006687Y-105562322D01*
X127955000Y-105302471D01*
X127955000Y-105037529D01*
X128006687Y-104777678D01*
X128108076Y-104532904D01*
X128255270Y-104312612D01*
X128255272Y-104312609D01*
X128442609Y-104125272D01*
X128540408Y-104059925D01*
X128662904Y-103978076D01*
X128907678Y-103876687D01*
X129102566Y-103837922D01*
X129167528Y-103825000D01*
X129432472Y-103825000D01*
X129497434Y-103837922D01*
X129497434Y-103837922D01*
G37*
G36*
X147197434Y-103837922D02*
X147392322Y-103876687D01*
X147637096Y-103978076D01*
X147759592Y-104059925D01*
X147857391Y-104125272D01*
X148044728Y-104312609D01*
X148044730Y-104312612D01*
X148191924Y-104532904D01*
X148293313Y-104777678D01*
X148345000Y-105037529D01*
X148345000Y-105302471D01*
X148293313Y-105562322D01*
X148191924Y-105807096D01*
X148191923Y-105807097D01*
X148044728Y-106027391D01*
X147857391Y-106214728D01*
X147857388Y-106214730D01*
X147637096Y-106361924D01*
X147392322Y-106463313D01*
X147197434Y-106502078D01*
X147132472Y-106515000D01*
X146867528Y-106515000D01*
X146802566Y-106502078D01*
X146607678Y-106463313D01*
X146362904Y-106361924D01*
X146142612Y-106214730D01*
X146142609Y-106214728D01*
X145955272Y-106027391D01*
X145808077Y-105807097D01*
X145808076Y-105807096D01*
X145706687Y-105562322D01*
X145655000Y-105302471D01*
X145655000Y-105037529D01*
X145706687Y-104777678D01*
X145808076Y-104532904D01*
X145955270Y-104312612D01*
X145955272Y-104312609D01*
X146142609Y-104125272D01*
X146240408Y-104059925D01*
X146362904Y-103978076D01*
X146607678Y-103876687D01*
X146802566Y-103837922D01*
X146867528Y-103825000D01*
X147132472Y-103825000D01*
X147197434Y-103837922D01*
X147197434Y-103837922D01*
G37*
G36*
X153838348Y-102062597D02*
X153896858Y-102080347D01*
X153950777Y-102109167D01*
X153998043Y-102147957D01*
X154036833Y-102195223D01*
X154065653Y-102249142D01*
X154083403Y-102307652D01*
X154090000Y-102374639D01*
X154090000Y-103937360D01*
X154084939Y-103988748D01*
X154084939Y-104013253D01*
X154089720Y-104037286D01*
X154099097Y-104059925D01*
X154112711Y-104080300D01*
X154130038Y-104097627D01*
X154150413Y-104111240D01*
X154173052Y-104120618D01*
X154209337Y-104126000D01*
X155041361Y-104126000D01*
X155108348Y-104132597D01*
X155166858Y-104150347D01*
X155220777Y-104179167D01*
X155268043Y-104217957D01*
X155306833Y-104265223D01*
X155335653Y-104319142D01*
X155353403Y-104377652D01*
X155360000Y-104444639D01*
X155360000Y-106007361D01*
X155353403Y-106074348D01*
X155335653Y-106132858D01*
X155306833Y-106186777D01*
X155268043Y-106234043D01*
X155220777Y-106272833D01*
X155166858Y-106301653D01*
X155108348Y-106319403D01*
X155041361Y-106326000D01*
X154178639Y-106326000D01*
X154111652Y-106319403D01*
X154053142Y-106301653D01*
X153999223Y-106272833D01*
X153951957Y-106234043D01*
X153913167Y-106186777D01*
X153884347Y-106132858D01*
X153866597Y-106074348D01*
X153860000Y-106007361D01*
X153860000Y-104444640D01*
X153865061Y-104393252D01*
X153865061Y-104368747D01*
X153860280Y-104344714D01*
X153850903Y-104322075D01*
X153837289Y-104301700D01*
X153819962Y-104284373D01*
X153799587Y-104270760D01*
X153776948Y-104261382D01*
X153740663Y-104256000D01*
X152945000Y-104256000D01*
X152920614Y-104258402D01*
X152897165Y-104265515D01*
X152875554Y-104277066D01*
X152856612Y-104292612D01*
X152841066Y-104311554D01*
X152829515Y-104333165D01*
X152822402Y-104356614D01*
X152820000Y-104381000D01*
X152820000Y-106326000D01*
X151320000Y-106326000D01*
X151320000Y-104126000D01*
X152470663Y-104126000D01*
X152495049Y-104123598D01*
X152518498Y-104116485D01*
X152540109Y-104104934D01*
X152559051Y-104089388D01*
X152574597Y-104070446D01*
X152586148Y-104048835D01*
X152593261Y-104025386D01*
X152595061Y-103988748D01*
X152590000Y-103937360D01*
X152590000Y-102374639D01*
X152596597Y-102307652D01*
X152614347Y-102249142D01*
X152643167Y-102195223D01*
X152681957Y-102147957D01*
X152729223Y-102109167D01*
X152783142Y-102080347D01*
X152841652Y-102062597D01*
X152908639Y-102056000D01*
X153771361Y-102056000D01*
X153838348Y-102062597D01*
X153838348Y-102062597D01*
G37*
G36*
X158379196Y-100749958D02*
X158615780Y-100847954D01*
X158828705Y-100990226D01*
X159009774Y-101171295D01*
X159152046Y-101384220D01*
X159250042Y-101620804D01*
X159300000Y-101871960D01*
X159300000Y-102128040D01*
X159250042Y-102379196D01*
X159152046Y-102615780D01*
X159009774Y-102828705D01*
X158828705Y-103009774D01*
X158615780Y-103152046D01*
X158379196Y-103250042D01*
X158128040Y-103300000D01*
X157871960Y-103300000D01*
X157620804Y-103250042D01*
X157384220Y-103152046D01*
X157171295Y-103009774D01*
X156990226Y-102828705D01*
X156847954Y-102615780D01*
X156749958Y-102379196D01*
X156700000Y-102128040D01*
X156700000Y-101871960D01*
X156749958Y-101620804D01*
X156847954Y-101384220D01*
X156990226Y-101171295D01*
X157171295Y-100990226D01*
X157384220Y-100847954D01*
X157620804Y-100749958D01*
X157871960Y-100700000D01*
X158128040Y-100700000D01*
X158379196Y-100749958D01*
X158379196Y-100749958D01*
G37*
G36*
X102379196Y-100654958D02*
X102615780Y-100752954D01*
X102828705Y-100895226D01*
X103009774Y-101076295D01*
X103152046Y-101289220D01*
X103250042Y-101525804D01*
X103300000Y-101776960D01*
X103300000Y-102033040D01*
X103250042Y-102284196D01*
X103152046Y-102520780D01*
X103009774Y-102733705D01*
X102828705Y-102914774D01*
X102615780Y-103057046D01*
X102379196Y-103155042D01*
X102128040Y-103205000D01*
X101871960Y-103205000D01*
X101620804Y-103155042D01*
X101384220Y-103057046D01*
X101171295Y-102914774D01*
X100990226Y-102733705D01*
X100847954Y-102520780D01*
X100749958Y-102284196D01*
X100700000Y-102033040D01*
X100700000Y-101776960D01*
X100749958Y-101525804D01*
X100847954Y-101289220D01*
X100990226Y-101076295D01*
X101171295Y-100895226D01*
X101384220Y-100752954D01*
X101620804Y-100654958D01*
X101871960Y-100605000D01*
X102128040Y-100605000D01*
X102379196Y-100654958D01*
X102379196Y-100654958D01*
G37*
G36*
X108168707Y-100957596D02*
X108245836Y-100965193D01*
X108377787Y-101005220D01*
X108443763Y-101025233D01*
X108626172Y-101122733D01*
X108786054Y-101253946D01*
X108917267Y-101413828D01*
X109014767Y-101596237D01*
X109014767Y-101596238D01*
X109074807Y-101794164D01*
X109095080Y-102000000D01*
X109074807Y-102205836D01*
X109034780Y-102337787D01*
X109014767Y-102403763D01*
X108917267Y-102586172D01*
X108786054Y-102746054D01*
X108626172Y-102877267D01*
X108443763Y-102974767D01*
X108377787Y-102994780D01*
X108245836Y-103034807D01*
X108168707Y-103042404D01*
X108091580Y-103050000D01*
X107988420Y-103050000D01*
X107911293Y-103042404D01*
X107834164Y-103034807D01*
X107702213Y-102994780D01*
X107636237Y-102974767D01*
X107453828Y-102877267D01*
X107293946Y-102746054D01*
X107162733Y-102586172D01*
X107065233Y-102403763D01*
X107045220Y-102337787D01*
X107005193Y-102205836D01*
X106984920Y-102000000D01*
X107005193Y-101794164D01*
X107065233Y-101596238D01*
X107065233Y-101596237D01*
X107162733Y-101413828D01*
X107293946Y-101253946D01*
X107453828Y-101122733D01*
X107636237Y-101025233D01*
X107702213Y-101005220D01*
X107834164Y-100965193D01*
X107911293Y-100957596D01*
X107988420Y-100950000D01*
X108091580Y-100950000D01*
X108168707Y-100957596D01*
X108168707Y-100957596D01*
G37*
G36*
X123408707Y-100957596D02*
X123485836Y-100965193D01*
X123617787Y-101005220D01*
X123683763Y-101025233D01*
X123866172Y-101122733D01*
X124026054Y-101253946D01*
X124157267Y-101413828D01*
X124254767Y-101596237D01*
X124254767Y-101596238D01*
X124314807Y-101794164D01*
X124335080Y-102000000D01*
X124314807Y-102205836D01*
X124274780Y-102337787D01*
X124254767Y-102403763D01*
X124157267Y-102586172D01*
X124026054Y-102746054D01*
X123866172Y-102877267D01*
X123683763Y-102974767D01*
X123617787Y-102994780D01*
X123485836Y-103034807D01*
X123408707Y-103042404D01*
X123331580Y-103050000D01*
X123228420Y-103050000D01*
X123151293Y-103042404D01*
X123074164Y-103034807D01*
X122942213Y-102994780D01*
X122876237Y-102974767D01*
X122693828Y-102877267D01*
X122533946Y-102746054D01*
X122402733Y-102586172D01*
X122305233Y-102403763D01*
X122285220Y-102337787D01*
X122245193Y-102205836D01*
X122224920Y-102000000D01*
X122245193Y-101794164D01*
X122305233Y-101596238D01*
X122305233Y-101596237D01*
X122402733Y-101413828D01*
X122533946Y-101253946D01*
X122693828Y-101122733D01*
X122876237Y-101025233D01*
X122942213Y-101005220D01*
X123074164Y-100965193D01*
X123151293Y-100957596D01*
X123228420Y-100950000D01*
X123331580Y-100950000D01*
X123408707Y-100957596D01*
X123408707Y-100957596D01*
G37*
G36*
X120868707Y-100957596D02*
X120945836Y-100965193D01*
X121077787Y-101005220D01*
X121143763Y-101025233D01*
X121326172Y-101122733D01*
X121486054Y-101253946D01*
X121617267Y-101413828D01*
X121714767Y-101596237D01*
X121714767Y-101596238D01*
X121774807Y-101794164D01*
X121795080Y-102000000D01*
X121774807Y-102205836D01*
X121734780Y-102337787D01*
X121714767Y-102403763D01*
X121617267Y-102586172D01*
X121486054Y-102746054D01*
X121326172Y-102877267D01*
X121143763Y-102974767D01*
X121077787Y-102994780D01*
X120945836Y-103034807D01*
X120868707Y-103042404D01*
X120791580Y-103050000D01*
X120688420Y-103050000D01*
X120611293Y-103042404D01*
X120534164Y-103034807D01*
X120402213Y-102994780D01*
X120336237Y-102974767D01*
X120153828Y-102877267D01*
X119993946Y-102746054D01*
X119862733Y-102586172D01*
X119765233Y-102403763D01*
X119745220Y-102337787D01*
X119705193Y-102205836D01*
X119684920Y-102000000D01*
X119705193Y-101794164D01*
X119765233Y-101596238D01*
X119765233Y-101596237D01*
X119862733Y-101413828D01*
X119993946Y-101253946D01*
X120153828Y-101122733D01*
X120336237Y-101025233D01*
X120402213Y-101005220D01*
X120534164Y-100965193D01*
X120611293Y-100957596D01*
X120688420Y-100950000D01*
X120791580Y-100950000D01*
X120868707Y-100957596D01*
X120868707Y-100957596D01*
G37*
G36*
X118328707Y-100957596D02*
X118405836Y-100965193D01*
X118537787Y-101005220D01*
X118603763Y-101025233D01*
X118786172Y-101122733D01*
X118946054Y-101253946D01*
X119077267Y-101413828D01*
X119174767Y-101596237D01*
X119174767Y-101596238D01*
X119234807Y-101794164D01*
X119255080Y-102000000D01*
X119234807Y-102205836D01*
X119194780Y-102337787D01*
X119174767Y-102403763D01*
X119077267Y-102586172D01*
X118946054Y-102746054D01*
X118786172Y-102877267D01*
X118603763Y-102974767D01*
X118537787Y-102994780D01*
X118405836Y-103034807D01*
X118328707Y-103042404D01*
X118251580Y-103050000D01*
X118148420Y-103050000D01*
X118071293Y-103042404D01*
X117994164Y-103034807D01*
X117862213Y-102994780D01*
X117796237Y-102974767D01*
X117613828Y-102877267D01*
X117453946Y-102746054D01*
X117322733Y-102586172D01*
X117225233Y-102403763D01*
X117205220Y-102337787D01*
X117165193Y-102205836D01*
X117144920Y-102000000D01*
X117165193Y-101794164D01*
X117225233Y-101596238D01*
X117225233Y-101596237D01*
X117322733Y-101413828D01*
X117453946Y-101253946D01*
X117613828Y-101122733D01*
X117796237Y-101025233D01*
X117862213Y-101005220D01*
X117994164Y-100965193D01*
X118071293Y-100957596D01*
X118148420Y-100950000D01*
X118251580Y-100950000D01*
X118328707Y-100957596D01*
X118328707Y-100957596D01*
G37*
G36*
X115788707Y-100957596D02*
X115865836Y-100965193D01*
X115997787Y-101005220D01*
X116063763Y-101025233D01*
X116246172Y-101122733D01*
X116406054Y-101253946D01*
X116537267Y-101413828D01*
X116634767Y-101596237D01*
X116634767Y-101596238D01*
X116694807Y-101794164D01*
X116715080Y-102000000D01*
X116694807Y-102205836D01*
X116654780Y-102337787D01*
X116634767Y-102403763D01*
X116537267Y-102586172D01*
X116406054Y-102746054D01*
X116246172Y-102877267D01*
X116063763Y-102974767D01*
X115997787Y-102994780D01*
X115865836Y-103034807D01*
X115788707Y-103042404D01*
X115711580Y-103050000D01*
X115608420Y-103050000D01*
X115531293Y-103042404D01*
X115454164Y-103034807D01*
X115322213Y-102994780D01*
X115256237Y-102974767D01*
X115073828Y-102877267D01*
X114913946Y-102746054D01*
X114782733Y-102586172D01*
X114685233Y-102403763D01*
X114665220Y-102337787D01*
X114625193Y-102205836D01*
X114604920Y-102000000D01*
X114625193Y-101794164D01*
X114685233Y-101596238D01*
X114685233Y-101596237D01*
X114782733Y-101413828D01*
X114913946Y-101253946D01*
X115073828Y-101122733D01*
X115256237Y-101025233D01*
X115322213Y-101005220D01*
X115454164Y-100965193D01*
X115531293Y-100957596D01*
X115608420Y-100950000D01*
X115711580Y-100950000D01*
X115788707Y-100957596D01*
X115788707Y-100957596D01*
G37*
G36*
X113248707Y-100957596D02*
X113325836Y-100965193D01*
X113457787Y-101005220D01*
X113523763Y-101025233D01*
X113706172Y-101122733D01*
X113866054Y-101253946D01*
X113997267Y-101413828D01*
X114094767Y-101596237D01*
X114094767Y-101596238D01*
X114154807Y-101794164D01*
X114175080Y-102000000D01*
X114154807Y-102205836D01*
X114114780Y-102337787D01*
X114094767Y-102403763D01*
X113997267Y-102586172D01*
X113866054Y-102746054D01*
X113706172Y-102877267D01*
X113523763Y-102974767D01*
X113457787Y-102994780D01*
X113325836Y-103034807D01*
X113248707Y-103042404D01*
X113171580Y-103050000D01*
X113068420Y-103050000D01*
X112991293Y-103042404D01*
X112914164Y-103034807D01*
X112782213Y-102994780D01*
X112716237Y-102974767D01*
X112533828Y-102877267D01*
X112373946Y-102746054D01*
X112242733Y-102586172D01*
X112145233Y-102403763D01*
X112125220Y-102337787D01*
X112085193Y-102205836D01*
X112064920Y-102000000D01*
X112085193Y-101794164D01*
X112145233Y-101596238D01*
X112145233Y-101596237D01*
X112242733Y-101413828D01*
X112373946Y-101253946D01*
X112533828Y-101122733D01*
X112716237Y-101025233D01*
X112782213Y-101005220D01*
X112914164Y-100965193D01*
X112991293Y-100957596D01*
X113068420Y-100950000D01*
X113171580Y-100950000D01*
X113248707Y-100957596D01*
X113248707Y-100957596D01*
G37*
G36*
X110708707Y-100957596D02*
X110785836Y-100965193D01*
X110917787Y-101005220D01*
X110983763Y-101025233D01*
X111166172Y-101122733D01*
X111326054Y-101253946D01*
X111457267Y-101413828D01*
X111554767Y-101596237D01*
X111554767Y-101596238D01*
X111614807Y-101794164D01*
X111635080Y-102000000D01*
X111614807Y-102205836D01*
X111574780Y-102337787D01*
X111554767Y-102403763D01*
X111457267Y-102586172D01*
X111326054Y-102746054D01*
X111166172Y-102877267D01*
X110983763Y-102974767D01*
X110917787Y-102994780D01*
X110785836Y-103034807D01*
X110708707Y-103042404D01*
X110631580Y-103050000D01*
X110528420Y-103050000D01*
X110451293Y-103042404D01*
X110374164Y-103034807D01*
X110242213Y-102994780D01*
X110176237Y-102974767D01*
X109993828Y-102877267D01*
X109833946Y-102746054D01*
X109702733Y-102586172D01*
X109605233Y-102403763D01*
X109585220Y-102337787D01*
X109545193Y-102205836D01*
X109524920Y-102000000D01*
X109545193Y-101794164D01*
X109605233Y-101596238D01*
X109605233Y-101596237D01*
X109702733Y-101413828D01*
X109833946Y-101253946D01*
X109993828Y-101122733D01*
X110176237Y-101025233D01*
X110242213Y-101005220D01*
X110374164Y-100965193D01*
X110451293Y-100957596D01*
X110528420Y-100950000D01*
X110631580Y-100950000D01*
X110708707Y-100957596D01*
X110708707Y-100957596D01*
G37*
G36*
X106550000Y-103050000D02*
X104450000Y-103050000D01*
X104450000Y-100950000D01*
X106550000Y-100950000D01*
X106550000Y-103050000D01*
X106550000Y-103050000D01*
G37*
M02*
