G04 #@! TF.GenerationSoftware,KiCad,Pcbnew,(5.0.2)-1*
G04 #@! TF.CreationDate,2019-01-04T15:23:43-05:00*
G04 #@! TF.ProjectId,HASwitchPlate,48415377-6974-4636-9850-6c6174652e6b,rev?*
G04 #@! TF.SameCoordinates,Original*
G04 #@! TF.FileFunction,Legend,Bot*
G04 #@! TF.FilePolarity,Positive*
%FSLAX46Y46*%
G04 Gerber Fmt 4.6, Leading zero omitted, Abs format (unit mm)*
G04 Created by KiCad (PCBNEW (5.0.2)-1) date 1/4/2019 3:23:43 PM*
%MOMM*%
%LPD*%
G01*
G04 APERTURE LIST*
%ADD10C,0.300000*%
%ADD11C,0.150000*%
%ADD12C,0.200000*%
%ADD13C,2.000000*%
%ADD14C,0.600000*%
%ADD15C,0.010000*%
%ADD16C,2.150000*%
%ADD17R,2.150000X2.150000*%
%ADD18R,2.100000X2.100000*%
%ADD19O,2.100000X2.100000*%
%ADD20C,2.690000*%
%ADD21C,2.200000*%
%ADD22C,2.600000*%
%ADD23R,3.400000X3.400000*%
%ADD24C,3.400000*%
G04 APERTURE END LIST*
D10*
X153142857Y-130800000D02*
X152571428Y-130800000D01*
X153257142Y-131142857D02*
X152857142Y-129942857D01*
X152457142Y-131142857D01*
X151371428Y-131028571D02*
X151428571Y-131085714D01*
X151600000Y-131142857D01*
X151714285Y-131142857D01*
X151885714Y-131085714D01*
X152000000Y-130971428D01*
X152057142Y-130857142D01*
X152114285Y-130628571D01*
X152114285Y-130457142D01*
X152057142Y-130228571D01*
X152000000Y-130114285D01*
X151885714Y-130000000D01*
X151714285Y-129942857D01*
X151600000Y-129942857D01*
X151428571Y-130000000D01*
X151371428Y-130057142D01*
X150000000Y-129885714D02*
X151028571Y-131428571D01*
X149600000Y-131142857D02*
X149600000Y-129942857D01*
X148914285Y-131142857D01*
X148914285Y-129942857D01*
D11*
X160000000Y-101000000D02*
X160000000Y-127000000D01*
X160000000Y-132100000D02*
X160000000Y-129000000D01*
X143500000Y-128000000D02*
G75*
G03X144500000Y-129000000I1000000J0D01*
G01*
X144500000Y-127000000D02*
G75*
G03X143500000Y-128000000I0J-1000000D01*
G01*
X144500000Y-127000000D02*
X160000000Y-127000000D01*
X144500000Y-129000000D02*
X160000000Y-129000000D01*
X118500000Y-140000000D02*
X159000000Y-140000000D01*
X101000000Y-140000000D02*
X106000000Y-140000000D01*
X108000000Y-138000000D02*
X116500000Y-138000000D01*
X117500000Y-139000000D02*
G75*
G03X118500000Y-140000000I1000000J0D01*
G01*
X117500000Y-139000000D02*
G75*
G03X116500000Y-138000000I-1000000J0D01*
G01*
X107998255Y-138000002D02*
G75*
G03X107000000Y-139000000I1745J-999998D01*
G01*
X106000000Y-140000000D02*
G75*
G03X107000000Y-139000000I0J1000000D01*
G01*
X101000000Y-100000000D02*
G75*
G03X100000000Y-101000000I0J-1000000D01*
G01*
X100000000Y-139000000D02*
G75*
G03X101000000Y-140000000I1000000J0D01*
G01*
X159000000Y-140000000D02*
G75*
G03X160000000Y-139000000I0J1000000D01*
G01*
X160000000Y-101000000D02*
G75*
G03X159000000Y-100000000I-1000000J0D01*
G01*
D10*
X113678571Y-132178571D02*
X114678571Y-132500000D01*
X113678571Y-132821428D01*
X113178571Y-133592857D02*
X113178571Y-133721428D01*
X113250000Y-133850000D01*
X113321428Y-133914285D01*
X113464285Y-133978571D01*
X113750000Y-134042857D01*
X114107142Y-134042857D01*
X114392857Y-133978571D01*
X114535714Y-133914285D01*
X114607142Y-133850000D01*
X114678571Y-133721428D01*
X114678571Y-133592857D01*
X114607142Y-133464285D01*
X114535714Y-133400000D01*
X114392857Y-133335714D01*
X114107142Y-133271428D01*
X113750000Y-133271428D01*
X113464285Y-133335714D01*
X113321428Y-133400000D01*
X113250000Y-133464285D01*
X113178571Y-133592857D01*
X114535714Y-134621428D02*
X114607142Y-134685714D01*
X114678571Y-134621428D01*
X114607142Y-134557142D01*
X114535714Y-134621428D01*
X114678571Y-134621428D01*
X113178571Y-135521428D02*
X113178571Y-135650000D01*
X113250000Y-135778571D01*
X113321428Y-135842857D01*
X113464285Y-135907142D01*
X113750000Y-135971428D01*
X114107142Y-135971428D01*
X114392857Y-135907142D01*
X114535714Y-135842857D01*
X114607142Y-135778571D01*
X114678571Y-135650000D01*
X114678571Y-135521428D01*
X114607142Y-135392857D01*
X114535714Y-135328571D01*
X114392857Y-135264285D01*
X114107142Y-135200000D01*
X113750000Y-135200000D01*
X113464285Y-135264285D01*
X113321428Y-135328571D01*
X113250000Y-135392857D01*
X113178571Y-135521428D01*
X113178571Y-137128571D02*
X113178571Y-136871428D01*
X113250000Y-136742857D01*
X113321428Y-136678571D01*
X113535714Y-136550000D01*
X113821428Y-136485714D01*
X114392857Y-136485714D01*
X114535714Y-136550000D01*
X114607142Y-136614285D01*
X114678571Y-136742857D01*
X114678571Y-137000000D01*
X114607142Y-137128571D01*
X114535714Y-137192857D01*
X114392857Y-137257142D01*
X114035714Y-137257142D01*
X113892857Y-137192857D01*
X113821428Y-137128571D01*
X113750000Y-137000000D01*
X113750000Y-136742857D01*
X113821428Y-136614285D01*
X113892857Y-136550000D01*
X114035714Y-136485714D01*
D12*
X120934285Y-104143809D02*
X121938095Y-104143809D01*
X122056190Y-104084761D01*
X122115238Y-104025714D01*
X122174285Y-103907619D01*
X122174285Y-103730476D01*
X122115238Y-103612380D01*
X121701904Y-104143809D02*
X121760952Y-104025714D01*
X121760952Y-103789523D01*
X121701904Y-103671428D01*
X121642857Y-103612380D01*
X121524761Y-103553333D01*
X121170476Y-103553333D01*
X121052380Y-103612380D01*
X120993333Y-103671428D01*
X120934285Y-103789523D01*
X120934285Y-104025714D01*
X120993333Y-104143809D01*
X121760952Y-104734285D02*
X120934285Y-104734285D01*
X120520952Y-104734285D02*
X120580000Y-104675238D01*
X120639047Y-104734285D01*
X120580000Y-104793333D01*
X120520952Y-104734285D01*
X120639047Y-104734285D01*
X120934285Y-105147619D02*
X120934285Y-105620000D01*
X120520952Y-105324761D02*
X121583809Y-105324761D01*
X121701904Y-105383809D01*
X121760952Y-105501904D01*
X121760952Y-105620000D01*
X121760952Y-106033333D02*
X120520952Y-106033333D01*
X121760952Y-106564761D02*
X121111428Y-106564761D01*
X120993333Y-106505714D01*
X120934285Y-106387619D01*
X120934285Y-106210476D01*
X120993333Y-106092380D01*
X121052380Y-106033333D01*
X120934285Y-107686666D02*
X121760952Y-107686666D01*
X120934285Y-107155238D02*
X121583809Y-107155238D01*
X121701904Y-107214285D01*
X121760952Y-107332380D01*
X121760952Y-107509523D01*
X121701904Y-107627619D01*
X121642857Y-107686666D01*
X121760952Y-108277142D02*
X120520952Y-108277142D01*
X120993333Y-108277142D02*
X120934285Y-108395238D01*
X120934285Y-108631428D01*
X120993333Y-108749523D01*
X121052380Y-108808571D01*
X121170476Y-108867619D01*
X121524761Y-108867619D01*
X121642857Y-108808571D01*
X121701904Y-108749523D01*
X121760952Y-108631428D01*
X121760952Y-108395238D01*
X121701904Y-108277142D01*
X121642857Y-109399047D02*
X121701904Y-109458095D01*
X121760952Y-109399047D01*
X121701904Y-109340000D01*
X121642857Y-109399047D01*
X121760952Y-109399047D01*
X121701904Y-110520952D02*
X121760952Y-110402857D01*
X121760952Y-110166666D01*
X121701904Y-110048571D01*
X121642857Y-109989523D01*
X121524761Y-109930476D01*
X121170476Y-109930476D01*
X121052380Y-109989523D01*
X120993333Y-110048571D01*
X120934285Y-110166666D01*
X120934285Y-110402857D01*
X120993333Y-110520952D01*
X121760952Y-111229523D02*
X121701904Y-111111428D01*
X121642857Y-111052380D01*
X121524761Y-110993333D01*
X121170476Y-110993333D01*
X121052380Y-111052380D01*
X120993333Y-111111428D01*
X120934285Y-111229523D01*
X120934285Y-111406666D01*
X120993333Y-111524761D01*
X121052380Y-111583809D01*
X121170476Y-111642857D01*
X121524761Y-111642857D01*
X121642857Y-111583809D01*
X121701904Y-111524761D01*
X121760952Y-111406666D01*
X121760952Y-111229523D01*
X121760952Y-112174285D02*
X120934285Y-112174285D01*
X121052380Y-112174285D02*
X120993333Y-112233333D01*
X120934285Y-112351428D01*
X120934285Y-112528571D01*
X120993333Y-112646666D01*
X121111428Y-112705714D01*
X121760952Y-112705714D01*
X121111428Y-112705714D02*
X120993333Y-112764761D01*
X120934285Y-112882857D01*
X120934285Y-113059999D01*
X120993333Y-113178095D01*
X121111428Y-113237142D01*
X121760952Y-113237142D01*
X120461904Y-114713333D02*
X122056190Y-113650476D01*
X121760952Y-115658095D02*
X121111428Y-115658095D01*
X120993333Y-115599047D01*
X120934285Y-115480952D01*
X120934285Y-115244761D01*
X120993333Y-115126666D01*
X121701904Y-115658095D02*
X121760952Y-115539999D01*
X121760952Y-115244761D01*
X121701904Y-115126666D01*
X121583809Y-115067619D01*
X121465714Y-115067619D01*
X121347619Y-115126666D01*
X121288571Y-115244761D01*
X121288571Y-115539999D01*
X121229523Y-115658095D01*
X121760952Y-116779999D02*
X120520952Y-116779999D01*
X121701904Y-116779999D02*
X121760952Y-116661904D01*
X121760952Y-116425714D01*
X121701904Y-116307619D01*
X121642857Y-116248571D01*
X121524761Y-116189523D01*
X121170476Y-116189523D01*
X121052380Y-116248571D01*
X120993333Y-116307619D01*
X120934285Y-116425714D01*
X120934285Y-116661904D01*
X120993333Y-116779999D01*
X121701904Y-117842857D02*
X121760952Y-117724761D01*
X121760952Y-117488571D01*
X121701904Y-117370476D01*
X121583809Y-117311428D01*
X121111428Y-117311428D01*
X120993333Y-117370476D01*
X120934285Y-117488571D01*
X120934285Y-117724761D01*
X120993333Y-117842857D01*
X121111428Y-117901904D01*
X121229523Y-117901904D01*
X121347619Y-117311428D01*
X121760952Y-118433333D02*
X120934285Y-118433333D01*
X121170476Y-118433333D02*
X121052380Y-118492380D01*
X120993333Y-118551428D01*
X120934285Y-118669523D01*
X120934285Y-118787619D01*
X120934285Y-119732380D02*
X121760952Y-119732380D01*
X120934285Y-119200952D02*
X121583809Y-119200952D01*
X121701904Y-119259999D01*
X121760952Y-119378095D01*
X121760952Y-119555238D01*
X121701904Y-119673333D01*
X121642857Y-119732380D01*
X121701904Y-120263809D02*
X121760952Y-120381904D01*
X121760952Y-120618095D01*
X121701904Y-120736190D01*
X121583809Y-120795238D01*
X121524761Y-120795238D01*
X121406666Y-120736190D01*
X121347619Y-120618095D01*
X121347619Y-120440952D01*
X121288571Y-120322857D01*
X121170476Y-120263809D01*
X121111428Y-120263809D01*
X120993333Y-120322857D01*
X120934285Y-120440952D01*
X120934285Y-120618095D01*
X120993333Y-120736190D01*
X121760952Y-121326666D02*
X120520952Y-121326666D01*
X121760952Y-121858095D02*
X121111428Y-121858095D01*
X120993333Y-121799047D01*
X120934285Y-121680952D01*
X120934285Y-121503809D01*
X120993333Y-121385714D01*
X121052380Y-121326666D01*
X121760952Y-122979999D02*
X121111428Y-122979999D01*
X120993333Y-122920952D01*
X120934285Y-122802857D01*
X120934285Y-122566666D01*
X120993333Y-122448571D01*
X121701904Y-122979999D02*
X121760952Y-122861904D01*
X121760952Y-122566666D01*
X121701904Y-122448571D01*
X121583809Y-122389523D01*
X121465714Y-122389523D01*
X121347619Y-122448571D01*
X121288571Y-122566666D01*
X121288571Y-122861904D01*
X121229523Y-122979999D01*
X120461904Y-124456190D02*
X122056190Y-123393333D01*
X121760952Y-124869523D02*
X120520952Y-124869523D01*
X121111428Y-124869523D02*
X121111428Y-125578095D01*
X121760952Y-125578095D02*
X120520952Y-125578095D01*
X121406666Y-126109523D02*
X121406666Y-126699999D01*
X121760952Y-125991428D02*
X120520952Y-126404761D01*
X121760952Y-126818095D01*
X121701904Y-127172380D02*
X121760952Y-127349523D01*
X121760952Y-127644761D01*
X121701904Y-127762857D01*
X121642857Y-127821904D01*
X121524761Y-127880952D01*
X121406666Y-127880952D01*
X121288571Y-127821904D01*
X121229523Y-127762857D01*
X121170476Y-127644761D01*
X121111428Y-127408571D01*
X121052380Y-127290476D01*
X120993333Y-127231428D01*
X120875238Y-127172380D01*
X120757142Y-127172380D01*
X120639047Y-127231428D01*
X120580000Y-127290476D01*
X120520952Y-127408571D01*
X120520952Y-127703809D01*
X120580000Y-127880952D01*
X120934285Y-128294285D02*
X121760952Y-128530476D01*
X121170476Y-128766666D01*
X121760952Y-129002857D01*
X120934285Y-129239047D01*
X121760952Y-129711428D02*
X120934285Y-129711428D01*
X120520952Y-129711428D02*
X120580000Y-129652380D01*
X120639047Y-129711428D01*
X120580000Y-129770476D01*
X120520952Y-129711428D01*
X120639047Y-129711428D01*
X120934285Y-130124761D02*
X120934285Y-130597142D01*
X120520952Y-130301904D02*
X121583809Y-130301904D01*
X121701904Y-130360952D01*
X121760952Y-130479047D01*
X121760952Y-130597142D01*
X121701904Y-131541904D02*
X121760952Y-131423809D01*
X121760952Y-131187619D01*
X121701904Y-131069523D01*
X121642857Y-131010476D01*
X121524761Y-130951428D01*
X121170476Y-130951428D01*
X121052380Y-131010476D01*
X120993333Y-131069523D01*
X120934285Y-131187619D01*
X120934285Y-131423809D01*
X120993333Y-131541904D01*
X121760952Y-132073333D02*
X120520952Y-132073333D01*
X121760952Y-132604761D02*
X121111428Y-132604761D01*
X120993333Y-132545714D01*
X120934285Y-132427619D01*
X120934285Y-132250476D01*
X120993333Y-132132380D01*
X121052380Y-132073333D01*
X121760952Y-133195238D02*
X120520952Y-133195238D01*
X120520952Y-133667619D01*
X120580000Y-133785714D01*
X120639047Y-133844761D01*
X120757142Y-133903809D01*
X120934285Y-133903809D01*
X121052380Y-133844761D01*
X121111428Y-133785714D01*
X121170476Y-133667619D01*
X121170476Y-133195238D01*
X121760952Y-134612380D02*
X121701904Y-134494285D01*
X121583809Y-134435238D01*
X120520952Y-134435238D01*
X121760952Y-135616190D02*
X121111428Y-135616190D01*
X120993333Y-135557142D01*
X120934285Y-135439047D01*
X120934285Y-135202857D01*
X120993333Y-135084761D01*
X121701904Y-135616190D02*
X121760952Y-135498095D01*
X121760952Y-135202857D01*
X121701904Y-135084761D01*
X121583809Y-135025714D01*
X121465714Y-135025714D01*
X121347619Y-135084761D01*
X121288571Y-135202857D01*
X121288571Y-135498095D01*
X121229523Y-135616190D01*
X120934285Y-136029523D02*
X120934285Y-136501904D01*
X120520952Y-136206666D02*
X121583809Y-136206666D01*
X121701904Y-136265714D01*
X121760952Y-136383809D01*
X121760952Y-136501904D01*
X121701904Y-137387619D02*
X121760952Y-137269523D01*
X121760952Y-137033333D01*
X121701904Y-136915238D01*
X121583809Y-136856190D01*
X121111428Y-136856190D01*
X120993333Y-136915238D01*
X120934285Y-137033333D01*
X120934285Y-137269523D01*
X120993333Y-137387619D01*
X121111428Y-137446666D01*
X121229523Y-137446666D01*
X121347619Y-136856190D01*
D13*
X114071428Y-104785714D02*
X105071428Y-104785714D01*
X109357142Y-104785714D02*
X109357142Y-109928571D01*
X114071428Y-109928571D02*
X105071428Y-109928571D01*
X111500000Y-113785714D02*
X111500000Y-118071428D01*
X114071428Y-112928571D02*
X105071428Y-115928571D01*
X114071428Y-118928571D01*
X113642857Y-121500000D02*
X114071428Y-122785714D01*
X114071428Y-124928571D01*
X113642857Y-125785714D01*
X113214285Y-126214285D01*
X112357142Y-126642857D01*
X111500000Y-126642857D01*
X110642857Y-126214285D01*
X110214285Y-125785714D01*
X109785714Y-124928571D01*
X109357142Y-123214285D01*
X108928571Y-122357142D01*
X108500000Y-121928571D01*
X107642857Y-121500000D01*
X106785714Y-121500000D01*
X105928571Y-121928571D01*
X105500000Y-122357142D01*
X105071428Y-123214285D01*
X105071428Y-125357142D01*
X105500000Y-126642857D01*
X114071428Y-130500000D02*
X105071428Y-130500000D01*
X105071428Y-133928571D01*
X105500000Y-134785714D01*
X105928571Y-135214285D01*
X106785714Y-135642857D01*
X108071428Y-135642857D01*
X108928571Y-135214285D01*
X109357142Y-134785714D01*
X109785714Y-133928571D01*
X109785714Y-130500000D01*
D14*
X119470238Y-104095238D02*
X116220238Y-104095238D01*
X117767857Y-104095238D02*
X117767857Y-105952380D01*
X119470238Y-105952380D02*
X116220238Y-105952380D01*
X118541666Y-107345238D02*
X118541666Y-108892857D01*
X119470238Y-107035714D02*
X116220238Y-108119047D01*
X119470238Y-109202380D01*
X119315476Y-110130952D02*
X119470238Y-110595238D01*
X119470238Y-111369047D01*
X119315476Y-111678571D01*
X119160714Y-111833333D01*
X118851190Y-111988095D01*
X118541666Y-111988095D01*
X118232142Y-111833333D01*
X118077380Y-111678571D01*
X117922619Y-111369047D01*
X117767857Y-110750000D01*
X117613095Y-110440476D01*
X117458333Y-110285714D01*
X117148809Y-110130952D01*
X116839285Y-110130952D01*
X116529761Y-110285714D01*
X116375000Y-110440476D01*
X116220238Y-110750000D01*
X116220238Y-111523809D01*
X116375000Y-111988095D01*
X117303571Y-113071428D02*
X119470238Y-113690476D01*
X117922619Y-114309523D01*
X119470238Y-114928571D01*
X117303571Y-115547619D01*
X119470238Y-116785714D02*
X117303571Y-116785714D01*
X116220238Y-116785714D02*
X116375000Y-116630952D01*
X116529761Y-116785714D01*
X116375000Y-116940476D01*
X116220238Y-116785714D01*
X116529761Y-116785714D01*
X117303571Y-117869047D02*
X117303571Y-119107142D01*
X116220238Y-118333333D02*
X119005952Y-118333333D01*
X119315476Y-118488095D01*
X119470238Y-118797619D01*
X119470238Y-119107142D01*
X119315476Y-121583333D02*
X119470238Y-121273809D01*
X119470238Y-120654761D01*
X119315476Y-120345238D01*
X119160714Y-120190476D01*
X118851190Y-120035714D01*
X117922619Y-120035714D01*
X117613095Y-120190476D01*
X117458333Y-120345238D01*
X117303571Y-120654761D01*
X117303571Y-121273809D01*
X117458333Y-121583333D01*
X119470238Y-122976190D02*
X116220238Y-122976190D01*
X119470238Y-124369047D02*
X117767857Y-124369047D01*
X117458333Y-124214285D01*
X117303571Y-123904761D01*
X117303571Y-123440476D01*
X117458333Y-123130952D01*
X117613095Y-122976190D01*
X119470238Y-125916666D02*
X116220238Y-125916666D01*
X116220238Y-127154761D01*
X116375000Y-127464285D01*
X116529761Y-127619047D01*
X116839285Y-127773809D01*
X117303571Y-127773809D01*
X117613095Y-127619047D01*
X117767857Y-127464285D01*
X117922619Y-127154761D01*
X117922619Y-125916666D01*
X119470238Y-129630952D02*
X119315476Y-129321428D01*
X119005952Y-129166666D01*
X116220238Y-129166666D01*
X119470238Y-132261904D02*
X117767857Y-132261904D01*
X117458333Y-132107142D01*
X117303571Y-131797619D01*
X117303571Y-131178571D01*
X117458333Y-130869047D01*
X119315476Y-132261904D02*
X119470238Y-131952380D01*
X119470238Y-131178571D01*
X119315476Y-130869047D01*
X119005952Y-130714285D01*
X118696428Y-130714285D01*
X118386904Y-130869047D01*
X118232142Y-131178571D01*
X118232142Y-131952380D01*
X118077380Y-132261904D01*
X117303571Y-133345238D02*
X117303571Y-134583333D01*
X116220238Y-133809523D02*
X119005952Y-133809523D01*
X119315476Y-133964285D01*
X119470238Y-134273809D01*
X119470238Y-134583333D01*
X119315476Y-136904761D02*
X119470238Y-136595238D01*
X119470238Y-135976190D01*
X119315476Y-135666666D01*
X119005952Y-135511904D01*
X117767857Y-135511904D01*
X117458333Y-135666666D01*
X117303571Y-135976190D01*
X117303571Y-136595238D01*
X117458333Y-136904761D01*
X117767857Y-137059523D01*
X118077380Y-137059523D01*
X118386904Y-135511904D01*
D10*
X153642857Y-116000000D02*
X153785714Y-115928571D01*
X154000000Y-115928571D01*
X154214285Y-116000000D01*
X154357142Y-116142857D01*
X154428571Y-116285714D01*
X154500000Y-116571428D01*
X154500000Y-116785714D01*
X154428571Y-117071428D01*
X154357142Y-117214285D01*
X154214285Y-117357142D01*
X154000000Y-117428571D01*
X153857142Y-117428571D01*
X153642857Y-117357142D01*
X153571428Y-117285714D01*
X153571428Y-116785714D01*
X153857142Y-116785714D01*
X152928571Y-117428571D02*
X152928571Y-115928571D01*
X152071428Y-117428571D01*
X152071428Y-115928571D01*
X151357142Y-117428571D02*
X151357142Y-115928571D01*
X151000000Y-115928571D01*
X150785714Y-116000000D01*
X150642857Y-116142857D01*
X150571428Y-116285714D01*
X150500000Y-116571428D01*
X150500000Y-116785714D01*
X150571428Y-117071428D01*
X150642857Y-117214285D01*
X150785714Y-117357142D01*
X151000000Y-117428571D01*
X151357142Y-117428571D01*
X154392857Y-113428571D02*
X153535714Y-113428571D01*
X153964285Y-114928571D02*
X153964285Y-113428571D01*
X153178571Y-113428571D02*
X152178571Y-114928571D01*
X152178571Y-113428571D02*
X153178571Y-114928571D01*
X153500000Y-112178571D02*
X154000000Y-111464285D01*
X154357142Y-112178571D02*
X154357142Y-110678571D01*
X153785714Y-110678571D01*
X153642857Y-110750000D01*
X153571428Y-110821428D01*
X153500000Y-110964285D01*
X153500000Y-111178571D01*
X153571428Y-111321428D01*
X153642857Y-111392857D01*
X153785714Y-111464285D01*
X154357142Y-111464285D01*
X153000000Y-110678571D02*
X152000000Y-112178571D01*
X152000000Y-110678571D02*
X153000000Y-112178571D01*
X154678571Y-109107142D02*
X153535714Y-109107142D01*
X154107142Y-109678571D02*
X154107142Y-108535714D01*
X152107142Y-108178571D02*
X152821428Y-108178571D01*
X152892857Y-108892857D01*
X152821428Y-108821428D01*
X152678571Y-108750000D01*
X152321428Y-108750000D01*
X152178571Y-108821428D01*
X152107142Y-108892857D01*
X152035714Y-109035714D01*
X152035714Y-109392857D01*
X152107142Y-109535714D01*
X152178571Y-109607142D01*
X152321428Y-109678571D01*
X152678571Y-109678571D01*
X152821428Y-109607142D01*
X152892857Y-109535714D01*
X151607142Y-108178571D02*
X151107142Y-109678571D01*
X150607142Y-108178571D01*
X152900000Y-135900000D02*
X152328571Y-135900000D01*
X153014285Y-136242857D02*
X152614285Y-135042857D01*
X152214285Y-136242857D01*
X151128571Y-136128571D02*
X151185714Y-136185714D01*
X151357142Y-136242857D01*
X151471428Y-136242857D01*
X151642857Y-136185714D01*
X151757142Y-136071428D01*
X151814285Y-135957142D01*
X151871428Y-135728571D01*
X151871428Y-135557142D01*
X151814285Y-135328571D01*
X151757142Y-135214285D01*
X151642857Y-135100000D01*
X151471428Y-135042857D01*
X151357142Y-135042857D01*
X151185714Y-135100000D01*
X151128571Y-135157142D01*
X149757142Y-134985714D02*
X150785714Y-136528571D01*
X148785714Y-136242857D02*
X149357142Y-136242857D01*
X149357142Y-135042857D01*
D11*
X143500000Y-133100000D02*
G75*
G03X144500000Y-134100000I1000000J0D01*
G01*
X144500000Y-132100000D02*
G75*
G03X143500000Y-133100000I0J-1000000D01*
G01*
X160000000Y-134100000D02*
X160000000Y-139000000D01*
X144500000Y-134100000D02*
X160000000Y-134100000D01*
X144500000Y-132100000D02*
X160000000Y-132100000D01*
X101000000Y-100000000D02*
X159000000Y-100000000D01*
X100000000Y-101000000D02*
X100000000Y-139000000D01*
D15*
G04 #@! TO.C,REF\002A\002A\002A*
G36*
X141060166Y-112729192D02*
X141103540Y-112816985D01*
X141179122Y-112925249D01*
X141261542Y-113004155D01*
X141365037Y-113058195D01*
X141503843Y-113091859D01*
X141692194Y-113109637D01*
X141944328Y-113116020D01*
X142052724Y-113116393D01*
X142290287Y-113115304D01*
X142460068Y-113110778D01*
X142577550Y-113100932D01*
X142658215Y-113083882D01*
X142717545Y-113057741D01*
X142758020Y-113030542D01*
X142930225Y-112856920D01*
X143033806Y-112652462D01*
X143064960Y-112431896D01*
X143019885Y-112209954D01*
X142988009Y-112139640D01*
X142900271Y-111971311D01*
X144275172Y-111971311D01*
X144211643Y-112094162D01*
X144162491Y-112256033D01*
X144149900Y-112454995D01*
X144173147Y-112653672D01*
X144225370Y-112803710D01*
X144324826Y-112928159D01*
X144467143Y-113034492D01*
X144481755Y-113042487D01*
X144550582Y-113076207D01*
X144619956Y-113100834D01*
X144703996Y-113117786D01*
X144816816Y-113128481D01*
X144972533Y-113134338D01*
X145185265Y-113136773D01*
X145424664Y-113137213D01*
X146188443Y-113137213D01*
X146188443Y-112679180D01*
X144780108Y-112679180D01*
X144672308Y-112551067D01*
X144586079Y-112417982D01*
X144570401Y-112291952D01*
X144610747Y-112165222D01*
X144650254Y-112097683D01*
X144706527Y-112047414D01*
X144791572Y-112011662D01*
X144917394Y-111987672D01*
X145095998Y-111972689D01*
X145339391Y-111963960D01*
X145501394Y-111960886D01*
X146167623Y-111950492D01*
X146180209Y-111731885D01*
X146192795Y-111513279D01*
X142058464Y-111513279D01*
X142058464Y-111971311D01*
X142288953Y-111982989D01*
X142448950Y-112022338D01*
X142548497Y-112095834D01*
X142597639Y-112209951D01*
X142607459Y-112325246D01*
X142596175Y-112455762D01*
X142551764Y-112542383D01*
X142493081Y-112596549D01*
X142429962Y-112639190D01*
X142359645Y-112664574D01*
X142261123Y-112675869D01*
X142113387Y-112676240D01*
X141989683Y-112672440D01*
X141803328Y-112663712D01*
X141680982Y-112650720D01*
X141603377Y-112628841D01*
X141551245Y-112593454D01*
X141521111Y-112560059D01*
X141455399Y-112420525D01*
X141444787Y-112255381D01*
X141467423Y-112160554D01*
X141547881Y-112066666D01*
X141704392Y-112004474D01*
X141935852Y-111974331D01*
X142058464Y-111971311D01*
X142058464Y-111513279D01*
X141025164Y-111513279D01*
X141025164Y-111742295D01*
X141030602Y-111879794D01*
X141049909Y-111950733D01*
X141087576Y-111971303D01*
X141088692Y-111971311D01*
X141125581Y-111980855D01*
X141121393Y-112022949D01*
X141080859Y-112106639D01*
X141018850Y-112301646D01*
X141012332Y-112521046D01*
X141060166Y-112729192D01*
X141060166Y-112729192D01*
G37*
X141060166Y-112729192D02*
X141103540Y-112816985D01*
X141179122Y-112925249D01*
X141261542Y-113004155D01*
X141365037Y-113058195D01*
X141503843Y-113091859D01*
X141692194Y-113109637D01*
X141944328Y-113116020D01*
X142052724Y-113116393D01*
X142290287Y-113115304D01*
X142460068Y-113110778D01*
X142577550Y-113100932D01*
X142658215Y-113083882D01*
X142717545Y-113057741D01*
X142758020Y-113030542D01*
X142930225Y-112856920D01*
X143033806Y-112652462D01*
X143064960Y-112431896D01*
X143019885Y-112209954D01*
X142988009Y-112139640D01*
X142900271Y-111971311D01*
X144275172Y-111971311D01*
X144211643Y-112094162D01*
X144162491Y-112256033D01*
X144149900Y-112454995D01*
X144173147Y-112653672D01*
X144225370Y-112803710D01*
X144324826Y-112928159D01*
X144467143Y-113034492D01*
X144481755Y-113042487D01*
X144550582Y-113076207D01*
X144619956Y-113100834D01*
X144703996Y-113117786D01*
X144816816Y-113128481D01*
X144972533Y-113134338D01*
X145185265Y-113136773D01*
X145424664Y-113137213D01*
X146188443Y-113137213D01*
X146188443Y-112679180D01*
X144780108Y-112679180D01*
X144672308Y-112551067D01*
X144586079Y-112417982D01*
X144570401Y-112291952D01*
X144610747Y-112165222D01*
X144650254Y-112097683D01*
X144706527Y-112047414D01*
X144791572Y-112011662D01*
X144917394Y-111987672D01*
X145095998Y-111972689D01*
X145339391Y-111963960D01*
X145501394Y-111960886D01*
X146167623Y-111950492D01*
X146180209Y-111731885D01*
X146192795Y-111513279D01*
X142058464Y-111513279D01*
X142058464Y-111971311D01*
X142288953Y-111982989D01*
X142448950Y-112022338D01*
X142548497Y-112095834D01*
X142597639Y-112209951D01*
X142607459Y-112325246D01*
X142596175Y-112455762D01*
X142551764Y-112542383D01*
X142493081Y-112596549D01*
X142429962Y-112639190D01*
X142359645Y-112664574D01*
X142261123Y-112675869D01*
X142113387Y-112676240D01*
X141989683Y-112672440D01*
X141803328Y-112663712D01*
X141680982Y-112650720D01*
X141603377Y-112628841D01*
X141551245Y-112593454D01*
X141521111Y-112560059D01*
X141455399Y-112420525D01*
X141444787Y-112255381D01*
X141467423Y-112160554D01*
X141547881Y-112066666D01*
X141704392Y-112004474D01*
X141935852Y-111974331D01*
X142058464Y-111971311D01*
X142058464Y-111513279D01*
X141025164Y-111513279D01*
X141025164Y-111742295D01*
X141030602Y-111879794D01*
X141049909Y-111950733D01*
X141087576Y-111971303D01*
X141088692Y-111971311D01*
X141125581Y-111980855D01*
X141121393Y-112022949D01*
X141080859Y-112106639D01*
X141018850Y-112301646D01*
X141012332Y-112521046D01*
X141060166Y-112729192D01*
G36*
X144164247Y-114466221D02*
X144216514Y-114662111D01*
X144311253Y-114811233D01*
X144435338Y-114916465D01*
X144488296Y-114949179D01*
X144543768Y-114973331D01*
X144614730Y-114990216D01*
X144714154Y-115001127D01*
X144855016Y-115007360D01*
X145050289Y-115010209D01*
X145312948Y-115010968D01*
X145382633Y-115010984D01*
X146188443Y-115010984D01*
X146188443Y-114811115D01*
X146179515Y-114683630D01*
X146156896Y-114589366D01*
X146142946Y-114565749D01*
X146118870Y-114501185D01*
X146142946Y-114435241D01*
X146173003Y-114326668D01*
X146185100Y-114168958D01*
X146179851Y-113994156D01*
X146157869Y-113834307D01*
X146129663Y-113740984D01*
X146013731Y-113560391D01*
X145852847Y-113447530D01*
X145638936Y-113396791D01*
X145633443Y-113396320D01*
X145538547Y-113400773D01*
X145538547Y-113803443D01*
X145646484Y-113838646D01*
X145707229Y-113895986D01*
X145753172Y-114011087D01*
X145771512Y-114163014D01*
X145762485Y-114317939D01*
X145726332Y-114442036D01*
X145703137Y-114476803D01*
X145595960Y-114537556D01*
X145474120Y-114552951D01*
X145314017Y-114552951D01*
X145314017Y-114322597D01*
X145330863Y-114103759D01*
X145378593Y-113937863D01*
X145452986Y-113834662D01*
X145538547Y-113803443D01*
X145538547Y-113400773D01*
X145399731Y-113407287D01*
X145214946Y-113484369D01*
X145075206Y-113629286D01*
X145062495Y-113649317D01*
X145021105Y-113735390D01*
X144996041Y-113841927D01*
X144983858Y-113990859D01*
X144981057Y-114167787D01*
X144980902Y-114552951D01*
X144819443Y-114552951D01*
X144694168Y-114536613D01*
X144610241Y-114494922D01*
X144605773Y-114490041D01*
X144569059Y-114397264D01*
X144554828Y-114257216D01*
X144561821Y-114102445D01*
X144588780Y-113965501D01*
X144629212Y-113884241D01*
X144661601Y-113840210D01*
X144667784Y-113793715D01*
X144641248Y-113729549D01*
X144575479Y-113632505D01*
X144463963Y-113487374D01*
X144453516Y-113474053D01*
X144414862Y-113480879D01*
X144350572Y-113537822D01*
X144279131Y-113624370D01*
X144219021Y-113720008D01*
X144204827Y-113750056D01*
X144176503Y-113859659D01*
X144156300Y-114020265D01*
X144148196Y-114199698D01*
X144148180Y-114208089D01*
X144164247Y-114466221D01*
X144164247Y-114466221D01*
G37*
X144164247Y-114466221D02*
X144216514Y-114662111D01*
X144311253Y-114811233D01*
X144435338Y-114916465D01*
X144488296Y-114949179D01*
X144543768Y-114973331D01*
X144614730Y-114990216D01*
X144714154Y-115001127D01*
X144855016Y-115007360D01*
X145050289Y-115010209D01*
X145312948Y-115010968D01*
X145382633Y-115010984D01*
X146188443Y-115010984D01*
X146188443Y-114811115D01*
X146179515Y-114683630D01*
X146156896Y-114589366D01*
X146142946Y-114565749D01*
X146118870Y-114501185D01*
X146142946Y-114435241D01*
X146173003Y-114326668D01*
X146185100Y-114168958D01*
X146179851Y-113994156D01*
X146157869Y-113834307D01*
X146129663Y-113740984D01*
X146013731Y-113560391D01*
X145852847Y-113447530D01*
X145638936Y-113396791D01*
X145633443Y-113396320D01*
X145538547Y-113400773D01*
X145538547Y-113803443D01*
X145646484Y-113838646D01*
X145707229Y-113895986D01*
X145753172Y-114011087D01*
X145771512Y-114163014D01*
X145762485Y-114317939D01*
X145726332Y-114442036D01*
X145703137Y-114476803D01*
X145595960Y-114537556D01*
X145474120Y-114552951D01*
X145314017Y-114552951D01*
X145314017Y-114322597D01*
X145330863Y-114103759D01*
X145378593Y-113937863D01*
X145452986Y-113834662D01*
X145538547Y-113803443D01*
X145538547Y-113400773D01*
X145399731Y-113407287D01*
X145214946Y-113484369D01*
X145075206Y-113629286D01*
X145062495Y-113649317D01*
X145021105Y-113735390D01*
X144996041Y-113841927D01*
X144983858Y-113990859D01*
X144981057Y-114167787D01*
X144980902Y-114552951D01*
X144819443Y-114552951D01*
X144694168Y-114536613D01*
X144610241Y-114494922D01*
X144605773Y-114490041D01*
X144569059Y-114397264D01*
X144554828Y-114257216D01*
X144561821Y-114102445D01*
X144588780Y-113965501D01*
X144629212Y-113884241D01*
X144661601Y-113840210D01*
X144667784Y-113793715D01*
X144641248Y-113729549D01*
X144575479Y-113632505D01*
X144463963Y-113487374D01*
X144453516Y-113474053D01*
X144414862Y-113480879D01*
X144350572Y-113537822D01*
X144279131Y-113624370D01*
X144219021Y-113720008D01*
X144204827Y-113750056D01*
X144176503Y-113859659D01*
X144156300Y-114020265D01*
X144148196Y-114199698D01*
X144148180Y-114208089D01*
X144164247Y-114466221D01*
G36*
X144152540Y-115760525D02*
X144171218Y-115822837D01*
X144212255Y-115842925D01*
X144230782Y-115843770D01*
X144282383Y-115847375D01*
X144290484Y-115872200D01*
X144255108Y-115939263D01*
X144230937Y-115979098D01*
X144179175Y-116104773D01*
X144153581Y-116254877D01*
X144151613Y-116412263D01*
X144170729Y-116559786D01*
X144208387Y-116680300D01*
X144262044Y-116756660D01*
X144329158Y-116771719D01*
X144347333Y-116764119D01*
X144422777Y-116708718D01*
X144515568Y-116622810D01*
X144530568Y-116607272D01*
X144599540Y-116525388D01*
X144621825Y-116454737D01*
X144606272Y-116355932D01*
X144595938Y-116316348D01*
X144571116Y-116193172D01*
X144582278Y-116106564D01*
X144621646Y-116033424D01*
X144674479Y-115966426D01*
X144740924Y-115917082D01*
X144833652Y-115882791D01*
X144965334Y-115860952D01*
X145148641Y-115848966D01*
X145396246Y-115844231D01*
X145545744Y-115843770D01*
X146188443Y-115843770D01*
X146188443Y-115427377D01*
X144148115Y-115427377D01*
X144148115Y-115635574D01*
X144152540Y-115760525D01*
X144152540Y-115760525D01*
G37*
X144152540Y-115760525D02*
X144171218Y-115822837D01*
X144212255Y-115842925D01*
X144230782Y-115843770D01*
X144282383Y-115847375D01*
X144290484Y-115872200D01*
X144255108Y-115939263D01*
X144230937Y-115979098D01*
X144179175Y-116104773D01*
X144153581Y-116254877D01*
X144151613Y-116412263D01*
X144170729Y-116559786D01*
X144208387Y-116680300D01*
X144262044Y-116756660D01*
X144329158Y-116771719D01*
X144347333Y-116764119D01*
X144422777Y-116708718D01*
X144515568Y-116622810D01*
X144530568Y-116607272D01*
X144599540Y-116525388D01*
X144621825Y-116454737D01*
X144606272Y-116355932D01*
X144595938Y-116316348D01*
X144571116Y-116193172D01*
X144582278Y-116106564D01*
X144621646Y-116033424D01*
X144674479Y-115966426D01*
X144740924Y-115917082D01*
X144833652Y-115882791D01*
X144965334Y-115860952D01*
X145148641Y-115848966D01*
X145396246Y-115844231D01*
X145545744Y-115843770D01*
X146188443Y-115843770D01*
X146188443Y-115427377D01*
X144148115Y-115427377D01*
X144148115Y-115635574D01*
X144152540Y-115760525D01*
G36*
X146188443Y-118383770D02*
X146188443Y-118154754D01*
X146184546Y-118021825D01*
X146168407Y-117952595D01*
X146133354Y-117927668D01*
X146109653Y-117925738D01*
X146062123Y-117921534D01*
X146053008Y-117895026D01*
X146082308Y-117825367D01*
X146109653Y-117771196D01*
X146174451Y-117563223D01*
X146178201Y-117337147D01*
X146129873Y-117153345D01*
X146013118Y-116982187D01*
X145840781Y-116851716D01*
X145637506Y-116780273D01*
X145626141Y-116778454D01*
X145502136Y-116767839D01*
X145324117Y-116762560D01*
X145189480Y-116762984D01*
X145189480Y-117217828D01*
X145368428Y-117228365D01*
X145515924Y-117252334D01*
X145599217Y-117284783D01*
X145713041Y-117407544D01*
X145753845Y-117553299D01*
X145720848Y-117703607D01*
X145622422Y-117832049D01*
X145556224Y-117880692D01*
X145477231Y-117909134D01*
X145361926Y-117922456D01*
X145188736Y-117925738D01*
X145017229Y-117919865D01*
X144866540Y-117904353D01*
X144765698Y-117882362D01*
X144756659Y-117878697D01*
X144649195Y-117790012D01*
X144590195Y-117660572D01*
X144580669Y-117515743D01*
X144621626Y-117380891D01*
X144714076Y-117281383D01*
X144732473Y-117271060D01*
X144844646Y-117238750D01*
X145005934Y-117221148D01*
X145189480Y-117217828D01*
X145189480Y-116762984D01*
X145121212Y-116763200D01*
X145012010Y-116766194D01*
X144741856Y-116786558D01*
X144539024Y-116828883D01*
X144389077Y-116899294D01*
X144277579Y-117003912D01*
X144212127Y-117105479D01*
X144166117Y-117247384D01*
X144150336Y-117423879D01*
X144163190Y-117604607D01*
X144203081Y-117759213D01*
X144250801Y-117840899D01*
X144327579Y-117925738D01*
X143356967Y-117925738D01*
X143356967Y-118383770D01*
X146188443Y-118383770D01*
X146188443Y-118383770D01*
G37*
X146188443Y-118383770D02*
X146188443Y-118154754D01*
X146184546Y-118021825D01*
X146168407Y-117952595D01*
X146133354Y-117927668D01*
X146109653Y-117925738D01*
X146062123Y-117921534D01*
X146053008Y-117895026D01*
X146082308Y-117825367D01*
X146109653Y-117771196D01*
X146174451Y-117563223D01*
X146178201Y-117337147D01*
X146129873Y-117153345D01*
X146013118Y-116982187D01*
X145840781Y-116851716D01*
X145637506Y-116780273D01*
X145626141Y-116778454D01*
X145502136Y-116767839D01*
X145324117Y-116762560D01*
X145189480Y-116762984D01*
X145189480Y-117217828D01*
X145368428Y-117228365D01*
X145515924Y-117252334D01*
X145599217Y-117284783D01*
X145713041Y-117407544D01*
X145753845Y-117553299D01*
X145720848Y-117703607D01*
X145622422Y-117832049D01*
X145556224Y-117880692D01*
X145477231Y-117909134D01*
X145361926Y-117922456D01*
X145188736Y-117925738D01*
X145017229Y-117919865D01*
X144866540Y-117904353D01*
X144765698Y-117882362D01*
X144756659Y-117878697D01*
X144649195Y-117790012D01*
X144590195Y-117660572D01*
X144580669Y-117515743D01*
X144621626Y-117380891D01*
X144714076Y-117281383D01*
X144732473Y-117271060D01*
X144844646Y-117238750D01*
X145005934Y-117221148D01*
X145189480Y-117217828D01*
X145189480Y-116762984D01*
X145121212Y-116763200D01*
X145012010Y-116766194D01*
X144741856Y-116786558D01*
X144539024Y-116828883D01*
X144389077Y-116899294D01*
X144277579Y-117003912D01*
X144212127Y-117105479D01*
X144166117Y-117247384D01*
X144150336Y-117423879D01*
X144163190Y-117604607D01*
X144203081Y-117759213D01*
X144250801Y-117840899D01*
X144327579Y-117925738D01*
X143356967Y-117925738D01*
X143356967Y-118383770D01*
X146188443Y-118383770D01*
G36*
X144168935Y-120146942D02*
X144814344Y-120362248D01*
X145459754Y-120577555D01*
X145230738Y-120645064D01*
X145089204Y-120685691D01*
X144897936Y-120739133D01*
X144687693Y-120796842D01*
X144574918Y-120827355D01*
X144148115Y-120942136D01*
X144148115Y-121415687D01*
X144595738Y-121274139D01*
X144815903Y-121204433D01*
X145081471Y-121120223D01*
X145358492Y-121032281D01*
X145605492Y-120953772D01*
X146167623Y-120774952D01*
X146180185Y-120581882D01*
X146192746Y-120388811D01*
X145847070Y-120284118D01*
X145632335Y-120219553D01*
X145395604Y-120149092D01*
X145186526Y-120087511D01*
X145178205Y-120085081D01*
X145036537Y-120039085D01*
X144939874Y-119998503D01*
X144903321Y-119970080D01*
X144907549Y-119964239D01*
X144964217Y-119943738D01*
X145085605Y-119904785D01*
X145256448Y-119852122D01*
X145461482Y-119790491D01*
X145574262Y-119757143D01*
X146188443Y-119576546D01*
X146188443Y-119193267D01*
X145220328Y-118886867D01*
X144948759Y-118800791D01*
X144702138Y-118722380D01*
X144492048Y-118655339D01*
X144330076Y-118603369D01*
X144227808Y-118570174D01*
X144197928Y-118560084D01*
X144167334Y-118568072D01*
X144153935Y-118630792D01*
X144155275Y-118761315D01*
X144156288Y-118781747D01*
X144168935Y-119023792D01*
X144751885Y-119182317D01*
X144964486Y-119240585D01*
X145151377Y-119292655D01*
X145296331Y-119333944D01*
X145383120Y-119359866D01*
X145397269Y-119364656D01*
X145380998Y-119384504D01*
X145296697Y-119424530D01*
X145155842Y-119480138D01*
X144969911Y-119546731D01*
X144801956Y-119603024D01*
X144144209Y-119817578D01*
X144168935Y-120146942D01*
X144168935Y-120146942D01*
G37*
X144168935Y-120146942D02*
X144814344Y-120362248D01*
X145459754Y-120577555D01*
X145230738Y-120645064D01*
X145089204Y-120685691D01*
X144897936Y-120739133D01*
X144687693Y-120796842D01*
X144574918Y-120827355D01*
X144148115Y-120942136D01*
X144148115Y-121415687D01*
X144595738Y-121274139D01*
X144815903Y-121204433D01*
X145081471Y-121120223D01*
X145358492Y-121032281D01*
X145605492Y-120953772D01*
X146167623Y-120774952D01*
X146180185Y-120581882D01*
X146192746Y-120388811D01*
X145847070Y-120284118D01*
X145632335Y-120219553D01*
X145395604Y-120149092D01*
X145186526Y-120087511D01*
X145178205Y-120085081D01*
X145036537Y-120039085D01*
X144939874Y-119998503D01*
X144903321Y-119970080D01*
X144907549Y-119964239D01*
X144964217Y-119943738D01*
X145085605Y-119904785D01*
X145256448Y-119852122D01*
X145461482Y-119790491D01*
X145574262Y-119757143D01*
X146188443Y-119576546D01*
X146188443Y-119193267D01*
X145220328Y-118886867D01*
X144948759Y-118800791D01*
X144702138Y-118722380D01*
X144492048Y-118655339D01*
X144330076Y-118603369D01*
X144227808Y-118570174D01*
X144197928Y-118560084D01*
X144167334Y-118568072D01*
X144153935Y-118630792D01*
X144155275Y-118761315D01*
X144156288Y-118781747D01*
X144168935Y-119023792D01*
X144751885Y-119182317D01*
X144964486Y-119240585D01*
X145151377Y-119292655D01*
X145296331Y-119333944D01*
X145383120Y-119359866D01*
X145397269Y-119364656D01*
X145380998Y-119384504D01*
X145296697Y-119424530D01*
X145155842Y-119480138D01*
X144969911Y-119546731D01*
X144801956Y-119603024D01*
X144144209Y-119817578D01*
X144168935Y-120146942D01*
G36*
X144160480Y-122488670D02*
X144203109Y-122664179D01*
X144225693Y-122714912D01*
X144284847Y-122813254D01*
X144351472Y-122888727D01*
X144437135Y-122944571D01*
X144553405Y-122984026D01*
X144711848Y-123010332D01*
X144924034Y-123026729D01*
X145201529Y-123036457D01*
X145386885Y-123040151D01*
X146188443Y-123053745D01*
X146188443Y-122821544D01*
X146182536Y-122680677D01*
X146162350Y-122608102D01*
X146128453Y-122589344D01*
X146091799Y-122579441D01*
X146098807Y-122535166D01*
X146128197Y-122474836D01*
X146173246Y-122323803D01*
X146185385Y-122129693D01*
X146165529Y-121925531D01*
X146114592Y-121744340D01*
X146107522Y-121728089D01*
X145991188Y-121562491D01*
X145829467Y-121453324D01*
X145640430Y-121403091D01*
X145572515Y-121406928D01*
X145572515Y-121816763D01*
X145663914Y-121852875D01*
X145729411Y-121959942D01*
X145764563Y-122132684D01*
X145769231Y-122225000D01*
X145757282Y-122378850D01*
X145710844Y-122481115D01*
X145688771Y-122506066D01*
X145568681Y-122573661D01*
X145459754Y-122589344D01*
X145314017Y-122589344D01*
X145314017Y-122386352D01*
X145326043Y-122150387D01*
X145363871Y-121984881D01*
X145430121Y-121880305D01*
X145459656Y-121856891D01*
X145572515Y-121816763D01*
X145572515Y-121406928D01*
X145442148Y-121414295D01*
X145252692Y-121489440D01*
X145124656Y-121591968D01*
X145069302Y-121654065D01*
X145032924Y-121714855D01*
X145010744Y-121793952D01*
X144997982Y-121910971D01*
X144989857Y-122085527D01*
X144987521Y-122154763D01*
X144973321Y-122589344D01*
X144841784Y-122588707D01*
X144703519Y-122571876D01*
X144619917Y-122511026D01*
X144566507Y-122388095D01*
X144565555Y-122384797D01*
X144544555Y-122210504D01*
X144571985Y-122039952D01*
X144638689Y-121913200D01*
X144671625Y-121862342D01*
X144667068Y-121807565D01*
X144619349Y-121723272D01*
X144585671Y-121673773D01*
X144513716Y-121576955D01*
X144459779Y-121516982D01*
X144444337Y-121507359D01*
X144364424Y-121546985D01*
X144268989Y-121664064D01*
X144236789Y-121714918D01*
X144181332Y-121861113D01*
X144149913Y-122058137D01*
X144142855Y-122276989D01*
X144160480Y-122488670D01*
X144160480Y-122488670D01*
G37*
X144160480Y-122488670D02*
X144203109Y-122664179D01*
X144225693Y-122714912D01*
X144284847Y-122813254D01*
X144351472Y-122888727D01*
X144437135Y-122944571D01*
X144553405Y-122984026D01*
X144711848Y-123010332D01*
X144924034Y-123026729D01*
X145201529Y-123036457D01*
X145386885Y-123040151D01*
X146188443Y-123053745D01*
X146188443Y-122821544D01*
X146182536Y-122680677D01*
X146162350Y-122608102D01*
X146128453Y-122589344D01*
X146091799Y-122579441D01*
X146098807Y-122535166D01*
X146128197Y-122474836D01*
X146173246Y-122323803D01*
X146185385Y-122129693D01*
X146165529Y-121925531D01*
X146114592Y-121744340D01*
X146107522Y-121728089D01*
X145991188Y-121562491D01*
X145829467Y-121453324D01*
X145640430Y-121403091D01*
X145572515Y-121406928D01*
X145572515Y-121816763D01*
X145663914Y-121852875D01*
X145729411Y-121959942D01*
X145764563Y-122132684D01*
X145769231Y-122225000D01*
X145757282Y-122378850D01*
X145710844Y-122481115D01*
X145688771Y-122506066D01*
X145568681Y-122573661D01*
X145459754Y-122589344D01*
X145314017Y-122589344D01*
X145314017Y-122386352D01*
X145326043Y-122150387D01*
X145363871Y-121984881D01*
X145430121Y-121880305D01*
X145459656Y-121856891D01*
X145572515Y-121816763D01*
X145572515Y-121406928D01*
X145442148Y-121414295D01*
X145252692Y-121489440D01*
X145124656Y-121591968D01*
X145069302Y-121654065D01*
X145032924Y-121714855D01*
X145010744Y-121793952D01*
X144997982Y-121910971D01*
X144989857Y-122085527D01*
X144987521Y-122154763D01*
X144973321Y-122589344D01*
X144841784Y-122588707D01*
X144703519Y-122571876D01*
X144619917Y-122511026D01*
X144566507Y-122388095D01*
X144565555Y-122384797D01*
X144544555Y-122210504D01*
X144571985Y-122039952D01*
X144638689Y-121913200D01*
X144671625Y-121862342D01*
X144667068Y-121807565D01*
X144619349Y-121723272D01*
X144585671Y-121673773D01*
X144513716Y-121576955D01*
X144459779Y-121516982D01*
X144444337Y-121507359D01*
X144364424Y-121546985D01*
X144268989Y-121664064D01*
X144236789Y-121714918D01*
X144181332Y-121861113D01*
X144149913Y-122058137D01*
X144142855Y-122276989D01*
X144160480Y-122488670D01*
G36*
X144147460Y-124465107D02*
X144179017Y-124625182D01*
X144225743Y-124716312D01*
X144303370Y-124812179D01*
X144475579Y-124675787D01*
X144579867Y-124591694D01*
X144630746Y-124534592D01*
X144638519Y-124477844D01*
X144613488Y-124394811D01*
X144599327Y-124355833D01*
X144578433Y-124196926D01*
X144623220Y-124051399D01*
X144724399Y-123944560D01*
X144756659Y-123927205D01*
X144842115Y-123908303D01*
X144999606Y-123893716D01*
X145217969Y-123884126D01*
X145486038Y-123880219D01*
X145524172Y-123880164D01*
X146188443Y-123880164D01*
X146188443Y-123422131D01*
X144148115Y-123422131D01*
X144148115Y-123651148D01*
X144151563Y-123783199D01*
X144166907Y-123851992D01*
X144201648Y-123877430D01*
X144234416Y-123880164D01*
X144320717Y-123880164D01*
X144234416Y-123989878D01*
X144175538Y-124115680D01*
X144146426Y-124284681D01*
X144147460Y-124465107D01*
X144147460Y-124465107D01*
G37*
X144147460Y-124465107D02*
X144179017Y-124625182D01*
X144225743Y-124716312D01*
X144303370Y-124812179D01*
X144475579Y-124675787D01*
X144579867Y-124591694D01*
X144630746Y-124534592D01*
X144638519Y-124477844D01*
X144613488Y-124394811D01*
X144599327Y-124355833D01*
X144578433Y-124196926D01*
X144623220Y-124051399D01*
X144724399Y-123944560D01*
X144756659Y-123927205D01*
X144842115Y-123908303D01*
X144999606Y-123893716D01*
X145217969Y-123884126D01*
X145486038Y-123880219D01*
X145524172Y-123880164D01*
X146188443Y-123880164D01*
X146188443Y-123422131D01*
X144148115Y-123422131D01*
X144148115Y-123651148D01*
X144151563Y-123783199D01*
X144166907Y-123851992D01*
X144201648Y-123877430D01*
X144234416Y-123880164D01*
X144320717Y-123880164D01*
X144234416Y-123989878D01*
X144175538Y-124115680D01*
X144146426Y-124284681D01*
X144147460Y-124465107D01*
G36*
X144158999Y-125780842D02*
X144210746Y-125979876D01*
X144317544Y-126146561D01*
X144397326Y-126227269D01*
X144585931Y-126359568D01*
X144804720Y-126435390D01*
X145073668Y-126461438D01*
X145095410Y-126461571D01*
X145314017Y-126461803D01*
X145314017Y-125203595D01*
X145428525Y-125230415D01*
X145532232Y-125278841D01*
X145640290Y-125363596D01*
X145657541Y-125381323D01*
X145750904Y-125533680D01*
X145766738Y-125707424D01*
X145705313Y-125907411D01*
X145688771Y-125941311D01*
X145638484Y-126045288D01*
X145609834Y-126114931D01*
X145607184Y-126127083D01*
X145632913Y-126169501D01*
X145695861Y-126250399D01*
X145730259Y-126291465D01*
X145809276Y-126376560D01*
X145861451Y-126404503D01*
X145909446Y-126385110D01*
X145922570Y-126374743D01*
X145980008Y-126304531D01*
X146049813Y-126188674D01*
X146090564Y-126107869D01*
X146162362Y-125878501D01*
X146185625Y-125624564D01*
X146158059Y-125384074D01*
X146138321Y-125316721D01*
X146026612Y-125108262D01*
X145854721Y-124953746D01*
X145620979Y-124852278D01*
X145323716Y-124802965D01*
X145168279Y-124797551D01*
X144941973Y-124813359D01*
X144941973Y-125212623D01*
X144958702Y-125251240D01*
X144971829Y-125355042D01*
X144979575Y-125505956D01*
X144980902Y-125608197D01*
X144979623Y-125792101D01*
X144973638Y-125908174D01*
X144959724Y-125971852D01*
X144934655Y-125998567D01*
X144898280Y-126003770D01*
X144786229Y-125968073D01*
X144675488Y-125878196D01*
X144590489Y-125759966D01*
X144555718Y-125641690D01*
X144586563Y-125481044D01*
X144675732Y-125341978D01*
X144804263Y-125245557D01*
X144941973Y-125212623D01*
X144941973Y-124813359D01*
X144838733Y-124820572D01*
X144576175Y-124891624D01*
X144378525Y-125012210D01*
X144243702Y-125183834D01*
X144169626Y-125407998D01*
X144155360Y-125529438D01*
X144158999Y-125780842D01*
X144158999Y-125780842D01*
G37*
X144158999Y-125780842D02*
X144210746Y-125979876D01*
X144317544Y-126146561D01*
X144397326Y-126227269D01*
X144585931Y-126359568D01*
X144804720Y-126435390D01*
X145073668Y-126461438D01*
X145095410Y-126461571D01*
X145314017Y-126461803D01*
X145314017Y-125203595D01*
X145428525Y-125230415D01*
X145532232Y-125278841D01*
X145640290Y-125363596D01*
X145657541Y-125381323D01*
X145750904Y-125533680D01*
X145766738Y-125707424D01*
X145705313Y-125907411D01*
X145688771Y-125941311D01*
X145638484Y-126045288D01*
X145609834Y-126114931D01*
X145607184Y-126127083D01*
X145632913Y-126169501D01*
X145695861Y-126250399D01*
X145730259Y-126291465D01*
X145809276Y-126376560D01*
X145861451Y-126404503D01*
X145909446Y-126385110D01*
X145922570Y-126374743D01*
X145980008Y-126304531D01*
X146049813Y-126188674D01*
X146090564Y-126107869D01*
X146162362Y-125878501D01*
X146185625Y-125624564D01*
X146158059Y-125384074D01*
X146138321Y-125316721D01*
X146026612Y-125108262D01*
X145854721Y-124953746D01*
X145620979Y-124852278D01*
X145323716Y-124802965D01*
X145168279Y-124797551D01*
X144941973Y-124813359D01*
X144941973Y-125212623D01*
X144958702Y-125251240D01*
X144971829Y-125355042D01*
X144979575Y-125505956D01*
X144980902Y-125608197D01*
X144979623Y-125792101D01*
X144973638Y-125908174D01*
X144959724Y-125971852D01*
X144934655Y-125998567D01*
X144898280Y-126003770D01*
X144786229Y-125968073D01*
X144675488Y-125878196D01*
X144590489Y-125759966D01*
X144555718Y-125641690D01*
X144586563Y-125481044D01*
X144675732Y-125341978D01*
X144804263Y-125245557D01*
X144941973Y-125212623D01*
X144941973Y-124813359D01*
X144838733Y-124820572D01*
X144576175Y-124891624D01*
X144378525Y-125012210D01*
X144243702Y-125183834D01*
X144169626Y-125407998D01*
X144155360Y-125529438D01*
X144158999Y-125780842D01*
G36*
X141046802Y-110644610D02*
X141143108Y-110862447D01*
X141303919Y-111027816D01*
X141529482Y-111140957D01*
X141820042Y-111202112D01*
X141865408Y-111206495D01*
X142185256Y-111209930D01*
X142465614Y-111165398D01*
X142692847Y-111075609D01*
X142765941Y-111027529D01*
X142920643Y-110860055D01*
X143020838Y-110646768D01*
X143062418Y-110408154D01*
X143041272Y-110164697D01*
X142976145Y-109979630D01*
X142866393Y-109820479D01*
X142722496Y-109690404D01*
X142719130Y-109688154D01*
X142630314Y-109635330D01*
X142541005Y-109601001D01*
X142428294Y-109580212D01*
X142269273Y-109568009D01*
X142138868Y-109562633D01*
X142020611Y-109560395D01*
X142020611Y-109976706D01*
X142138335Y-109980775D01*
X142295049Y-109995545D01*
X142395621Y-110021602D01*
X142467173Y-110068593D01*
X142508971Y-110112603D01*
X142596484Y-110268623D01*
X142608179Y-110431869D01*
X142545212Y-110583904D01*
X142474653Y-110659920D01*
X142403550Y-110714697D01*
X142335512Y-110746737D01*
X142246967Y-110760800D01*
X142114339Y-110761642D01*
X141992195Y-110757309D01*
X141817710Y-110747989D01*
X141704538Y-110733212D01*
X141630721Y-110706580D01*
X141574298Y-110661691D01*
X141542050Y-110626120D01*
X141457340Y-110477329D01*
X141453117Y-110316813D01*
X141503292Y-110182220D01*
X141608075Y-110067400D01*
X141780198Y-109998996D01*
X142020611Y-109976706D01*
X142020611Y-109560395D01*
X141879548Y-109557724D01*
X141685610Y-109566107D01*
X141539745Y-109591228D01*
X141424641Y-109636532D01*
X141322986Y-109705464D01*
X141292802Y-109731022D01*
X141142412Y-109890825D01*
X141054566Y-110062231D01*
X141017762Y-110271849D01*
X141014754Y-110374064D01*
X141046802Y-110644610D01*
X141046802Y-110644610D01*
G37*
X141046802Y-110644610D02*
X141143108Y-110862447D01*
X141303919Y-111027816D01*
X141529482Y-111140957D01*
X141820042Y-111202112D01*
X141865408Y-111206495D01*
X142185256Y-111209930D01*
X142465614Y-111165398D01*
X142692847Y-111075609D01*
X142765941Y-111027529D01*
X142920643Y-110860055D01*
X143020838Y-110646768D01*
X143062418Y-110408154D01*
X143041272Y-110164697D01*
X142976145Y-109979630D01*
X142866393Y-109820479D01*
X142722496Y-109690404D01*
X142719130Y-109688154D01*
X142630314Y-109635330D01*
X142541005Y-109601001D01*
X142428294Y-109580212D01*
X142269273Y-109568009D01*
X142138868Y-109562633D01*
X142020611Y-109560395D01*
X142020611Y-109976706D01*
X142138335Y-109980775D01*
X142295049Y-109995545D01*
X142395621Y-110021602D01*
X142467173Y-110068593D01*
X142508971Y-110112603D01*
X142596484Y-110268623D01*
X142608179Y-110431869D01*
X142545212Y-110583904D01*
X142474653Y-110659920D01*
X142403550Y-110714697D01*
X142335512Y-110746737D01*
X142246967Y-110760800D01*
X142114339Y-110761642D01*
X141992195Y-110757309D01*
X141817710Y-110747989D01*
X141704538Y-110733212D01*
X141630721Y-110706580D01*
X141574298Y-110661691D01*
X141542050Y-110626120D01*
X141457340Y-110477329D01*
X141453117Y-110316813D01*
X141503292Y-110182220D01*
X141608075Y-110067400D01*
X141780198Y-109998996D01*
X142020611Y-109976706D01*
X142020611Y-109560395D01*
X141879548Y-109557724D01*
X141685610Y-109566107D01*
X141539745Y-109591228D01*
X141424641Y-109636532D01*
X141322986Y-109705464D01*
X141292802Y-109731022D01*
X141142412Y-109890825D01*
X141054566Y-110062231D01*
X141017762Y-110271849D01*
X141014754Y-110374064D01*
X141046802Y-110644610D01*
G36*
X141071526Y-114557325D02*
X141091061Y-114598819D01*
X141196263Y-114742434D01*
X141349793Y-114878236D01*
X141518845Y-114979638D01*
X141596567Y-115008480D01*
X141735398Y-115034794D01*
X141903177Y-115050485D01*
X141972459Y-115052391D01*
X142191066Y-115052623D01*
X142191066Y-113794415D01*
X142305574Y-113821234D01*
X142441004Y-113887066D01*
X142558046Y-114002161D01*
X142633442Y-114139087D01*
X142649098Y-114226342D01*
X142630099Y-114344672D01*
X142582446Y-114485851D01*
X142560521Y-114533811D01*
X142471944Y-114711171D01*
X142587391Y-114862530D01*
X142665474Y-114949869D01*
X142729922Y-114996342D01*
X142748837Y-114998695D01*
X142794681Y-114957178D01*
X142864349Y-114866190D01*
X142918700Y-114783605D01*
X143016405Y-114560751D01*
X143060628Y-114310913D01*
X143049130Y-114063290D01*
X142989029Y-113865902D01*
X142860284Y-113662424D01*
X142690774Y-113517821D01*
X142471462Y-113427361D01*
X142193309Y-113386311D01*
X142066034Y-113382671D01*
X141774375Y-113397239D01*
X141765891Y-113399028D01*
X141765891Y-113815941D01*
X141793242Y-113827423D01*
X141808324Y-113874616D01*
X141814788Y-113971951D01*
X141816285Y-114133864D01*
X141816312Y-114196210D01*
X141814052Y-114385897D01*
X141805844Y-114506189D01*
X141789550Y-114570884D01*
X141763027Y-114593780D01*
X141754510Y-114594590D01*
X141686825Y-114568460D01*
X141592005Y-114503063D01*
X141558805Y-114474948D01*
X141464906Y-114370574D01*
X141427988Y-114261775D01*
X141424902Y-114203157D01*
X141463493Y-114044574D01*
X141567155Y-113911587D01*
X141717717Y-113827228D01*
X141722623Y-113825733D01*
X141765891Y-113815941D01*
X141765891Y-113399028D01*
X141544722Y-113445684D01*
X141360983Y-113532955D01*
X141230557Y-113639689D01*
X141089131Y-113837020D01*
X141013556Y-114068985D01*
X141006724Y-114315712D01*
X141071526Y-114557325D01*
X141071526Y-114557325D01*
G37*
X141071526Y-114557325D02*
X141091061Y-114598819D01*
X141196263Y-114742434D01*
X141349793Y-114878236D01*
X141518845Y-114979638D01*
X141596567Y-115008480D01*
X141735398Y-115034794D01*
X141903177Y-115050485D01*
X141972459Y-115052391D01*
X142191066Y-115052623D01*
X142191066Y-113794415D01*
X142305574Y-113821234D01*
X142441004Y-113887066D01*
X142558046Y-114002161D01*
X142633442Y-114139087D01*
X142649098Y-114226342D01*
X142630099Y-114344672D01*
X142582446Y-114485851D01*
X142560521Y-114533811D01*
X142471944Y-114711171D01*
X142587391Y-114862530D01*
X142665474Y-114949869D01*
X142729922Y-114996342D01*
X142748837Y-114998695D01*
X142794681Y-114957178D01*
X142864349Y-114866190D01*
X142918700Y-114783605D01*
X143016405Y-114560751D01*
X143060628Y-114310913D01*
X143049130Y-114063290D01*
X142989029Y-113865902D01*
X142860284Y-113662424D01*
X142690774Y-113517821D01*
X142471462Y-113427361D01*
X142193309Y-113386311D01*
X142066034Y-113382671D01*
X141774375Y-113397239D01*
X141765891Y-113399028D01*
X141765891Y-113815941D01*
X141793242Y-113827423D01*
X141808324Y-113874616D01*
X141814788Y-113971951D01*
X141816285Y-114133864D01*
X141816312Y-114196210D01*
X141814052Y-114385897D01*
X141805844Y-114506189D01*
X141789550Y-114570884D01*
X141763027Y-114593780D01*
X141754510Y-114594590D01*
X141686825Y-114568460D01*
X141592005Y-114503063D01*
X141558805Y-114474948D01*
X141464906Y-114370574D01*
X141427988Y-114261775D01*
X141424902Y-114203157D01*
X141463493Y-114044574D01*
X141567155Y-113911587D01*
X141717717Y-113827228D01*
X141722623Y-113825733D01*
X141765891Y-113815941D01*
X141765891Y-113399028D01*
X141544722Y-113445684D01*
X141360983Y-113532955D01*
X141230557Y-113639689D01*
X141089131Y-113837020D01*
X141013556Y-114068985D01*
X141006724Y-114315712D01*
X141071526Y-114557325D01*
G36*
X141018003Y-119096418D02*
X141047907Y-119254100D01*
X141110452Y-119417685D01*
X141118426Y-119435164D01*
X141183656Y-119559217D01*
X141244274Y-119645129D01*
X141283106Y-119672898D01*
X141346437Y-119646453D01*
X141439881Y-119582220D01*
X141474762Y-119553708D01*
X141612066Y-119436211D01*
X141522691Y-119284732D01*
X141463152Y-119140570D01*
X141431326Y-118974000D01*
X141429316Y-118814262D01*
X141459221Y-118690594D01*
X141477886Y-118660916D01*
X141563466Y-118604398D01*
X141662049Y-118597529D01*
X141739062Y-118639820D01*
X141753998Y-118664836D01*
X141772547Y-118739796D01*
X141794348Y-118871561D01*
X141815180Y-119033991D01*
X141818447Y-119063956D01*
X141863575Y-119324840D01*
X141940230Y-119514055D01*
X142055491Y-119639543D01*
X142216435Y-119709243D01*
X142413015Y-119730956D01*
X142636473Y-119700961D01*
X142811949Y-119603559D01*
X142939758Y-119438361D01*
X143020218Y-119204977D01*
X143051962Y-118945902D01*
X143051580Y-118734633D01*
X143022749Y-118563265D01*
X142982944Y-118446230D01*
X142913587Y-118298350D01*
X142833097Y-118161687D01*
X142797670Y-118113115D01*
X142695705Y-117988197D01*
X142390813Y-118289509D01*
X142504165Y-118460796D01*
X142589300Y-118632594D01*
X142633830Y-118816048D01*
X142638528Y-118992397D01*
X142604170Y-119142881D01*
X142531529Y-119248740D01*
X142470238Y-119282921D01*
X142371941Y-119277794D01*
X142296773Y-119192857D01*
X142244866Y-119028343D01*
X142220875Y-118848101D01*
X142175104Y-118570709D01*
X142088748Y-118364635D01*
X141959280Y-118227122D01*
X141784172Y-118155413D01*
X141576565Y-118145479D01*
X141359714Y-118194548D01*
X141195805Y-118306420D01*
X141084088Y-118482097D01*
X141023814Y-118722581D01*
X141011999Y-118900743D01*
X141018003Y-119096418D01*
X141018003Y-119096418D01*
G37*
X141018003Y-119096418D02*
X141047907Y-119254100D01*
X141110452Y-119417685D01*
X141118426Y-119435164D01*
X141183656Y-119559217D01*
X141244274Y-119645129D01*
X141283106Y-119672898D01*
X141346437Y-119646453D01*
X141439881Y-119582220D01*
X141474762Y-119553708D01*
X141612066Y-119436211D01*
X141522691Y-119284732D01*
X141463152Y-119140570D01*
X141431326Y-118974000D01*
X141429316Y-118814262D01*
X141459221Y-118690594D01*
X141477886Y-118660916D01*
X141563466Y-118604398D01*
X141662049Y-118597529D01*
X141739062Y-118639820D01*
X141753998Y-118664836D01*
X141772547Y-118739796D01*
X141794348Y-118871561D01*
X141815180Y-119033991D01*
X141818447Y-119063956D01*
X141863575Y-119324840D01*
X141940230Y-119514055D01*
X142055491Y-119639543D01*
X142216435Y-119709243D01*
X142413015Y-119730956D01*
X142636473Y-119700961D01*
X142811949Y-119603559D01*
X142939758Y-119438361D01*
X143020218Y-119204977D01*
X143051962Y-118945902D01*
X143051580Y-118734633D01*
X143022749Y-118563265D01*
X142982944Y-118446230D01*
X142913587Y-118298350D01*
X142833097Y-118161687D01*
X142797670Y-118113115D01*
X142695705Y-117988197D01*
X142390813Y-118289509D01*
X142504165Y-118460796D01*
X142589300Y-118632594D01*
X142633830Y-118816048D01*
X142638528Y-118992397D01*
X142604170Y-119142881D01*
X142531529Y-119248740D01*
X142470238Y-119282921D01*
X142371941Y-119277794D01*
X142296773Y-119192857D01*
X142244866Y-119028343D01*
X142220875Y-118848101D01*
X142175104Y-118570709D01*
X142088748Y-118364635D01*
X141959280Y-118227122D01*
X141784172Y-118155413D01*
X141576565Y-118145479D01*
X141359714Y-118194548D01*
X141195805Y-118306420D01*
X141084088Y-118482097D01*
X141023814Y-118722581D01*
X141011999Y-118900743D01*
X141018003Y-119096418D01*
G36*
X141049805Y-121072521D02*
X141164505Y-121283136D01*
X141345574Y-121447915D01*
X141492838Y-121525554D01*
X141622907Y-121558886D01*
X141808333Y-121580483D01*
X142021939Y-121589739D01*
X142236550Y-121586045D01*
X142424991Y-121568794D01*
X142525637Y-121548643D01*
X142663323Y-121480667D01*
X142809566Y-121362942D01*
X142937452Y-121221065D01*
X143020063Y-121080632D01*
X143021373Y-121077207D01*
X143057472Y-120902945D01*
X143058365Y-120696427D01*
X143025501Y-120500174D01*
X142999161Y-120424396D01*
X142888484Y-120229221D01*
X142743478Y-120089438D01*
X142551503Y-119997599D01*
X142299920Y-119946254D01*
X142168142Y-119934637D01*
X142002553Y-119936119D01*
X142002553Y-120382459D01*
X142244177Y-120397494D01*
X142428303Y-120440772D01*
X142545949Y-120509551D01*
X142579590Y-120558550D01*
X142603050Y-120684093D01*
X142596104Y-120833318D01*
X142562345Y-120962333D01*
X142543772Y-120996166D01*
X142435599Y-121085428D01*
X142270051Y-121144345D01*
X142068581Y-121169424D01*
X141852646Y-121157174D01*
X141722690Y-121129796D01*
X141572191Y-121051191D01*
X141478114Y-120927104D01*
X141445587Y-120777661D01*
X141479738Y-120622987D01*
X141563273Y-120504174D01*
X141632193Y-120441735D01*
X141700126Y-120405293D01*
X141792064Y-120387923D01*
X141932999Y-120382699D01*
X142002553Y-120382459D01*
X142002553Y-119936119D01*
X141816495Y-119937785D01*
X141528134Y-119995056D01*
X141303049Y-120106457D01*
X141141230Y-120271993D01*
X141042666Y-120491670D01*
X141031236Y-120538842D01*
X141004406Y-120822336D01*
X141049805Y-121072521D01*
X141049805Y-121072521D01*
G37*
X141049805Y-121072521D02*
X141164505Y-121283136D01*
X141345574Y-121447915D01*
X141492838Y-121525554D01*
X141622907Y-121558886D01*
X141808333Y-121580483D01*
X142021939Y-121589739D01*
X142236550Y-121586045D01*
X142424991Y-121568794D01*
X142525637Y-121548643D01*
X142663323Y-121480667D01*
X142809566Y-121362942D01*
X142937452Y-121221065D01*
X143020063Y-121080632D01*
X143021373Y-121077207D01*
X143057472Y-120902945D01*
X143058365Y-120696427D01*
X143025501Y-120500174D01*
X142999161Y-120424396D01*
X142888484Y-120229221D01*
X142743478Y-120089438D01*
X142551503Y-119997599D01*
X142299920Y-119946254D01*
X142168142Y-119934637D01*
X142002553Y-119936119D01*
X142002553Y-120382459D01*
X142244177Y-120397494D01*
X142428303Y-120440772D01*
X142545949Y-120509551D01*
X142579590Y-120558550D01*
X142603050Y-120684093D01*
X142596104Y-120833318D01*
X142562345Y-120962333D01*
X142543772Y-120996166D01*
X142435599Y-121085428D01*
X142270051Y-121144345D01*
X142068581Y-121169424D01*
X141852646Y-121157174D01*
X141722690Y-121129796D01*
X141572191Y-121051191D01*
X141478114Y-120927104D01*
X141445587Y-120777661D01*
X141479738Y-120622987D01*
X141563273Y-120504174D01*
X141632193Y-120441735D01*
X141700126Y-120405293D01*
X141792064Y-120387923D01*
X141932999Y-120382699D01*
X142002553Y-120382459D01*
X142002553Y-119936119D01*
X141816495Y-119937785D01*
X141528134Y-119995056D01*
X141303049Y-120106457D01*
X141141230Y-120271993D01*
X141042666Y-120491670D01*
X141031236Y-120538842D01*
X141004406Y-120822336D01*
X141049805Y-121072521D01*
G36*
X141673311Y-122339508D02*
X141978698Y-122343444D01*
X142210660Y-122357823D01*
X142378786Y-122386504D01*
X142492671Y-122433348D01*
X142561905Y-122502211D01*
X142596080Y-122596954D01*
X142604811Y-122714262D01*
X142595028Y-122837123D01*
X142559287Y-122930444D01*
X142487995Y-122998084D01*
X142371561Y-123043901D01*
X142200391Y-123071755D01*
X141964896Y-123085504D01*
X141673311Y-123089016D01*
X141025164Y-123089016D01*
X141025164Y-123547049D01*
X143023853Y-123547049D01*
X143023853Y-123318033D01*
X143018258Y-123179971D01*
X142998611Y-123108878D01*
X142961313Y-123089016D01*
X142928094Y-123077054D01*
X142935121Y-123029447D01*
X142982132Y-122933485D01*
X143054654Y-122713548D01*
X143049516Y-122480274D01*
X142970766Y-122256755D01*
X142908558Y-122150313D01*
X142841204Y-122069122D01*
X142756928Y-122009808D01*
X142643957Y-121968996D01*
X142490515Y-121943312D01*
X142284827Y-121929381D01*
X142015118Y-121923829D01*
X141806551Y-121923115D01*
X141025164Y-121923115D01*
X141025164Y-122339508D01*
X141673311Y-122339508D01*
X141673311Y-122339508D01*
G37*
X141673311Y-122339508D02*
X141978698Y-122343444D01*
X142210660Y-122357823D01*
X142378786Y-122386504D01*
X142492671Y-122433348D01*
X142561905Y-122502211D01*
X142596080Y-122596954D01*
X142604811Y-122714262D01*
X142595028Y-122837123D01*
X142559287Y-122930444D01*
X142487995Y-122998084D01*
X142371561Y-123043901D01*
X142200391Y-123071755D01*
X141964896Y-123085504D01*
X141673311Y-123089016D01*
X141025164Y-123089016D01*
X141025164Y-123547049D01*
X143023853Y-123547049D01*
X143023853Y-123318033D01*
X143018258Y-123179971D01*
X142998611Y-123108878D01*
X142961313Y-123089016D01*
X142928094Y-123077054D01*
X142935121Y-123029447D01*
X142982132Y-122933485D01*
X143054654Y-122713548D01*
X143049516Y-122480274D01*
X142970766Y-122256755D01*
X142908558Y-122150313D01*
X142841204Y-122069122D01*
X142756928Y-122009808D01*
X142643957Y-121968996D01*
X142490515Y-121943312D01*
X142284827Y-121929381D01*
X142015118Y-121923829D01*
X141806551Y-121923115D01*
X141025164Y-121923115D01*
X141025164Y-122339508D01*
X141673311Y-122339508D01*
G36*
X141042602Y-126392288D02*
X141145090Y-126633543D01*
X141194981Y-126709531D01*
X141271651Y-126806648D01*
X141331936Y-126867612D01*
X141351571Y-126878197D01*
X141395142Y-126848308D01*
X141469077Y-126771819D01*
X141520679Y-126710582D01*
X141655378Y-126542967D01*
X141544010Y-126410614D01*
X141472113Y-126308336D01*
X141447296Y-126208610D01*
X141453357Y-126094475D01*
X141498418Y-125913234D01*
X141591949Y-125788475D01*
X141743154Y-125712658D01*
X141961236Y-125678240D01*
X141961373Y-125678231D01*
X142205124Y-125681208D01*
X142383966Y-125727467D01*
X142505730Y-125819742D01*
X142546964Y-125882650D01*
X142598311Y-126049717D01*
X142598342Y-126228162D01*
X142548522Y-126383415D01*
X142524180Y-126420164D01*
X142462004Y-126512330D01*
X142451813Y-126584387D01*
X142498092Y-126662102D01*
X142581212Y-126748018D01*
X142721521Y-126884011D01*
X142845978Y-126733023D01*
X142986443Y-126499740D01*
X143055666Y-126236673D01*
X143050653Y-125961760D01*
X143004755Y-125781216D01*
X142891249Y-125570194D01*
X142712685Y-125401426D01*
X142586639Y-125324753D01*
X142405791Y-125262654D01*
X142176745Y-125231581D01*
X141928510Y-125231342D01*
X141690093Y-125261743D01*
X141490503Y-125322592D01*
X141470039Y-125332176D01*
X141269341Y-125474102D01*
X141123217Y-125666259D01*
X141034698Y-125893464D01*
X141006815Y-126140535D01*
X141042602Y-126392288D01*
X141042602Y-126392288D01*
G37*
X141042602Y-126392288D02*
X141145090Y-126633543D01*
X141194981Y-126709531D01*
X141271651Y-126806648D01*
X141331936Y-126867612D01*
X141351571Y-126878197D01*
X141395142Y-126848308D01*
X141469077Y-126771819D01*
X141520679Y-126710582D01*
X141655378Y-126542967D01*
X141544010Y-126410614D01*
X141472113Y-126308336D01*
X141447296Y-126208610D01*
X141453357Y-126094475D01*
X141498418Y-125913234D01*
X141591949Y-125788475D01*
X141743154Y-125712658D01*
X141961236Y-125678240D01*
X141961373Y-125678231D01*
X142205124Y-125681208D01*
X142383966Y-125727467D01*
X142505730Y-125819742D01*
X142546964Y-125882650D01*
X142598311Y-126049717D01*
X142598342Y-126228162D01*
X142548522Y-126383415D01*
X142524180Y-126420164D01*
X142462004Y-126512330D01*
X142451813Y-126584387D01*
X142498092Y-126662102D01*
X142581212Y-126748018D01*
X142721521Y-126884011D01*
X142845978Y-126733023D01*
X142986443Y-126499740D01*
X143055666Y-126236673D01*
X143050653Y-125961760D01*
X143004755Y-125781216D01*
X142891249Y-125570194D01*
X142712685Y-125401426D01*
X142586639Y-125324753D01*
X142405791Y-125262654D01*
X142176745Y-125231581D01*
X141928510Y-125231342D01*
X141690093Y-125261743D01*
X141490503Y-125322592D01*
X141470039Y-125332176D01*
X141269341Y-125474102D01*
X141123217Y-125666259D01*
X141034698Y-125893464D01*
X141006815Y-126140535D01*
X141042602Y-126392288D01*
G36*
X141018019Y-127917792D02*
X141043922Y-128024414D01*
X141138772Y-128228830D01*
X141283633Y-128403625D01*
X141457320Y-128524597D01*
X141496317Y-128541217D01*
X141598465Y-128564016D01*
X141749573Y-128579975D01*
X141902301Y-128585410D01*
X142191066Y-128585410D01*
X142191066Y-127981639D01*
X142192007Y-127732619D01*
X142197723Y-127557189D01*
X142212550Y-127445665D01*
X142240827Y-127388360D01*
X142286890Y-127375588D01*
X142355077Y-127397662D01*
X142434863Y-127437205D01*
X142568017Y-127547509D01*
X142634355Y-127700792D01*
X142632194Y-127888141D01*
X142559991Y-128100363D01*
X142470883Y-128283773D01*
X142591220Y-128435962D01*
X142711558Y-128588151D01*
X142843843Y-128444974D01*
X142968832Y-128253828D01*
X143044189Y-128018753D01*
X143065278Y-127765898D01*
X143027460Y-127521413D01*
X143014628Y-127481967D01*
X142902414Y-127267090D01*
X142735118Y-127107250D01*
X142507748Y-126999080D01*
X142215308Y-126939210D01*
X142209040Y-126938513D01*
X141890332Y-126933152D01*
X141776632Y-126954823D01*
X141776632Y-127377869D01*
X141794116Y-127416722D01*
X141807508Y-127522205D01*
X141815155Y-127677707D01*
X141816312Y-127776249D01*
X141815588Y-127960013D01*
X141810983Y-128074914D01*
X141798848Y-128135366D01*
X141775530Y-128155783D01*
X141737382Y-128150581D01*
X141722623Y-128146217D01*
X141583944Y-128071724D01*
X141472179Y-127954566D01*
X141423066Y-127851173D01*
X141426032Y-127713816D01*
X141487278Y-127574629D01*
X141588683Y-127457874D01*
X141712122Y-127387810D01*
X141776632Y-127377869D01*
X141776632Y-126954823D01*
X141610020Y-126986579D01*
X141374780Y-127092572D01*
X141191284Y-127244911D01*
X141066209Y-127437374D01*
X141006229Y-127663742D01*
X141018019Y-127917792D01*
X141018019Y-127917792D01*
G37*
X141018019Y-127917792D02*
X141043922Y-128024414D01*
X141138772Y-128228830D01*
X141283633Y-128403625D01*
X141457320Y-128524597D01*
X141496317Y-128541217D01*
X141598465Y-128564016D01*
X141749573Y-128579975D01*
X141902301Y-128585410D01*
X142191066Y-128585410D01*
X142191066Y-127981639D01*
X142192007Y-127732619D01*
X142197723Y-127557189D01*
X142212550Y-127445665D01*
X142240827Y-127388360D01*
X142286890Y-127375588D01*
X142355077Y-127397662D01*
X142434863Y-127437205D01*
X142568017Y-127547509D01*
X142634355Y-127700792D01*
X142632194Y-127888141D01*
X142559991Y-128100363D01*
X142470883Y-128283773D01*
X142591220Y-128435962D01*
X142711558Y-128588151D01*
X142843843Y-128444974D01*
X142968832Y-128253828D01*
X143044189Y-128018753D01*
X143065278Y-127765898D01*
X143027460Y-127521413D01*
X143014628Y-127481967D01*
X142902414Y-127267090D01*
X142735118Y-127107250D01*
X142507748Y-126999080D01*
X142215308Y-126939210D01*
X142209040Y-126938513D01*
X141890332Y-126933152D01*
X141776632Y-126954823D01*
X141776632Y-127377869D01*
X141794116Y-127416722D01*
X141807508Y-127522205D01*
X141815155Y-127677707D01*
X141816312Y-127776249D01*
X141815588Y-127960013D01*
X141810983Y-128074914D01*
X141798848Y-128135366D01*
X141775530Y-128155783D01*
X141737382Y-128150581D01*
X141722623Y-128146217D01*
X141583944Y-128071724D01*
X141472179Y-127954566D01*
X141423066Y-127851173D01*
X141426032Y-127713816D01*
X141487278Y-127574629D01*
X141588683Y-127457874D01*
X141712122Y-127387810D01*
X141776632Y-127377869D01*
X141776632Y-126954823D01*
X141610020Y-126986579D01*
X141374780Y-127092572D01*
X141191284Y-127244911D01*
X141066209Y-127437374D01*
X141006229Y-127663742D01*
X141018019Y-127917792D01*
G36*
X141059563Y-116553108D02*
X141109062Y-116656740D01*
X141180561Y-116757106D01*
X141262853Y-116833568D01*
X141367811Y-116889262D01*
X141507313Y-116927323D01*
X141693233Y-116950885D01*
X141937448Y-116963085D01*
X142251833Y-116967056D01*
X142284754Y-116967118D01*
X143023853Y-116968033D01*
X143023853Y-116510000D01*
X142342481Y-116510000D01*
X142090050Y-116509674D01*
X141907093Y-116507419D01*
X141779807Y-116501319D01*
X141694386Y-116489459D01*
X141637026Y-116469924D01*
X141593924Y-116440797D01*
X141551334Y-116400224D01*
X141459824Y-116258269D01*
X141442843Y-116103306D01*
X141500701Y-115955677D01*
X141543763Y-115904337D01*
X141584249Y-115866647D01*
X141627607Y-115839587D01*
X141687463Y-115821397D01*
X141777441Y-115810316D01*
X141911168Y-115804586D01*
X142102270Y-115802444D01*
X142334911Y-115802131D01*
X143023853Y-115802131D01*
X143023853Y-115344098D01*
X141025164Y-115344098D01*
X141025164Y-115573115D01*
X141030602Y-115710614D01*
X141049909Y-115781553D01*
X141087576Y-115802122D01*
X141088692Y-115802131D01*
X141125581Y-115811675D01*
X141121395Y-115853767D01*
X141080861Y-115937459D01*
X141021224Y-116127273D01*
X141014591Y-116344401D01*
X141059563Y-116553108D01*
X141059563Y-116553108D01*
G37*
X141059563Y-116553108D02*
X141109062Y-116656740D01*
X141180561Y-116757106D01*
X141262853Y-116833568D01*
X141367811Y-116889262D01*
X141507313Y-116927323D01*
X141693233Y-116950885D01*
X141937448Y-116963085D01*
X142251833Y-116967056D01*
X142284754Y-116967118D01*
X143023853Y-116968033D01*
X143023853Y-116510000D01*
X142342481Y-116510000D01*
X142090050Y-116509674D01*
X141907093Y-116507419D01*
X141779807Y-116501319D01*
X141694386Y-116489459D01*
X141637026Y-116469924D01*
X141593924Y-116440797D01*
X141551334Y-116400224D01*
X141459824Y-116258269D01*
X141442843Y-116103306D01*
X141500701Y-115955677D01*
X141543763Y-115904337D01*
X141584249Y-115866647D01*
X141627607Y-115839587D01*
X141687463Y-115821397D01*
X141777441Y-115810316D01*
X141911168Y-115804586D01*
X142102270Y-115802444D01*
X142334911Y-115802131D01*
X143023853Y-115802131D01*
X143023853Y-115344098D01*
X141025164Y-115344098D01*
X141025164Y-115573115D01*
X141030602Y-115710614D01*
X141049909Y-115781553D01*
X141087576Y-115802122D01*
X141088692Y-115802131D01*
X141125581Y-115811675D01*
X141121395Y-115853767D01*
X141080861Y-115937459D01*
X141021224Y-116127273D01*
X141014591Y-116344401D01*
X141059563Y-116553108D01*
G36*
X141023231Y-125008869D02*
X141066989Y-125152092D01*
X141122280Y-125244306D01*
X141166004Y-125274344D01*
X141217834Y-125266076D01*
X141299259Y-125212427D01*
X141356927Y-125167063D01*
X141461182Y-125073546D01*
X141505045Y-125003287D01*
X141502182Y-124943393D01*
X141456967Y-124765720D01*
X141459020Y-124635234D01*
X141510261Y-124529273D01*
X141540252Y-124493700D01*
X141645778Y-124379836D01*
X143023853Y-124379836D01*
X143023853Y-123921803D01*
X141025164Y-123921803D01*
X141025164Y-124150820D01*
X141030602Y-124288318D01*
X141049909Y-124359258D01*
X141087576Y-124379827D01*
X141088692Y-124379836D01*
X141128146Y-124389550D01*
X141123000Y-124433478D01*
X141094536Y-124494344D01*
X141041569Y-124620054D01*
X141009703Y-124722134D01*
X141001533Y-124853480D01*
X141023231Y-125008869D01*
X141023231Y-125008869D01*
G37*
X141023231Y-125008869D02*
X141066989Y-125152092D01*
X141122280Y-125244306D01*
X141166004Y-125274344D01*
X141217834Y-125266076D01*
X141299259Y-125212427D01*
X141356927Y-125167063D01*
X141461182Y-125073546D01*
X141505045Y-125003287D01*
X141502182Y-124943393D01*
X141456967Y-124765720D01*
X141459020Y-124635234D01*
X141510261Y-124529273D01*
X141540252Y-124493700D01*
X141645778Y-124379836D01*
X143023853Y-124379836D01*
X143023853Y-123921803D01*
X141025164Y-123921803D01*
X141025164Y-124150820D01*
X141030602Y-124288318D01*
X141049909Y-124359258D01*
X141087576Y-124379827D01*
X141088692Y-124379836D01*
X141128146Y-124389550D01*
X141123000Y-124433478D01*
X141094536Y-124494344D01*
X141041569Y-124620054D01*
X141009703Y-124722134D01*
X141001533Y-124853480D01*
X141023231Y-125008869D01*
G36*
X127220960Y-120298305D02*
X128219542Y-120486557D01*
X128505889Y-121181183D01*
X128792237Y-121875808D01*
X128225586Y-122709128D01*
X128067811Y-122942501D01*
X127926939Y-123153457D01*
X127809401Y-123332153D01*
X127721629Y-123468744D01*
X127670055Y-123553386D01*
X127658935Y-123576437D01*
X127687535Y-123617963D01*
X127766604Y-123706698D01*
X127886041Y-123832697D01*
X128035744Y-123986014D01*
X128205615Y-124156702D01*
X128385551Y-124334814D01*
X128565454Y-124510406D01*
X128735222Y-124673530D01*
X128884754Y-124814241D01*
X129003952Y-124922592D01*
X129082713Y-124988637D01*
X129109072Y-125004426D01*
X129157666Y-124981703D01*
X129264126Y-124917999D01*
X129418039Y-124820013D01*
X129608991Y-124694441D01*
X129826569Y-124547982D01*
X129950671Y-124463115D01*
X130177279Y-124308426D01*
X130381770Y-124170970D01*
X130553965Y-124057414D01*
X130683685Y-123974428D01*
X130760751Y-123928678D01*
X130776947Y-123921803D01*
X130822975Y-123937388D01*
X130930250Y-123979868D01*
X131083687Y-124042835D01*
X131268206Y-124119879D01*
X131468721Y-124204590D01*
X131670152Y-124290558D01*
X131857415Y-124371373D01*
X132015428Y-124440627D01*
X132129107Y-124491908D01*
X132183370Y-124518809D01*
X132185506Y-124520396D01*
X132195867Y-124562635D01*
X132218982Y-124675126D01*
X132252579Y-124846209D01*
X132294385Y-125064223D01*
X132342127Y-125317509D01*
X132369659Y-125465288D01*
X132421190Y-125735938D01*
X132470225Y-125980397D01*
X132514081Y-126186300D01*
X132550074Y-126341277D01*
X132575521Y-126432962D01*
X132583595Y-126451393D01*
X132638242Y-126469445D01*
X132761662Y-126484010D01*
X132939423Y-126495098D01*
X133157091Y-126502719D01*
X133400235Y-126506884D01*
X133654423Y-126507602D01*
X133905220Y-126504882D01*
X134138196Y-126498735D01*
X134338918Y-126489171D01*
X134492954Y-126476199D01*
X134585870Y-126459829D01*
X134605213Y-126450011D01*
X134628398Y-126391323D01*
X134661544Y-126266966D01*
X134700758Y-126093390D01*
X134742145Y-125887042D01*
X134755534Y-125815011D01*
X134819147Y-125467719D01*
X134870378Y-125193383D01*
X134911261Y-124982939D01*
X134943834Y-124827322D01*
X134970132Y-124717467D01*
X134992192Y-124644311D01*
X135012049Y-124598787D01*
X135031741Y-124571833D01*
X135035632Y-124568061D01*
X135098324Y-124530415D01*
X135220331Y-124472986D01*
X135386712Y-124401508D01*
X135582529Y-124321715D01*
X135792840Y-124239343D01*
X136002708Y-124160125D01*
X136197191Y-124089796D01*
X136361350Y-124034089D01*
X136480245Y-123998741D01*
X136538936Y-123989484D01*
X136540992Y-123990256D01*
X136588964Y-124021620D01*
X136694516Y-124092774D01*
X136846660Y-124196240D01*
X137034410Y-124324540D01*
X137246780Y-124470199D01*
X137307130Y-124511680D01*
X137525929Y-124659587D01*
X137725562Y-124789739D01*
X137894565Y-124895045D01*
X138021475Y-124968416D01*
X138094829Y-125002763D01*
X138103841Y-125004426D01*
X138151207Y-124975569D01*
X138245042Y-124895831D01*
X138375261Y-124775462D01*
X138531779Y-124624713D01*
X138704510Y-124453836D01*
X138883371Y-124273079D01*
X139058276Y-124092694D01*
X139219140Y-123922932D01*
X139355878Y-123774042D01*
X139458407Y-123656276D01*
X139516640Y-123579883D01*
X139526148Y-123558750D01*
X139503754Y-123509560D01*
X139443356Y-123408847D01*
X139355129Y-123273017D01*
X139284115Y-123168510D01*
X139153811Y-122979149D01*
X139000384Y-122754899D01*
X138847201Y-122529964D01*
X138765218Y-122409032D01*
X138488353Y-121999704D01*
X138674136Y-121656102D01*
X138755523Y-121499565D01*
X138818784Y-121366454D01*
X138854865Y-121276389D01*
X138859885Y-121253463D01*
X138822817Y-121225895D01*
X138718069Y-121171508D01*
X138555303Y-121094363D01*
X138344181Y-120998518D01*
X138094365Y-120888034D01*
X137815517Y-120766971D01*
X137517299Y-120639389D01*
X137209374Y-120509347D01*
X136901404Y-120380906D01*
X136603050Y-120258126D01*
X136323975Y-120145067D01*
X136073841Y-120045788D01*
X135862310Y-119964349D01*
X135699043Y-119904811D01*
X135593705Y-119871234D01*
X135557527Y-119865834D01*
X135511381Y-119908634D01*
X135436472Y-120002344D01*
X135348364Y-120127373D01*
X135341394Y-120137867D01*
X135082721Y-120461020D01*
X134780938Y-120721587D01*
X134445695Y-120917310D01*
X134086642Y-121045932D01*
X133713426Y-121105195D01*
X133335700Y-121092839D01*
X132963111Y-121006607D01*
X132605310Y-120844241D01*
X132527027Y-120796472D01*
X132210919Y-120548009D01*
X131957079Y-120254481D01*
X131766827Y-119926047D01*
X131641485Y-119572865D01*
X131582372Y-119205095D01*
X131590807Y-118832897D01*
X131668112Y-118466429D01*
X131815606Y-118115851D01*
X132034610Y-117791323D01*
X132123498Y-117690936D01*
X132401744Y-117435449D01*
X132694656Y-117249278D01*
X133022986Y-117121570D01*
X133348133Y-117050444D01*
X133713702Y-117032886D01*
X134081086Y-117091434D01*
X134437866Y-117220142D01*
X134771626Y-117413062D01*
X135069947Y-117664248D01*
X135320411Y-117967752D01*
X135346813Y-118007640D01*
X135433272Y-118134009D01*
X135508184Y-118230073D01*
X135556015Y-118276000D01*
X135557527Y-118276668D01*
X135609267Y-118266808D01*
X135726696Y-118227722D01*
X135900154Y-118163472D01*
X136119979Y-118078120D01*
X136376513Y-117975727D01*
X136660096Y-117860354D01*
X136961067Y-117736063D01*
X137269767Y-117606916D01*
X137576536Y-117476974D01*
X137871714Y-117350298D01*
X138145640Y-117230951D01*
X138388656Y-117122994D01*
X138591101Y-117030488D01*
X138743315Y-116957496D01*
X138835638Y-116908077D01*
X138859885Y-116888177D01*
X138841004Y-116827366D01*
X138790364Y-116713582D01*
X138717017Y-116566445D01*
X138674136Y-116485538D01*
X138488353Y-116141935D01*
X138765218Y-115732607D01*
X138907054Y-115523654D01*
X139063141Y-115294887D01*
X139210109Y-115080509D01*
X139284115Y-114973129D01*
X139385531Y-114822102D01*
X139465898Y-114694218D01*
X139515041Y-114606158D01*
X139525429Y-114577555D01*
X139497405Y-114535924D01*
X139419172Y-114443789D01*
X139298852Y-114310082D01*
X139144568Y-114143735D01*
X138964443Y-113953680D01*
X138848790Y-113833479D01*
X138642167Y-113623185D01*
X138457358Y-113441444D01*
X138302270Y-113295603D01*
X138184807Y-113193009D01*
X138112875Y-113141009D01*
X138098278Y-113136020D01*
X138042753Y-113159171D01*
X137930484Y-113223146D01*
X137772837Y-113320847D01*
X137581179Y-113445180D01*
X137366876Y-113589046D01*
X137307130Y-113629959D01*
X137089982Y-113779033D01*
X136894475Y-113912775D01*
X136731599Y-114023709D01*
X136612337Y-114104356D01*
X136547678Y-114147241D01*
X136540992Y-114151383D01*
X136489462Y-114145188D01*
X136376166Y-114112300D01*
X136216042Y-114058455D01*
X136024032Y-113989387D01*
X135815074Y-113910831D01*
X135604109Y-113828520D01*
X135406076Y-113748189D01*
X135235916Y-113675572D01*
X135108567Y-113616405D01*
X135038971Y-113576420D01*
X135035632Y-113573578D01*
X135015742Y-113549127D01*
X134996073Y-113507831D01*
X134974589Y-113440623D01*
X134949253Y-113338441D01*
X134918029Y-113192219D01*
X134878882Y-112992893D01*
X134829775Y-112731397D01*
X134768672Y-112398669D01*
X134755534Y-112326628D01*
X134714282Y-112113115D01*
X134673926Y-111926978D01*
X134638361Y-111784666D01*
X134611480Y-111702629D01*
X134605213Y-111691628D01*
X134549654Y-111673502D01*
X134425495Y-111658767D01*
X134247169Y-111647436D01*
X134029109Y-111639516D01*
X133785746Y-111635019D01*
X133531514Y-111633954D01*
X133280845Y-111636330D01*
X133048171Y-111642159D01*
X132847924Y-111651449D01*
X132694538Y-111664211D01*
X132602444Y-111680454D01*
X132583595Y-111690246D01*
X132564582Y-111744761D01*
X132533650Y-111868896D01*
X132493482Y-112050285D01*
X132446762Y-112276560D01*
X132396173Y-112535353D01*
X132369659Y-112676351D01*
X132319650Y-112943873D01*
X132274346Y-113182438D01*
X132236021Y-113380386D01*
X132206947Y-113526057D01*
X132189397Y-113607791D01*
X132185506Y-113621243D01*
X132141638Y-113643979D01*
X132035976Y-113692040D01*
X131883613Y-113759019D01*
X131699646Y-113838510D01*
X131499170Y-113924108D01*
X131297281Y-114009405D01*
X131109073Y-114087995D01*
X130949642Y-114153473D01*
X130834084Y-114199431D01*
X130777494Y-114219463D01*
X130775021Y-114219836D01*
X130730379Y-114197126D01*
X130627647Y-114133459D01*
X130477037Y-114035525D01*
X130288757Y-113910017D01*
X130073018Y-113763626D01*
X129949098Y-113678525D01*
X129721883Y-113523455D01*
X129515595Y-113385725D01*
X129340671Y-113272053D01*
X129207545Y-113189161D01*
X129126653Y-113143769D01*
X129108520Y-113137213D01*
X129066312Y-113165395D01*
X128976191Y-113243304D01*
X128848254Y-113360990D01*
X128692596Y-113508500D01*
X128519315Y-113675881D01*
X128338507Y-113853181D01*
X128160267Y-114030448D01*
X127994693Y-114197730D01*
X127851880Y-114345075D01*
X127741925Y-114462530D01*
X127674924Y-114540143D01*
X127658935Y-114566108D01*
X127681419Y-114608384D01*
X127744585Y-114709501D01*
X127842003Y-114859627D01*
X127967243Y-115048930D01*
X128113875Y-115267579D01*
X128225586Y-115432511D01*
X128792237Y-116265831D01*
X128505889Y-116960456D01*
X128219542Y-117655082D01*
X127220960Y-117843334D01*
X126222377Y-118031587D01*
X126222377Y-120110052D01*
X127220960Y-120298305D01*
X127220960Y-120298305D01*
G37*
X127220960Y-120298305D02*
X128219542Y-120486557D01*
X128505889Y-121181183D01*
X128792237Y-121875808D01*
X128225586Y-122709128D01*
X128067811Y-122942501D01*
X127926939Y-123153457D01*
X127809401Y-123332153D01*
X127721629Y-123468744D01*
X127670055Y-123553386D01*
X127658935Y-123576437D01*
X127687535Y-123617963D01*
X127766604Y-123706698D01*
X127886041Y-123832697D01*
X128035744Y-123986014D01*
X128205615Y-124156702D01*
X128385551Y-124334814D01*
X128565454Y-124510406D01*
X128735222Y-124673530D01*
X128884754Y-124814241D01*
X129003952Y-124922592D01*
X129082713Y-124988637D01*
X129109072Y-125004426D01*
X129157666Y-124981703D01*
X129264126Y-124917999D01*
X129418039Y-124820013D01*
X129608991Y-124694441D01*
X129826569Y-124547982D01*
X129950671Y-124463115D01*
X130177279Y-124308426D01*
X130381770Y-124170970D01*
X130553965Y-124057414D01*
X130683685Y-123974428D01*
X130760751Y-123928678D01*
X130776947Y-123921803D01*
X130822975Y-123937388D01*
X130930250Y-123979868D01*
X131083687Y-124042835D01*
X131268206Y-124119879D01*
X131468721Y-124204590D01*
X131670152Y-124290558D01*
X131857415Y-124371373D01*
X132015428Y-124440627D01*
X132129107Y-124491908D01*
X132183370Y-124518809D01*
X132185506Y-124520396D01*
X132195867Y-124562635D01*
X132218982Y-124675126D01*
X132252579Y-124846209D01*
X132294385Y-125064223D01*
X132342127Y-125317509D01*
X132369659Y-125465288D01*
X132421190Y-125735938D01*
X132470225Y-125980397D01*
X132514081Y-126186300D01*
X132550074Y-126341277D01*
X132575521Y-126432962D01*
X132583595Y-126451393D01*
X132638242Y-126469445D01*
X132761662Y-126484010D01*
X132939423Y-126495098D01*
X133157091Y-126502719D01*
X133400235Y-126506884D01*
X133654423Y-126507602D01*
X133905220Y-126504882D01*
X134138196Y-126498735D01*
X134338918Y-126489171D01*
X134492954Y-126476199D01*
X134585870Y-126459829D01*
X134605213Y-126450011D01*
X134628398Y-126391323D01*
X134661544Y-126266966D01*
X134700758Y-126093390D01*
X134742145Y-125887042D01*
X134755534Y-125815011D01*
X134819147Y-125467719D01*
X134870378Y-125193383D01*
X134911261Y-124982939D01*
X134943834Y-124827322D01*
X134970132Y-124717467D01*
X134992192Y-124644311D01*
X135012049Y-124598787D01*
X135031741Y-124571833D01*
X135035632Y-124568061D01*
X135098324Y-124530415D01*
X135220331Y-124472986D01*
X135386712Y-124401508D01*
X135582529Y-124321715D01*
X135792840Y-124239343D01*
X136002708Y-124160125D01*
X136197191Y-124089796D01*
X136361350Y-124034089D01*
X136480245Y-123998741D01*
X136538936Y-123989484D01*
X136540992Y-123990256D01*
X136588964Y-124021620D01*
X136694516Y-124092774D01*
X136846660Y-124196240D01*
X137034410Y-124324540D01*
X137246780Y-124470199D01*
X137307130Y-124511680D01*
X137525929Y-124659587D01*
X137725562Y-124789739D01*
X137894565Y-124895045D01*
X138021475Y-124968416D01*
X138094829Y-125002763D01*
X138103841Y-125004426D01*
X138151207Y-124975569D01*
X138245042Y-124895831D01*
X138375261Y-124775462D01*
X138531779Y-124624713D01*
X138704510Y-124453836D01*
X138883371Y-124273079D01*
X139058276Y-124092694D01*
X139219140Y-123922932D01*
X139355878Y-123774042D01*
X139458407Y-123656276D01*
X139516640Y-123579883D01*
X139526148Y-123558750D01*
X139503754Y-123509560D01*
X139443356Y-123408847D01*
X139355129Y-123273017D01*
X139284115Y-123168510D01*
X139153811Y-122979149D01*
X139000384Y-122754899D01*
X138847201Y-122529964D01*
X138765218Y-122409032D01*
X138488353Y-121999704D01*
X138674136Y-121656102D01*
X138755523Y-121499565D01*
X138818784Y-121366454D01*
X138854865Y-121276389D01*
X138859885Y-121253463D01*
X138822817Y-121225895D01*
X138718069Y-121171508D01*
X138555303Y-121094363D01*
X138344181Y-120998518D01*
X138094365Y-120888034D01*
X137815517Y-120766971D01*
X137517299Y-120639389D01*
X137209374Y-120509347D01*
X136901404Y-120380906D01*
X136603050Y-120258126D01*
X136323975Y-120145067D01*
X136073841Y-120045788D01*
X135862310Y-119964349D01*
X135699043Y-119904811D01*
X135593705Y-119871234D01*
X135557527Y-119865834D01*
X135511381Y-119908634D01*
X135436472Y-120002344D01*
X135348364Y-120127373D01*
X135341394Y-120137867D01*
X135082721Y-120461020D01*
X134780938Y-120721587D01*
X134445695Y-120917310D01*
X134086642Y-121045932D01*
X133713426Y-121105195D01*
X133335700Y-121092839D01*
X132963111Y-121006607D01*
X132605310Y-120844241D01*
X132527027Y-120796472D01*
X132210919Y-120548009D01*
X131957079Y-120254481D01*
X131766827Y-119926047D01*
X131641485Y-119572865D01*
X131582372Y-119205095D01*
X131590807Y-118832897D01*
X131668112Y-118466429D01*
X131815606Y-118115851D01*
X132034610Y-117791323D01*
X132123498Y-117690936D01*
X132401744Y-117435449D01*
X132694656Y-117249278D01*
X133022986Y-117121570D01*
X133348133Y-117050444D01*
X133713702Y-117032886D01*
X134081086Y-117091434D01*
X134437866Y-117220142D01*
X134771626Y-117413062D01*
X135069947Y-117664248D01*
X135320411Y-117967752D01*
X135346813Y-118007640D01*
X135433272Y-118134009D01*
X135508184Y-118230073D01*
X135556015Y-118276000D01*
X135557527Y-118276668D01*
X135609267Y-118266808D01*
X135726696Y-118227722D01*
X135900154Y-118163472D01*
X136119979Y-118078120D01*
X136376513Y-117975727D01*
X136660096Y-117860354D01*
X136961067Y-117736063D01*
X137269767Y-117606916D01*
X137576536Y-117476974D01*
X137871714Y-117350298D01*
X138145640Y-117230951D01*
X138388656Y-117122994D01*
X138591101Y-117030488D01*
X138743315Y-116957496D01*
X138835638Y-116908077D01*
X138859885Y-116888177D01*
X138841004Y-116827366D01*
X138790364Y-116713582D01*
X138717017Y-116566445D01*
X138674136Y-116485538D01*
X138488353Y-116141935D01*
X138765218Y-115732607D01*
X138907054Y-115523654D01*
X139063141Y-115294887D01*
X139210109Y-115080509D01*
X139284115Y-114973129D01*
X139385531Y-114822102D01*
X139465898Y-114694218D01*
X139515041Y-114606158D01*
X139525429Y-114577555D01*
X139497405Y-114535924D01*
X139419172Y-114443789D01*
X139298852Y-114310082D01*
X139144568Y-114143735D01*
X138964443Y-113953680D01*
X138848790Y-113833479D01*
X138642167Y-113623185D01*
X138457358Y-113441444D01*
X138302270Y-113295603D01*
X138184807Y-113193009D01*
X138112875Y-113141009D01*
X138098278Y-113136020D01*
X138042753Y-113159171D01*
X137930484Y-113223146D01*
X137772837Y-113320847D01*
X137581179Y-113445180D01*
X137366876Y-113589046D01*
X137307130Y-113629959D01*
X137089982Y-113779033D01*
X136894475Y-113912775D01*
X136731599Y-114023709D01*
X136612337Y-114104356D01*
X136547678Y-114147241D01*
X136540992Y-114151383D01*
X136489462Y-114145188D01*
X136376166Y-114112300D01*
X136216042Y-114058455D01*
X136024032Y-113989387D01*
X135815074Y-113910831D01*
X135604109Y-113828520D01*
X135406076Y-113748189D01*
X135235916Y-113675572D01*
X135108567Y-113616405D01*
X135038971Y-113576420D01*
X135035632Y-113573578D01*
X135015742Y-113549127D01*
X134996073Y-113507831D01*
X134974589Y-113440623D01*
X134949253Y-113338441D01*
X134918029Y-113192219D01*
X134878882Y-112992893D01*
X134829775Y-112731397D01*
X134768672Y-112398669D01*
X134755534Y-112326628D01*
X134714282Y-112113115D01*
X134673926Y-111926978D01*
X134638361Y-111784666D01*
X134611480Y-111702629D01*
X134605213Y-111691628D01*
X134549654Y-111673502D01*
X134425495Y-111658767D01*
X134247169Y-111647436D01*
X134029109Y-111639516D01*
X133785746Y-111635019D01*
X133531514Y-111633954D01*
X133280845Y-111636330D01*
X133048171Y-111642159D01*
X132847924Y-111651449D01*
X132694538Y-111664211D01*
X132602444Y-111680454D01*
X132583595Y-111690246D01*
X132564582Y-111744761D01*
X132533650Y-111868896D01*
X132493482Y-112050285D01*
X132446762Y-112276560D01*
X132396173Y-112535353D01*
X132369659Y-112676351D01*
X132319650Y-112943873D01*
X132274346Y-113182438D01*
X132236021Y-113380386D01*
X132206947Y-113526057D01*
X132189397Y-113607791D01*
X132185506Y-113621243D01*
X132141638Y-113643979D01*
X132035976Y-113692040D01*
X131883613Y-113759019D01*
X131699646Y-113838510D01*
X131499170Y-113924108D01*
X131297281Y-114009405D01*
X131109073Y-114087995D01*
X130949642Y-114153473D01*
X130834084Y-114199431D01*
X130777494Y-114219463D01*
X130775021Y-114219836D01*
X130730379Y-114197126D01*
X130627647Y-114133459D01*
X130477037Y-114035525D01*
X130288757Y-113910017D01*
X130073018Y-113763626D01*
X129949098Y-113678525D01*
X129721883Y-113523455D01*
X129515595Y-113385725D01*
X129340671Y-113272053D01*
X129207545Y-113189161D01*
X129126653Y-113143769D01*
X129108520Y-113137213D01*
X129066312Y-113165395D01*
X128976191Y-113243304D01*
X128848254Y-113360990D01*
X128692596Y-113508500D01*
X128519315Y-113675881D01*
X128338507Y-113853181D01*
X128160267Y-114030448D01*
X127994693Y-114197730D01*
X127851880Y-114345075D01*
X127741925Y-114462530D01*
X127674924Y-114540143D01*
X127658935Y-114566108D01*
X127681419Y-114608384D01*
X127744585Y-114709501D01*
X127842003Y-114859627D01*
X127967243Y-115048930D01*
X128113875Y-115267579D01*
X128225586Y-115432511D01*
X128792237Y-116265831D01*
X128505889Y-116960456D01*
X128219542Y-117655082D01*
X127220960Y-117843334D01*
X126222377Y-118031587D01*
X126222377Y-120110052D01*
X127220960Y-120298305D01*
G04 #@! TD*
%LPC*%
D16*
G04 #@! TO.C,J2*
X156000000Y-108950000D03*
X156000000Y-111490000D03*
X156000000Y-114030000D03*
D17*
X156000000Y-116570000D03*
G04 #@! TD*
D18*
G04 #@! TO.C,J3*
X105500000Y-102000000D03*
D19*
X108040000Y-102000000D03*
X110580000Y-102000000D03*
X113120000Y-102000000D03*
X115660000Y-102000000D03*
X118200000Y-102000000D03*
X120740000Y-102000000D03*
X123280000Y-102000000D03*
G04 #@! TD*
D20*
G04 #@! TO.C,U1*
X147000000Y-105170000D03*
X147000000Y-135650000D03*
X147000000Y-130570000D03*
X129300000Y-110250000D03*
X129300000Y-105170000D03*
G04 #@! TD*
D21*
G04 #@! TO.C,U2*
X101570000Y-130390000D03*
X124430000Y-130390000D03*
X101570000Y-127850000D03*
X124430000Y-127850000D03*
X101570000Y-125310000D03*
X124430000Y-125310000D03*
X101570000Y-122770000D03*
X124430000Y-122770000D03*
X101570000Y-120230000D03*
X124430000Y-120230000D03*
X101570000Y-117690000D03*
X124430000Y-117690000D03*
X101570000Y-115150000D03*
X124430000Y-115150000D03*
X101570000Y-112610000D03*
X124430000Y-112610000D03*
G04 #@! TD*
D22*
G04 #@! TO.C,REF\002A\002A*
X102000000Y-102000000D03*
G04 #@! TD*
G04 #@! TO.C,REF\002A\002A*
X158000000Y-102000000D03*
G04 #@! TD*
G04 #@! TO.C,REF\002A\002A*
X102000000Y-138000000D03*
G04 #@! TD*
D23*
G04 #@! TO.C,J1*
X155500000Y-135650000D03*
D24*
X155500000Y-130570000D03*
G04 #@! TD*
M02*
