G04 #@! TF.GenerationSoftware,KiCad,Pcbnew,(5.0.2)-1*
G04 #@! TF.CreationDate,2019-02-07T08:47:28-05:00*
G04 #@! TF.ProjectId,HASwitchPlate,48415377-6974-4636-9850-6c6174652e6b,rev?*
G04 #@! TF.SameCoordinates,Original*
G04 #@! TF.FileFunction,Legend,Bot*
G04 #@! TF.FilePolarity,Positive*
%FSLAX46Y46*%
G04 Gerber Fmt 4.6, Leading zero omitted, Abs format (unit mm)*
G04 Created by KiCad (PCBNEW (5.0.2)-1) date 2/7/2019 8:47:28 AM*
%MOMM*%
%LPD*%
G01*
G04 APERTURE LIST*
%ADD10C,0.300000*%
%ADD11C,0.150000*%
%ADD12C,2.000000*%
%ADD13C,0.600000*%
%ADD14C,0.250000*%
%ADD15C,0.010000*%
%ADD16R,1.500000X2.200000*%
%ADD17C,0.100000*%
%ADD18C,1.500000*%
%ADD19C,1.924000*%
%ADD20C,2.690000*%
%ADD21C,2.600000*%
%ADD22O,2.000000X2.000000*%
%ADD23C,2.000000*%
%ADD24C,2.150000*%
%ADD25R,2.150000X2.150000*%
%ADD26R,2.100000X2.100000*%
%ADD27O,2.100000X2.100000*%
%ADD28C,2.200000*%
%ADD29R,3.400000X3.400000*%
%ADD30C,3.400000*%
G04 APERTURE END LIST*
D10*
X153117500Y-135887000D02*
X152546071Y-135887000D01*
X153231785Y-136229857D02*
X152831785Y-135029857D01*
X152431785Y-136229857D01*
X151346071Y-136115571D02*
X151403214Y-136172714D01*
X151574642Y-136229857D01*
X151688928Y-136229857D01*
X151860357Y-136172714D01*
X151974642Y-136058428D01*
X152031785Y-135944142D01*
X152088928Y-135715571D01*
X152088928Y-135544142D01*
X152031785Y-135315571D01*
X151974642Y-135201285D01*
X151860357Y-135087000D01*
X151688928Y-135029857D01*
X151574642Y-135029857D01*
X151403214Y-135087000D01*
X151346071Y-135144142D01*
X149974642Y-134972714D02*
X151003214Y-136515571D01*
X149003214Y-136229857D02*
X149574642Y-136229857D01*
X149574642Y-135029857D01*
X157029142Y-128546357D02*
X157029142Y-127346357D01*
X156743428Y-127346357D01*
X156572000Y-127403500D01*
X156457714Y-127517785D01*
X156400571Y-127632071D01*
X156343428Y-127860642D01*
X156343428Y-128032071D01*
X156400571Y-128260642D01*
X156457714Y-128374928D01*
X156572000Y-128489214D01*
X156743428Y-128546357D01*
X157029142Y-128546357D01*
X155143428Y-128432071D02*
X155200571Y-128489214D01*
X155372000Y-128546357D01*
X155486285Y-128546357D01*
X155657714Y-128489214D01*
X155772000Y-128374928D01*
X155829142Y-128260642D01*
X155886285Y-128032071D01*
X155886285Y-127860642D01*
X155829142Y-127632071D01*
X155772000Y-127517785D01*
X155657714Y-127403500D01*
X155486285Y-127346357D01*
X155372000Y-127346357D01*
X155200571Y-127403500D01*
X155143428Y-127460642D01*
X154629142Y-128089214D02*
X153714857Y-128089214D01*
X157029142Y-138769857D02*
X157029142Y-137569857D01*
X156743428Y-137569857D01*
X156572000Y-137627000D01*
X156457714Y-137741285D01*
X156400571Y-137855571D01*
X156343428Y-138084142D01*
X156343428Y-138255571D01*
X156400571Y-138484142D01*
X156457714Y-138598428D01*
X156572000Y-138712714D01*
X156743428Y-138769857D01*
X157029142Y-138769857D01*
X155143428Y-138655571D02*
X155200571Y-138712714D01*
X155372000Y-138769857D01*
X155486285Y-138769857D01*
X155657714Y-138712714D01*
X155772000Y-138598428D01*
X155829142Y-138484142D01*
X155886285Y-138255571D01*
X155886285Y-138084142D01*
X155829142Y-137855571D01*
X155772000Y-137741285D01*
X155657714Y-137627000D01*
X155486285Y-137569857D01*
X155372000Y-137569857D01*
X155200571Y-137627000D01*
X155143428Y-137684142D01*
X154629142Y-138312714D02*
X153714857Y-138312714D01*
X154172000Y-138769857D02*
X154172000Y-137855571D01*
X153133357Y-130743500D02*
X152561928Y-130743500D01*
X153247642Y-131086357D02*
X152847642Y-129886357D01*
X152447642Y-131086357D01*
X151361928Y-130972071D02*
X151419071Y-131029214D01*
X151590500Y-131086357D01*
X151704785Y-131086357D01*
X151876214Y-131029214D01*
X151990500Y-130914928D01*
X152047642Y-130800642D01*
X152104785Y-130572071D01*
X152104785Y-130400642D01*
X152047642Y-130172071D01*
X151990500Y-130057785D01*
X151876214Y-129943500D01*
X151704785Y-129886357D01*
X151590500Y-129886357D01*
X151419071Y-129943500D01*
X151361928Y-130000642D01*
X149990500Y-129829214D02*
X151019071Y-131372071D01*
X149590500Y-131086357D02*
X149590500Y-129886357D01*
X148904785Y-131086357D01*
X148904785Y-129886357D01*
D11*
X160000000Y-101000000D02*
X160000000Y-122000000D01*
X160000000Y-132100000D02*
X160000000Y-124000000D01*
X141500000Y-123000000D02*
G75*
G03X142500000Y-124000000I1000000J0D01*
G01*
X142500000Y-122000000D02*
G75*
G03X141500000Y-123000000I0J-1000000D01*
G01*
X142500000Y-122000000D02*
X160000000Y-122000000D01*
X142500000Y-124000000D02*
X160000000Y-124000000D01*
X118500000Y-140000000D02*
X159000000Y-140000000D01*
X101000000Y-140000000D02*
X106000000Y-140000000D01*
X108000000Y-138000000D02*
X116500000Y-138000000D01*
X117500000Y-139000000D02*
G75*
G03X118500000Y-140000000I1000000J0D01*
G01*
X117500000Y-139000000D02*
G75*
G03X116500000Y-138000000I-1000000J0D01*
G01*
X107998255Y-138000002D02*
G75*
G03X107000000Y-139000000I1745J-999998D01*
G01*
X106000000Y-140000000D02*
G75*
G03X107000000Y-139000000I0J1000000D01*
G01*
X101000000Y-100000000D02*
G75*
G03X100000000Y-101000000I0J-1000000D01*
G01*
X100000000Y-139000000D02*
G75*
G03X101000000Y-140000000I1000000J0D01*
G01*
X159000000Y-140000000D02*
G75*
G03X160000000Y-139000000I0J1000000D01*
G01*
X160000000Y-101000000D02*
G75*
G03X159000000Y-100000000I-1000000J0D01*
G01*
D10*
X113648571Y-132170928D02*
X114648571Y-132492357D01*
X113648571Y-132813785D01*
X114648571Y-134035214D02*
X114648571Y-133263785D01*
X114648571Y-133649500D02*
X113148571Y-133649500D01*
X113362857Y-133520928D01*
X113505714Y-133392357D01*
X113577142Y-133263785D01*
X114505714Y-134613785D02*
X114577142Y-134678071D01*
X114648571Y-134613785D01*
X114577142Y-134549500D01*
X114505714Y-134613785D01*
X114648571Y-134613785D01*
X113148571Y-135513785D02*
X113148571Y-135642357D01*
X113220000Y-135770928D01*
X113291428Y-135835214D01*
X113434285Y-135899500D01*
X113720000Y-135963785D01*
X114077142Y-135963785D01*
X114362857Y-135899500D01*
X114505714Y-135835214D01*
X114577142Y-135770928D01*
X114648571Y-135642357D01*
X114648571Y-135513785D01*
X114577142Y-135385214D01*
X114505714Y-135320928D01*
X114362857Y-135256642D01*
X114077142Y-135192357D01*
X113720000Y-135192357D01*
X113434285Y-135256642D01*
X113291428Y-135320928D01*
X113220000Y-135385214D01*
X113148571Y-135513785D01*
X122127666Y-104137500D02*
X120377666Y-104137500D01*
X122127666Y-104887500D02*
X121211000Y-104887500D01*
X121044333Y-104804166D01*
X120961000Y-104637500D01*
X120961000Y-104387500D01*
X121044333Y-104220833D01*
X121127666Y-104137500D01*
X120961000Y-105470833D02*
X120961000Y-106137500D01*
X120377666Y-105720833D02*
X121877666Y-105720833D01*
X122044333Y-105804166D01*
X122127666Y-105970833D01*
X122127666Y-106137500D01*
X120961000Y-106470833D02*
X120961000Y-107137500D01*
X120377666Y-106720833D02*
X121877666Y-106720833D01*
X122044333Y-106804166D01*
X122127666Y-106970833D01*
X122127666Y-107137500D01*
X120961000Y-107720833D02*
X122711000Y-107720833D01*
X121044333Y-107720833D02*
X120961000Y-107887500D01*
X120961000Y-108220833D01*
X121044333Y-108387500D01*
X121127666Y-108470833D01*
X121294333Y-108554166D01*
X121794333Y-108554166D01*
X121961000Y-108470833D01*
X122044333Y-108387500D01*
X122127666Y-108220833D01*
X122127666Y-107887500D01*
X122044333Y-107720833D01*
X121961000Y-109304166D02*
X122044333Y-109387500D01*
X122127666Y-109304166D01*
X122044333Y-109220833D01*
X121961000Y-109304166D01*
X122127666Y-109304166D01*
X121044333Y-109304166D02*
X121127666Y-109387500D01*
X121211000Y-109304166D01*
X121127666Y-109220833D01*
X121044333Y-109304166D01*
X121211000Y-109304166D01*
X120294333Y-111387500D02*
X122544333Y-109887500D01*
X120294333Y-113220833D02*
X122544333Y-111720833D01*
X122127666Y-113804166D02*
X120377666Y-113804166D01*
X122127666Y-114554166D02*
X121211000Y-114554166D01*
X121044333Y-114470833D01*
X120961000Y-114304166D01*
X120961000Y-114054166D01*
X121044333Y-113887500D01*
X121127666Y-113804166D01*
X122127666Y-116137500D02*
X121211000Y-116137500D01*
X121044333Y-116054166D01*
X120961000Y-115887500D01*
X120961000Y-115554166D01*
X121044333Y-115387500D01*
X122044333Y-116137500D02*
X122127666Y-115970833D01*
X122127666Y-115554166D01*
X122044333Y-115387500D01*
X121877666Y-115304166D01*
X121711000Y-115304166D01*
X121544333Y-115387500D01*
X121461000Y-115554166D01*
X121461000Y-115970833D01*
X121377666Y-116137500D01*
X122044333Y-116887500D02*
X122127666Y-117054166D01*
X122127666Y-117387500D01*
X122044333Y-117554166D01*
X121877666Y-117637500D01*
X121794333Y-117637500D01*
X121627666Y-117554166D01*
X121544333Y-117387500D01*
X121544333Y-117137500D01*
X121461000Y-116970833D01*
X121294333Y-116887500D01*
X121211000Y-116887500D01*
X121044333Y-116970833D01*
X120961000Y-117137500D01*
X120961000Y-117387500D01*
X121044333Y-117554166D01*
X120961000Y-118220833D02*
X122127666Y-118554166D01*
X121294333Y-118887500D01*
X122127666Y-119220833D01*
X120961000Y-119554166D01*
X122127666Y-120220833D02*
X120961000Y-120220833D01*
X120377666Y-120220833D02*
X120461000Y-120137500D01*
X120544333Y-120220833D01*
X120461000Y-120304166D01*
X120377666Y-120220833D01*
X120544333Y-120220833D01*
X120961000Y-120804166D02*
X120961000Y-121470833D01*
X120377666Y-121054166D02*
X121877666Y-121054166D01*
X122044333Y-121137500D01*
X122127666Y-121304166D01*
X122127666Y-121470833D01*
X122044333Y-122804166D02*
X122127666Y-122637500D01*
X122127666Y-122304166D01*
X122044333Y-122137500D01*
X121961000Y-122054166D01*
X121794333Y-121970833D01*
X121294333Y-121970833D01*
X121127666Y-122054166D01*
X121044333Y-122137500D01*
X120961000Y-122304166D01*
X120961000Y-122637500D01*
X121044333Y-122804166D01*
X122127666Y-123554166D02*
X120377666Y-123554166D01*
X122127666Y-124304166D02*
X121211000Y-124304166D01*
X121044333Y-124220833D01*
X120961000Y-124054166D01*
X120961000Y-123804166D01*
X121044333Y-123637500D01*
X121127666Y-123554166D01*
X120961000Y-125137500D02*
X122711000Y-125137500D01*
X121044333Y-125137500D02*
X120961000Y-125304166D01*
X120961000Y-125637500D01*
X121044333Y-125804166D01*
X121127666Y-125887500D01*
X121294333Y-125970833D01*
X121794333Y-125970833D01*
X121961000Y-125887500D01*
X122044333Y-125804166D01*
X122127666Y-125637500D01*
X122127666Y-125304166D01*
X122044333Y-125137500D01*
X122127666Y-126970833D02*
X122044333Y-126804166D01*
X121877666Y-126720833D01*
X120377666Y-126720833D01*
X122127666Y-128387500D02*
X121211000Y-128387500D01*
X121044333Y-128304166D01*
X120961000Y-128137500D01*
X120961000Y-127804166D01*
X121044333Y-127637500D01*
X122044333Y-128387500D02*
X122127666Y-128220833D01*
X122127666Y-127804166D01*
X122044333Y-127637500D01*
X121877666Y-127554166D01*
X121711000Y-127554166D01*
X121544333Y-127637500D01*
X121461000Y-127804166D01*
X121461000Y-128220833D01*
X121377666Y-128387500D01*
X120961000Y-128970833D02*
X120961000Y-129637500D01*
X120377666Y-129220833D02*
X121877666Y-129220833D01*
X122044333Y-129304166D01*
X122127666Y-129470833D01*
X122127666Y-129637500D01*
X122044333Y-130887500D02*
X122127666Y-130720833D01*
X122127666Y-130387500D01*
X122044333Y-130220833D01*
X121877666Y-130137500D01*
X121211000Y-130137500D01*
X121044333Y-130220833D01*
X120961000Y-130387500D01*
X120961000Y-130720833D01*
X121044333Y-130887500D01*
X121211000Y-130970833D01*
X121377666Y-130970833D01*
X121544333Y-130137500D01*
X121961000Y-131720833D02*
X122044333Y-131804166D01*
X122127666Y-131720833D01*
X122044333Y-131637500D01*
X121961000Y-131720833D01*
X122127666Y-131720833D01*
X122044333Y-133304166D02*
X122127666Y-133137500D01*
X122127666Y-132804166D01*
X122044333Y-132637500D01*
X121961000Y-132554166D01*
X121794333Y-132470833D01*
X121294333Y-132470833D01*
X121127666Y-132554166D01*
X121044333Y-132637500D01*
X120961000Y-132804166D01*
X120961000Y-133137500D01*
X121044333Y-133304166D01*
X122127666Y-134304166D02*
X122044333Y-134137500D01*
X121961000Y-134054166D01*
X121794333Y-133970833D01*
X121294333Y-133970833D01*
X121127666Y-134054166D01*
X121044333Y-134137500D01*
X120961000Y-134304166D01*
X120961000Y-134554166D01*
X121044333Y-134720833D01*
X121127666Y-134804166D01*
X121294333Y-134887500D01*
X121794333Y-134887500D01*
X121961000Y-134804166D01*
X122044333Y-134720833D01*
X122127666Y-134554166D01*
X122127666Y-134304166D01*
X122127666Y-135637500D02*
X120961000Y-135637500D01*
X121127666Y-135637500D02*
X121044333Y-135720833D01*
X120961000Y-135887500D01*
X120961000Y-136137500D01*
X121044333Y-136304166D01*
X121211000Y-136387500D01*
X122127666Y-136387500D01*
X121211000Y-136387500D02*
X121044333Y-136470833D01*
X120961000Y-136637500D01*
X120961000Y-136887500D01*
X121044333Y-137054166D01*
X121211000Y-137137500D01*
X122127666Y-137137500D01*
D12*
X114071428Y-104785714D02*
X105071428Y-104785714D01*
X109357142Y-104785714D02*
X109357142Y-109928571D01*
X114071428Y-109928571D02*
X105071428Y-109928571D01*
X111500000Y-113785714D02*
X111500000Y-118071428D01*
X114071428Y-112928571D02*
X105071428Y-115928571D01*
X114071428Y-118928571D01*
X113642857Y-121500000D02*
X114071428Y-122785714D01*
X114071428Y-124928571D01*
X113642857Y-125785714D01*
X113214285Y-126214285D01*
X112357142Y-126642857D01*
X111500000Y-126642857D01*
X110642857Y-126214285D01*
X110214285Y-125785714D01*
X109785714Y-124928571D01*
X109357142Y-123214285D01*
X108928571Y-122357142D01*
X108500000Y-121928571D01*
X107642857Y-121500000D01*
X106785714Y-121500000D01*
X105928571Y-121928571D01*
X105500000Y-122357142D01*
X105071428Y-123214285D01*
X105071428Y-125357142D01*
X105500000Y-126642857D01*
X114071428Y-130500000D02*
X105071428Y-130500000D01*
X105071428Y-133928571D01*
X105500000Y-134785714D01*
X105928571Y-135214285D01*
X106785714Y-135642857D01*
X108071428Y-135642857D01*
X108928571Y-135214285D01*
X109357142Y-134785714D01*
X109785714Y-133928571D01*
X109785714Y-130500000D01*
D13*
X119470238Y-104095238D02*
X116220238Y-104095238D01*
X117767857Y-104095238D02*
X117767857Y-105952380D01*
X119470238Y-105952380D02*
X116220238Y-105952380D01*
X118541666Y-107345238D02*
X118541666Y-108892857D01*
X119470238Y-107035714D02*
X116220238Y-108119047D01*
X119470238Y-109202380D01*
X119315476Y-110130952D02*
X119470238Y-110595238D01*
X119470238Y-111369047D01*
X119315476Y-111678571D01*
X119160714Y-111833333D01*
X118851190Y-111988095D01*
X118541666Y-111988095D01*
X118232142Y-111833333D01*
X118077380Y-111678571D01*
X117922619Y-111369047D01*
X117767857Y-110750000D01*
X117613095Y-110440476D01*
X117458333Y-110285714D01*
X117148809Y-110130952D01*
X116839285Y-110130952D01*
X116529761Y-110285714D01*
X116375000Y-110440476D01*
X116220238Y-110750000D01*
X116220238Y-111523809D01*
X116375000Y-111988095D01*
X117303571Y-113071428D02*
X119470238Y-113690476D01*
X117922619Y-114309523D01*
X119470238Y-114928571D01*
X117303571Y-115547619D01*
X119470238Y-116785714D02*
X117303571Y-116785714D01*
X116220238Y-116785714D02*
X116375000Y-116630952D01*
X116529761Y-116785714D01*
X116375000Y-116940476D01*
X116220238Y-116785714D01*
X116529761Y-116785714D01*
X117303571Y-117869047D02*
X117303571Y-119107142D01*
X116220238Y-118333333D02*
X119005952Y-118333333D01*
X119315476Y-118488095D01*
X119470238Y-118797619D01*
X119470238Y-119107142D01*
X119315476Y-121583333D02*
X119470238Y-121273809D01*
X119470238Y-120654761D01*
X119315476Y-120345238D01*
X119160714Y-120190476D01*
X118851190Y-120035714D01*
X117922619Y-120035714D01*
X117613095Y-120190476D01*
X117458333Y-120345238D01*
X117303571Y-120654761D01*
X117303571Y-121273809D01*
X117458333Y-121583333D01*
X119470238Y-122976190D02*
X116220238Y-122976190D01*
X119470238Y-124369047D02*
X117767857Y-124369047D01*
X117458333Y-124214285D01*
X117303571Y-123904761D01*
X117303571Y-123440476D01*
X117458333Y-123130952D01*
X117613095Y-122976190D01*
X119470238Y-125916666D02*
X116220238Y-125916666D01*
X116220238Y-127154761D01*
X116375000Y-127464285D01*
X116529761Y-127619047D01*
X116839285Y-127773809D01*
X117303571Y-127773809D01*
X117613095Y-127619047D01*
X117767857Y-127464285D01*
X117922619Y-127154761D01*
X117922619Y-125916666D01*
X119470238Y-129630952D02*
X119315476Y-129321428D01*
X119005952Y-129166666D01*
X116220238Y-129166666D01*
X119470238Y-132261904D02*
X117767857Y-132261904D01*
X117458333Y-132107142D01*
X117303571Y-131797619D01*
X117303571Y-131178571D01*
X117458333Y-130869047D01*
X119315476Y-132261904D02*
X119470238Y-131952380D01*
X119470238Y-131178571D01*
X119315476Y-130869047D01*
X119005952Y-130714285D01*
X118696428Y-130714285D01*
X118386904Y-130869047D01*
X118232142Y-131178571D01*
X118232142Y-131952380D01*
X118077380Y-132261904D01*
X117303571Y-133345238D02*
X117303571Y-134583333D01*
X116220238Y-133809523D02*
X119005952Y-133809523D01*
X119315476Y-133964285D01*
X119470238Y-134273809D01*
X119470238Y-134583333D01*
X119315476Y-136904761D02*
X119470238Y-136595238D01*
X119470238Y-135976190D01*
X119315476Y-135666666D01*
X119005952Y-135511904D01*
X117767857Y-135511904D01*
X117458333Y-135666666D01*
X117303571Y-135976190D01*
X117303571Y-136595238D01*
X117458333Y-136904761D01*
X117767857Y-137059523D01*
X118077380Y-137059523D01*
X118386904Y-135511904D01*
D14*
X155854476Y-117841200D02*
X155978285Y-117779295D01*
X156164000Y-117779295D01*
X156349714Y-117841200D01*
X156473523Y-117965009D01*
X156535428Y-118088819D01*
X156597333Y-118336438D01*
X156597333Y-118522152D01*
X156535428Y-118769771D01*
X156473523Y-118893580D01*
X156349714Y-119017390D01*
X156164000Y-119079295D01*
X156040190Y-119079295D01*
X155854476Y-119017390D01*
X155792571Y-118955485D01*
X155792571Y-118522152D01*
X156040190Y-118522152D01*
X155235428Y-119079295D02*
X155235428Y-117779295D01*
X154492571Y-119079295D01*
X154492571Y-117779295D01*
X153873523Y-119079295D02*
X153873523Y-117779295D01*
X153564000Y-117779295D01*
X153378285Y-117841200D01*
X153254476Y-117965009D01*
X153192571Y-118088819D01*
X153130666Y-118336438D01*
X153130666Y-118522152D01*
X153192571Y-118769771D01*
X153254476Y-118893580D01*
X153378285Y-119017390D01*
X153564000Y-119079295D01*
X153873523Y-119079295D01*
X156210076Y-115391695D02*
X155467219Y-115391695D01*
X155838647Y-116691695D02*
X155838647Y-115391695D01*
X155157695Y-115391695D02*
X154291028Y-116691695D01*
X154291028Y-115391695D02*
X155157695Y-116691695D01*
X155334666Y-114050095D02*
X155768000Y-113431047D01*
X156077523Y-114050095D02*
X156077523Y-112750095D01*
X155582285Y-112750095D01*
X155458476Y-112812000D01*
X155396571Y-112873904D01*
X155334666Y-112997714D01*
X155334666Y-113183428D01*
X155396571Y-113307238D01*
X155458476Y-113369142D01*
X155582285Y-113431047D01*
X156077523Y-113431047D01*
X154901333Y-112750095D02*
X154034666Y-114050095D01*
X154034666Y-112750095D02*
X154901333Y-114050095D01*
X156789428Y-111014857D02*
X155798952Y-111014857D01*
X156294190Y-111510095D02*
X156294190Y-110519619D01*
X154560857Y-110210095D02*
X155179904Y-110210095D01*
X155241809Y-110829142D01*
X155179904Y-110767238D01*
X155056095Y-110705333D01*
X154746571Y-110705333D01*
X154622761Y-110767238D01*
X154560857Y-110829142D01*
X154498952Y-110952952D01*
X154498952Y-111262476D01*
X154560857Y-111386285D01*
X154622761Y-111448190D01*
X154746571Y-111510095D01*
X155056095Y-111510095D01*
X155179904Y-111448190D01*
X155241809Y-111386285D01*
X154127523Y-110210095D02*
X153694190Y-111510095D01*
X153260857Y-110210095D01*
D11*
X141500000Y-133100000D02*
G75*
G03X142500000Y-134100000I1000000J0D01*
G01*
X142500000Y-132100000D02*
G75*
G03X141500000Y-133100000I0J-1000000D01*
G01*
X160000000Y-134100000D02*
X160000000Y-139000000D01*
X142500000Y-134100000D02*
X160000000Y-134100000D01*
X142500000Y-132100000D02*
X160000000Y-132100000D01*
X101000000Y-100000000D02*
X159000000Y-100000000D01*
X100000000Y-101000000D02*
X100000000Y-139000000D01*
D15*
G04 #@! TO.C,REF\002A\002A*
G36*
X128062594Y-121087620D02*
X128111286Y-121281030D01*
X128197332Y-121454971D01*
X128317421Y-121605260D01*
X128468243Y-121727716D01*
X128646486Y-121818155D01*
X128839967Y-121870914D01*
X129035364Y-121882668D01*
X129223920Y-121852827D01*
X129400419Y-121785126D01*
X129559645Y-121683297D01*
X129696385Y-121551075D01*
X129805422Y-121392192D01*
X129881540Y-121210383D01*
X129906498Y-121107394D01*
X129921608Y-121018001D01*
X129927579Y-120949091D01*
X129923913Y-120882876D01*
X129910113Y-120801566D01*
X129896100Y-120735078D01*
X129832800Y-120547412D01*
X129730096Y-120379319D01*
X129591102Y-120234584D01*
X129418935Y-120116993D01*
X129364214Y-120088971D01*
X129291155Y-120055949D01*
X129229803Y-120035240D01*
X129165252Y-120024059D01*
X129082599Y-120019620D01*
X128990018Y-120019061D01*
X128820549Y-120027271D01*
X128681373Y-120054221D01*
X128559582Y-120104826D01*
X128442272Y-120183998D01*
X128353349Y-120261438D01*
X128221125Y-120405864D01*
X128129855Y-120556721D01*
X128075208Y-120722962D01*
X128054567Y-120878922D01*
X128062594Y-121087620D01*
X128062594Y-121087620D01*
G37*
X128062594Y-121087620D02*
X128111286Y-121281030D01*
X128197332Y-121454971D01*
X128317421Y-121605260D01*
X128468243Y-121727716D01*
X128646486Y-121818155D01*
X128839967Y-121870914D01*
X129035364Y-121882668D01*
X129223920Y-121852827D01*
X129400419Y-121785126D01*
X129559645Y-121683297D01*
X129696385Y-121551075D01*
X129805422Y-121392192D01*
X129881540Y-121210383D01*
X129906498Y-121107394D01*
X129921608Y-121018001D01*
X129927579Y-120949091D01*
X129923913Y-120882876D01*
X129910113Y-120801566D01*
X129896100Y-120735078D01*
X129832800Y-120547412D01*
X129730096Y-120379319D01*
X129591102Y-120234584D01*
X129418935Y-120116993D01*
X129364214Y-120088971D01*
X129291155Y-120055949D01*
X129229803Y-120035240D01*
X129165252Y-120024059D01*
X129082599Y-120019620D01*
X128990018Y-120019061D01*
X128820549Y-120027271D01*
X128681373Y-120054221D01*
X128559582Y-120104826D01*
X128442272Y-120183998D01*
X128353349Y-120261438D01*
X128221125Y-120405864D01*
X128129855Y-120556721D01*
X128075208Y-120722962D01*
X128054567Y-120878922D01*
X128062594Y-121087620D01*
G36*
X132975777Y-138082251D02*
X133446705Y-138082290D01*
X133874488Y-138082342D01*
X134261338Y-138082488D01*
X134609466Y-138082805D01*
X134921085Y-138083371D01*
X135198406Y-138084265D01*
X135443640Y-138085565D01*
X135659001Y-138087349D01*
X135846700Y-138089697D01*
X136008948Y-138092685D01*
X136147957Y-138096393D01*
X136265940Y-138100899D01*
X136365109Y-138106282D01*
X136447674Y-138112619D01*
X136515848Y-138119988D01*
X136571843Y-138128470D01*
X136617870Y-138138141D01*
X136656143Y-138149079D01*
X136688871Y-138161365D01*
X136718268Y-138175075D01*
X136746544Y-138190288D01*
X136775913Y-138207083D01*
X136794207Y-138217516D01*
X136916179Y-138286352D01*
X136916179Y-136562393D01*
X136723411Y-136562393D01*
X136636296Y-136560923D01*
X136569671Y-136557002D01*
X136533950Y-136551359D01*
X136530643Y-136548864D01*
X136544472Y-136525918D01*
X136580317Y-136480286D01*
X136619239Y-136434684D01*
X136701072Y-136325027D01*
X136783445Y-136185450D01*
X136858791Y-136030659D01*
X136919543Y-135875360D01*
X136938926Y-135813380D01*
X136968188Y-135675773D01*
X136988199Y-135509331D01*
X136998331Y-135329746D01*
X136997956Y-135152713D01*
X136986445Y-134993925D01*
X136974777Y-134918197D01*
X136898314Y-134640770D01*
X136782351Y-134385031D01*
X136627942Y-134152355D01*
X136436144Y-133944119D01*
X136208012Y-133761701D01*
X135985426Y-133627501D01*
X135750872Y-133517276D01*
X135511108Y-133432900D01*
X135257996Y-133372639D01*
X134983398Y-133334759D01*
X134679174Y-133317526D01*
X134523589Y-133316066D01*
X134409527Y-133320274D01*
X134409527Y-134985909D01*
X134596495Y-134986327D01*
X134772658Y-134992179D01*
X134927506Y-135003554D01*
X135050527Y-135020540D01*
X135075319Y-135025730D01*
X135290843Y-135089616D01*
X135465670Y-135173306D01*
X135600237Y-135277498D01*
X135694983Y-135402891D01*
X135750350Y-135550185D01*
X135766774Y-135720077D01*
X135744695Y-135913267D01*
X135713111Y-136040786D01*
X135676569Y-136139511D01*
X135624642Y-136248252D01*
X135577026Y-136329938D01*
X135483877Y-136471679D01*
X133173225Y-136471679D01*
X133085701Y-136336262D01*
X133003490Y-136178510D01*
X132949951Y-136009387D01*
X132925996Y-135838379D01*
X132932539Y-135674971D01*
X132970493Y-135528647D01*
X133001770Y-135464454D01*
X133088148Y-135348088D01*
X133202199Y-135249736D01*
X133348092Y-135167060D01*
X133529992Y-135097721D01*
X133752069Y-135039380D01*
X133763857Y-135036806D01*
X133888921Y-135016374D01*
X134045229Y-135001021D01*
X134222268Y-134990837D01*
X134409527Y-134985909D01*
X134409527Y-133320274D01*
X134096058Y-133331839D01*
X133702637Y-133375924D01*
X133343587Y-133448214D01*
X133019170Y-133548606D01*
X132729646Y-133676995D01*
X132475276Y-133833278D01*
X132256321Y-134017350D01*
X132073042Y-134229107D01*
X132010864Y-134319839D01*
X131898068Y-134522638D01*
X131818492Y-134730141D01*
X131769957Y-134951300D01*
X131750280Y-135195066D01*
X131752380Y-135380903D01*
X131774410Y-135641369D01*
X131818236Y-135867562D01*
X131885872Y-136066027D01*
X131979331Y-136243306D01*
X132048060Y-136341473D01*
X132092085Y-136400468D01*
X132122160Y-136444043D01*
X132131000Y-136460536D01*
X132109245Y-136463780D01*
X132047665Y-136466373D01*
X131951788Y-136468340D01*
X131827141Y-136469705D01*
X131679250Y-136470495D01*
X131513644Y-136470735D01*
X131335849Y-136470450D01*
X131151393Y-136469665D01*
X130965803Y-136468406D01*
X130784606Y-136466698D01*
X130613330Y-136464567D01*
X130457501Y-136462037D01*
X130322648Y-136459135D01*
X130214297Y-136455886D01*
X130137975Y-136452315D01*
X130123946Y-136451327D01*
X129982486Y-136436105D01*
X129871696Y-136412879D01*
X129777032Y-136377243D01*
X129683952Y-136324791D01*
X129664705Y-136312201D01*
X129591000Y-136263118D01*
X129591000Y-138081857D01*
X132975777Y-138082251D01*
X132975777Y-138082251D01*
G37*
X132975777Y-138082251D02*
X133446705Y-138082290D01*
X133874488Y-138082342D01*
X134261338Y-138082488D01*
X134609466Y-138082805D01*
X134921085Y-138083371D01*
X135198406Y-138084265D01*
X135443640Y-138085565D01*
X135659001Y-138087349D01*
X135846700Y-138089697D01*
X136008948Y-138092685D01*
X136147957Y-138096393D01*
X136265940Y-138100899D01*
X136365109Y-138106282D01*
X136447674Y-138112619D01*
X136515848Y-138119988D01*
X136571843Y-138128470D01*
X136617870Y-138138141D01*
X136656143Y-138149079D01*
X136688871Y-138161365D01*
X136718268Y-138175075D01*
X136746544Y-138190288D01*
X136775913Y-138207083D01*
X136794207Y-138217516D01*
X136916179Y-138286352D01*
X136916179Y-136562393D01*
X136723411Y-136562393D01*
X136636296Y-136560923D01*
X136569671Y-136557002D01*
X136533950Y-136551359D01*
X136530643Y-136548864D01*
X136544472Y-136525918D01*
X136580317Y-136480286D01*
X136619239Y-136434684D01*
X136701072Y-136325027D01*
X136783445Y-136185450D01*
X136858791Y-136030659D01*
X136919543Y-135875360D01*
X136938926Y-135813380D01*
X136968188Y-135675773D01*
X136988199Y-135509331D01*
X136998331Y-135329746D01*
X136997956Y-135152713D01*
X136986445Y-134993925D01*
X136974777Y-134918197D01*
X136898314Y-134640770D01*
X136782351Y-134385031D01*
X136627942Y-134152355D01*
X136436144Y-133944119D01*
X136208012Y-133761701D01*
X135985426Y-133627501D01*
X135750872Y-133517276D01*
X135511108Y-133432900D01*
X135257996Y-133372639D01*
X134983398Y-133334759D01*
X134679174Y-133317526D01*
X134523589Y-133316066D01*
X134409527Y-133320274D01*
X134409527Y-134985909D01*
X134596495Y-134986327D01*
X134772658Y-134992179D01*
X134927506Y-135003554D01*
X135050527Y-135020540D01*
X135075319Y-135025730D01*
X135290843Y-135089616D01*
X135465670Y-135173306D01*
X135600237Y-135277498D01*
X135694983Y-135402891D01*
X135750350Y-135550185D01*
X135766774Y-135720077D01*
X135744695Y-135913267D01*
X135713111Y-136040786D01*
X135676569Y-136139511D01*
X135624642Y-136248252D01*
X135577026Y-136329938D01*
X135483877Y-136471679D01*
X133173225Y-136471679D01*
X133085701Y-136336262D01*
X133003490Y-136178510D01*
X132949951Y-136009387D01*
X132925996Y-135838379D01*
X132932539Y-135674971D01*
X132970493Y-135528647D01*
X133001770Y-135464454D01*
X133088148Y-135348088D01*
X133202199Y-135249736D01*
X133348092Y-135167060D01*
X133529992Y-135097721D01*
X133752069Y-135039380D01*
X133763857Y-135036806D01*
X133888921Y-135016374D01*
X134045229Y-135001021D01*
X134222268Y-134990837D01*
X134409527Y-134985909D01*
X134409527Y-133320274D01*
X134096058Y-133331839D01*
X133702637Y-133375924D01*
X133343587Y-133448214D01*
X133019170Y-133548606D01*
X132729646Y-133676995D01*
X132475276Y-133833278D01*
X132256321Y-134017350D01*
X132073042Y-134229107D01*
X132010864Y-134319839D01*
X131898068Y-134522638D01*
X131818492Y-134730141D01*
X131769957Y-134951300D01*
X131750280Y-135195066D01*
X131752380Y-135380903D01*
X131774410Y-135641369D01*
X131818236Y-135867562D01*
X131885872Y-136066027D01*
X131979331Y-136243306D01*
X132048060Y-136341473D01*
X132092085Y-136400468D01*
X132122160Y-136444043D01*
X132131000Y-136460536D01*
X132109245Y-136463780D01*
X132047665Y-136466373D01*
X131951788Y-136468340D01*
X131827141Y-136469705D01*
X131679250Y-136470495D01*
X131513644Y-136470735D01*
X131335849Y-136470450D01*
X131151393Y-136469665D01*
X130965803Y-136468406D01*
X130784606Y-136466698D01*
X130613330Y-136464567D01*
X130457501Y-136462037D01*
X130322648Y-136459135D01*
X130214297Y-136455886D01*
X130137975Y-136452315D01*
X130123946Y-136451327D01*
X129982486Y-136436105D01*
X129871696Y-136412879D01*
X129777032Y-136377243D01*
X129683952Y-136324791D01*
X129664705Y-136312201D01*
X129591000Y-136263118D01*
X129591000Y-138081857D01*
X132975777Y-138082251D01*
G36*
X131758984Y-131025019D02*
X131799192Y-131330212D01*
X131866762Y-131601948D01*
X131962233Y-131841981D01*
X132086143Y-132052066D01*
X132213831Y-132207978D01*
X132362761Y-132346274D01*
X132523017Y-132454236D01*
X132708281Y-132540427D01*
X132794805Y-132571514D01*
X132873115Y-132597347D01*
X132945732Y-132619851D01*
X133016336Y-132639286D01*
X133088610Y-132655912D01*
X133166234Y-132669989D01*
X133252890Y-132681779D01*
X133352259Y-132691540D01*
X133468022Y-132699535D01*
X133603861Y-132706022D01*
X133763457Y-132711264D01*
X133950491Y-132715519D01*
X134168644Y-132719048D01*
X134421598Y-132722112D01*
X134713033Y-132724972D01*
X134999839Y-132727487D01*
X135313615Y-132730152D01*
X135585364Y-132732574D01*
X135818413Y-132735004D01*
X136016090Y-132737695D01*
X136181722Y-132740899D01*
X136318636Y-132744866D01*
X136430160Y-132749851D01*
X136519622Y-132756103D01*
X136590348Y-132763876D01*
X136645666Y-132773420D01*
X136688903Y-132784989D01*
X136723388Y-132798834D01*
X136752446Y-132815207D01*
X136779406Y-132834359D01*
X136807594Y-132856543D01*
X136818509Y-132865183D01*
X136864390Y-132896963D01*
X136895635Y-132911098D01*
X136896558Y-132911143D01*
X136900975Y-132889292D01*
X136905045Y-132827044D01*
X136908652Y-132729361D01*
X136911683Y-132601204D01*
X136914023Y-132447532D01*
X136915558Y-132273307D01*
X136916172Y-132083490D01*
X136916179Y-132061580D01*
X136916179Y-131212016D01*
X136723188Y-131205464D01*
X136530197Y-131198911D01*
X136632627Y-131074179D01*
X136768257Y-130878650D01*
X136878129Y-130657866D01*
X136938857Y-130484165D01*
X136968365Y-130345407D01*
X136988440Y-130177958D01*
X136998458Y-129997624D01*
X136997790Y-129820207D01*
X136985812Y-129661513D01*
X136974334Y-129588732D01*
X136898272Y-129307445D01*
X136788096Y-129053465D01*
X136645446Y-128828629D01*
X136471962Y-128634774D01*
X136269284Y-128473734D01*
X136039054Y-128347346D01*
X135785745Y-128258199D01*
X135672073Y-128233420D01*
X135547119Y-128218133D01*
X135396774Y-128210843D01*
X135328679Y-128209849D01*
X135322280Y-128209980D01*
X135322280Y-129736641D01*
X135473053Y-129755312D01*
X135601277Y-129811937D01*
X135713050Y-129909307D01*
X135721914Y-129919466D01*
X135791879Y-130016486D01*
X135837244Y-130120365D01*
X135861192Y-130242371D01*
X135866904Y-130393770D01*
X135866090Y-130430147D01*
X135860761Y-130538264D01*
X135849880Y-130618681D01*
X135829462Y-130689027D01*
X135795520Y-130766931D01*
X135785117Y-130788310D01*
X135713141Y-130910154D01*
X135627496Y-131004209D01*
X135596884Y-131029797D01*
X135483356Y-131119536D01*
X135089855Y-131119536D01*
X134931860Y-131118460D01*
X134815441Y-131115065D01*
X134736865Y-131109102D01*
X134692399Y-131100321D01*
X134679408Y-131092115D01*
X134673052Y-131060122D01*
X134667784Y-130992254D01*
X134664101Y-130897987D01*
X134662499Y-130786800D01*
X134662469Y-130768945D01*
X134673023Y-130526316D01*
X134705502Y-130320059D01*
X134761145Y-130146179D01*
X134841195Y-130000681D01*
X134935514Y-129890331D01*
X135051804Y-129800839D01*
X135178463Y-129751170D01*
X135322280Y-129736641D01*
X135322280Y-128209980D01*
X135140331Y-128213733D01*
X134981828Y-128230496D01*
X134838747Y-128263133D01*
X134696665Y-128314635D01*
X134591454Y-128362842D01*
X134400009Y-128480603D01*
X134223171Y-128637494D01*
X134064160Y-128828741D01*
X133926192Y-129049569D01*
X133812488Y-129295205D01*
X133726265Y-129560874D01*
X133696253Y-129690786D01*
X133651846Y-129964365D01*
X133622549Y-130262582D01*
X133609731Y-130566846D01*
X133613010Y-130821093D01*
X133626629Y-131146312D01*
X133508145Y-131131406D01*
X133308953Y-131092648D01*
X133146792Y-131030103D01*
X133020418Y-130942041D01*
X132928590Y-130826732D01*
X132870063Y-130682446D01*
X132843594Y-130507453D01*
X132847941Y-130300022D01*
X132855979Y-130223732D01*
X132906539Y-129940091D01*
X132988974Y-129665243D01*
X133065316Y-129475340D01*
X133104238Y-129384617D01*
X133135518Y-129307409D01*
X133154893Y-129254471D01*
X133159007Y-129239026D01*
X133140769Y-129219450D01*
X133082571Y-129185864D01*
X132983757Y-129137950D01*
X132843669Y-129075393D01*
X132661649Y-128997877D01*
X132629929Y-128984623D01*
X132484649Y-128924242D01*
X132353371Y-128870042D01*
X132241837Y-128824364D01*
X132155787Y-128789548D01*
X132100961Y-128767936D01*
X132083204Y-128761695D01*
X132073652Y-128781782D01*
X132063051Y-128834570D01*
X132055659Y-128891366D01*
X132046103Y-128951950D01*
X132027128Y-129047951D01*
X132000594Y-129170856D01*
X131968361Y-129312150D01*
X131932289Y-129463320D01*
X131918182Y-129520697D01*
X131866777Y-129731757D01*
X131826473Y-129907867D01*
X131795982Y-130057709D01*
X131774016Y-130189967D01*
X131759289Y-130313324D01*
X131750511Y-130436460D01*
X131746397Y-130568061D01*
X131745598Y-130684614D01*
X131758984Y-131025019D01*
X131758984Y-131025019D01*
G37*
X131758984Y-131025019D02*
X131799192Y-131330212D01*
X131866762Y-131601948D01*
X131962233Y-131841981D01*
X132086143Y-132052066D01*
X132213831Y-132207978D01*
X132362761Y-132346274D01*
X132523017Y-132454236D01*
X132708281Y-132540427D01*
X132794805Y-132571514D01*
X132873115Y-132597347D01*
X132945732Y-132619851D01*
X133016336Y-132639286D01*
X133088610Y-132655912D01*
X133166234Y-132669989D01*
X133252890Y-132681779D01*
X133352259Y-132691540D01*
X133468022Y-132699535D01*
X133603861Y-132706022D01*
X133763457Y-132711264D01*
X133950491Y-132715519D01*
X134168644Y-132719048D01*
X134421598Y-132722112D01*
X134713033Y-132724972D01*
X134999839Y-132727487D01*
X135313615Y-132730152D01*
X135585364Y-132732574D01*
X135818413Y-132735004D01*
X136016090Y-132737695D01*
X136181722Y-132740899D01*
X136318636Y-132744866D01*
X136430160Y-132749851D01*
X136519622Y-132756103D01*
X136590348Y-132763876D01*
X136645666Y-132773420D01*
X136688903Y-132784989D01*
X136723388Y-132798834D01*
X136752446Y-132815207D01*
X136779406Y-132834359D01*
X136807594Y-132856543D01*
X136818509Y-132865183D01*
X136864390Y-132896963D01*
X136895635Y-132911098D01*
X136896558Y-132911143D01*
X136900975Y-132889292D01*
X136905045Y-132827044D01*
X136908652Y-132729361D01*
X136911683Y-132601204D01*
X136914023Y-132447532D01*
X136915558Y-132273307D01*
X136916172Y-132083490D01*
X136916179Y-132061580D01*
X136916179Y-131212016D01*
X136723188Y-131205464D01*
X136530197Y-131198911D01*
X136632627Y-131074179D01*
X136768257Y-130878650D01*
X136878129Y-130657866D01*
X136938857Y-130484165D01*
X136968365Y-130345407D01*
X136988440Y-130177958D01*
X136998458Y-129997624D01*
X136997790Y-129820207D01*
X136985812Y-129661513D01*
X136974334Y-129588732D01*
X136898272Y-129307445D01*
X136788096Y-129053465D01*
X136645446Y-128828629D01*
X136471962Y-128634774D01*
X136269284Y-128473734D01*
X136039054Y-128347346D01*
X135785745Y-128258199D01*
X135672073Y-128233420D01*
X135547119Y-128218133D01*
X135396774Y-128210843D01*
X135328679Y-128209849D01*
X135322280Y-128209980D01*
X135322280Y-129736641D01*
X135473053Y-129755312D01*
X135601277Y-129811937D01*
X135713050Y-129909307D01*
X135721914Y-129919466D01*
X135791879Y-130016486D01*
X135837244Y-130120365D01*
X135861192Y-130242371D01*
X135866904Y-130393770D01*
X135866090Y-130430147D01*
X135860761Y-130538264D01*
X135849880Y-130618681D01*
X135829462Y-130689027D01*
X135795520Y-130766931D01*
X135785117Y-130788310D01*
X135713141Y-130910154D01*
X135627496Y-131004209D01*
X135596884Y-131029797D01*
X135483356Y-131119536D01*
X135089855Y-131119536D01*
X134931860Y-131118460D01*
X134815441Y-131115065D01*
X134736865Y-131109102D01*
X134692399Y-131100321D01*
X134679408Y-131092115D01*
X134673052Y-131060122D01*
X134667784Y-130992254D01*
X134664101Y-130897987D01*
X134662499Y-130786800D01*
X134662469Y-130768945D01*
X134673023Y-130526316D01*
X134705502Y-130320059D01*
X134761145Y-130146179D01*
X134841195Y-130000681D01*
X134935514Y-129890331D01*
X135051804Y-129800839D01*
X135178463Y-129751170D01*
X135322280Y-129736641D01*
X135322280Y-128209980D01*
X135140331Y-128213733D01*
X134981828Y-128230496D01*
X134838747Y-128263133D01*
X134696665Y-128314635D01*
X134591454Y-128362842D01*
X134400009Y-128480603D01*
X134223171Y-128637494D01*
X134064160Y-128828741D01*
X133926192Y-129049569D01*
X133812488Y-129295205D01*
X133726265Y-129560874D01*
X133696253Y-129690786D01*
X133651846Y-129964365D01*
X133622549Y-130262582D01*
X133609731Y-130566846D01*
X133613010Y-130821093D01*
X133626629Y-131146312D01*
X133508145Y-131131406D01*
X133308953Y-131092648D01*
X133146792Y-131030103D01*
X133020418Y-130942041D01*
X132928590Y-130826732D01*
X132870063Y-130682446D01*
X132843594Y-130507453D01*
X132847941Y-130300022D01*
X132855979Y-130223732D01*
X132906539Y-129940091D01*
X132988974Y-129665243D01*
X133065316Y-129475340D01*
X133104238Y-129384617D01*
X133135518Y-129307409D01*
X133154893Y-129254471D01*
X133159007Y-129239026D01*
X133140769Y-129219450D01*
X133082571Y-129185864D01*
X132983757Y-129137950D01*
X132843669Y-129075393D01*
X132661649Y-128997877D01*
X132629929Y-128984623D01*
X132484649Y-128924242D01*
X132353371Y-128870042D01*
X132241837Y-128824364D01*
X132155787Y-128789548D01*
X132100961Y-128767936D01*
X132083204Y-128761695D01*
X132073652Y-128781782D01*
X132063051Y-128834570D01*
X132055659Y-128891366D01*
X132046103Y-128951950D01*
X132027128Y-129047951D01*
X132000594Y-129170856D01*
X131968361Y-129312150D01*
X131932289Y-129463320D01*
X131918182Y-129520697D01*
X131866777Y-129731757D01*
X131826473Y-129907867D01*
X131795982Y-130057709D01*
X131774016Y-130189967D01*
X131759289Y-130313324D01*
X131750511Y-130436460D01*
X131746397Y-130568061D01*
X131745598Y-130684614D01*
X131758984Y-131025019D01*
G36*
X129915830Y-126313791D02*
X129958366Y-126635503D01*
X130039005Y-126964847D01*
X130158544Y-127305969D01*
X130317783Y-127663015D01*
X130328922Y-127685651D01*
X130385223Y-127801556D01*
X130433593Y-127905111D01*
X130470652Y-127988760D01*
X130493025Y-128044951D01*
X130498143Y-128064179D01*
X130508203Y-128102784D01*
X130516652Y-128112048D01*
X130537611Y-128101796D01*
X130590422Y-128069573D01*
X130669551Y-128019088D01*
X130769463Y-127954051D01*
X130884625Y-127878172D01*
X131009501Y-127795161D01*
X131138558Y-127708729D01*
X131266261Y-127622583D01*
X131387076Y-127540436D01*
X131495469Y-127465996D01*
X131585905Y-127402974D01*
X131652851Y-127355079D01*
X131690771Y-127326021D01*
X131695169Y-127322033D01*
X131685831Y-127301706D01*
X131651324Y-127256825D01*
X131598045Y-127195411D01*
X131568963Y-127163783D01*
X131417728Y-126969943D01*
X131306351Y-126755569D01*
X131235836Y-126523529D01*
X131207188Y-126276692D01*
X131209540Y-126137272D01*
X131244015Y-125893913D01*
X131316100Y-125674502D01*
X131426320Y-125478385D01*
X131575203Y-125304905D01*
X131763275Y-125153407D01*
X131991064Y-125023234D01*
X132165018Y-124948065D01*
X132437629Y-124859968D01*
X132733913Y-124795039D01*
X133046229Y-124753110D01*
X133366938Y-124734013D01*
X133688400Y-124737582D01*
X134002975Y-124763649D01*
X134303022Y-124812047D01*
X134580901Y-124882609D01*
X134828973Y-124975167D01*
X134897786Y-125007876D01*
X135126977Y-125144978D01*
X135320824Y-125306616D01*
X135477748Y-125490415D01*
X135596168Y-125694001D01*
X135674506Y-125915001D01*
X135711181Y-126151040D01*
X135713879Y-126234346D01*
X135691940Y-126478548D01*
X135626014Y-126720498D01*
X135517463Y-126957125D01*
X135367648Y-127185362D01*
X135210296Y-127368993D01*
X135120837Y-127462469D01*
X135718017Y-127826623D01*
X135867004Y-127917221D01*
X136004039Y-128000065D01*
X136124199Y-128072218D01*
X136222558Y-128130741D01*
X136294194Y-128172695D01*
X136334182Y-128195142D01*
X136340399Y-128198059D01*
X136359764Y-128181527D01*
X136394479Y-128130141D01*
X136441256Y-128050398D01*
X136496805Y-127948794D01*
X136557839Y-127831828D01*
X136621070Y-127705996D01*
X136683209Y-127577794D01*
X136740968Y-127453720D01*
X136791060Y-127340271D01*
X136830196Y-127243944D01*
X136847130Y-127196830D01*
X136923097Y-126928105D01*
X136973326Y-126651086D01*
X136999450Y-126354357D01*
X137004127Y-126099648D01*
X137001928Y-125963130D01*
X136997714Y-125831342D01*
X136992005Y-125715969D01*
X136985320Y-125628695D01*
X136981938Y-125600359D01*
X136924010Y-125321088D01*
X136833368Y-125036771D01*
X136715408Y-124760579D01*
X136575527Y-124505686D01*
X136469697Y-124349982D01*
X136252328Y-124094030D01*
X135998063Y-123856368D01*
X135713187Y-123641399D01*
X135403982Y-123453525D01*
X135076731Y-123297147D01*
X134841089Y-123209046D01*
X134472195Y-123108102D01*
X134081364Y-123040806D01*
X133677055Y-123007135D01*
X133267722Y-123007069D01*
X132861823Y-123040588D01*
X132467814Y-123107669D01*
X132094152Y-123208292D01*
X132070872Y-123215959D01*
X131745318Y-123342287D01*
X131448163Y-123496467D01*
X131170996Y-123683728D01*
X130905408Y-123909301D01*
X130814479Y-123997423D01*
X130565489Y-124270923D01*
X130359489Y-124552085D01*
X130194237Y-124845227D01*
X130067490Y-125154665D01*
X129977005Y-125484713D01*
X129941869Y-125676679D01*
X129910597Y-125995565D01*
X129915830Y-126313791D01*
X129915830Y-126313791D01*
G37*
X129915830Y-126313791D02*
X129958366Y-126635503D01*
X130039005Y-126964847D01*
X130158544Y-127305969D01*
X130317783Y-127663015D01*
X130328922Y-127685651D01*
X130385223Y-127801556D01*
X130433593Y-127905111D01*
X130470652Y-127988760D01*
X130493025Y-128044951D01*
X130498143Y-128064179D01*
X130508203Y-128102784D01*
X130516652Y-128112048D01*
X130537611Y-128101796D01*
X130590422Y-128069573D01*
X130669551Y-128019088D01*
X130769463Y-127954051D01*
X130884625Y-127878172D01*
X131009501Y-127795161D01*
X131138558Y-127708729D01*
X131266261Y-127622583D01*
X131387076Y-127540436D01*
X131495469Y-127465996D01*
X131585905Y-127402974D01*
X131652851Y-127355079D01*
X131690771Y-127326021D01*
X131695169Y-127322033D01*
X131685831Y-127301706D01*
X131651324Y-127256825D01*
X131598045Y-127195411D01*
X131568963Y-127163783D01*
X131417728Y-126969943D01*
X131306351Y-126755569D01*
X131235836Y-126523529D01*
X131207188Y-126276692D01*
X131209540Y-126137272D01*
X131244015Y-125893913D01*
X131316100Y-125674502D01*
X131426320Y-125478385D01*
X131575203Y-125304905D01*
X131763275Y-125153407D01*
X131991064Y-125023234D01*
X132165018Y-124948065D01*
X132437629Y-124859968D01*
X132733913Y-124795039D01*
X133046229Y-124753110D01*
X133366938Y-124734013D01*
X133688400Y-124737582D01*
X134002975Y-124763649D01*
X134303022Y-124812047D01*
X134580901Y-124882609D01*
X134828973Y-124975167D01*
X134897786Y-125007876D01*
X135126977Y-125144978D01*
X135320824Y-125306616D01*
X135477748Y-125490415D01*
X135596168Y-125694001D01*
X135674506Y-125915001D01*
X135711181Y-126151040D01*
X135713879Y-126234346D01*
X135691940Y-126478548D01*
X135626014Y-126720498D01*
X135517463Y-126957125D01*
X135367648Y-127185362D01*
X135210296Y-127368993D01*
X135120837Y-127462469D01*
X135718017Y-127826623D01*
X135867004Y-127917221D01*
X136004039Y-128000065D01*
X136124199Y-128072218D01*
X136222558Y-128130741D01*
X136294194Y-128172695D01*
X136334182Y-128195142D01*
X136340399Y-128198059D01*
X136359764Y-128181527D01*
X136394479Y-128130141D01*
X136441256Y-128050398D01*
X136496805Y-127948794D01*
X136557839Y-127831828D01*
X136621070Y-127705996D01*
X136683209Y-127577794D01*
X136740968Y-127453720D01*
X136791060Y-127340271D01*
X136830196Y-127243944D01*
X136847130Y-127196830D01*
X136923097Y-126928105D01*
X136973326Y-126651086D01*
X136999450Y-126354357D01*
X137004127Y-126099648D01*
X137001928Y-125963130D01*
X136997714Y-125831342D01*
X136992005Y-125715969D01*
X136985320Y-125628695D01*
X136981938Y-125600359D01*
X136924010Y-125321088D01*
X136833368Y-125036771D01*
X136715408Y-124760579D01*
X136575527Y-124505686D01*
X136469697Y-124349982D01*
X136252328Y-124094030D01*
X135998063Y-123856368D01*
X135713187Y-123641399D01*
X135403982Y-123453525D01*
X135076731Y-123297147D01*
X134841089Y-123209046D01*
X134472195Y-123108102D01*
X134081364Y-123040806D01*
X133677055Y-123007135D01*
X133267722Y-123007069D01*
X132861823Y-123040588D01*
X132467814Y-123107669D01*
X132094152Y-123208292D01*
X132070872Y-123215959D01*
X131745318Y-123342287D01*
X131448163Y-123496467D01*
X131170996Y-123683728D01*
X130905408Y-123909301D01*
X130814479Y-123997423D01*
X130565489Y-124270923D01*
X130359489Y-124552085D01*
X130194237Y-124845227D01*
X130067490Y-125154665D01*
X129977005Y-125484713D01*
X129941869Y-125676679D01*
X129910597Y-125995565D01*
X129915830Y-126313791D01*
G36*
X128991689Y-119734893D02*
X129220585Y-119756720D01*
X129436791Y-119820237D01*
X129635673Y-119922497D01*
X129812597Y-120060554D01*
X129962929Y-120231462D01*
X130079181Y-120426302D01*
X130158777Y-120639788D01*
X130196080Y-120854771D01*
X130193791Y-121067014D01*
X130154609Y-121272276D01*
X130081234Y-121466320D01*
X129976368Y-121644907D01*
X129842708Y-121803796D01*
X129682957Y-121938750D01*
X129499814Y-122045529D01*
X129295978Y-122119895D01*
X129074151Y-122157608D01*
X128973914Y-122161500D01*
X128797250Y-122161500D01*
X128797250Y-122265822D01*
X128802965Y-122338761D01*
X128826669Y-122392796D01*
X128874357Y-122447250D01*
X128951464Y-122524357D01*
X133354173Y-122524357D01*
X133880789Y-122524339D01*
X134363939Y-122524274D01*
X134805515Y-122524146D01*
X135207409Y-122523938D01*
X135571512Y-122523634D01*
X135899715Y-122523217D01*
X136193911Y-122522672D01*
X136455990Y-122521981D01*
X136687845Y-122521128D01*
X136891366Y-122520098D01*
X137068446Y-122518873D01*
X137220976Y-122517437D01*
X137350847Y-122515774D01*
X137459951Y-122513867D01*
X137550179Y-122511701D01*
X137623424Y-122509258D01*
X137681576Y-122506522D01*
X137726528Y-122503477D01*
X137760170Y-122500107D01*
X137784395Y-122496394D01*
X137801093Y-122492324D01*
X137812157Y-122487878D01*
X137815874Y-122485704D01*
X137829960Y-122477341D01*
X137842911Y-122470240D01*
X137854772Y-122462547D01*
X137865593Y-122452407D01*
X137875420Y-122437966D01*
X137884300Y-122417369D01*
X137892282Y-122388761D01*
X137899412Y-122350289D01*
X137905738Y-122300097D01*
X137911308Y-122236331D01*
X137916168Y-122157136D01*
X137920366Y-122060658D01*
X137923950Y-121945042D01*
X137926968Y-121808435D01*
X137929465Y-121648980D01*
X137931490Y-121464825D01*
X137933091Y-121254114D01*
X137934314Y-121014992D01*
X137935208Y-120745605D01*
X137935819Y-120444100D01*
X137936194Y-120108620D01*
X137936383Y-119737312D01*
X137936431Y-119328321D01*
X137936386Y-118879792D01*
X137936295Y-118389872D01*
X137936207Y-117856705D01*
X137936198Y-117779595D01*
X137936111Y-117243255D01*
X137935969Y-116750425D01*
X137935758Y-116299258D01*
X137935462Y-115887907D01*
X137935067Y-115514524D01*
X137934559Y-115177262D01*
X137933924Y-114874275D01*
X137933146Y-114603714D01*
X137932211Y-114363733D01*
X137931105Y-114152485D01*
X137929813Y-113968122D01*
X137928320Y-113808798D01*
X137926613Y-113672665D01*
X137924676Y-113557875D01*
X137922496Y-113462583D01*
X137920057Y-113384940D01*
X137917345Y-113323100D01*
X137914346Y-113275215D01*
X137911045Y-113239438D01*
X137907427Y-113213922D01*
X137903479Y-113196819D01*
X137900127Y-113188065D01*
X137892954Y-113171065D01*
X137887659Y-113155458D01*
X137882362Y-113141184D01*
X137875188Y-113128184D01*
X137864256Y-113116400D01*
X137847691Y-113105772D01*
X137823614Y-113096241D01*
X137790147Y-113087747D01*
X137745413Y-113080231D01*
X137687533Y-113073634D01*
X137614631Y-113067896D01*
X137524828Y-113062960D01*
X137416246Y-113058764D01*
X137287007Y-113055250D01*
X137135235Y-113052359D01*
X136959050Y-113050032D01*
X136756576Y-113048209D01*
X136525935Y-113046830D01*
X136265248Y-113045838D01*
X135972638Y-113045172D01*
X135646227Y-113044773D01*
X135284138Y-113044583D01*
X134884492Y-113044541D01*
X134445412Y-113044588D01*
X133965020Y-113044666D01*
X133441438Y-113044714D01*
X133356759Y-113044715D01*
X132828618Y-113044687D01*
X132343943Y-113044637D01*
X131900841Y-113044615D01*
X131497421Y-113044674D01*
X131131791Y-113044864D01*
X130802060Y-113045237D01*
X130506334Y-113045846D01*
X130242724Y-113046740D01*
X130021893Y-113047904D01*
X130021893Y-113656284D01*
X130138098Y-113736219D01*
X130169775Y-113758660D01*
X130197823Y-113778891D01*
X130224628Y-113797027D01*
X130252571Y-113813180D01*
X130284036Y-113827466D01*
X130321406Y-113839999D01*
X130367066Y-113850893D01*
X130423399Y-113860261D01*
X130492787Y-113868218D01*
X130577614Y-113874878D01*
X130680264Y-113880356D01*
X130803120Y-113884764D01*
X130948566Y-113888218D01*
X131118984Y-113890832D01*
X131316759Y-113892719D01*
X131544274Y-113893994D01*
X131803911Y-113894770D01*
X132098055Y-113895163D01*
X132429090Y-113895286D01*
X132799397Y-113895253D01*
X133211361Y-113895178D01*
X133457696Y-113895161D01*
X133893532Y-113895209D01*
X134286396Y-113895277D01*
X134638675Y-113895253D01*
X134952756Y-113895023D01*
X135231025Y-113894475D01*
X135475867Y-113893496D01*
X135689669Y-113891972D01*
X135874817Y-113889791D01*
X136033696Y-113886840D01*
X136168694Y-113883006D01*
X136282196Y-113878175D01*
X136376588Y-113872235D01*
X136454257Y-113865074D01*
X136517588Y-113856577D01*
X136568968Y-113846632D01*
X136610783Y-113835127D01*
X136645418Y-113821947D01*
X136675261Y-113806981D01*
X136702696Y-113790115D01*
X136730111Y-113771236D01*
X136759891Y-113750232D01*
X136777752Y-113737996D01*
X136893500Y-113660103D01*
X136893500Y-114727977D01*
X136893430Y-114975575D01*
X136893128Y-115181482D01*
X136892452Y-115349363D01*
X136891261Y-115482884D01*
X136889415Y-115585710D01*
X136886772Y-115661508D01*
X136883193Y-115713943D01*
X136878535Y-115746680D01*
X136872659Y-115763386D01*
X136865423Y-115767725D01*
X136856686Y-115763364D01*
X136853812Y-115760961D01*
X136779339Y-115710437D01*
X136673265Y-115658410D01*
X136548708Y-115610981D01*
X136495646Y-115594369D01*
X136459603Y-115585094D01*
X136417293Y-115577256D01*
X136364526Y-115570690D01*
X136297113Y-115565231D01*
X136210863Y-115560712D01*
X136101588Y-115556970D01*
X135965098Y-115553839D01*
X135797203Y-115551155D01*
X135593714Y-115548751D01*
X135350441Y-115546463D01*
X135260643Y-115545705D01*
X135009223Y-115543663D01*
X134799557Y-115542139D01*
X134628046Y-115541250D01*
X134491088Y-115541114D01*
X134385082Y-115541848D01*
X134306429Y-115543570D01*
X134251527Y-115546396D01*
X134216776Y-115550445D01*
X134198575Y-115555834D01*
X134193323Y-115562679D01*
X134197420Y-115571099D01*
X134206089Y-115580087D01*
X134232075Y-115600889D01*
X134290483Y-115645202D01*
X134377033Y-115709891D01*
X134487443Y-115791821D01*
X134617430Y-115887856D01*
X134762714Y-115994861D01*
X134919013Y-116109701D01*
X135082045Y-116229240D01*
X135247529Y-116350342D01*
X135411183Y-116469873D01*
X135568725Y-116584696D01*
X135715874Y-116691678D01*
X135848349Y-116787682D01*
X135961866Y-116869572D01*
X136052146Y-116934214D01*
X136114907Y-116978472D01*
X136128231Y-116987649D01*
X136202366Y-117033697D01*
X136298774Y-117087553D01*
X136398292Y-117138577D01*
X136411713Y-117145047D01*
X136508534Y-117188596D01*
X136583992Y-117213881D01*
X136655963Y-117225392D01*
X136740420Y-117227638D01*
X136893500Y-117226365D01*
X136893500Y-119545550D01*
X136705201Y-119362409D01*
X136604967Y-119268397D01*
X136491504Y-119167373D01*
X136382480Y-119074873D01*
X136331549Y-119033840D01*
X136252105Y-118972691D01*
X136145207Y-118892225D01*
X136014126Y-118794793D01*
X135862138Y-118682748D01*
X135692516Y-118558443D01*
X135508532Y-118424231D01*
X135313462Y-118282464D01*
X135110577Y-118135495D01*
X134903153Y-117985678D01*
X134694462Y-117835364D01*
X134487779Y-117686906D01*
X134286376Y-117542658D01*
X134093527Y-117404971D01*
X133912506Y-117276199D01*
X133746586Y-117158694D01*
X133599041Y-117054810D01*
X133473145Y-116966898D01*
X133372171Y-116897312D01*
X133299393Y-116848405D01*
X133258084Y-116822528D01*
X133249843Y-116818996D01*
X133227089Y-116834986D01*
X133172486Y-116876761D01*
X133089451Y-116941584D01*
X132981400Y-117026716D01*
X132851749Y-117129419D01*
X132703914Y-117246955D01*
X132541312Y-117376584D01*
X132367360Y-117515568D01*
X132185472Y-117661170D01*
X131999066Y-117810650D01*
X131849687Y-117930642D01*
X131849687Y-119961679D01*
X131875717Y-119973551D01*
X131920414Y-120002338D01*
X131923392Y-120004442D01*
X131983967Y-120042184D01*
X132057959Y-120081653D01*
X132074304Y-120089486D01*
X132091237Y-120096590D01*
X132111565Y-120102868D01*
X132138086Y-120108382D01*
X132173598Y-120113191D01*
X132220901Y-120117356D01*
X132282794Y-120120939D01*
X132362074Y-120123999D01*
X132461541Y-120126596D01*
X132583993Y-120128792D01*
X132732228Y-120130647D01*
X132909046Y-120132221D01*
X133117246Y-120133576D01*
X133359625Y-120134770D01*
X133638983Y-120135866D01*
X133958118Y-120136923D01*
X134317428Y-120137996D01*
X134689317Y-120139077D01*
X135018658Y-120139950D01*
X135308261Y-120140479D01*
X135560935Y-120140529D01*
X135779490Y-120139964D01*
X135966735Y-120138650D01*
X136125480Y-120136450D01*
X136258535Y-120133229D01*
X136368708Y-120128851D01*
X136458809Y-120123182D01*
X136531648Y-120116086D01*
X136590034Y-120107427D01*
X136636777Y-120097070D01*
X136674686Y-120084879D01*
X136706570Y-120070720D01*
X136735240Y-120054456D01*
X136763504Y-120035953D01*
X136788550Y-120018876D01*
X136841373Y-119984451D01*
X136876698Y-119964068D01*
X136883168Y-119961679D01*
X136885332Y-119983590D01*
X136887342Y-120046255D01*
X136889150Y-120145070D01*
X136890708Y-120275431D01*
X136891967Y-120432735D01*
X136892880Y-120612379D01*
X136893398Y-120809759D01*
X136893500Y-120948197D01*
X136893057Y-121159120D01*
X136891788Y-121353669D01*
X136889782Y-121527446D01*
X136887126Y-121676056D01*
X136883910Y-121795102D01*
X136880223Y-121880188D01*
X136876153Y-121926916D01*
X136873598Y-121934715D01*
X136843659Y-121919251D01*
X136827527Y-121903182D01*
X136793121Y-121876721D01*
X136732349Y-121842088D01*
X136683009Y-121818138D01*
X136564661Y-121764625D01*
X134200420Y-121758448D01*
X131836178Y-121752270D01*
X131836179Y-120856974D01*
X131836509Y-120660468D01*
X131837450Y-120478873D01*
X131838930Y-120317021D01*
X131840875Y-120179747D01*
X131843214Y-120071880D01*
X131845872Y-119998255D01*
X131848777Y-119963703D01*
X131849687Y-119961679D01*
X131849687Y-117930642D01*
X131811558Y-117961271D01*
X131626364Y-118110293D01*
X131446901Y-118254979D01*
X131276584Y-118392589D01*
X131118831Y-118520386D01*
X130977057Y-118635631D01*
X130854679Y-118735586D01*
X130755112Y-118817512D01*
X130713589Y-118851994D01*
X130511368Y-119025349D01*
X130344109Y-119179231D01*
X130207863Y-119317472D01*
X130098679Y-119443905D01*
X130083878Y-119462750D01*
X130022396Y-119542125D01*
X130022144Y-118405313D01*
X130021893Y-117268500D01*
X130118277Y-117279126D01*
X130233476Y-117272490D01*
X130370635Y-117229236D01*
X130530846Y-117148929D01*
X130676057Y-117057911D01*
X130721550Y-117025329D01*
X130796997Y-116968972D01*
X130898095Y-116892199D01*
X131020544Y-116798369D01*
X131160040Y-116690842D01*
X131312283Y-116572978D01*
X131472969Y-116448135D01*
X131637797Y-116319673D01*
X131802465Y-116190952D01*
X131962671Y-116065331D01*
X132114112Y-115946170D01*
X132252487Y-115836828D01*
X132373494Y-115740664D01*
X132472831Y-115661038D01*
X132546195Y-115601309D01*
X132589285Y-115564838D01*
X132595911Y-115558694D01*
X132579826Y-115552949D01*
X132518968Y-115548502D01*
X132413902Y-115545360D01*
X132265192Y-115543532D01*
X132073404Y-115543023D01*
X131839103Y-115543841D01*
X131598054Y-115545667D01*
X131332651Y-115548324D01*
X131108176Y-115551387D01*
X130920201Y-115555356D01*
X130764298Y-115560731D01*
X130636036Y-115568011D01*
X130530989Y-115577696D01*
X130444727Y-115590286D01*
X130372821Y-115606280D01*
X130310843Y-115626178D01*
X130254364Y-115650480D01*
X130198956Y-115679684D01*
X130148655Y-115709180D01*
X130021893Y-115785513D01*
X130021893Y-113656284D01*
X130021893Y-113047904D01*
X130009337Y-113047971D01*
X129804281Y-113049591D01*
X129625665Y-113051651D01*
X129471596Y-113054202D01*
X129340184Y-113057296D01*
X129229535Y-113060984D01*
X129137760Y-113065317D01*
X129062965Y-113070347D01*
X129003259Y-113076125D01*
X128956750Y-113082702D01*
X128921547Y-113090131D01*
X128895757Y-113098461D01*
X128877490Y-113107745D01*
X128864852Y-113118034D01*
X128855954Y-113129379D01*
X128848902Y-113141832D01*
X128841804Y-113155444D01*
X128834636Y-113167490D01*
X128829461Y-113178002D01*
X128824783Y-113194427D01*
X128820577Y-113218962D01*
X128816818Y-113253807D01*
X128813483Y-113301161D01*
X128810544Y-113363222D01*
X128807979Y-113442189D01*
X128805762Y-113540262D01*
X128803868Y-113659639D01*
X128802273Y-113802519D01*
X128800951Y-113971102D01*
X128799878Y-114167585D01*
X128799029Y-114394168D01*
X128798380Y-114653050D01*
X128797904Y-114946430D01*
X128797578Y-115276507D01*
X128797377Y-115645479D01*
X128797276Y-116055546D01*
X128797250Y-116479720D01*
X128797250Y-119734893D01*
X128991689Y-119734893D01*
X128991689Y-119734893D01*
G37*
X128991689Y-119734893D02*
X129220585Y-119756720D01*
X129436791Y-119820237D01*
X129635673Y-119922497D01*
X129812597Y-120060554D01*
X129962929Y-120231462D01*
X130079181Y-120426302D01*
X130158777Y-120639788D01*
X130196080Y-120854771D01*
X130193791Y-121067014D01*
X130154609Y-121272276D01*
X130081234Y-121466320D01*
X129976368Y-121644907D01*
X129842708Y-121803796D01*
X129682957Y-121938750D01*
X129499814Y-122045529D01*
X129295978Y-122119895D01*
X129074151Y-122157608D01*
X128973914Y-122161500D01*
X128797250Y-122161500D01*
X128797250Y-122265822D01*
X128802965Y-122338761D01*
X128826669Y-122392796D01*
X128874357Y-122447250D01*
X128951464Y-122524357D01*
X133354173Y-122524357D01*
X133880789Y-122524339D01*
X134363939Y-122524274D01*
X134805515Y-122524146D01*
X135207409Y-122523938D01*
X135571512Y-122523634D01*
X135899715Y-122523217D01*
X136193911Y-122522672D01*
X136455990Y-122521981D01*
X136687845Y-122521128D01*
X136891366Y-122520098D01*
X137068446Y-122518873D01*
X137220976Y-122517437D01*
X137350847Y-122515774D01*
X137459951Y-122513867D01*
X137550179Y-122511701D01*
X137623424Y-122509258D01*
X137681576Y-122506522D01*
X137726528Y-122503477D01*
X137760170Y-122500107D01*
X137784395Y-122496394D01*
X137801093Y-122492324D01*
X137812157Y-122487878D01*
X137815874Y-122485704D01*
X137829960Y-122477341D01*
X137842911Y-122470240D01*
X137854772Y-122462547D01*
X137865593Y-122452407D01*
X137875420Y-122437966D01*
X137884300Y-122417369D01*
X137892282Y-122388761D01*
X137899412Y-122350289D01*
X137905738Y-122300097D01*
X137911308Y-122236331D01*
X137916168Y-122157136D01*
X137920366Y-122060658D01*
X137923950Y-121945042D01*
X137926968Y-121808435D01*
X137929465Y-121648980D01*
X137931490Y-121464825D01*
X137933091Y-121254114D01*
X137934314Y-121014992D01*
X137935208Y-120745605D01*
X137935819Y-120444100D01*
X137936194Y-120108620D01*
X137936383Y-119737312D01*
X137936431Y-119328321D01*
X137936386Y-118879792D01*
X137936295Y-118389872D01*
X137936207Y-117856705D01*
X137936198Y-117779595D01*
X137936111Y-117243255D01*
X137935969Y-116750425D01*
X137935758Y-116299258D01*
X137935462Y-115887907D01*
X137935067Y-115514524D01*
X137934559Y-115177262D01*
X137933924Y-114874275D01*
X137933146Y-114603714D01*
X137932211Y-114363733D01*
X137931105Y-114152485D01*
X137929813Y-113968122D01*
X137928320Y-113808798D01*
X137926613Y-113672665D01*
X137924676Y-113557875D01*
X137922496Y-113462583D01*
X137920057Y-113384940D01*
X137917345Y-113323100D01*
X137914346Y-113275215D01*
X137911045Y-113239438D01*
X137907427Y-113213922D01*
X137903479Y-113196819D01*
X137900127Y-113188065D01*
X137892954Y-113171065D01*
X137887659Y-113155458D01*
X137882362Y-113141184D01*
X137875188Y-113128184D01*
X137864256Y-113116400D01*
X137847691Y-113105772D01*
X137823614Y-113096241D01*
X137790147Y-113087747D01*
X137745413Y-113080231D01*
X137687533Y-113073634D01*
X137614631Y-113067896D01*
X137524828Y-113062960D01*
X137416246Y-113058764D01*
X137287007Y-113055250D01*
X137135235Y-113052359D01*
X136959050Y-113050032D01*
X136756576Y-113048209D01*
X136525935Y-113046830D01*
X136265248Y-113045838D01*
X135972638Y-113045172D01*
X135646227Y-113044773D01*
X135284138Y-113044583D01*
X134884492Y-113044541D01*
X134445412Y-113044588D01*
X133965020Y-113044666D01*
X133441438Y-113044714D01*
X133356759Y-113044715D01*
X132828618Y-113044687D01*
X132343943Y-113044637D01*
X131900841Y-113044615D01*
X131497421Y-113044674D01*
X131131791Y-113044864D01*
X130802060Y-113045237D01*
X130506334Y-113045846D01*
X130242724Y-113046740D01*
X130021893Y-113047904D01*
X130021893Y-113656284D01*
X130138098Y-113736219D01*
X130169775Y-113758660D01*
X130197823Y-113778891D01*
X130224628Y-113797027D01*
X130252571Y-113813180D01*
X130284036Y-113827466D01*
X130321406Y-113839999D01*
X130367066Y-113850893D01*
X130423399Y-113860261D01*
X130492787Y-113868218D01*
X130577614Y-113874878D01*
X130680264Y-113880356D01*
X130803120Y-113884764D01*
X130948566Y-113888218D01*
X131118984Y-113890832D01*
X131316759Y-113892719D01*
X131544274Y-113893994D01*
X131803911Y-113894770D01*
X132098055Y-113895163D01*
X132429090Y-113895286D01*
X132799397Y-113895253D01*
X133211361Y-113895178D01*
X133457696Y-113895161D01*
X133893532Y-113895209D01*
X134286396Y-113895277D01*
X134638675Y-113895253D01*
X134952756Y-113895023D01*
X135231025Y-113894475D01*
X135475867Y-113893496D01*
X135689669Y-113891972D01*
X135874817Y-113889791D01*
X136033696Y-113886840D01*
X136168694Y-113883006D01*
X136282196Y-113878175D01*
X136376588Y-113872235D01*
X136454257Y-113865074D01*
X136517588Y-113856577D01*
X136568968Y-113846632D01*
X136610783Y-113835127D01*
X136645418Y-113821947D01*
X136675261Y-113806981D01*
X136702696Y-113790115D01*
X136730111Y-113771236D01*
X136759891Y-113750232D01*
X136777752Y-113737996D01*
X136893500Y-113660103D01*
X136893500Y-114727977D01*
X136893430Y-114975575D01*
X136893128Y-115181482D01*
X136892452Y-115349363D01*
X136891261Y-115482884D01*
X136889415Y-115585710D01*
X136886772Y-115661508D01*
X136883193Y-115713943D01*
X136878535Y-115746680D01*
X136872659Y-115763386D01*
X136865423Y-115767725D01*
X136856686Y-115763364D01*
X136853812Y-115760961D01*
X136779339Y-115710437D01*
X136673265Y-115658410D01*
X136548708Y-115610981D01*
X136495646Y-115594369D01*
X136459603Y-115585094D01*
X136417293Y-115577256D01*
X136364526Y-115570690D01*
X136297113Y-115565231D01*
X136210863Y-115560712D01*
X136101588Y-115556970D01*
X135965098Y-115553839D01*
X135797203Y-115551155D01*
X135593714Y-115548751D01*
X135350441Y-115546463D01*
X135260643Y-115545705D01*
X135009223Y-115543663D01*
X134799557Y-115542139D01*
X134628046Y-115541250D01*
X134491088Y-115541114D01*
X134385082Y-115541848D01*
X134306429Y-115543570D01*
X134251527Y-115546396D01*
X134216776Y-115550445D01*
X134198575Y-115555834D01*
X134193323Y-115562679D01*
X134197420Y-115571099D01*
X134206089Y-115580087D01*
X134232075Y-115600889D01*
X134290483Y-115645202D01*
X134377033Y-115709891D01*
X134487443Y-115791821D01*
X134617430Y-115887856D01*
X134762714Y-115994861D01*
X134919013Y-116109701D01*
X135082045Y-116229240D01*
X135247529Y-116350342D01*
X135411183Y-116469873D01*
X135568725Y-116584696D01*
X135715874Y-116691678D01*
X135848349Y-116787682D01*
X135961866Y-116869572D01*
X136052146Y-116934214D01*
X136114907Y-116978472D01*
X136128231Y-116987649D01*
X136202366Y-117033697D01*
X136298774Y-117087553D01*
X136398292Y-117138577D01*
X136411713Y-117145047D01*
X136508534Y-117188596D01*
X136583992Y-117213881D01*
X136655963Y-117225392D01*
X136740420Y-117227638D01*
X136893500Y-117226365D01*
X136893500Y-119545550D01*
X136705201Y-119362409D01*
X136604967Y-119268397D01*
X136491504Y-119167373D01*
X136382480Y-119074873D01*
X136331549Y-119033840D01*
X136252105Y-118972691D01*
X136145207Y-118892225D01*
X136014126Y-118794793D01*
X135862138Y-118682748D01*
X135692516Y-118558443D01*
X135508532Y-118424231D01*
X135313462Y-118282464D01*
X135110577Y-118135495D01*
X134903153Y-117985678D01*
X134694462Y-117835364D01*
X134487779Y-117686906D01*
X134286376Y-117542658D01*
X134093527Y-117404971D01*
X133912506Y-117276199D01*
X133746586Y-117158694D01*
X133599041Y-117054810D01*
X133473145Y-116966898D01*
X133372171Y-116897312D01*
X133299393Y-116848405D01*
X133258084Y-116822528D01*
X133249843Y-116818996D01*
X133227089Y-116834986D01*
X133172486Y-116876761D01*
X133089451Y-116941584D01*
X132981400Y-117026716D01*
X132851749Y-117129419D01*
X132703914Y-117246955D01*
X132541312Y-117376584D01*
X132367360Y-117515568D01*
X132185472Y-117661170D01*
X131999066Y-117810650D01*
X131849687Y-117930642D01*
X131849687Y-119961679D01*
X131875717Y-119973551D01*
X131920414Y-120002338D01*
X131923392Y-120004442D01*
X131983967Y-120042184D01*
X132057959Y-120081653D01*
X132074304Y-120089486D01*
X132091237Y-120096590D01*
X132111565Y-120102868D01*
X132138086Y-120108382D01*
X132173598Y-120113191D01*
X132220901Y-120117356D01*
X132282794Y-120120939D01*
X132362074Y-120123999D01*
X132461541Y-120126596D01*
X132583993Y-120128792D01*
X132732228Y-120130647D01*
X132909046Y-120132221D01*
X133117246Y-120133576D01*
X133359625Y-120134770D01*
X133638983Y-120135866D01*
X133958118Y-120136923D01*
X134317428Y-120137996D01*
X134689317Y-120139077D01*
X135018658Y-120139950D01*
X135308261Y-120140479D01*
X135560935Y-120140529D01*
X135779490Y-120139964D01*
X135966735Y-120138650D01*
X136125480Y-120136450D01*
X136258535Y-120133229D01*
X136368708Y-120128851D01*
X136458809Y-120123182D01*
X136531648Y-120116086D01*
X136590034Y-120107427D01*
X136636777Y-120097070D01*
X136674686Y-120084879D01*
X136706570Y-120070720D01*
X136735240Y-120054456D01*
X136763504Y-120035953D01*
X136788550Y-120018876D01*
X136841373Y-119984451D01*
X136876698Y-119964068D01*
X136883168Y-119961679D01*
X136885332Y-119983590D01*
X136887342Y-120046255D01*
X136889150Y-120145070D01*
X136890708Y-120275431D01*
X136891967Y-120432735D01*
X136892880Y-120612379D01*
X136893398Y-120809759D01*
X136893500Y-120948197D01*
X136893057Y-121159120D01*
X136891788Y-121353669D01*
X136889782Y-121527446D01*
X136887126Y-121676056D01*
X136883910Y-121795102D01*
X136880223Y-121880188D01*
X136876153Y-121926916D01*
X136873598Y-121934715D01*
X136843659Y-121919251D01*
X136827527Y-121903182D01*
X136793121Y-121876721D01*
X136732349Y-121842088D01*
X136683009Y-121818138D01*
X136564661Y-121764625D01*
X134200420Y-121758448D01*
X131836178Y-121752270D01*
X131836179Y-120856974D01*
X131836509Y-120660468D01*
X131837450Y-120478873D01*
X131838930Y-120317021D01*
X131840875Y-120179747D01*
X131843214Y-120071880D01*
X131845872Y-119998255D01*
X131848777Y-119963703D01*
X131849687Y-119961679D01*
X131849687Y-117930642D01*
X131811558Y-117961271D01*
X131626364Y-118110293D01*
X131446901Y-118254979D01*
X131276584Y-118392589D01*
X131118831Y-118520386D01*
X130977057Y-118635631D01*
X130854679Y-118735586D01*
X130755112Y-118817512D01*
X130713589Y-118851994D01*
X130511368Y-119025349D01*
X130344109Y-119179231D01*
X130207863Y-119317472D01*
X130098679Y-119443905D01*
X130083878Y-119462750D01*
X130022396Y-119542125D01*
X130022144Y-118405313D01*
X130021893Y-117268500D01*
X130118277Y-117279126D01*
X130233476Y-117272490D01*
X130370635Y-117229236D01*
X130530846Y-117148929D01*
X130676057Y-117057911D01*
X130721550Y-117025329D01*
X130796997Y-116968972D01*
X130898095Y-116892199D01*
X131020544Y-116798369D01*
X131160040Y-116690842D01*
X131312283Y-116572978D01*
X131472969Y-116448135D01*
X131637797Y-116319673D01*
X131802465Y-116190952D01*
X131962671Y-116065331D01*
X132114112Y-115946170D01*
X132252487Y-115836828D01*
X132373494Y-115740664D01*
X132472831Y-115661038D01*
X132546195Y-115601309D01*
X132589285Y-115564838D01*
X132595911Y-115558694D01*
X132579826Y-115552949D01*
X132518968Y-115548502D01*
X132413902Y-115545360D01*
X132265192Y-115543532D01*
X132073404Y-115543023D01*
X131839103Y-115543841D01*
X131598054Y-115545667D01*
X131332651Y-115548324D01*
X131108176Y-115551387D01*
X130920201Y-115555356D01*
X130764298Y-115560731D01*
X130636036Y-115568011D01*
X130530989Y-115577696D01*
X130444727Y-115590286D01*
X130372821Y-115606280D01*
X130310843Y-115626178D01*
X130254364Y-115650480D01*
X130198956Y-115679684D01*
X130148655Y-115709180D01*
X130021893Y-115785513D01*
X130021893Y-113656284D01*
X130021893Y-113047904D01*
X130009337Y-113047971D01*
X129804281Y-113049591D01*
X129625665Y-113051651D01*
X129471596Y-113054202D01*
X129340184Y-113057296D01*
X129229535Y-113060984D01*
X129137760Y-113065317D01*
X129062965Y-113070347D01*
X129003259Y-113076125D01*
X128956750Y-113082702D01*
X128921547Y-113090131D01*
X128895757Y-113098461D01*
X128877490Y-113107745D01*
X128864852Y-113118034D01*
X128855954Y-113129379D01*
X128848902Y-113141832D01*
X128841804Y-113155444D01*
X128834636Y-113167490D01*
X128829461Y-113178002D01*
X128824783Y-113194427D01*
X128820577Y-113218962D01*
X128816818Y-113253807D01*
X128813483Y-113301161D01*
X128810544Y-113363222D01*
X128807979Y-113442189D01*
X128805762Y-113540262D01*
X128803868Y-113659639D01*
X128802273Y-113802519D01*
X128800951Y-113971102D01*
X128799878Y-114167585D01*
X128799029Y-114394168D01*
X128798380Y-114653050D01*
X128797904Y-114946430D01*
X128797578Y-115276507D01*
X128797377Y-115645479D01*
X128797276Y-116055546D01*
X128797250Y-116479720D01*
X128797250Y-119734893D01*
X128991689Y-119734893D01*
G36*
X138605374Y-138167262D02*
X138650058Y-138230299D01*
X138705724Y-138285965D01*
X139327357Y-138285965D01*
X139511936Y-138285819D01*
X139656660Y-138285130D01*
X139767032Y-138283517D01*
X139848553Y-138280600D01*
X139906726Y-138276002D01*
X139947054Y-138269341D01*
X139975037Y-138260238D01*
X139996180Y-138248314D01*
X140008745Y-138238961D01*
X140058112Y-138177225D01*
X140063470Y-138106337D01*
X140033196Y-138041546D01*
X140015323Y-138020137D01*
X139991582Y-138005826D01*
X139953352Y-137997194D01*
X139892010Y-137992822D01*
X139798937Y-137991290D01*
X139727035Y-137991143D01*
X139456179Y-137991143D01*
X139456179Y-136993286D01*
X139702584Y-136993286D01*
X139815259Y-136992254D01*
X139892695Y-136988126D01*
X139944985Y-136979351D01*
X139982221Y-136964382D01*
X140008745Y-136946283D01*
X140057973Y-136884201D01*
X140063802Y-136813992D01*
X140028812Y-136746779D01*
X140010470Y-136728428D01*
X139986154Y-136715468D01*
X139948278Y-136706919D01*
X139889255Y-136701805D01*
X139801499Y-136699149D01*
X139677423Y-136697971D01*
X139648946Y-136697834D01*
X139415169Y-136696862D01*
X139222505Y-136696361D01*
X139066712Y-136696524D01*
X138943548Y-136697545D01*
X138848770Y-136699617D01*
X138778136Y-136702933D01*
X138727403Y-136707687D01*
X138692329Y-136714071D01*
X138668670Y-136722280D01*
X138652186Y-136732507D01*
X138639750Y-136743822D01*
X138599971Y-136807829D01*
X138605374Y-136874583D01*
X138650058Y-136937620D01*
X138678887Y-136963129D01*
X138710732Y-136979389D01*
X138756085Y-136988461D01*
X138825443Y-136992406D01*
X138929299Y-136993285D01*
X138933541Y-136993286D01*
X139161357Y-136993286D01*
X139161357Y-137991143D01*
X138923232Y-137991143D01*
X138813528Y-137992161D01*
X138739453Y-137996251D01*
X138691304Y-138004965D01*
X138659378Y-138019855D01*
X138639750Y-138036500D01*
X138599971Y-138100507D01*
X138605374Y-138167262D01*
X138605374Y-138167262D01*
G37*
X138605374Y-138167262D02*
X138650058Y-138230299D01*
X138705724Y-138285965D01*
X139327357Y-138285965D01*
X139511936Y-138285819D01*
X139656660Y-138285130D01*
X139767032Y-138283517D01*
X139848553Y-138280600D01*
X139906726Y-138276002D01*
X139947054Y-138269341D01*
X139975037Y-138260238D01*
X139996180Y-138248314D01*
X140008745Y-138238961D01*
X140058112Y-138177225D01*
X140063470Y-138106337D01*
X140033196Y-138041546D01*
X140015323Y-138020137D01*
X139991582Y-138005826D01*
X139953352Y-137997194D01*
X139892010Y-137992822D01*
X139798937Y-137991290D01*
X139727035Y-137991143D01*
X139456179Y-137991143D01*
X139456179Y-136993286D01*
X139702584Y-136993286D01*
X139815259Y-136992254D01*
X139892695Y-136988126D01*
X139944985Y-136979351D01*
X139982221Y-136964382D01*
X140008745Y-136946283D01*
X140057973Y-136884201D01*
X140063802Y-136813992D01*
X140028812Y-136746779D01*
X140010470Y-136728428D01*
X139986154Y-136715468D01*
X139948278Y-136706919D01*
X139889255Y-136701805D01*
X139801499Y-136699149D01*
X139677423Y-136697971D01*
X139648946Y-136697834D01*
X139415169Y-136696862D01*
X139222505Y-136696361D01*
X139066712Y-136696524D01*
X138943548Y-136697545D01*
X138848770Y-136699617D01*
X138778136Y-136702933D01*
X138727403Y-136707687D01*
X138692329Y-136714071D01*
X138668670Y-136722280D01*
X138652186Y-136732507D01*
X138639750Y-136743822D01*
X138599971Y-136807829D01*
X138605374Y-136874583D01*
X138650058Y-136937620D01*
X138678887Y-136963129D01*
X138710732Y-136979389D01*
X138756085Y-136988461D01*
X138825443Y-136992406D01*
X138929299Y-136993285D01*
X138933541Y-136993286D01*
X139161357Y-136993286D01*
X139161357Y-137991143D01*
X138923232Y-137991143D01*
X138813528Y-137992161D01*
X138739453Y-137996251D01*
X138691304Y-138004965D01*
X138659378Y-138019855D01*
X138639750Y-138036500D01*
X138599971Y-138100507D01*
X138605374Y-138167262D01*
G36*
X138594587Y-135624443D02*
X138595347Y-135782561D01*
X138596937Y-135905288D01*
X138599622Y-135997606D01*
X138603667Y-136064499D01*
X138609337Y-136110948D01*
X138616897Y-136141937D01*
X138626612Y-136162448D01*
X138634080Y-136172374D01*
X138699442Y-136223891D01*
X138767305Y-136230123D01*
X138828954Y-136198287D01*
X138853589Y-136177468D01*
X138870387Y-136155065D01*
X138880847Y-136122597D01*
X138886472Y-136071586D01*
X138888760Y-135993550D01*
X138889212Y-135880010D01*
X138889214Y-135857711D01*
X138889214Y-135564536D01*
X139433500Y-135564536D01*
X139605059Y-135564343D01*
X139737066Y-135563466D01*
X139835322Y-135561458D01*
X139905633Y-135557874D01*
X139953800Y-135552267D01*
X139985628Y-135544191D01*
X140006919Y-135533198D01*
X140023143Y-135519179D01*
X140063011Y-135453019D01*
X140059869Y-135383954D01*
X140014382Y-135321320D01*
X140008745Y-135316718D01*
X139987435Y-135301737D01*
X139962502Y-135290323D01*
X139927886Y-135281994D01*
X139877530Y-135276267D01*
X139805375Y-135272659D01*
X139705363Y-135270686D01*
X139571435Y-135269866D01*
X139419102Y-135269715D01*
X138889214Y-135269715D01*
X138889214Y-134989747D01*
X138888401Y-134869602D01*
X138885233Y-134786425D01*
X138878616Y-134731843D01*
X138867456Y-134697486D01*
X138850661Y-134674980D01*
X138847741Y-134672247D01*
X138780967Y-134639386D01*
X138705477Y-134642292D01*
X138639750Y-134680072D01*
X138627001Y-134694682D01*
X138616892Y-134713520D01*
X138609117Y-134741608D01*
X138603372Y-134783970D01*
X138599351Y-134845630D01*
X138596749Y-134931612D01*
X138595259Y-135046938D01*
X138594576Y-135196632D01*
X138594396Y-135385718D01*
X138594393Y-135425952D01*
X138594587Y-135624443D01*
X138594587Y-135624443D01*
G37*
X138594587Y-135624443D02*
X138595347Y-135782561D01*
X138596937Y-135905288D01*
X138599622Y-135997606D01*
X138603667Y-136064499D01*
X138609337Y-136110948D01*
X138616897Y-136141937D01*
X138626612Y-136162448D01*
X138634080Y-136172374D01*
X138699442Y-136223891D01*
X138767305Y-136230123D01*
X138828954Y-136198287D01*
X138853589Y-136177468D01*
X138870387Y-136155065D01*
X138880847Y-136122597D01*
X138886472Y-136071586D01*
X138888760Y-135993550D01*
X138889212Y-135880010D01*
X138889214Y-135857711D01*
X138889214Y-135564536D01*
X139433500Y-135564536D01*
X139605059Y-135564343D01*
X139737066Y-135563466D01*
X139835322Y-135561458D01*
X139905633Y-135557874D01*
X139953800Y-135552267D01*
X139985628Y-135544191D01*
X140006919Y-135533198D01*
X140023143Y-135519179D01*
X140063011Y-135453019D01*
X140059869Y-135383954D01*
X140014382Y-135321320D01*
X140008745Y-135316718D01*
X139987435Y-135301737D01*
X139962502Y-135290323D01*
X139927886Y-135281994D01*
X139877530Y-135276267D01*
X139805375Y-135272659D01*
X139705363Y-135270686D01*
X139571435Y-135269866D01*
X139419102Y-135269715D01*
X138889214Y-135269715D01*
X138889214Y-134989747D01*
X138888401Y-134869602D01*
X138885233Y-134786425D01*
X138878616Y-134731843D01*
X138867456Y-134697486D01*
X138850661Y-134674980D01*
X138847741Y-134672247D01*
X138780967Y-134639386D01*
X138705477Y-134642292D01*
X138639750Y-134680072D01*
X138627001Y-134694682D01*
X138616892Y-134713520D01*
X138609117Y-134741608D01*
X138603372Y-134783970D01*
X138599351Y-134845630D01*
X138596749Y-134931612D01*
X138595259Y-135046938D01*
X138594576Y-135196632D01*
X138594396Y-135385718D01*
X138594393Y-135425952D01*
X138594587Y-135624443D01*
G36*
X138608074Y-134068627D02*
X138637746Y-134116265D01*
X138681100Y-134169804D01*
X139327062Y-134169804D01*
X139516015Y-134169633D01*
X139664881Y-134168903D01*
X139778932Y-134167285D01*
X139863436Y-134164451D01*
X139923663Y-134160072D01*
X139964885Y-134153821D01*
X139992370Y-134145369D01*
X140011390Y-134134388D01*
X140020762Y-134126601D01*
X140061931Y-134063443D01*
X140060252Y-133991523D01*
X140025147Y-133928522D01*
X139981793Y-133874982D01*
X138681100Y-133874982D01*
X138637746Y-133928522D01*
X138606210Y-133980195D01*
X138594393Y-134022393D01*
X138608074Y-134068627D01*
X138608074Y-134068627D01*
G37*
X138608074Y-134068627D02*
X138637746Y-134116265D01*
X138681100Y-134169804D01*
X139327062Y-134169804D01*
X139516015Y-134169633D01*
X139664881Y-134168903D01*
X139778932Y-134167285D01*
X139863436Y-134164451D01*
X139923663Y-134160072D01*
X139964885Y-134153821D01*
X139992370Y-134145369D01*
X140011390Y-134134388D01*
X140020762Y-134126601D01*
X140061931Y-134063443D01*
X140060252Y-133991523D01*
X140025147Y-133928522D01*
X139981793Y-133874982D01*
X138681100Y-133874982D01*
X138637746Y-133928522D01*
X138606210Y-133980195D01*
X138594393Y-134022393D01*
X138608074Y-134068627D01*
G36*
X138598345Y-133176765D02*
X138612409Y-133216119D01*
X138613097Y-133217638D01*
X138653881Y-133271080D01*
X138695832Y-133300525D01*
X138715501Y-133306287D01*
X138741637Y-133306002D01*
X138778868Y-133297895D01*
X138831828Y-133280188D01*
X138905145Y-133251104D01*
X139003451Y-133208867D01*
X139131376Y-133151700D01*
X139293552Y-133077826D01*
X139382193Y-133037164D01*
X139540435Y-132963739D01*
X139685957Y-132894811D01*
X139813437Y-132833012D01*
X139917556Y-132780971D01*
X139992993Y-132741321D01*
X140034428Y-132716691D01*
X140040152Y-132711817D01*
X140065402Y-132649458D01*
X140062020Y-132579020D01*
X140031310Y-132522528D01*
X140028812Y-132520226D01*
X139994792Y-132497754D01*
X139928528Y-132460058D01*
X139838549Y-132411786D01*
X139733386Y-132357588D01*
X139694633Y-132338110D01*
X139400140Y-132191082D01*
X139720049Y-132030823D01*
X139830583Y-131973621D01*
X139926444Y-131920551D01*
X140000293Y-131875949D01*
X140044793Y-131844150D01*
X140054229Y-131833373D01*
X140067009Y-131749606D01*
X140040152Y-131680484D01*
X140011449Y-131660151D01*
X139947658Y-131624966D01*
X139855056Y-131577799D01*
X139739920Y-131521520D01*
X139608526Y-131458999D01*
X139467152Y-131393107D01*
X139322074Y-131326714D01*
X139179570Y-131262690D01*
X139045917Y-131203906D01*
X138927391Y-131153232D01*
X138830269Y-131113538D01*
X138760829Y-131087695D01*
X138725347Y-131078572D01*
X138724062Y-131078665D01*
X138679414Y-131100861D01*
X138633940Y-131145226D01*
X138631962Y-131147839D01*
X138601140Y-131202366D01*
X138601438Y-131252801D01*
X138607249Y-131271704D01*
X138619807Y-131294739D01*
X138644511Y-131319200D01*
X138686484Y-131348022D01*
X138750852Y-131384140D01*
X138842740Y-131430488D01*
X138967271Y-131489999D01*
X139082223Y-131543667D01*
X139215472Y-131605412D01*
X139335300Y-131660740D01*
X139435448Y-131706777D01*
X139509655Y-131740650D01*
X139551661Y-131759482D01*
X139558232Y-131762229D01*
X139547490Y-131774582D01*
X139502513Y-131802973D01*
X139429865Y-131843625D01*
X139336111Y-131892759D01*
X139297429Y-131912311D01*
X139166812Y-131978545D01*
X139071688Y-132029624D01*
X139006529Y-132069740D01*
X138965802Y-132103084D01*
X138943978Y-132133849D01*
X138935526Y-132166225D01*
X138934571Y-132187324D01*
X138937869Y-132224542D01*
X138951509Y-132257156D01*
X138981111Y-132289562D01*
X139032293Y-132326156D01*
X139110675Y-132371334D01*
X139221877Y-132429492D01*
X139285135Y-132461580D01*
X139385952Y-132513628D01*
X139469557Y-132559024D01*
X139528897Y-132593760D01*
X139556916Y-132613833D01*
X139558083Y-132616563D01*
X139536031Y-132629526D01*
X139478770Y-132658549D01*
X139392293Y-132700725D01*
X139282593Y-132753148D01*
X139155663Y-132812911D01*
X139092616Y-132842309D01*
X138929907Y-132918788D01*
X138804706Y-132980372D01*
X138712928Y-133030258D01*
X138650487Y-133071643D01*
X138613300Y-133107724D01*
X138597281Y-133141699D01*
X138598345Y-133176765D01*
X138598345Y-133176765D01*
G37*
X138598345Y-133176765D02*
X138612409Y-133216119D01*
X138613097Y-133217638D01*
X138653881Y-133271080D01*
X138695832Y-133300525D01*
X138715501Y-133306287D01*
X138741637Y-133306002D01*
X138778868Y-133297895D01*
X138831828Y-133280188D01*
X138905145Y-133251104D01*
X139003451Y-133208867D01*
X139131376Y-133151700D01*
X139293552Y-133077826D01*
X139382193Y-133037164D01*
X139540435Y-132963739D01*
X139685957Y-132894811D01*
X139813437Y-132833012D01*
X139917556Y-132780971D01*
X139992993Y-132741321D01*
X140034428Y-132716691D01*
X140040152Y-132711817D01*
X140065402Y-132649458D01*
X140062020Y-132579020D01*
X140031310Y-132522528D01*
X140028812Y-132520226D01*
X139994792Y-132497754D01*
X139928528Y-132460058D01*
X139838549Y-132411786D01*
X139733386Y-132357588D01*
X139694633Y-132338110D01*
X139400140Y-132191082D01*
X139720049Y-132030823D01*
X139830583Y-131973621D01*
X139926444Y-131920551D01*
X140000293Y-131875949D01*
X140044793Y-131844150D01*
X140054229Y-131833373D01*
X140067009Y-131749606D01*
X140040152Y-131680484D01*
X140011449Y-131660151D01*
X139947658Y-131624966D01*
X139855056Y-131577799D01*
X139739920Y-131521520D01*
X139608526Y-131458999D01*
X139467152Y-131393107D01*
X139322074Y-131326714D01*
X139179570Y-131262690D01*
X139045917Y-131203906D01*
X138927391Y-131153232D01*
X138830269Y-131113538D01*
X138760829Y-131087695D01*
X138725347Y-131078572D01*
X138724062Y-131078665D01*
X138679414Y-131100861D01*
X138633940Y-131145226D01*
X138631962Y-131147839D01*
X138601140Y-131202366D01*
X138601438Y-131252801D01*
X138607249Y-131271704D01*
X138619807Y-131294739D01*
X138644511Y-131319200D01*
X138686484Y-131348022D01*
X138750852Y-131384140D01*
X138842740Y-131430488D01*
X138967271Y-131489999D01*
X139082223Y-131543667D01*
X139215472Y-131605412D01*
X139335300Y-131660740D01*
X139435448Y-131706777D01*
X139509655Y-131740650D01*
X139551661Y-131759482D01*
X139558232Y-131762229D01*
X139547490Y-131774582D01*
X139502513Y-131802973D01*
X139429865Y-131843625D01*
X139336111Y-131892759D01*
X139297429Y-131912311D01*
X139166812Y-131978545D01*
X139071688Y-132029624D01*
X139006529Y-132069740D01*
X138965802Y-132103084D01*
X138943978Y-132133849D01*
X138935526Y-132166225D01*
X138934571Y-132187324D01*
X138937869Y-132224542D01*
X138951509Y-132257156D01*
X138981111Y-132289562D01*
X139032293Y-132326156D01*
X139110675Y-132371334D01*
X139221877Y-132429492D01*
X139285135Y-132461580D01*
X139385952Y-132513628D01*
X139469557Y-132559024D01*
X139528897Y-132593760D01*
X139556916Y-132613833D01*
X139558083Y-132616563D01*
X139536031Y-132629526D01*
X139478770Y-132658549D01*
X139392293Y-132700725D01*
X139282593Y-132753148D01*
X139155663Y-132812911D01*
X139092616Y-132842309D01*
X138929907Y-132918788D01*
X138804706Y-132980372D01*
X138712928Y-133030258D01*
X138650487Y-133071643D01*
X138613300Y-133107724D01*
X138597281Y-133141699D01*
X138598345Y-133176765D01*
G36*
X138594811Y-127699710D02*
X138603572Y-127958821D01*
X138630140Y-128179206D01*
X138676105Y-128364499D01*
X138743060Y-128518335D01*
X138832593Y-128644346D01*
X138946296Y-128746167D01*
X139085759Y-128827431D01*
X139089160Y-128829030D01*
X139213979Y-128877529D01*
X139324523Y-128894809D01*
X139435774Y-128880805D01*
X139562710Y-128835448D01*
X139582026Y-128826846D01*
X139695083Y-128768186D01*
X139782442Y-128702260D01*
X139856704Y-128617174D01*
X139930468Y-128501034D01*
X139934319Y-128494287D01*
X139982885Y-128393184D01*
X140019156Y-128278909D01*
X140044383Y-128144121D01*
X140059816Y-127981475D01*
X140066708Y-127783629D01*
X140067307Y-127713727D01*
X140068500Y-127380864D01*
X140008745Y-127333861D01*
X139989096Y-127319918D01*
X139966150Y-127309041D01*
X139934406Y-127300851D01*
X139888359Y-127294967D01*
X139822510Y-127291011D01*
X139773679Y-127289721D01*
X139773679Y-127604357D01*
X139773679Y-127792960D01*
X139770451Y-127903325D01*
X139761958Y-128016621D01*
X139749980Y-128109605D01*
X139748971Y-128115218D01*
X139704665Y-128280370D01*
X139638099Y-128408470D01*
X139546184Y-128503570D01*
X139425832Y-128569723D01*
X139393935Y-128581227D01*
X139344257Y-128592502D01*
X139295177Y-128587620D01*
X139229884Y-128563867D01*
X139197809Y-128549549D01*
X139112574Y-128502662D01*
X139052776Y-128446171D01*
X139011134Y-128384015D01*
X138956945Y-128259512D01*
X138917692Y-128100174D01*
X138895089Y-127914553D01*
X138890114Y-127780116D01*
X138889214Y-127604357D01*
X139773679Y-127604357D01*
X139773679Y-127289721D01*
X139731355Y-127288602D01*
X139609392Y-127287361D01*
X139451118Y-127286908D01*
X139327357Y-127286857D01*
X138705724Y-127286857D01*
X138650058Y-127342523D01*
X138627495Y-127367228D01*
X138612043Y-127393941D01*
X138602375Y-127431244D01*
X138597164Y-127487723D01*
X138595082Y-127571958D01*
X138594801Y-127692535D01*
X138594811Y-127699710D01*
X138594811Y-127699710D01*
G37*
X138594811Y-127699710D02*
X138603572Y-127958821D01*
X138630140Y-128179206D01*
X138676105Y-128364499D01*
X138743060Y-128518335D01*
X138832593Y-128644346D01*
X138946296Y-128746167D01*
X139085759Y-128827431D01*
X139089160Y-128829030D01*
X139213979Y-128877529D01*
X139324523Y-128894809D01*
X139435774Y-128880805D01*
X139562710Y-128835448D01*
X139582026Y-128826846D01*
X139695083Y-128768186D01*
X139782442Y-128702260D01*
X139856704Y-128617174D01*
X139930468Y-128501034D01*
X139934319Y-128494287D01*
X139982885Y-128393184D01*
X140019156Y-128278909D01*
X140044383Y-128144121D01*
X140059816Y-127981475D01*
X140066708Y-127783629D01*
X140067307Y-127713727D01*
X140068500Y-127380864D01*
X140008745Y-127333861D01*
X139989096Y-127319918D01*
X139966150Y-127309041D01*
X139934406Y-127300851D01*
X139888359Y-127294967D01*
X139822510Y-127291011D01*
X139773679Y-127289721D01*
X139773679Y-127604357D01*
X139773679Y-127792960D01*
X139770451Y-127903325D01*
X139761958Y-128016621D01*
X139749980Y-128109605D01*
X139748971Y-128115218D01*
X139704665Y-128280370D01*
X139638099Y-128408470D01*
X139546184Y-128503570D01*
X139425832Y-128569723D01*
X139393935Y-128581227D01*
X139344257Y-128592502D01*
X139295177Y-128587620D01*
X139229884Y-128563867D01*
X139197809Y-128549549D01*
X139112574Y-128502662D01*
X139052776Y-128446171D01*
X139011134Y-128384015D01*
X138956945Y-128259512D01*
X138917692Y-128100174D01*
X138895089Y-127914553D01*
X138890114Y-127780116D01*
X138889214Y-127604357D01*
X139773679Y-127604357D01*
X139773679Y-127289721D01*
X139731355Y-127288602D01*
X139609392Y-127287361D01*
X139451118Y-127286908D01*
X139327357Y-127286857D01*
X138705724Y-127286857D01*
X138650058Y-127342523D01*
X138627495Y-127367228D01*
X138612043Y-127393941D01*
X138602375Y-127431244D01*
X138597164Y-127487723D01*
X138595082Y-127571958D01*
X138594801Y-127692535D01*
X138594811Y-127699710D01*
G36*
X138594780Y-126116743D02*
X138596617Y-126270142D01*
X138600911Y-126387695D01*
X138608672Y-126474156D01*
X138620910Y-126534280D01*
X138638635Y-126572820D01*
X138662856Y-126594532D01*
X138694582Y-126604170D01*
X138734823Y-126606488D01*
X138739575Y-126606500D01*
X138785091Y-126604488D01*
X138820269Y-126594975D01*
X138846528Y-126572751D01*
X138865289Y-126532602D01*
X138877973Y-126469316D01*
X138885999Y-126377682D01*
X138890789Y-126252487D01*
X138893761Y-126088519D01*
X138894420Y-126038263D01*
X138900554Y-125551947D01*
X139030955Y-125545145D01*
X139161357Y-125538344D01*
X139161357Y-125876139D01*
X139161844Y-126008107D01*
X139163903Y-126102337D01*
X139168432Y-126166445D01*
X139176330Y-126208044D01*
X139188495Y-126234750D01*
X139205825Y-126254178D01*
X139205963Y-126254302D01*
X139273501Y-126289537D01*
X139346498Y-126288263D01*
X139408725Y-126251284D01*
X139415121Y-126243965D01*
X139431605Y-126217990D01*
X139443073Y-126182397D01*
X139450388Y-126129253D01*
X139454415Y-126050628D01*
X139456017Y-125938590D01*
X139456179Y-125866934D01*
X139456179Y-125540607D01*
X139773679Y-125540607D01*
X139773679Y-126036021D01*
X139773965Y-126199586D01*
X139775134Y-126323797D01*
X139777654Y-126414655D01*
X139781992Y-126478160D01*
X139788614Y-126520313D01*
X139797987Y-126547116D01*
X139810579Y-126564569D01*
X139815152Y-126568967D01*
X139878526Y-126601440D01*
X139950624Y-126603816D01*
X140013135Y-126577175D01*
X140033196Y-126556097D01*
X140044240Y-126534170D01*
X140052785Y-126500195D01*
X140059129Y-126448798D01*
X140063572Y-126374605D01*
X140066413Y-126272241D01*
X140067952Y-126136333D01*
X140068487Y-125961505D01*
X140068500Y-125921980D01*
X140068384Y-125744224D01*
X140067742Y-125606242D01*
X140066134Y-125502456D01*
X140063121Y-125427283D01*
X140058263Y-125375141D01*
X140051121Y-125340451D01*
X140041254Y-125317630D01*
X140028223Y-125301097D01*
X140018866Y-125292027D01*
X140002294Y-125278374D01*
X139981764Y-125267708D01*
X139951893Y-125259660D01*
X139907298Y-125253864D01*
X139842594Y-125249953D01*
X139752397Y-125247557D01*
X139631324Y-125246310D01*
X139473990Y-125245844D01*
X139341568Y-125245786D01*
X139156012Y-125245929D01*
X139010342Y-125246606D01*
X138899088Y-125248192D01*
X138816778Y-125251061D01*
X138757943Y-125255587D01*
X138717111Y-125262144D01*
X138688812Y-125271106D01*
X138667575Y-125282847D01*
X138654148Y-125292789D01*
X138594393Y-125339792D01*
X138594393Y-125922743D01*
X138594780Y-126116743D01*
X138594780Y-126116743D01*
G37*
X138594780Y-126116743D02*
X138596617Y-126270142D01*
X138600911Y-126387695D01*
X138608672Y-126474156D01*
X138620910Y-126534280D01*
X138638635Y-126572820D01*
X138662856Y-126594532D01*
X138694582Y-126604170D01*
X138734823Y-126606488D01*
X138739575Y-126606500D01*
X138785091Y-126604488D01*
X138820269Y-126594975D01*
X138846528Y-126572751D01*
X138865289Y-126532602D01*
X138877973Y-126469316D01*
X138885999Y-126377682D01*
X138890789Y-126252487D01*
X138893761Y-126088519D01*
X138894420Y-126038263D01*
X138900554Y-125551947D01*
X139030955Y-125545145D01*
X139161357Y-125538344D01*
X139161357Y-125876139D01*
X139161844Y-126008107D01*
X139163903Y-126102337D01*
X139168432Y-126166445D01*
X139176330Y-126208044D01*
X139188495Y-126234750D01*
X139205825Y-126254178D01*
X139205963Y-126254302D01*
X139273501Y-126289537D01*
X139346498Y-126288263D01*
X139408725Y-126251284D01*
X139415121Y-126243965D01*
X139431605Y-126217990D01*
X139443073Y-126182397D01*
X139450388Y-126129253D01*
X139454415Y-126050628D01*
X139456017Y-125938590D01*
X139456179Y-125866934D01*
X139456179Y-125540607D01*
X139773679Y-125540607D01*
X139773679Y-126036021D01*
X139773965Y-126199586D01*
X139775134Y-126323797D01*
X139777654Y-126414655D01*
X139781992Y-126478160D01*
X139788614Y-126520313D01*
X139797987Y-126547116D01*
X139810579Y-126564569D01*
X139815152Y-126568967D01*
X139878526Y-126601440D01*
X139950624Y-126603816D01*
X140013135Y-126577175D01*
X140033196Y-126556097D01*
X140044240Y-126534170D01*
X140052785Y-126500195D01*
X140059129Y-126448798D01*
X140063572Y-126374605D01*
X140066413Y-126272241D01*
X140067952Y-126136333D01*
X140068487Y-125961505D01*
X140068500Y-125921980D01*
X140068384Y-125744224D01*
X140067742Y-125606242D01*
X140066134Y-125502456D01*
X140063121Y-125427283D01*
X140058263Y-125375141D01*
X140051121Y-125340451D01*
X140041254Y-125317630D01*
X140028223Y-125301097D01*
X140018866Y-125292027D01*
X140002294Y-125278374D01*
X139981764Y-125267708D01*
X139951893Y-125259660D01*
X139907298Y-125253864D01*
X139842594Y-125249953D01*
X139752397Y-125247557D01*
X139631324Y-125246310D01*
X139473990Y-125245844D01*
X139341568Y-125245786D01*
X139156012Y-125245929D01*
X139010342Y-125246606D01*
X138899088Y-125248192D01*
X138816778Y-125251061D01*
X138757943Y-125255587D01*
X138717111Y-125262144D01*
X138688812Y-125271106D01*
X138667575Y-125282847D01*
X138654148Y-125292789D01*
X138594393Y-125339792D01*
X138594393Y-125922743D01*
X138594780Y-126116743D01*
G36*
X138603195Y-123042165D02*
X138630967Y-123089507D01*
X138676385Y-123151408D01*
X138741589Y-123231077D01*
X138828717Y-123331720D01*
X138939910Y-123456548D01*
X139077307Y-123608768D01*
X139235276Y-123783018D01*
X139564327Y-124145875D01*
X139122665Y-124157215D01*
X138970634Y-124161309D01*
X138857417Y-124165258D01*
X138776480Y-124169938D01*
X138721293Y-124176221D01*
X138685322Y-124184982D01*
X138662035Y-124197094D01*
X138644899Y-124213431D01*
X138637698Y-124222093D01*
X138599623Y-124291463D01*
X138605190Y-124357473D01*
X138637717Y-124409836D01*
X138681042Y-124463375D01*
X139313759Y-124470034D01*
X139499841Y-124471877D01*
X139646021Y-124472815D01*
X139757751Y-124472523D01*
X139840482Y-124470677D01*
X139899666Y-124466950D01*
X139940753Y-124461020D01*
X139969196Y-124452560D01*
X139990445Y-124441247D01*
X140007488Y-124428700D01*
X140039095Y-124401556D01*
X140060046Y-124374547D01*
X140068088Y-124343930D01*
X140060965Y-124305957D01*
X140036426Y-124256882D01*
X139992214Y-124192960D01*
X139926076Y-124110445D01*
X139835759Y-124005590D01*
X139719008Y-123874649D01*
X139584859Y-123726322D01*
X139101429Y-123193375D01*
X139541647Y-123182036D01*
X139693401Y-123177935D01*
X139806354Y-123173975D01*
X139887052Y-123169279D01*
X139942041Y-123162967D01*
X139977865Y-123154163D01*
X140001070Y-123141988D01*
X140018201Y-123125563D01*
X140025183Y-123117157D01*
X140063534Y-123042866D01*
X140057749Y-122972668D01*
X140008745Y-122911539D01*
X139989030Y-122897555D01*
X139966006Y-122886656D01*
X139934149Y-122878459D01*
X139887935Y-122872580D01*
X139821840Y-122868636D01*
X139730339Y-122866244D01*
X139607911Y-122865021D01*
X139449029Y-122864582D01*
X139331446Y-122864536D01*
X139147533Y-122864683D01*
X139003452Y-122865381D01*
X138893680Y-122867013D01*
X138812693Y-122869961D01*
X138754968Y-122874611D01*
X138714981Y-122881343D01*
X138687207Y-122890543D01*
X138666123Y-122902594D01*
X138654148Y-122911539D01*
X138625780Y-122934214D01*
X138604362Y-122955405D01*
X138592032Y-122978322D01*
X138590930Y-123006172D01*
X138603195Y-123042165D01*
X138603195Y-123042165D01*
G37*
X138603195Y-123042165D02*
X138630967Y-123089507D01*
X138676385Y-123151408D01*
X138741589Y-123231077D01*
X138828717Y-123331720D01*
X138939910Y-123456548D01*
X139077307Y-123608768D01*
X139235276Y-123783018D01*
X139564327Y-124145875D01*
X139122665Y-124157215D01*
X138970634Y-124161309D01*
X138857417Y-124165258D01*
X138776480Y-124169938D01*
X138721293Y-124176221D01*
X138685322Y-124184982D01*
X138662035Y-124197094D01*
X138644899Y-124213431D01*
X138637698Y-124222093D01*
X138599623Y-124291463D01*
X138605190Y-124357473D01*
X138637717Y-124409836D01*
X138681042Y-124463375D01*
X139313759Y-124470034D01*
X139499841Y-124471877D01*
X139646021Y-124472815D01*
X139757751Y-124472523D01*
X139840482Y-124470677D01*
X139899666Y-124466950D01*
X139940753Y-124461020D01*
X139969196Y-124452560D01*
X139990445Y-124441247D01*
X140007488Y-124428700D01*
X140039095Y-124401556D01*
X140060046Y-124374547D01*
X140068088Y-124343930D01*
X140060965Y-124305957D01*
X140036426Y-124256882D01*
X139992214Y-124192960D01*
X139926076Y-124110445D01*
X139835759Y-124005590D01*
X139719008Y-123874649D01*
X139584859Y-123726322D01*
X139101429Y-123193375D01*
X139541647Y-123182036D01*
X139693401Y-123177935D01*
X139806354Y-123173975D01*
X139887052Y-123169279D01*
X139942041Y-123162967D01*
X139977865Y-123154163D01*
X140001070Y-123141988D01*
X140018201Y-123125563D01*
X140025183Y-123117157D01*
X140063534Y-123042866D01*
X140057749Y-122972668D01*
X140008745Y-122911539D01*
X139989030Y-122897555D01*
X139966006Y-122886656D01*
X139934149Y-122878459D01*
X139887935Y-122872580D01*
X139821840Y-122868636D01*
X139730339Y-122866244D01*
X139607911Y-122865021D01*
X139449029Y-122864582D01*
X139331446Y-122864536D01*
X139147533Y-122864683D01*
X139003452Y-122865381D01*
X138893680Y-122867013D01*
X138812693Y-122869961D01*
X138754968Y-122874611D01*
X138714981Y-122881343D01*
X138687207Y-122890543D01*
X138666123Y-122902594D01*
X138654148Y-122911539D01*
X138625780Y-122934214D01*
X138604362Y-122955405D01*
X138592032Y-122978322D01*
X138590930Y-123006172D01*
X138603195Y-123042165D01*
G36*
X138605506Y-121736427D02*
X138628602Y-121874072D01*
X138664505Y-121979786D01*
X138711778Y-122048560D01*
X138738748Y-122067301D01*
X138801475Y-122086359D01*
X138858222Y-122073534D01*
X138912035Y-122033047D01*
X138937210Y-121970138D01*
X138935165Y-121878857D01*
X138921526Y-121808256D01*
X138895540Y-121651374D01*
X138893070Y-121491046D01*
X138914163Y-121311591D01*
X138923100Y-121262022D01*
X138970146Y-121095157D01*
X139040129Y-120964614D01*
X139131856Y-120871824D01*
X139244134Y-120818219D01*
X139302182Y-120807132D01*
X139419953Y-120814389D01*
X139524150Y-120861241D01*
X139612742Y-120943418D01*
X139683698Y-121056651D01*
X139734987Y-121196671D01*
X139764579Y-121359209D01*
X139770443Y-121539995D01*
X139750548Y-121734762D01*
X139748672Y-121745759D01*
X139734243Y-121823226D01*
X139720306Y-121866178D01*
X139699626Y-121884795D01*
X139664970Y-121889256D01*
X139646618Y-121889357D01*
X139569571Y-121889357D01*
X139569571Y-121751795D01*
X139561250Y-121630318D01*
X139534732Y-121547419D01*
X139487689Y-121499186D01*
X139417790Y-121481704D01*
X139408667Y-121481490D01*
X139348922Y-121491719D01*
X139306261Y-121526792D01*
X139278029Y-121592070D01*
X139261571Y-121692910D01*
X139255520Y-121790585D01*
X139252048Y-121932549D01*
X139257346Y-122035523D01*
X139276893Y-122105753D01*
X139316173Y-122149486D01*
X139380666Y-122172970D01*
X139475854Y-122182451D01*
X139600875Y-122184179D01*
X139740423Y-122181348D01*
X139835347Y-122172833D01*
X139886024Y-122158594D01*
X139889993Y-122155831D01*
X139953316Y-122077650D01*
X140003462Y-121963025D01*
X140039362Y-121819220D01*
X140059944Y-121653504D01*
X140064137Y-121473142D01*
X140050869Y-121285402D01*
X140034572Y-121174982D01*
X139985551Y-121001792D01*
X139905410Y-120840826D01*
X139801398Y-120706056D01*
X139780609Y-120685572D01*
X139693213Y-120619019D01*
X139584898Y-120558969D01*
X139471340Y-120512436D01*
X139368217Y-120486437D01*
X139328611Y-120483304D01*
X139245994Y-120496644D01*
X139143203Y-120532100D01*
X139035006Y-120582869D01*
X138936169Y-120642148D01*
X138870152Y-120694521D01*
X138771952Y-120816974D01*
X138693792Y-120975268D01*
X138637439Y-121163731D01*
X138604663Y-121376690D01*
X138596654Y-121571857D01*
X138605506Y-121736427D01*
X138605506Y-121736427D01*
G37*
X138605506Y-121736427D02*
X138628602Y-121874072D01*
X138664505Y-121979786D01*
X138711778Y-122048560D01*
X138738748Y-122067301D01*
X138801475Y-122086359D01*
X138858222Y-122073534D01*
X138912035Y-122033047D01*
X138937210Y-121970138D01*
X138935165Y-121878857D01*
X138921526Y-121808256D01*
X138895540Y-121651374D01*
X138893070Y-121491046D01*
X138914163Y-121311591D01*
X138923100Y-121262022D01*
X138970146Y-121095157D01*
X139040129Y-120964614D01*
X139131856Y-120871824D01*
X139244134Y-120818219D01*
X139302182Y-120807132D01*
X139419953Y-120814389D01*
X139524150Y-120861241D01*
X139612742Y-120943418D01*
X139683698Y-121056651D01*
X139734987Y-121196671D01*
X139764579Y-121359209D01*
X139770443Y-121539995D01*
X139750548Y-121734762D01*
X139748672Y-121745759D01*
X139734243Y-121823226D01*
X139720306Y-121866178D01*
X139699626Y-121884795D01*
X139664970Y-121889256D01*
X139646618Y-121889357D01*
X139569571Y-121889357D01*
X139569571Y-121751795D01*
X139561250Y-121630318D01*
X139534732Y-121547419D01*
X139487689Y-121499186D01*
X139417790Y-121481704D01*
X139408667Y-121481490D01*
X139348922Y-121491719D01*
X139306261Y-121526792D01*
X139278029Y-121592070D01*
X139261571Y-121692910D01*
X139255520Y-121790585D01*
X139252048Y-121932549D01*
X139257346Y-122035523D01*
X139276893Y-122105753D01*
X139316173Y-122149486D01*
X139380666Y-122172970D01*
X139475854Y-122182451D01*
X139600875Y-122184179D01*
X139740423Y-122181348D01*
X139835347Y-122172833D01*
X139886024Y-122158594D01*
X139889993Y-122155831D01*
X139953316Y-122077650D01*
X140003462Y-121963025D01*
X140039362Y-121819220D01*
X140059944Y-121653504D01*
X140064137Y-121473142D01*
X140050869Y-121285402D01*
X140034572Y-121174982D01*
X139985551Y-121001792D01*
X139905410Y-120840826D01*
X139801398Y-120706056D01*
X139780609Y-120685572D01*
X139693213Y-120619019D01*
X139584898Y-120558969D01*
X139471340Y-120512436D01*
X139368217Y-120486437D01*
X139328611Y-120483304D01*
X139245994Y-120496644D01*
X139143203Y-120532100D01*
X139035006Y-120582869D01*
X138936169Y-120642148D01*
X138870152Y-120694521D01*
X138771952Y-120816974D01*
X138693792Y-120975268D01*
X138637439Y-121163731D01*
X138604663Y-121376690D01*
X138596654Y-121571857D01*
X138605506Y-121736427D01*
G36*
X138639750Y-119780250D02*
X138654964Y-119793471D01*
X138674591Y-119803841D01*
X138703888Y-119811707D01*
X138748113Y-119817413D01*
X138812524Y-119821303D01*
X138902378Y-119823722D01*
X139022934Y-119825016D01*
X139179448Y-119825528D01*
X139331446Y-119825607D01*
X139519978Y-119825467D01*
X139668410Y-119824818D01*
X139782001Y-119823314D01*
X139866009Y-119820611D01*
X139925690Y-119816364D01*
X139966302Y-119810228D01*
X139993104Y-119801859D01*
X140011353Y-119790911D01*
X140023143Y-119780250D01*
X140062680Y-119713949D01*
X140059131Y-119643304D01*
X140016011Y-119580096D01*
X139999177Y-119565573D01*
X139979644Y-119554223D01*
X139952015Y-119545655D01*
X139910889Y-119539478D01*
X139850868Y-119535302D01*
X139766551Y-119532735D01*
X139652540Y-119531388D01*
X139503434Y-119530868D01*
X139334623Y-119530786D01*
X138705724Y-119530786D01*
X138650058Y-119586452D01*
X138603225Y-119655066D01*
X138601538Y-119721623D01*
X138639750Y-119780250D01*
X138639750Y-119780250D01*
G37*
X138639750Y-119780250D02*
X138654964Y-119793471D01*
X138674591Y-119803841D01*
X138703888Y-119811707D01*
X138748113Y-119817413D01*
X138812524Y-119821303D01*
X138902378Y-119823722D01*
X139022934Y-119825016D01*
X139179448Y-119825528D01*
X139331446Y-119825607D01*
X139519978Y-119825467D01*
X139668410Y-119824818D01*
X139782001Y-119823314D01*
X139866009Y-119820611D01*
X139925690Y-119816364D01*
X139966302Y-119810228D01*
X139993104Y-119801859D01*
X140011353Y-119790911D01*
X140023143Y-119780250D01*
X140062680Y-119713949D01*
X140059131Y-119643304D01*
X140016011Y-119580096D01*
X139999177Y-119565573D01*
X139979644Y-119554223D01*
X139952015Y-119545655D01*
X139910889Y-119539478D01*
X139850868Y-119535302D01*
X139766551Y-119532735D01*
X139652540Y-119531388D01*
X139503434Y-119530868D01*
X139334623Y-119530786D01*
X138705724Y-119530786D01*
X138650058Y-119586452D01*
X138603225Y-119655066D01*
X138601538Y-119721623D01*
X138639750Y-119780250D01*
G36*
X138596973Y-118237634D02*
X138607480Y-118387932D01*
X138623891Y-118527717D01*
X138645587Y-118648863D01*
X138671950Y-118743246D01*
X138702364Y-118802739D01*
X138711317Y-118811871D01*
X138780788Y-118843625D01*
X138852108Y-118833996D01*
X138913127Y-118784743D01*
X138914875Y-118782393D01*
X138933676Y-118753423D01*
X138943562Y-118723181D01*
X138944763Y-118680999D01*
X138937507Y-118616208D01*
X138922024Y-118518139D01*
X138920721Y-118510250D01*
X138902769Y-118364123D01*
X138893913Y-118206466D01*
X138893827Y-118048344D01*
X138902185Y-117900820D01*
X138918659Y-117774960D01*
X138942923Y-117681828D01*
X138945362Y-117675709D01*
X138983217Y-117608145D01*
X139021527Y-117584407D01*
X139059204Y-117602990D01*
X139095160Y-117662389D01*
X139128306Y-117761099D01*
X139157554Y-117897615D01*
X139171636Y-117988643D01*
X139198723Y-118177862D01*
X139223484Y-118328355D01*
X139248063Y-118446534D01*
X139274605Y-118538809D01*
X139305253Y-118611590D01*
X139342152Y-118671290D01*
X139387445Y-118724318D01*
X139431923Y-118766931D01*
X139493895Y-118817486D01*
X139547184Y-118842365D01*
X139612839Y-118850146D01*
X139636883Y-118850429D01*
X139716671Y-118844585D01*
X139776030Y-118821229D01*
X139828716Y-118780807D01*
X139909254Y-118698656D01*
X139970674Y-118607048D01*
X140014979Y-118499176D01*
X140044172Y-118368235D01*
X140060256Y-118207416D01*
X140065233Y-118009914D01*
X140065149Y-117977304D01*
X140062419Y-117845599D01*
X140056216Y-117714985D01*
X140047430Y-117599699D01*
X140036950Y-117513980D01*
X140035747Y-117507047D01*
X140015558Y-117421821D01*
X139990055Y-117349533D01*
X139966739Y-117308610D01*
X139905229Y-117270526D01*
X139833602Y-117267875D01*
X139769771Y-117300705D01*
X139762553Y-117308050D01*
X139741107Y-117338412D01*
X139731867Y-117376382D01*
X139733440Y-117435148D01*
X139741613Y-117506488D01*
X139748914Y-117586203D01*
X139755074Y-117697951D01*
X139759544Y-117828408D01*
X139761776Y-117964254D01*
X139761923Y-117999982D01*
X139761373Y-118136334D01*
X139758726Y-118236124D01*
X139753063Y-118308132D01*
X139743466Y-118361140D01*
X139729017Y-118403927D01*
X139716982Y-118429640D01*
X139683565Y-118486143D01*
X139653301Y-118522167D01*
X139644722Y-118527432D01*
X139609296Y-118516325D01*
X139575001Y-118463523D01*
X139543394Y-118372684D01*
X139516031Y-118247468D01*
X139509936Y-118210576D01*
X139479670Y-118017882D01*
X139454373Y-117864096D01*
X139432206Y-117743283D01*
X139411330Y-117649505D01*
X139389907Y-117576829D01*
X139366099Y-117519317D01*
X139338068Y-117471035D01*
X139303975Y-117426047D01*
X139261982Y-117378417D01*
X139247259Y-117362389D01*
X139192314Y-117306194D01*
X139148781Y-117276448D01*
X139098965Y-117264811D01*
X139036189Y-117262929D01*
X138913085Y-117283649D01*
X138808491Y-117345571D01*
X138722745Y-117448341D01*
X138656184Y-117591602D01*
X138626329Y-117693822D01*
X138607047Y-117804917D01*
X138596139Y-117938001D01*
X138592987Y-118084948D01*
X138596973Y-118237634D01*
X138596973Y-118237634D01*
G37*
X138596973Y-118237634D02*
X138607480Y-118387932D01*
X138623891Y-118527717D01*
X138645587Y-118648863D01*
X138671950Y-118743246D01*
X138702364Y-118802739D01*
X138711317Y-118811871D01*
X138780788Y-118843625D01*
X138852108Y-118833996D01*
X138913127Y-118784743D01*
X138914875Y-118782393D01*
X138933676Y-118753423D01*
X138943562Y-118723181D01*
X138944763Y-118680999D01*
X138937507Y-118616208D01*
X138922024Y-118518139D01*
X138920721Y-118510250D01*
X138902769Y-118364123D01*
X138893913Y-118206466D01*
X138893827Y-118048344D01*
X138902185Y-117900820D01*
X138918659Y-117774960D01*
X138942923Y-117681828D01*
X138945362Y-117675709D01*
X138983217Y-117608145D01*
X139021527Y-117584407D01*
X139059204Y-117602990D01*
X139095160Y-117662389D01*
X139128306Y-117761099D01*
X139157554Y-117897615D01*
X139171636Y-117988643D01*
X139198723Y-118177862D01*
X139223484Y-118328355D01*
X139248063Y-118446534D01*
X139274605Y-118538809D01*
X139305253Y-118611590D01*
X139342152Y-118671290D01*
X139387445Y-118724318D01*
X139431923Y-118766931D01*
X139493895Y-118817486D01*
X139547184Y-118842365D01*
X139612839Y-118850146D01*
X139636883Y-118850429D01*
X139716671Y-118844585D01*
X139776030Y-118821229D01*
X139828716Y-118780807D01*
X139909254Y-118698656D01*
X139970674Y-118607048D01*
X140014979Y-118499176D01*
X140044172Y-118368235D01*
X140060256Y-118207416D01*
X140065233Y-118009914D01*
X140065149Y-117977304D01*
X140062419Y-117845599D01*
X140056216Y-117714985D01*
X140047430Y-117599699D01*
X140036950Y-117513980D01*
X140035747Y-117507047D01*
X140015558Y-117421821D01*
X139990055Y-117349533D01*
X139966739Y-117308610D01*
X139905229Y-117270526D01*
X139833602Y-117267875D01*
X139769771Y-117300705D01*
X139762553Y-117308050D01*
X139741107Y-117338412D01*
X139731867Y-117376382D01*
X139733440Y-117435148D01*
X139741613Y-117506488D01*
X139748914Y-117586203D01*
X139755074Y-117697951D01*
X139759544Y-117828408D01*
X139761776Y-117964254D01*
X139761923Y-117999982D01*
X139761373Y-118136334D01*
X139758726Y-118236124D01*
X139753063Y-118308132D01*
X139743466Y-118361140D01*
X139729017Y-118403927D01*
X139716982Y-118429640D01*
X139683565Y-118486143D01*
X139653301Y-118522167D01*
X139644722Y-118527432D01*
X139609296Y-118516325D01*
X139575001Y-118463523D01*
X139543394Y-118372684D01*
X139516031Y-118247468D01*
X139509936Y-118210576D01*
X139479670Y-118017882D01*
X139454373Y-117864096D01*
X139432206Y-117743283D01*
X139411330Y-117649505D01*
X139389907Y-117576829D01*
X139366099Y-117519317D01*
X139338068Y-117471035D01*
X139303975Y-117426047D01*
X139261982Y-117378417D01*
X139247259Y-117362389D01*
X139192314Y-117306194D01*
X139148781Y-117276448D01*
X139098965Y-117264811D01*
X139036189Y-117262929D01*
X138913085Y-117283649D01*
X138808491Y-117345571D01*
X138722745Y-117448341D01*
X138656184Y-117591602D01*
X138626329Y-117693822D01*
X138607047Y-117804917D01*
X138596139Y-117938001D01*
X138592987Y-118084948D01*
X138596973Y-118237634D01*
G36*
X138594552Y-116186334D02*
X138595300Y-116325770D01*
X138597040Y-116431017D01*
X138600177Y-116507656D01*
X138605113Y-116561270D01*
X138612253Y-116597443D01*
X138622001Y-116621759D01*
X138634761Y-116639799D01*
X138640633Y-116646331D01*
X138703027Y-116686058D01*
X138774718Y-116693211D01*
X138838364Y-116667077D01*
X138851227Y-116654993D01*
X138863698Y-116635448D01*
X138873320Y-116603977D01*
X138880559Y-116554744D01*
X138885883Y-116481914D01*
X138889762Y-116379651D01*
X138892664Y-116242118D01*
X138894429Y-116116377D01*
X138900554Y-115618732D01*
X139030955Y-115611931D01*
X139161357Y-115605130D01*
X139161357Y-115942925D01*
X139162622Y-116089574D01*
X139167914Y-116196936D01*
X139179478Y-116271043D01*
X139199558Y-116317931D01*
X139230398Y-116343633D01*
X139274244Y-116354184D01*
X139314937Y-116355786D01*
X139364868Y-116350807D01*
X139401660Y-116332016D01*
X139427235Y-116293633D01*
X139443516Y-116229880D01*
X139452426Y-116134976D01*
X139455887Y-116003142D01*
X139456179Y-115931186D01*
X139456179Y-115607393D01*
X139773679Y-115607393D01*
X139773679Y-116106322D01*
X139773906Y-116269867D01*
X139774929Y-116394163D01*
X139777256Y-116485314D01*
X139781395Y-116549428D01*
X139787857Y-116592610D01*
X139797148Y-116620967D01*
X139809779Y-116640605D01*
X139819036Y-116650607D01*
X139873063Y-116684918D01*
X139921089Y-116695965D01*
X139979751Y-116680191D01*
X140023143Y-116650607D01*
X140036803Y-116634824D01*
X140047410Y-116614449D01*
X140055348Y-116584002D01*
X140061003Y-116538003D01*
X140064759Y-116470970D01*
X140067000Y-116377422D01*
X140068111Y-116251880D01*
X140068476Y-116088862D01*
X140068500Y-116004268D01*
X140068340Y-115823112D01*
X140067602Y-115681832D01*
X140065904Y-115574948D01*
X140062859Y-115496978D01*
X140058083Y-115442441D01*
X140051192Y-115405858D01*
X140041801Y-115381747D01*
X140029525Y-115364627D01*
X140023143Y-115357929D01*
X140007882Y-115344672D01*
X139988193Y-115334281D01*
X139958801Y-115326409D01*
X139914430Y-115320707D01*
X139849803Y-115316828D01*
X139759644Y-115314423D01*
X139638678Y-115313144D01*
X139481628Y-115312645D01*
X139335400Y-115312572D01*
X139148134Y-115312639D01*
X139000928Y-115313110D01*
X138888482Y-115314387D01*
X138805499Y-115316871D01*
X138746680Y-115320964D01*
X138706727Y-115327069D01*
X138680341Y-115335588D01*
X138662225Y-115346922D01*
X138647080Y-115361475D01*
X138643703Y-115365060D01*
X138628755Y-115382459D01*
X138617180Y-115402675D01*
X138608545Y-115431316D01*
X138602422Y-115473991D01*
X138598379Y-115536305D01*
X138595986Y-115623868D01*
X138594811Y-115742287D01*
X138594425Y-115897169D01*
X138594393Y-116007123D01*
X138594552Y-116186334D01*
X138594552Y-116186334D01*
G37*
X138594552Y-116186334D02*
X138595300Y-116325770D01*
X138597040Y-116431017D01*
X138600177Y-116507656D01*
X138605113Y-116561270D01*
X138612253Y-116597443D01*
X138622001Y-116621759D01*
X138634761Y-116639799D01*
X138640633Y-116646331D01*
X138703027Y-116686058D01*
X138774718Y-116693211D01*
X138838364Y-116667077D01*
X138851227Y-116654993D01*
X138863698Y-116635448D01*
X138873320Y-116603977D01*
X138880559Y-116554744D01*
X138885883Y-116481914D01*
X138889762Y-116379651D01*
X138892664Y-116242118D01*
X138894429Y-116116377D01*
X138900554Y-115618732D01*
X139030955Y-115611931D01*
X139161357Y-115605130D01*
X139161357Y-115942925D01*
X139162622Y-116089574D01*
X139167914Y-116196936D01*
X139179478Y-116271043D01*
X139199558Y-116317931D01*
X139230398Y-116343633D01*
X139274244Y-116354184D01*
X139314937Y-116355786D01*
X139364868Y-116350807D01*
X139401660Y-116332016D01*
X139427235Y-116293633D01*
X139443516Y-116229880D01*
X139452426Y-116134976D01*
X139455887Y-116003142D01*
X139456179Y-115931186D01*
X139456179Y-115607393D01*
X139773679Y-115607393D01*
X139773679Y-116106322D01*
X139773906Y-116269867D01*
X139774929Y-116394163D01*
X139777256Y-116485314D01*
X139781395Y-116549428D01*
X139787857Y-116592610D01*
X139797148Y-116620967D01*
X139809779Y-116640605D01*
X139819036Y-116650607D01*
X139873063Y-116684918D01*
X139921089Y-116695965D01*
X139979751Y-116680191D01*
X140023143Y-116650607D01*
X140036803Y-116634824D01*
X140047410Y-116614449D01*
X140055348Y-116584002D01*
X140061003Y-116538003D01*
X140064759Y-116470970D01*
X140067000Y-116377422D01*
X140068111Y-116251880D01*
X140068476Y-116088862D01*
X140068500Y-116004268D01*
X140068340Y-115823112D01*
X140067602Y-115681832D01*
X140065904Y-115574948D01*
X140062859Y-115496978D01*
X140058083Y-115442441D01*
X140051192Y-115405858D01*
X140041801Y-115381747D01*
X140029525Y-115364627D01*
X140023143Y-115357929D01*
X140007882Y-115344672D01*
X139988193Y-115334281D01*
X139958801Y-115326409D01*
X139914430Y-115320707D01*
X139849803Y-115316828D01*
X139759644Y-115314423D01*
X139638678Y-115313144D01*
X139481628Y-115312645D01*
X139335400Y-115312572D01*
X139148134Y-115312639D01*
X139000928Y-115313110D01*
X138888482Y-115314387D01*
X138805499Y-115316871D01*
X138746680Y-115320964D01*
X138706727Y-115327069D01*
X138680341Y-115335588D01*
X138662225Y-115346922D01*
X138647080Y-115361475D01*
X138643703Y-115365060D01*
X138628755Y-115382459D01*
X138617180Y-115402675D01*
X138608545Y-115431316D01*
X138602422Y-115473991D01*
X138598379Y-115536305D01*
X138595986Y-115623868D01*
X138594811Y-115742287D01*
X138594425Y-115897169D01*
X138594393Y-116007123D01*
X138594552Y-116186334D01*
G36*
X138594391Y-113356603D02*
X138595197Y-113435920D01*
X138600805Y-113668331D01*
X138617462Y-113862974D01*
X138646957Y-114026484D01*
X138691074Y-114165494D01*
X138751602Y-114286639D01*
X138830327Y-114396551D01*
X138864525Y-114435809D01*
X138944542Y-114500931D01*
X139053123Y-114559652D01*
X139173480Y-114604911D01*
X139288824Y-114629645D01*
X139331446Y-114632215D01*
X139449599Y-114616110D01*
X139578659Y-114572953D01*
X139700819Y-114510476D01*
X139798269Y-114436413D01*
X139810027Y-114424383D01*
X139892671Y-114322481D01*
X139957186Y-114210892D01*
X140005260Y-114083182D01*
X140038584Y-113932918D01*
X140058849Y-113753666D01*
X140067746Y-113538993D01*
X140068500Y-113440663D01*
X140067898Y-113315640D01*
X140065381Y-113227718D01*
X140059881Y-113168647D01*
X140050332Y-113130180D01*
X140035666Y-113104068D01*
X140023143Y-113090072D01*
X140007929Y-113076851D01*
X139988302Y-113066480D01*
X139959005Y-113058615D01*
X139914780Y-113052909D01*
X139850369Y-113049019D01*
X139760514Y-113046600D01*
X139639959Y-113045306D01*
X139483444Y-113044794D01*
X139331446Y-113044715D01*
X139128717Y-113044215D01*
X138966768Y-113044323D01*
X138889214Y-113046252D01*
X138889214Y-113339536D01*
X139773679Y-113339536D01*
X139773507Y-113526634D01*
X139770278Y-113639216D01*
X139761960Y-113757128D01*
X139750325Y-113855507D01*
X139749846Y-113858500D01*
X139711404Y-114017500D01*
X139651533Y-114140826D01*
X139566335Y-114234637D01*
X139474091Y-114294243D01*
X139371766Y-114330970D01*
X139275686Y-114328122D01*
X139172696Y-114285498D01*
X139066153Y-114202126D01*
X138987204Y-114086594D01*
X138934433Y-113936423D01*
X138915758Y-113836061D01*
X138902643Y-113722137D01*
X138893150Y-113601395D01*
X138889204Y-113498699D01*
X138889185Y-113492616D01*
X138889214Y-113339536D01*
X138889214Y-113046252D01*
X138841059Y-113047451D01*
X138747048Y-113056014D01*
X138680197Y-113072422D01*
X138635963Y-113099090D01*
X138609806Y-113138429D01*
X138597186Y-113192852D01*
X138593561Y-113264773D01*
X138594391Y-113356603D01*
X138594391Y-113356603D01*
G37*
X138594391Y-113356603D02*
X138595197Y-113435920D01*
X138600805Y-113668331D01*
X138617462Y-113862974D01*
X138646957Y-114026484D01*
X138691074Y-114165494D01*
X138751602Y-114286639D01*
X138830327Y-114396551D01*
X138864525Y-114435809D01*
X138944542Y-114500931D01*
X139053123Y-114559652D01*
X139173480Y-114604911D01*
X139288824Y-114629645D01*
X139331446Y-114632215D01*
X139449599Y-114616110D01*
X139578659Y-114572953D01*
X139700819Y-114510476D01*
X139798269Y-114436413D01*
X139810027Y-114424383D01*
X139892671Y-114322481D01*
X139957186Y-114210892D01*
X140005260Y-114083182D01*
X140038584Y-113932918D01*
X140058849Y-113753666D01*
X140067746Y-113538993D01*
X140068500Y-113440663D01*
X140067898Y-113315640D01*
X140065381Y-113227718D01*
X140059881Y-113168647D01*
X140050332Y-113130180D01*
X140035666Y-113104068D01*
X140023143Y-113090072D01*
X140007929Y-113076851D01*
X139988302Y-113066480D01*
X139959005Y-113058615D01*
X139914780Y-113052909D01*
X139850369Y-113049019D01*
X139760514Y-113046600D01*
X139639959Y-113045306D01*
X139483444Y-113044794D01*
X139331446Y-113044715D01*
X139128717Y-113044215D01*
X138966768Y-113044323D01*
X138889214Y-113046252D01*
X138889214Y-113339536D01*
X139773679Y-113339536D01*
X139773507Y-113526634D01*
X139770278Y-113639216D01*
X139761960Y-113757128D01*
X139750325Y-113855507D01*
X139749846Y-113858500D01*
X139711404Y-114017500D01*
X139651533Y-114140826D01*
X139566335Y-114234637D01*
X139474091Y-114294243D01*
X139371766Y-114330970D01*
X139275686Y-114328122D01*
X139172696Y-114285498D01*
X139066153Y-114202126D01*
X138987204Y-114086594D01*
X138934433Y-113936423D01*
X138915758Y-113836061D01*
X138902643Y-113722137D01*
X138893150Y-113601395D01*
X138889204Y-113498699D01*
X138889185Y-113492616D01*
X138889214Y-113339536D01*
X138889214Y-113046252D01*
X138841059Y-113047451D01*
X138747048Y-113056014D01*
X138680197Y-113072422D01*
X138635963Y-113099090D01*
X138609806Y-113138429D01*
X138597186Y-113192852D01*
X138593561Y-113264773D01*
X138594391Y-113356603D01*
G36*
X129177172Y-107350535D02*
X129774363Y-107463117D01*
X129945610Y-107878531D01*
X130116857Y-108293944D01*
X129777978Y-108792302D01*
X129683622Y-108931868D01*
X129599375Y-109058028D01*
X129529083Y-109164895D01*
X129476592Y-109246582D01*
X129445749Y-109297201D01*
X129439098Y-109310986D01*
X129456203Y-109335820D01*
X129503489Y-109388888D01*
X129574917Y-109464240D01*
X129664445Y-109555929D01*
X129766034Y-109658007D01*
X129873643Y-109764526D01*
X129981232Y-109869536D01*
X130082760Y-109967091D01*
X130172186Y-110051242D01*
X130243471Y-110116040D01*
X130290573Y-110155538D01*
X130306337Y-110164980D01*
X130335398Y-110151391D01*
X130399066Y-110113293D01*
X130491112Y-110054694D01*
X130605309Y-109979597D01*
X130735429Y-109892009D01*
X130809646Y-109841254D01*
X130945167Y-109748745D01*
X131067461Y-109666540D01*
X131170440Y-109598630D01*
X131248018Y-109549000D01*
X131294106Y-109521640D01*
X131303792Y-109517529D01*
X131331319Y-109526849D01*
X131395473Y-109552254D01*
X131487235Y-109589911D01*
X131597584Y-109635986D01*
X131717500Y-109686646D01*
X131837964Y-109738059D01*
X131949954Y-109786389D01*
X132044452Y-109827806D01*
X132112437Y-109858474D01*
X132144888Y-109874562D01*
X132146165Y-109875511D01*
X132152362Y-109900772D01*
X132166185Y-109968046D01*
X132186277Y-110070360D01*
X132211279Y-110200741D01*
X132239831Y-110352216D01*
X132256296Y-110440594D01*
X132287114Y-110602452D01*
X132316439Y-110748649D01*
X132342666Y-110871787D01*
X132364191Y-110964469D01*
X132379410Y-111019301D01*
X132384238Y-111030323D01*
X132416919Y-111041119D01*
X132490730Y-111049829D01*
X132597037Y-111056460D01*
X132727212Y-111061018D01*
X132872621Y-111063509D01*
X133024635Y-111063938D01*
X133174622Y-111062311D01*
X133313951Y-111058635D01*
X133433990Y-111052915D01*
X133526110Y-111045158D01*
X133581677Y-111035368D01*
X133593245Y-111029496D01*
X133607110Y-110994399D01*
X133626933Y-110920028D01*
X133650384Y-110816223D01*
X133675136Y-110692819D01*
X133683143Y-110649741D01*
X133721186Y-110442047D01*
X133751824Y-110277984D01*
X133776274Y-110152130D01*
X133795754Y-110059065D01*
X133811481Y-109993367D01*
X133824673Y-109949617D01*
X133836549Y-109922392D01*
X133848325Y-109906272D01*
X133850653Y-109904017D01*
X133888145Y-109881503D01*
X133961110Y-109847158D01*
X134060612Y-109804411D01*
X134177718Y-109756692D01*
X134303493Y-109707430D01*
X134429002Y-109660055D01*
X134545310Y-109617995D01*
X134643484Y-109584680D01*
X134714588Y-109563541D01*
X134749687Y-109558005D01*
X134750917Y-109558466D01*
X134779606Y-109577223D01*
X134842730Y-109619776D01*
X134933718Y-109681653D01*
X135046000Y-109758382D01*
X135173005Y-109845491D01*
X135209098Y-109870299D01*
X135339948Y-109958753D01*
X135459336Y-110036588D01*
X135560407Y-110099566D01*
X135636304Y-110143445D01*
X135680172Y-110163985D01*
X135685562Y-110164980D01*
X135713889Y-110147722D01*
X135770006Y-110100036D01*
X135847882Y-110028050D01*
X135941485Y-109937897D01*
X136044786Y-109835705D01*
X136151751Y-109727606D01*
X136256351Y-109619728D01*
X136352554Y-109518204D01*
X136434329Y-109429162D01*
X136495645Y-109358733D01*
X136530471Y-109313047D01*
X136536157Y-109300409D01*
X136522765Y-109270991D01*
X136486644Y-109210761D01*
X136433881Y-109129530D01*
X136391412Y-109067030D01*
X136313485Y-108953785D01*
X136221729Y-108819674D01*
X136130120Y-108685155D01*
X136081091Y-108612833D01*
X135915515Y-108368038D01*
X136026620Y-108162551D01*
X136075293Y-108068936D01*
X136113126Y-107989330D01*
X136134703Y-107935467D01*
X136137706Y-107921757D01*
X136115538Y-107905270D01*
X136052894Y-107872745D01*
X135955554Y-107826609D01*
X135829294Y-107769290D01*
X135679895Y-107703216D01*
X135513133Y-107630815D01*
X135334787Y-107554516D01*
X135150636Y-107476746D01*
X134966457Y-107399934D01*
X134788030Y-107326506D01*
X134621132Y-107258892D01*
X134471542Y-107199520D01*
X134345038Y-107150816D01*
X134247399Y-107115210D01*
X134184402Y-107095130D01*
X134162766Y-107091900D01*
X134135169Y-107117496D01*
X134090370Y-107173539D01*
X134037679Y-107248311D01*
X134033510Y-107254587D01*
X133878814Y-107447845D01*
X133698336Y-107603674D01*
X133497847Y-107720724D01*
X133283119Y-107797645D01*
X133059922Y-107833086D01*
X132834026Y-107825697D01*
X132611204Y-107774127D01*
X132397224Y-107677026D01*
X132350409Y-107648458D01*
X132161363Y-107499868D01*
X132009557Y-107324327D01*
X131895779Y-107127910D01*
X131820820Y-106916693D01*
X131785467Y-106696753D01*
X131790512Y-106474163D01*
X131836744Y-106255001D01*
X131924951Y-106045342D01*
X132055924Y-105851261D01*
X132109082Y-105791226D01*
X132275484Y-105638435D01*
X132450657Y-105527097D01*
X132647011Y-105450723D01*
X132841462Y-105408187D01*
X133060087Y-105397686D01*
X133279797Y-105432701D01*
X133493165Y-105509673D01*
X133692767Y-105625047D01*
X133871174Y-105775266D01*
X134020962Y-105956773D01*
X134036751Y-105980627D01*
X134088457Y-106056201D01*
X134133257Y-106113651D01*
X134161862Y-106141117D01*
X134162766Y-106141517D01*
X134193709Y-106135620D01*
X134263936Y-106112245D01*
X134367670Y-106073821D01*
X134499135Y-106022777D01*
X134652552Y-105961542D01*
X134822146Y-105892544D01*
X135002138Y-105818214D01*
X135186753Y-105740978D01*
X135370213Y-105663268D01*
X135546741Y-105587511D01*
X135710559Y-105516137D01*
X135855892Y-105451574D01*
X135976962Y-105396252D01*
X136067992Y-105352600D01*
X136123205Y-105323046D01*
X136137706Y-105311144D01*
X136126414Y-105274777D01*
X136096130Y-105206730D01*
X136052265Y-105118737D01*
X136026620Y-105070351D01*
X135915515Y-104864863D01*
X136081091Y-104620068D01*
X136165915Y-104495106D01*
X136259261Y-104358295D01*
X136347153Y-104230089D01*
X136391412Y-104165871D01*
X136452063Y-104075551D01*
X136500126Y-103999071D01*
X136529515Y-103946407D01*
X136535727Y-103929302D01*
X136518968Y-103904405D01*
X136472181Y-103849305D01*
X136400225Y-103769343D01*
X136307957Y-103669861D01*
X136200235Y-103556200D01*
X136131071Y-103484315D01*
X136007502Y-103358551D01*
X135896979Y-103249863D01*
X135804230Y-103162645D01*
X135733982Y-103101289D01*
X135690965Y-103070191D01*
X135682235Y-103067208D01*
X135649029Y-103081053D01*
X135581887Y-103119312D01*
X135487608Y-103177742D01*
X135372990Y-103252097D01*
X135244828Y-103338135D01*
X135209098Y-103362603D01*
X135079234Y-103451755D01*
X134962314Y-103531738D01*
X134864907Y-103598080D01*
X134793584Y-103646311D01*
X134754915Y-103671957D01*
X134750917Y-103674435D01*
X134720100Y-103670729D01*
X134652344Y-103651061D01*
X134556584Y-103618860D01*
X134441754Y-103577555D01*
X134316789Y-103530575D01*
X134190624Y-103481349D01*
X134072193Y-103433308D01*
X133970430Y-103389881D01*
X133894271Y-103354496D01*
X133852649Y-103330584D01*
X133850653Y-103328884D01*
X133838758Y-103314262D01*
X133826995Y-103289565D01*
X133814146Y-103249372D01*
X133798994Y-103188263D01*
X133780321Y-103100817D01*
X133756910Y-102981612D01*
X133727542Y-102825227D01*
X133691000Y-102626243D01*
X133683143Y-102583160D01*
X133658472Y-102455471D01*
X133634338Y-102344153D01*
X133613069Y-102259045D01*
X133596993Y-102209983D01*
X133593245Y-102203405D01*
X133560018Y-102192564D01*
X133485766Y-102183753D01*
X133379121Y-102176976D01*
X133248712Y-102172240D01*
X133103172Y-102169550D01*
X132951131Y-102168913D01*
X132801221Y-102170334D01*
X132662073Y-102173820D01*
X132542317Y-102179376D01*
X132450586Y-102187008D01*
X132395511Y-102196722D01*
X132384238Y-102202578D01*
X132372868Y-102235180D01*
X132354369Y-102309418D01*
X132330347Y-102417896D01*
X132302407Y-102553217D01*
X132272153Y-102707985D01*
X132256296Y-102792308D01*
X132226389Y-102952296D01*
X132199295Y-103094967D01*
X132176376Y-103213348D01*
X132158988Y-103300465D01*
X132148492Y-103349345D01*
X132146165Y-103357390D01*
X132119931Y-103370987D01*
X132056740Y-103399729D01*
X131965622Y-103439785D01*
X131855602Y-103487324D01*
X131735710Y-103538515D01*
X131614972Y-103589526D01*
X131502416Y-103636526D01*
X131407071Y-103675684D01*
X131337962Y-103703169D01*
X131304119Y-103715149D01*
X131302640Y-103715372D01*
X131275942Y-103701791D01*
X131214505Y-103663715D01*
X131124434Y-103605147D01*
X131011835Y-103530088D01*
X130882815Y-103442540D01*
X130808706Y-103391647D01*
X130672822Y-103298909D01*
X130549454Y-103216541D01*
X130444842Y-103148561D01*
X130365228Y-103098988D01*
X130316852Y-103071842D01*
X130306007Y-103067921D01*
X130280765Y-103084775D01*
X130226869Y-103131368D01*
X130150358Y-103201749D01*
X130057268Y-103289965D01*
X129953640Y-103390065D01*
X129845509Y-103496098D01*
X129738915Y-103602111D01*
X129639895Y-103702152D01*
X129554487Y-103790270D01*
X129488730Y-103860513D01*
X129448661Y-103906928D01*
X129439098Y-103922456D01*
X129452545Y-103947739D01*
X129490320Y-104008211D01*
X129548580Y-104097992D01*
X129623479Y-104211203D01*
X129711170Y-104341964D01*
X129777978Y-104440600D01*
X130116857Y-104938957D01*
X129945610Y-105354371D01*
X129774363Y-105769784D01*
X129177172Y-105882366D01*
X128579980Y-105994949D01*
X128579980Y-107237952D01*
X129177172Y-107350535D01*
X129177172Y-107350535D01*
G37*
X129177172Y-107350535D02*
X129774363Y-107463117D01*
X129945610Y-107878531D01*
X130116857Y-108293944D01*
X129777978Y-108792302D01*
X129683622Y-108931868D01*
X129599375Y-109058028D01*
X129529083Y-109164895D01*
X129476592Y-109246582D01*
X129445749Y-109297201D01*
X129439098Y-109310986D01*
X129456203Y-109335820D01*
X129503489Y-109388888D01*
X129574917Y-109464240D01*
X129664445Y-109555929D01*
X129766034Y-109658007D01*
X129873643Y-109764526D01*
X129981232Y-109869536D01*
X130082760Y-109967091D01*
X130172186Y-110051242D01*
X130243471Y-110116040D01*
X130290573Y-110155538D01*
X130306337Y-110164980D01*
X130335398Y-110151391D01*
X130399066Y-110113293D01*
X130491112Y-110054694D01*
X130605309Y-109979597D01*
X130735429Y-109892009D01*
X130809646Y-109841254D01*
X130945167Y-109748745D01*
X131067461Y-109666540D01*
X131170440Y-109598630D01*
X131248018Y-109549000D01*
X131294106Y-109521640D01*
X131303792Y-109517529D01*
X131331319Y-109526849D01*
X131395473Y-109552254D01*
X131487235Y-109589911D01*
X131597584Y-109635986D01*
X131717500Y-109686646D01*
X131837964Y-109738059D01*
X131949954Y-109786389D01*
X132044452Y-109827806D01*
X132112437Y-109858474D01*
X132144888Y-109874562D01*
X132146165Y-109875511D01*
X132152362Y-109900772D01*
X132166185Y-109968046D01*
X132186277Y-110070360D01*
X132211279Y-110200741D01*
X132239831Y-110352216D01*
X132256296Y-110440594D01*
X132287114Y-110602452D01*
X132316439Y-110748649D01*
X132342666Y-110871787D01*
X132364191Y-110964469D01*
X132379410Y-111019301D01*
X132384238Y-111030323D01*
X132416919Y-111041119D01*
X132490730Y-111049829D01*
X132597037Y-111056460D01*
X132727212Y-111061018D01*
X132872621Y-111063509D01*
X133024635Y-111063938D01*
X133174622Y-111062311D01*
X133313951Y-111058635D01*
X133433990Y-111052915D01*
X133526110Y-111045158D01*
X133581677Y-111035368D01*
X133593245Y-111029496D01*
X133607110Y-110994399D01*
X133626933Y-110920028D01*
X133650384Y-110816223D01*
X133675136Y-110692819D01*
X133683143Y-110649741D01*
X133721186Y-110442047D01*
X133751824Y-110277984D01*
X133776274Y-110152130D01*
X133795754Y-110059065D01*
X133811481Y-109993367D01*
X133824673Y-109949617D01*
X133836549Y-109922392D01*
X133848325Y-109906272D01*
X133850653Y-109904017D01*
X133888145Y-109881503D01*
X133961110Y-109847158D01*
X134060612Y-109804411D01*
X134177718Y-109756692D01*
X134303493Y-109707430D01*
X134429002Y-109660055D01*
X134545310Y-109617995D01*
X134643484Y-109584680D01*
X134714588Y-109563541D01*
X134749687Y-109558005D01*
X134750917Y-109558466D01*
X134779606Y-109577223D01*
X134842730Y-109619776D01*
X134933718Y-109681653D01*
X135046000Y-109758382D01*
X135173005Y-109845491D01*
X135209098Y-109870299D01*
X135339948Y-109958753D01*
X135459336Y-110036588D01*
X135560407Y-110099566D01*
X135636304Y-110143445D01*
X135680172Y-110163985D01*
X135685562Y-110164980D01*
X135713889Y-110147722D01*
X135770006Y-110100036D01*
X135847882Y-110028050D01*
X135941485Y-109937897D01*
X136044786Y-109835705D01*
X136151751Y-109727606D01*
X136256351Y-109619728D01*
X136352554Y-109518204D01*
X136434329Y-109429162D01*
X136495645Y-109358733D01*
X136530471Y-109313047D01*
X136536157Y-109300409D01*
X136522765Y-109270991D01*
X136486644Y-109210761D01*
X136433881Y-109129530D01*
X136391412Y-109067030D01*
X136313485Y-108953785D01*
X136221729Y-108819674D01*
X136130120Y-108685155D01*
X136081091Y-108612833D01*
X135915515Y-108368038D01*
X136026620Y-108162551D01*
X136075293Y-108068936D01*
X136113126Y-107989330D01*
X136134703Y-107935467D01*
X136137706Y-107921757D01*
X136115538Y-107905270D01*
X136052894Y-107872745D01*
X135955554Y-107826609D01*
X135829294Y-107769290D01*
X135679895Y-107703216D01*
X135513133Y-107630815D01*
X135334787Y-107554516D01*
X135150636Y-107476746D01*
X134966457Y-107399934D01*
X134788030Y-107326506D01*
X134621132Y-107258892D01*
X134471542Y-107199520D01*
X134345038Y-107150816D01*
X134247399Y-107115210D01*
X134184402Y-107095130D01*
X134162766Y-107091900D01*
X134135169Y-107117496D01*
X134090370Y-107173539D01*
X134037679Y-107248311D01*
X134033510Y-107254587D01*
X133878814Y-107447845D01*
X133698336Y-107603674D01*
X133497847Y-107720724D01*
X133283119Y-107797645D01*
X133059922Y-107833086D01*
X132834026Y-107825697D01*
X132611204Y-107774127D01*
X132397224Y-107677026D01*
X132350409Y-107648458D01*
X132161363Y-107499868D01*
X132009557Y-107324327D01*
X131895779Y-107127910D01*
X131820820Y-106916693D01*
X131785467Y-106696753D01*
X131790512Y-106474163D01*
X131836744Y-106255001D01*
X131924951Y-106045342D01*
X132055924Y-105851261D01*
X132109082Y-105791226D01*
X132275484Y-105638435D01*
X132450657Y-105527097D01*
X132647011Y-105450723D01*
X132841462Y-105408187D01*
X133060087Y-105397686D01*
X133279797Y-105432701D01*
X133493165Y-105509673D01*
X133692767Y-105625047D01*
X133871174Y-105775266D01*
X134020962Y-105956773D01*
X134036751Y-105980627D01*
X134088457Y-106056201D01*
X134133257Y-106113651D01*
X134161862Y-106141117D01*
X134162766Y-106141517D01*
X134193709Y-106135620D01*
X134263936Y-106112245D01*
X134367670Y-106073821D01*
X134499135Y-106022777D01*
X134652552Y-105961542D01*
X134822146Y-105892544D01*
X135002138Y-105818214D01*
X135186753Y-105740978D01*
X135370213Y-105663268D01*
X135546741Y-105587511D01*
X135710559Y-105516137D01*
X135855892Y-105451574D01*
X135976962Y-105396252D01*
X136067992Y-105352600D01*
X136123205Y-105323046D01*
X136137706Y-105311144D01*
X136126414Y-105274777D01*
X136096130Y-105206730D01*
X136052265Y-105118737D01*
X136026620Y-105070351D01*
X135915515Y-104864863D01*
X136081091Y-104620068D01*
X136165915Y-104495106D01*
X136259261Y-104358295D01*
X136347153Y-104230089D01*
X136391412Y-104165871D01*
X136452063Y-104075551D01*
X136500126Y-103999071D01*
X136529515Y-103946407D01*
X136535727Y-103929302D01*
X136518968Y-103904405D01*
X136472181Y-103849305D01*
X136400225Y-103769343D01*
X136307957Y-103669861D01*
X136200235Y-103556200D01*
X136131071Y-103484315D01*
X136007502Y-103358551D01*
X135896979Y-103249863D01*
X135804230Y-103162645D01*
X135733982Y-103101289D01*
X135690965Y-103070191D01*
X135682235Y-103067208D01*
X135649029Y-103081053D01*
X135581887Y-103119312D01*
X135487608Y-103177742D01*
X135372990Y-103252097D01*
X135244828Y-103338135D01*
X135209098Y-103362603D01*
X135079234Y-103451755D01*
X134962314Y-103531738D01*
X134864907Y-103598080D01*
X134793584Y-103646311D01*
X134754915Y-103671957D01*
X134750917Y-103674435D01*
X134720100Y-103670729D01*
X134652344Y-103651061D01*
X134556584Y-103618860D01*
X134441754Y-103577555D01*
X134316789Y-103530575D01*
X134190624Y-103481349D01*
X134072193Y-103433308D01*
X133970430Y-103389881D01*
X133894271Y-103354496D01*
X133852649Y-103330584D01*
X133850653Y-103328884D01*
X133838758Y-103314262D01*
X133826995Y-103289565D01*
X133814146Y-103249372D01*
X133798994Y-103188263D01*
X133780321Y-103100817D01*
X133756910Y-102981612D01*
X133727542Y-102825227D01*
X133691000Y-102626243D01*
X133683143Y-102583160D01*
X133658472Y-102455471D01*
X133634338Y-102344153D01*
X133613069Y-102259045D01*
X133596993Y-102209983D01*
X133593245Y-102203405D01*
X133560018Y-102192564D01*
X133485766Y-102183753D01*
X133379121Y-102176976D01*
X133248712Y-102172240D01*
X133103172Y-102169550D01*
X132951131Y-102168913D01*
X132801221Y-102170334D01*
X132662073Y-102173820D01*
X132542317Y-102179376D01*
X132450586Y-102187008D01*
X132395511Y-102196722D01*
X132384238Y-102202578D01*
X132372868Y-102235180D01*
X132354369Y-102309418D01*
X132330347Y-102417896D01*
X132302407Y-102553217D01*
X132272153Y-102707985D01*
X132256296Y-102792308D01*
X132226389Y-102952296D01*
X132199295Y-103094967D01*
X132176376Y-103213348D01*
X132158988Y-103300465D01*
X132148492Y-103349345D01*
X132146165Y-103357390D01*
X132119931Y-103370987D01*
X132056740Y-103399729D01*
X131965622Y-103439785D01*
X131855602Y-103487324D01*
X131735710Y-103538515D01*
X131614972Y-103589526D01*
X131502416Y-103636526D01*
X131407071Y-103675684D01*
X131337962Y-103703169D01*
X131304119Y-103715149D01*
X131302640Y-103715372D01*
X131275942Y-103701791D01*
X131214505Y-103663715D01*
X131124434Y-103605147D01*
X131011835Y-103530088D01*
X130882815Y-103442540D01*
X130808706Y-103391647D01*
X130672822Y-103298909D01*
X130549454Y-103216541D01*
X130444842Y-103148561D01*
X130365228Y-103098988D01*
X130316852Y-103071842D01*
X130306007Y-103067921D01*
X130280765Y-103084775D01*
X130226869Y-103131368D01*
X130150358Y-103201749D01*
X130057268Y-103289965D01*
X129953640Y-103390065D01*
X129845509Y-103496098D01*
X129738915Y-103602111D01*
X129639895Y-103702152D01*
X129554487Y-103790270D01*
X129488730Y-103860513D01*
X129448661Y-103906928D01*
X129439098Y-103922456D01*
X129452545Y-103947739D01*
X129490320Y-104008211D01*
X129548580Y-104097992D01*
X129623479Y-104211203D01*
X129711170Y-104341964D01*
X129777978Y-104440600D01*
X130116857Y-104938957D01*
X129945610Y-105354371D01*
X129774363Y-105769784D01*
X129177172Y-105882366D01*
X128579980Y-105994949D01*
X128579980Y-107237952D01*
X129177172Y-107350535D01*
G36*
X137431472Y-110167637D02*
X137457641Y-110253290D01*
X137490707Y-110308437D01*
X137516855Y-110326401D01*
X137547852Y-110321457D01*
X137596547Y-110289372D01*
X137631035Y-110262243D01*
X137693383Y-110206317D01*
X137719615Y-110164299D01*
X137717903Y-110128480D01*
X137690863Y-110022224D01*
X137692091Y-109944189D01*
X137722735Y-109880820D01*
X137740670Y-109859546D01*
X137803779Y-109791451D01*
X138627922Y-109791451D01*
X138627922Y-109517529D01*
X137432628Y-109517529D01*
X137432628Y-109654490D01*
X137435879Y-109736719D01*
X137447426Y-109779144D01*
X137469952Y-109791445D01*
X137470620Y-109791451D01*
X137494215Y-109797260D01*
X137491138Y-109823531D01*
X137474115Y-109859931D01*
X137442439Y-109935111D01*
X137423381Y-109996158D01*
X137418496Y-110074708D01*
X137431472Y-110167637D01*
X137431472Y-110167637D01*
G37*
X137431472Y-110167637D02*
X137457641Y-110253290D01*
X137490707Y-110308437D01*
X137516855Y-110326401D01*
X137547852Y-110321457D01*
X137596547Y-110289372D01*
X137631035Y-110262243D01*
X137693383Y-110206317D01*
X137719615Y-110164299D01*
X137717903Y-110128480D01*
X137690863Y-110022224D01*
X137692091Y-109944189D01*
X137722735Y-109880820D01*
X137740670Y-109859546D01*
X137803779Y-109791451D01*
X138627922Y-109791451D01*
X138627922Y-109517529D01*
X137432628Y-109517529D01*
X137432628Y-109654490D01*
X137435879Y-109736719D01*
X137447426Y-109779144D01*
X137469952Y-109791445D01*
X137470620Y-109791451D01*
X137494215Y-109797260D01*
X137491138Y-109823531D01*
X137474115Y-109859931D01*
X137442439Y-109935111D01*
X137423381Y-109996158D01*
X137418496Y-110074708D01*
X137431472Y-110167637D01*
G36*
X137453199Y-105110760D02*
X137482802Y-105172736D01*
X137525561Y-105232759D01*
X137574775Y-105278486D01*
X137637544Y-105311793D01*
X137720971Y-105334555D01*
X137832159Y-105348647D01*
X137978209Y-105355942D01*
X138166223Y-105358318D01*
X138185912Y-105358355D01*
X138627922Y-105358902D01*
X138627922Y-105084980D01*
X138220435Y-105084980D01*
X138069471Y-105084785D01*
X137960056Y-105083436D01*
X137883933Y-105079788D01*
X137832848Y-105072696D01*
X137798545Y-105061013D01*
X137772768Y-105043594D01*
X137747298Y-105019329D01*
X137692571Y-104934435D01*
X137682416Y-104841761D01*
X137717017Y-104753473D01*
X137742770Y-104722770D01*
X137766982Y-104700229D01*
X137792912Y-104684046D01*
X137828708Y-104673168D01*
X137882519Y-104666542D01*
X137962493Y-104663115D01*
X138076779Y-104661834D01*
X138215907Y-104661647D01*
X138627922Y-104661647D01*
X138627922Y-104387725D01*
X137432628Y-104387725D01*
X137432628Y-104524686D01*
X137435879Y-104606916D01*
X137447426Y-104649340D01*
X137469952Y-104661641D01*
X137470620Y-104661647D01*
X137492681Y-104667354D01*
X137490177Y-104692527D01*
X137465937Y-104742578D01*
X137430271Y-104856094D01*
X137426305Y-104985945D01*
X137453199Y-105110760D01*
X137453199Y-105110760D01*
G37*
X137453199Y-105110760D02*
X137482802Y-105172736D01*
X137525561Y-105232759D01*
X137574775Y-105278486D01*
X137637544Y-105311793D01*
X137720971Y-105334555D01*
X137832159Y-105348647D01*
X137978209Y-105355942D01*
X138166223Y-105358318D01*
X138185912Y-105358355D01*
X138627922Y-105358902D01*
X138627922Y-105084980D01*
X138220435Y-105084980D01*
X138069471Y-105084785D01*
X137960056Y-105083436D01*
X137883933Y-105079788D01*
X137832848Y-105072696D01*
X137798545Y-105061013D01*
X137772768Y-105043594D01*
X137747298Y-105019329D01*
X137692571Y-104934435D01*
X137682416Y-104841761D01*
X137717017Y-104753473D01*
X137742770Y-104722770D01*
X137766982Y-104700229D01*
X137792912Y-104684046D01*
X137828708Y-104673168D01*
X137882519Y-104666542D01*
X137962493Y-104663115D01*
X138076779Y-104661834D01*
X138215907Y-104661647D01*
X138627922Y-104661647D01*
X138627922Y-104387725D01*
X137432628Y-104387725D01*
X137432628Y-104524686D01*
X137435879Y-104606916D01*
X137447426Y-104649340D01*
X137469952Y-104661641D01*
X137470620Y-104661647D01*
X137492681Y-104667354D01*
X137490177Y-104692527D01*
X137465937Y-104742578D01*
X137430271Y-104856094D01*
X137426305Y-104985945D01*
X137453199Y-105110760D01*
G36*
X137428355Y-111907287D02*
X137443845Y-111971051D01*
X137500569Y-112093300D01*
X137587202Y-112197834D01*
X137691074Y-112270180D01*
X137714396Y-112280119D01*
X137775484Y-112293754D01*
X137865853Y-112303298D01*
X137957190Y-112306549D01*
X138129882Y-112306549D01*
X138129882Y-111945470D01*
X138130445Y-111796546D01*
X138133864Y-111691632D01*
X138142731Y-111624937D01*
X138159641Y-111590666D01*
X138187189Y-111583028D01*
X138227968Y-111596229D01*
X138275683Y-111619877D01*
X138355314Y-111685843D01*
X138394987Y-111777512D01*
X138393695Y-111889555D01*
X138350514Y-112016472D01*
X138297224Y-112126158D01*
X138369191Y-112217173D01*
X138441157Y-112308188D01*
X138520269Y-112222563D01*
X138595017Y-112108250D01*
X138640084Y-111967666D01*
X138652696Y-111816449D01*
X138630079Y-111670236D01*
X138622405Y-111646647D01*
X138555296Y-111518141D01*
X138455247Y-111422551D01*
X138319271Y-111357861D01*
X138144380Y-111322057D01*
X138140632Y-111321640D01*
X137950032Y-111318434D01*
X137882035Y-111331393D01*
X137882035Y-111584392D01*
X137892491Y-111607627D01*
X137900500Y-111670710D01*
X137905073Y-111763706D01*
X137905765Y-111822638D01*
X137905332Y-111932537D01*
X137902578Y-112001252D01*
X137895321Y-112037405D01*
X137881376Y-112049615D01*
X137858562Y-112046504D01*
X137849735Y-112043894D01*
X137766800Y-111999344D01*
X137699960Y-111929279D01*
X137670589Y-111867446D01*
X137672362Y-111785301D01*
X137708990Y-111702062D01*
X137769634Y-111632238D01*
X137843456Y-111590337D01*
X137882035Y-111584392D01*
X137882035Y-111331393D01*
X137782395Y-111350385D01*
X137641711Y-111413773D01*
X137531974Y-111504878D01*
X137457174Y-111619978D01*
X137421304Y-111755355D01*
X137428355Y-111907287D01*
X137428355Y-111907287D01*
G37*
X137428355Y-111907287D02*
X137443845Y-111971051D01*
X137500569Y-112093300D01*
X137587202Y-112197834D01*
X137691074Y-112270180D01*
X137714396Y-112280119D01*
X137775484Y-112293754D01*
X137865853Y-112303298D01*
X137957190Y-112306549D01*
X138129882Y-112306549D01*
X138129882Y-111945470D01*
X138130445Y-111796546D01*
X138133864Y-111691632D01*
X138142731Y-111624937D01*
X138159641Y-111590666D01*
X138187189Y-111583028D01*
X138227968Y-111596229D01*
X138275683Y-111619877D01*
X138355314Y-111685843D01*
X138394987Y-111777512D01*
X138393695Y-111889555D01*
X138350514Y-112016472D01*
X138297224Y-112126158D01*
X138369191Y-112217173D01*
X138441157Y-112308188D01*
X138520269Y-112222563D01*
X138595017Y-112108250D01*
X138640084Y-111967666D01*
X138652696Y-111816449D01*
X138630079Y-111670236D01*
X138622405Y-111646647D01*
X138555296Y-111518141D01*
X138455247Y-111422551D01*
X138319271Y-111357861D01*
X138144380Y-111322057D01*
X138140632Y-111321640D01*
X137950032Y-111318434D01*
X137882035Y-111331393D01*
X137882035Y-111584392D01*
X137892491Y-111607627D01*
X137900500Y-111670710D01*
X137905073Y-111763706D01*
X137905765Y-111822638D01*
X137905332Y-111932537D01*
X137902578Y-112001252D01*
X137895321Y-112037405D01*
X137881376Y-112049615D01*
X137858562Y-112046504D01*
X137849735Y-112043894D01*
X137766800Y-111999344D01*
X137699960Y-111929279D01*
X137670589Y-111867446D01*
X137672362Y-111785301D01*
X137708990Y-111702062D01*
X137769634Y-111632238D01*
X137843456Y-111590337D01*
X137882035Y-111584392D01*
X137882035Y-111331393D01*
X137782395Y-111350385D01*
X137641711Y-111413773D01*
X137531974Y-111504878D01*
X137457174Y-111619978D01*
X137421304Y-111755355D01*
X137428355Y-111907287D01*
G36*
X137443056Y-110994976D02*
X137504348Y-111139256D01*
X137534185Y-111184699D01*
X137580036Y-111242779D01*
X137616089Y-111279238D01*
X137627832Y-111285568D01*
X137653889Y-111267693D01*
X137698105Y-111221950D01*
X137728965Y-111185328D01*
X137809520Y-111085088D01*
X137742918Y-111005935D01*
X137699921Y-110944769D01*
X137685079Y-110885129D01*
X137688704Y-110816872D01*
X137715652Y-110708482D01*
X137771587Y-110633872D01*
X137862014Y-110588530D01*
X137992435Y-110567947D01*
X137992517Y-110567942D01*
X138138290Y-110569722D01*
X138245245Y-110597387D01*
X138318064Y-110652571D01*
X138342723Y-110690192D01*
X138373431Y-110790105D01*
X138373449Y-110896822D01*
X138343655Y-110989669D01*
X138329098Y-111011647D01*
X138291914Y-111066765D01*
X138285820Y-111109859D01*
X138313496Y-111156335D01*
X138363205Y-111207716D01*
X138447116Y-111289046D01*
X138521546Y-111198749D01*
X138605549Y-111059236D01*
X138646947Y-110901912D01*
X138643950Y-110737503D01*
X138616500Y-110629531D01*
X138548620Y-110503331D01*
X138441831Y-110402401D01*
X138366451Y-110356548D01*
X138258297Y-110319410D01*
X138121318Y-110300827D01*
X137972864Y-110300684D01*
X137830281Y-110318865D01*
X137710918Y-110355255D01*
X137698680Y-110360987D01*
X137578655Y-110445865D01*
X137491267Y-110560782D01*
X137438329Y-110696659D01*
X137421654Y-110844417D01*
X137443056Y-110994976D01*
X137443056Y-110994976D01*
G37*
X137443056Y-110994976D02*
X137504348Y-111139256D01*
X137534185Y-111184699D01*
X137580036Y-111242779D01*
X137616089Y-111279238D01*
X137627832Y-111285568D01*
X137653889Y-111267693D01*
X137698105Y-111221950D01*
X137728965Y-111185328D01*
X137809520Y-111085088D01*
X137742918Y-111005935D01*
X137699921Y-110944769D01*
X137685079Y-110885129D01*
X137688704Y-110816872D01*
X137715652Y-110708482D01*
X137771587Y-110633872D01*
X137862014Y-110588530D01*
X137992435Y-110567947D01*
X137992517Y-110567942D01*
X138138290Y-110569722D01*
X138245245Y-110597387D01*
X138318064Y-110652571D01*
X138342723Y-110690192D01*
X138373431Y-110790105D01*
X138373449Y-110896822D01*
X138343655Y-110989669D01*
X138329098Y-111011647D01*
X138291914Y-111066765D01*
X138285820Y-111109859D01*
X138313496Y-111156335D01*
X138363205Y-111207716D01*
X138447116Y-111289046D01*
X138521546Y-111198749D01*
X138605549Y-111059236D01*
X138646947Y-110901912D01*
X138643950Y-110737503D01*
X138616500Y-110629531D01*
X138548620Y-110503331D01*
X138441831Y-110402401D01*
X138366451Y-110356548D01*
X138258297Y-110319410D01*
X138121318Y-110300827D01*
X137972864Y-110300684D01*
X137830281Y-110318865D01*
X137710918Y-110355255D01*
X137698680Y-110360987D01*
X137578655Y-110445865D01*
X137491267Y-110560782D01*
X137438329Y-110696659D01*
X137421654Y-110844417D01*
X137443056Y-110994976D01*
G36*
X137820245Y-108571254D02*
X138002879Y-108573608D01*
X138141600Y-108582207D01*
X138242147Y-108599360D01*
X138310254Y-108627374D01*
X138351659Y-108668557D01*
X138372097Y-108725217D01*
X138377318Y-108795372D01*
X138371468Y-108868848D01*
X138350093Y-108924657D01*
X138307458Y-108965109D01*
X138237825Y-108992509D01*
X138135460Y-109009167D01*
X137994624Y-109017389D01*
X137820245Y-109019490D01*
X137432628Y-109019490D01*
X137432628Y-109293411D01*
X138627922Y-109293411D01*
X138627922Y-109156451D01*
X138624576Y-109073884D01*
X138612826Y-109031368D01*
X138590520Y-109019490D01*
X138570654Y-109012336D01*
X138574857Y-108983865D01*
X138602971Y-108926476D01*
X138646342Y-108794945D01*
X138643270Y-108655438D01*
X138596174Y-108521765D01*
X138558971Y-108458108D01*
X138518691Y-108409553D01*
X138468291Y-108374081D01*
X138400729Y-108349674D01*
X138308965Y-108334313D01*
X138185955Y-108325982D01*
X138024659Y-108322662D01*
X137899928Y-108322235D01*
X137432628Y-108322235D01*
X137432628Y-108571254D01*
X137820245Y-108571254D01*
X137820245Y-108571254D01*
G37*
X137820245Y-108571254D02*
X138002879Y-108573608D01*
X138141600Y-108582207D01*
X138242147Y-108599360D01*
X138310254Y-108627374D01*
X138351659Y-108668557D01*
X138372097Y-108725217D01*
X138377318Y-108795372D01*
X138371468Y-108868848D01*
X138350093Y-108924657D01*
X138307458Y-108965109D01*
X138237825Y-108992509D01*
X138135460Y-109009167D01*
X137994624Y-109017389D01*
X137820245Y-109019490D01*
X137432628Y-109019490D01*
X137432628Y-109293411D01*
X138627922Y-109293411D01*
X138627922Y-109156451D01*
X138624576Y-109073884D01*
X138612826Y-109031368D01*
X138590520Y-109019490D01*
X138570654Y-109012336D01*
X138574857Y-108983865D01*
X138602971Y-108926476D01*
X138646342Y-108794945D01*
X138643270Y-108655438D01*
X138596174Y-108521765D01*
X138558971Y-108458108D01*
X138518691Y-108409553D01*
X138468291Y-108374081D01*
X138400729Y-108349674D01*
X138308965Y-108334313D01*
X138185955Y-108325982D01*
X138024659Y-108322662D01*
X137899928Y-108322235D01*
X137432628Y-108322235D01*
X137432628Y-108571254D01*
X137820245Y-108571254D01*
G36*
X137447364Y-107813547D02*
X137515959Y-107939502D01*
X137624245Y-108038047D01*
X137712315Y-108084478D01*
X137790101Y-108104412D01*
X137900993Y-108117328D01*
X138028738Y-108122863D01*
X138157084Y-108120654D01*
X138269779Y-108110337D01*
X138329969Y-108098286D01*
X138412311Y-108057634D01*
X138499770Y-107987230D01*
X138576251Y-107902382D01*
X138625655Y-107818397D01*
X138626439Y-107816349D01*
X138648027Y-107712134D01*
X138648562Y-107588627D01*
X138628908Y-107471261D01*
X138613155Y-107425942D01*
X138546966Y-107309220D01*
X138460246Y-107225624D01*
X138345438Y-107170701D01*
X138194982Y-107139995D01*
X138116173Y-107133047D01*
X138017145Y-107133933D01*
X138017145Y-107400862D01*
X138161645Y-107409854D01*
X138271760Y-107435736D01*
X138342116Y-107476868D01*
X138362235Y-107506172D01*
X138376265Y-107581251D01*
X138372111Y-107670494D01*
X138351922Y-107747650D01*
X138340815Y-107767883D01*
X138276123Y-107821265D01*
X138177119Y-107856500D01*
X138056632Y-107871498D01*
X137927494Y-107864172D01*
X137849775Y-107847799D01*
X137759771Y-107800790D01*
X137703509Y-107726582D01*
X137684057Y-107637209D01*
X137704481Y-107544707D01*
X137754437Y-107473653D01*
X137795655Y-107436312D01*
X137836281Y-107414518D01*
X137891264Y-107404130D01*
X137975549Y-107401006D01*
X138017145Y-107400862D01*
X138017145Y-107133933D01*
X137905874Y-107134930D01*
X137733423Y-107169180D01*
X137598814Y-107235802D01*
X137502040Y-107334799D01*
X137443094Y-107466175D01*
X137436259Y-107494385D01*
X137420213Y-107663926D01*
X137447364Y-107813547D01*
X137447364Y-107813547D01*
G37*
X137447364Y-107813547D02*
X137515959Y-107939502D01*
X137624245Y-108038047D01*
X137712315Y-108084478D01*
X137790101Y-108104412D01*
X137900993Y-108117328D01*
X138028738Y-108122863D01*
X138157084Y-108120654D01*
X138269779Y-108110337D01*
X138329969Y-108098286D01*
X138412311Y-108057634D01*
X138499770Y-107987230D01*
X138576251Y-107902382D01*
X138625655Y-107818397D01*
X138626439Y-107816349D01*
X138648027Y-107712134D01*
X138648562Y-107588627D01*
X138628908Y-107471261D01*
X138613155Y-107425942D01*
X138546966Y-107309220D01*
X138460246Y-107225624D01*
X138345438Y-107170701D01*
X138194982Y-107139995D01*
X138116173Y-107133047D01*
X138017145Y-107133933D01*
X138017145Y-107400862D01*
X138161645Y-107409854D01*
X138271760Y-107435736D01*
X138342116Y-107476868D01*
X138362235Y-107506172D01*
X138376265Y-107581251D01*
X138372111Y-107670494D01*
X138351922Y-107747650D01*
X138340815Y-107767883D01*
X138276123Y-107821265D01*
X138177119Y-107856500D01*
X138056632Y-107871498D01*
X137927494Y-107864172D01*
X137849775Y-107847799D01*
X137759771Y-107800790D01*
X137703509Y-107726582D01*
X137684057Y-107637209D01*
X137704481Y-107544707D01*
X137754437Y-107473653D01*
X137795655Y-107436312D01*
X137836281Y-107414518D01*
X137891264Y-107404130D01*
X137975549Y-107401006D01*
X138017145Y-107400862D01*
X138017145Y-107133933D01*
X137905874Y-107134930D01*
X137733423Y-107169180D01*
X137598814Y-107235802D01*
X137502040Y-107334799D01*
X137443094Y-107466175D01*
X137436259Y-107494385D01*
X137420213Y-107663926D01*
X137447364Y-107813547D01*
G36*
X137428345Y-106631759D02*
X137446229Y-106726059D01*
X137483633Y-106823890D01*
X137488402Y-106834343D01*
X137527412Y-106908531D01*
X137563664Y-106959910D01*
X137586887Y-106976517D01*
X137624761Y-106960702D01*
X137680644Y-106922288D01*
X137701505Y-106905237D01*
X137783618Y-106834969D01*
X137730168Y-106744379D01*
X137694561Y-106658164D01*
X137675529Y-106558549D01*
X137674326Y-106463019D01*
X137692210Y-106389061D01*
X137703373Y-106371312D01*
X137754553Y-106337512D01*
X137813509Y-106333404D01*
X137859567Y-106358696D01*
X137868499Y-106373656D01*
X137879592Y-106418486D01*
X137892630Y-106497286D01*
X137905088Y-106594426D01*
X137907042Y-106612346D01*
X137934030Y-106768365D01*
X137979873Y-106881523D01*
X138048803Y-106956569D01*
X138145054Y-106998253D01*
X138262617Y-107011238D01*
X138396254Y-106993299D01*
X138501195Y-106935050D01*
X138577630Y-106836255D01*
X138625748Y-106696682D01*
X138644732Y-106541745D01*
X138644504Y-106415398D01*
X138627262Y-106312913D01*
X138603457Y-106242921D01*
X138561978Y-106154483D01*
X138513842Y-106072754D01*
X138492655Y-106043705D01*
X138431676Y-105969000D01*
X138340508Y-106059098D01*
X138249339Y-106149196D01*
X138317128Y-106251632D01*
X138368042Y-106354374D01*
X138394673Y-106464087D01*
X138397483Y-106569551D01*
X138376935Y-106659546D01*
X138333493Y-106722854D01*
X138296838Y-106743296D01*
X138238053Y-106740229D01*
X138193099Y-106689434D01*
X138162057Y-106591048D01*
X138147710Y-106483256D01*
X138120337Y-106317365D01*
X138068693Y-106194124D01*
X137991266Y-106111886D01*
X137886544Y-106069001D01*
X137762387Y-106063060D01*
X137632702Y-106092406D01*
X137534677Y-106159309D01*
X137467866Y-106264371D01*
X137431820Y-106408190D01*
X137424754Y-106514738D01*
X137428345Y-106631759D01*
X137428345Y-106631759D01*
G37*
X137428345Y-106631759D02*
X137446229Y-106726059D01*
X137483633Y-106823890D01*
X137488402Y-106834343D01*
X137527412Y-106908531D01*
X137563664Y-106959910D01*
X137586887Y-106976517D01*
X137624761Y-106960702D01*
X137680644Y-106922288D01*
X137701505Y-106905237D01*
X137783618Y-106834969D01*
X137730168Y-106744379D01*
X137694561Y-106658164D01*
X137675529Y-106558549D01*
X137674326Y-106463019D01*
X137692210Y-106389061D01*
X137703373Y-106371312D01*
X137754553Y-106337512D01*
X137813509Y-106333404D01*
X137859567Y-106358696D01*
X137868499Y-106373656D01*
X137879592Y-106418486D01*
X137892630Y-106497286D01*
X137905088Y-106594426D01*
X137907042Y-106612346D01*
X137934030Y-106768365D01*
X137979873Y-106881523D01*
X138048803Y-106956569D01*
X138145054Y-106998253D01*
X138262617Y-107011238D01*
X138396254Y-106993299D01*
X138501195Y-106935050D01*
X138577630Y-106836255D01*
X138625748Y-106696682D01*
X138644732Y-106541745D01*
X138644504Y-106415398D01*
X138627262Y-106312913D01*
X138603457Y-106242921D01*
X138561978Y-106154483D01*
X138513842Y-106072754D01*
X138492655Y-106043705D01*
X138431676Y-105969000D01*
X138340508Y-106059098D01*
X138249339Y-106149196D01*
X138317128Y-106251632D01*
X138368042Y-106354374D01*
X138394673Y-106464087D01*
X138397483Y-106569551D01*
X138376935Y-106659546D01*
X138333493Y-106722854D01*
X138296838Y-106743296D01*
X138238053Y-106740229D01*
X138193099Y-106689434D01*
X138162057Y-106591048D01*
X138147710Y-106483256D01*
X138120337Y-106317365D01*
X138068693Y-106194124D01*
X137991266Y-106111886D01*
X137886544Y-106069001D01*
X137762387Y-106063060D01*
X137632702Y-106092406D01*
X137534677Y-106159309D01*
X137467866Y-106264371D01*
X137431820Y-106408190D01*
X137424754Y-106514738D01*
X137428345Y-106631759D01*
G36*
X137460354Y-103917204D02*
X137472037Y-103942019D01*
X137534951Y-104027906D01*
X137626769Y-104109121D01*
X137727868Y-104169764D01*
X137774349Y-104187012D01*
X137857376Y-104202749D01*
X137957713Y-104212133D01*
X137999147Y-104213272D01*
X138129882Y-104213411D01*
X138129882Y-103460953D01*
X138198363Y-103476993D01*
X138279355Y-103516363D01*
X138349351Y-103585194D01*
X138394441Y-103667081D01*
X138403804Y-103719263D01*
X138392441Y-103790029D01*
X138363943Y-103874460D01*
X138350831Y-103903142D01*
X138297858Y-104009209D01*
X138366901Y-104099728D01*
X138413597Y-104151961D01*
X138452140Y-104179753D01*
X138463452Y-104181160D01*
X138490868Y-104156332D01*
X138532532Y-104101917D01*
X138565037Y-104052528D01*
X138623468Y-103919252D01*
X138649915Y-103769839D01*
X138643039Y-103621751D01*
X138607096Y-103503705D01*
X138530101Y-103382018D01*
X138428728Y-103295540D01*
X138297570Y-103241441D01*
X138131224Y-103216891D01*
X138055108Y-103214714D01*
X137880685Y-103223427D01*
X137875611Y-103224497D01*
X137875611Y-103473827D01*
X137891968Y-103480694D01*
X137900988Y-103508917D01*
X137904854Y-103567127D01*
X137905749Y-103663958D01*
X137905765Y-103701243D01*
X137904413Y-103814683D01*
X137899505Y-103886622D01*
X137889760Y-103925313D01*
X137873899Y-103939005D01*
X137868805Y-103939490D01*
X137828326Y-103923863D01*
X137771621Y-103884753D01*
X137751766Y-103867939D01*
X137695611Y-103805519D01*
X137673532Y-103740453D01*
X137671686Y-103705397D01*
X137694766Y-103610558D01*
X137756759Y-103531027D01*
X137846802Y-103480577D01*
X137849735Y-103479683D01*
X137875611Y-103473827D01*
X137875611Y-103224497D01*
X137743343Y-103252399D01*
X137633461Y-103304590D01*
X137555461Y-103368421D01*
X137470882Y-103486433D01*
X137425686Y-103625158D01*
X137421600Y-103772710D01*
X137460354Y-103917204D01*
X137460354Y-103917204D01*
G37*
X137460354Y-103917204D02*
X137472037Y-103942019D01*
X137534951Y-104027906D01*
X137626769Y-104109121D01*
X137727868Y-104169764D01*
X137774349Y-104187012D01*
X137857376Y-104202749D01*
X137957713Y-104212133D01*
X137999147Y-104213272D01*
X138129882Y-104213411D01*
X138129882Y-103460953D01*
X138198363Y-103476993D01*
X138279355Y-103516363D01*
X138349351Y-103585194D01*
X138394441Y-103667081D01*
X138403804Y-103719263D01*
X138392441Y-103790029D01*
X138363943Y-103874460D01*
X138350831Y-103903142D01*
X138297858Y-104009209D01*
X138366901Y-104099728D01*
X138413597Y-104151961D01*
X138452140Y-104179753D01*
X138463452Y-104181160D01*
X138490868Y-104156332D01*
X138532532Y-104101917D01*
X138565037Y-104052528D01*
X138623468Y-103919252D01*
X138649915Y-103769839D01*
X138643039Y-103621751D01*
X138607096Y-103503705D01*
X138530101Y-103382018D01*
X138428728Y-103295540D01*
X138297570Y-103241441D01*
X138131224Y-103216891D01*
X138055108Y-103214714D01*
X137880685Y-103223427D01*
X137875611Y-103224497D01*
X137875611Y-103473827D01*
X137891968Y-103480694D01*
X137900988Y-103508917D01*
X137904854Y-103567127D01*
X137905749Y-103663958D01*
X137905765Y-103701243D01*
X137904413Y-103814683D01*
X137899505Y-103886622D01*
X137889760Y-103925313D01*
X137873899Y-103939005D01*
X137868805Y-103939490D01*
X137828326Y-103923863D01*
X137771621Y-103884753D01*
X137751766Y-103867939D01*
X137695611Y-103805519D01*
X137673532Y-103740453D01*
X137671686Y-103705397D01*
X137694766Y-103610558D01*
X137756759Y-103531027D01*
X137846802Y-103480577D01*
X137849735Y-103479683D01*
X137875611Y-103473827D01*
X137875611Y-103224497D01*
X137743343Y-103252399D01*
X137633461Y-103304590D01*
X137555461Y-103368421D01*
X137470882Y-103486433D01*
X137425686Y-103625158D01*
X137421600Y-103772710D01*
X137460354Y-103917204D01*
G36*
X137445568Y-101577247D02*
X137503163Y-101707522D01*
X137599334Y-101806419D01*
X137734229Y-101874082D01*
X137907996Y-101910655D01*
X137935126Y-101913276D01*
X138126408Y-101915330D01*
X138294073Y-101888699D01*
X138429967Y-101835001D01*
X138473681Y-101806247D01*
X138566198Y-101706091D01*
X138626119Y-101578537D01*
X138650985Y-101435837D01*
X138638339Y-101290240D01*
X138599391Y-101179562D01*
X138533755Y-101084384D01*
X138447699Y-101006594D01*
X138445685Y-101005249D01*
X138392570Y-100973657D01*
X138339160Y-100953127D01*
X138271754Y-100940695D01*
X138176653Y-100933397D01*
X138098666Y-100930182D01*
X138027944Y-100928844D01*
X138027944Y-101177814D01*
X138098348Y-101180247D01*
X138192068Y-101189080D01*
X138252214Y-101204664D01*
X138295006Y-101232766D01*
X138320002Y-101259086D01*
X138372338Y-101352392D01*
X138379333Y-101450020D01*
X138341676Y-101540942D01*
X138299479Y-101586402D01*
X138256956Y-101619162D01*
X138216267Y-101638323D01*
X138163314Y-101646733D01*
X138083997Y-101647237D01*
X138010950Y-101644645D01*
X137906601Y-101639071D01*
X137838920Y-101630234D01*
X137794774Y-101614307D01*
X137761031Y-101587462D01*
X137741746Y-101566189D01*
X137691086Y-101477206D01*
X137688560Y-101381211D01*
X137718567Y-101300719D01*
X137781231Y-101232053D01*
X137884168Y-101191144D01*
X138027944Y-101177814D01*
X138027944Y-100928844D01*
X137943582Y-100927246D01*
X137827600Y-100932260D01*
X137740367Y-100947283D01*
X137671530Y-100974376D01*
X137610737Y-101015600D01*
X137592686Y-101030885D01*
X137502746Y-101126454D01*
X137450211Y-101228961D01*
X137428201Y-101354321D01*
X137426402Y-101415450D01*
X137445568Y-101577247D01*
X137445568Y-101577247D01*
G37*
X137445568Y-101577247D02*
X137503163Y-101707522D01*
X137599334Y-101806419D01*
X137734229Y-101874082D01*
X137907996Y-101910655D01*
X137935126Y-101913276D01*
X138126408Y-101915330D01*
X138294073Y-101888699D01*
X138429967Y-101835001D01*
X138473681Y-101806247D01*
X138566198Y-101706091D01*
X138626119Y-101578537D01*
X138650985Y-101435837D01*
X138638339Y-101290240D01*
X138599391Y-101179562D01*
X138533755Y-101084384D01*
X138447699Y-101006594D01*
X138445685Y-101005249D01*
X138392570Y-100973657D01*
X138339160Y-100953127D01*
X138271754Y-100940695D01*
X138176653Y-100933397D01*
X138098666Y-100930182D01*
X138027944Y-100928844D01*
X138027944Y-101177814D01*
X138098348Y-101180247D01*
X138192068Y-101189080D01*
X138252214Y-101204664D01*
X138295006Y-101232766D01*
X138320002Y-101259086D01*
X138372338Y-101352392D01*
X138379333Y-101450020D01*
X138341676Y-101540942D01*
X138299479Y-101586402D01*
X138256956Y-101619162D01*
X138216267Y-101638323D01*
X138163314Y-101646733D01*
X138083997Y-101647237D01*
X138010950Y-101644645D01*
X137906601Y-101639071D01*
X137838920Y-101630234D01*
X137794774Y-101614307D01*
X137761031Y-101587462D01*
X137741746Y-101566189D01*
X137691086Y-101477206D01*
X137688560Y-101381211D01*
X137718567Y-101300719D01*
X137781231Y-101232053D01*
X137884168Y-101191144D01*
X138027944Y-101177814D01*
X138027944Y-100928844D01*
X137943582Y-100927246D01*
X137827600Y-100932260D01*
X137740367Y-100947283D01*
X137671530Y-100974376D01*
X137610737Y-101015600D01*
X137592686Y-101030885D01*
X137502746Y-101126454D01*
X137450211Y-101228961D01*
X137428201Y-101354321D01*
X137426402Y-101415450D01*
X137445568Y-101577247D01*
G36*
X139306784Y-110629307D02*
X139337731Y-110748337D01*
X139401600Y-110848021D01*
X139449313Y-110896288D01*
X139562106Y-110975408D01*
X139692950Y-111020752D01*
X139853792Y-111036330D01*
X139866794Y-111036410D01*
X139997530Y-111036549D01*
X139997530Y-110284091D01*
X140066010Y-110300130D01*
X140128031Y-110329091D01*
X140192654Y-110379778D01*
X140202971Y-110390379D01*
X140258805Y-110481494D01*
X140268275Y-110585400D01*
X140231540Y-110705000D01*
X140221647Y-110725274D01*
X140191574Y-110787456D01*
X140174440Y-110829106D01*
X140172855Y-110836373D01*
X140188242Y-110861740D01*
X140225887Y-110910120D01*
X140246459Y-110934679D01*
X140293714Y-110985570D01*
X140324917Y-111002281D01*
X140353620Y-110990683D01*
X140361468Y-110984483D01*
X140395819Y-110942493D01*
X140437565Y-110873206D01*
X140461935Y-110824882D01*
X140504873Y-110687711D01*
X140518786Y-110535847D01*
X140502300Y-110392024D01*
X140490496Y-110351745D01*
X140423689Y-110227078D01*
X140320892Y-110134671D01*
X140181105Y-110073990D01*
X140003330Y-110044498D01*
X139910373Y-110041260D01*
X139775033Y-110050714D01*
X139775033Y-110289490D01*
X139785038Y-110312584D01*
X139792888Y-110374662D01*
X139797521Y-110464914D01*
X139798314Y-110526058D01*
X139797549Y-110636040D01*
X139793970Y-110705457D01*
X139785649Y-110743538D01*
X139770657Y-110759515D01*
X139748903Y-110762627D01*
X139681892Y-110741278D01*
X139615664Y-110687529D01*
X139564832Y-110616822D01*
X139544038Y-110546089D01*
X139562484Y-110450016D01*
X139615811Y-110366849D01*
X139692677Y-110309186D01*
X139775033Y-110289490D01*
X139775033Y-110050714D01*
X139713291Y-110055028D01*
X139556271Y-110097520D01*
X139438069Y-110169635D01*
X139357440Y-110272273D01*
X139313139Y-110406332D01*
X139304607Y-110478957D01*
X139306784Y-110629307D01*
X139306784Y-110629307D01*
G37*
X139306784Y-110629307D02*
X139337731Y-110748337D01*
X139401600Y-110848021D01*
X139449313Y-110896288D01*
X139562106Y-110975408D01*
X139692950Y-111020752D01*
X139853792Y-111036330D01*
X139866794Y-111036410D01*
X139997530Y-111036549D01*
X139997530Y-110284091D01*
X140066010Y-110300130D01*
X140128031Y-110329091D01*
X140192654Y-110379778D01*
X140202971Y-110390379D01*
X140258805Y-110481494D01*
X140268275Y-110585400D01*
X140231540Y-110705000D01*
X140221647Y-110725274D01*
X140191574Y-110787456D01*
X140174440Y-110829106D01*
X140172855Y-110836373D01*
X140188242Y-110861740D01*
X140225887Y-110910120D01*
X140246459Y-110934679D01*
X140293714Y-110985570D01*
X140324917Y-111002281D01*
X140353620Y-110990683D01*
X140361468Y-110984483D01*
X140395819Y-110942493D01*
X140437565Y-110873206D01*
X140461935Y-110824882D01*
X140504873Y-110687711D01*
X140518786Y-110535847D01*
X140502300Y-110392024D01*
X140490496Y-110351745D01*
X140423689Y-110227078D01*
X140320892Y-110134671D01*
X140181105Y-110073990D01*
X140003330Y-110044498D01*
X139910373Y-110041260D01*
X139775033Y-110050714D01*
X139775033Y-110289490D01*
X139785038Y-110312584D01*
X139792888Y-110374662D01*
X139797521Y-110464914D01*
X139798314Y-110526058D01*
X139797549Y-110636040D01*
X139793970Y-110705457D01*
X139785649Y-110743538D01*
X139770657Y-110759515D01*
X139748903Y-110762627D01*
X139681892Y-110741278D01*
X139615664Y-110687529D01*
X139564832Y-110616822D01*
X139544038Y-110546089D01*
X139562484Y-110450016D01*
X139615811Y-110366849D01*
X139692677Y-110309186D01*
X139775033Y-110289490D01*
X139775033Y-110050714D01*
X139713291Y-110055028D01*
X139556271Y-110097520D01*
X139438069Y-110169635D01*
X139357440Y-110272273D01*
X139313139Y-110406332D01*
X139304607Y-110478957D01*
X139306784Y-110629307D01*
G36*
X139299883Y-109842446D02*
X139318755Y-109938177D01*
X139346699Y-109992677D01*
X139393123Y-110050008D01*
X139496111Y-109968441D01*
X139558479Y-109918150D01*
X139588907Y-109884001D01*
X139593555Y-109850063D01*
X139578586Y-109800406D01*
X139570117Y-109777096D01*
X139557622Y-109682063D01*
X139584406Y-109595032D01*
X139644915Y-109531138D01*
X139664208Y-109520759D01*
X139715314Y-109509456D01*
X139809500Y-109500732D01*
X139940089Y-109494997D01*
X140100405Y-109492660D01*
X140123211Y-109492627D01*
X140520471Y-109492627D01*
X140520471Y-109218705D01*
X139300275Y-109218705D01*
X139300275Y-109355666D01*
X139302337Y-109434638D01*
X139311513Y-109475779D01*
X139332290Y-109490992D01*
X139351886Y-109492627D01*
X139403497Y-109492627D01*
X139351886Y-109558240D01*
X139316675Y-109633475D01*
X139299265Y-109734544D01*
X139299883Y-109842446D01*
X139299883Y-109842446D01*
G37*
X139299883Y-109842446D02*
X139318755Y-109938177D01*
X139346699Y-109992677D01*
X139393123Y-110050008D01*
X139496111Y-109968441D01*
X139558479Y-109918150D01*
X139588907Y-109884001D01*
X139593555Y-109850063D01*
X139578586Y-109800406D01*
X139570117Y-109777096D01*
X139557622Y-109682063D01*
X139584406Y-109595032D01*
X139644915Y-109531138D01*
X139664208Y-109520759D01*
X139715314Y-109509456D01*
X139809500Y-109500732D01*
X139940089Y-109494997D01*
X140100405Y-109492660D01*
X140123211Y-109492627D01*
X140520471Y-109492627D01*
X140520471Y-109218705D01*
X139300275Y-109218705D01*
X139300275Y-109355666D01*
X139302337Y-109434638D01*
X139311513Y-109475779D01*
X139332290Y-109490992D01*
X139351886Y-109492627D01*
X139403497Y-109492627D01*
X139351886Y-109558240D01*
X139316675Y-109633475D01*
X139299265Y-109734544D01*
X139299883Y-109842446D01*
G36*
X139307669Y-108660459D02*
X139333163Y-108765420D01*
X139346669Y-108795761D01*
X139382046Y-108854573D01*
X139421890Y-108899709D01*
X139473120Y-108933106D01*
X139542654Y-108956701D01*
X139637409Y-108972433D01*
X139764305Y-108982239D01*
X139930258Y-108988057D01*
X140041108Y-108990266D01*
X140520471Y-108998396D01*
X140520471Y-108859531D01*
X140516938Y-108775287D01*
X140504866Y-108731884D01*
X140484594Y-108720666D01*
X140462674Y-108714744D01*
X140466865Y-108688266D01*
X140484441Y-108652186D01*
X140511382Y-108561862D01*
X140518642Y-108445777D01*
X140506767Y-108323680D01*
X140476305Y-108215321D01*
X140472077Y-108205602D01*
X140402505Y-108106568D01*
X140305789Y-108041281D01*
X140192738Y-108011240D01*
X140152122Y-108013535D01*
X140152122Y-108258633D01*
X140206782Y-108280229D01*
X140245952Y-108344259D01*
X140266974Y-108447565D01*
X140269766Y-108502774D01*
X140262620Y-108594782D01*
X140234848Y-108655941D01*
X140221647Y-108670862D01*
X140149829Y-108711287D01*
X140084686Y-108720666D01*
X139997530Y-108720666D01*
X139997530Y-108599269D01*
X140004722Y-108458153D01*
X140027345Y-108359173D01*
X140066964Y-108296633D01*
X140084628Y-108282631D01*
X140152122Y-108258633D01*
X140152122Y-108013535D01*
X140074157Y-108017941D01*
X139960855Y-108062880D01*
X139884285Y-108124196D01*
X139851181Y-108161332D01*
X139829425Y-108197687D01*
X139816161Y-108244990D01*
X139808528Y-108314973D01*
X139803670Y-108419364D01*
X139802273Y-108460770D01*
X139793780Y-108720666D01*
X139715116Y-108720285D01*
X139632428Y-108710219D01*
X139582431Y-108673829D01*
X139550489Y-108600311D01*
X139549920Y-108598339D01*
X139537361Y-108494105D01*
X139553766Y-108392108D01*
X139593657Y-108316305D01*
X139613354Y-108285890D01*
X139610629Y-108253132D01*
X139582091Y-108202721D01*
X139561950Y-108173119D01*
X139518919Y-108115218D01*
X139486662Y-108079352D01*
X139477427Y-108073597D01*
X139429636Y-108097295D01*
X139372562Y-108167313D01*
X139353305Y-108197725D01*
X139320140Y-108285155D01*
X139301350Y-108402983D01*
X139297129Y-108533866D01*
X139307669Y-108660459D01*
X139307669Y-108660459D01*
G37*
X139307669Y-108660459D02*
X139333163Y-108765420D01*
X139346669Y-108795761D01*
X139382046Y-108854573D01*
X139421890Y-108899709D01*
X139473120Y-108933106D01*
X139542654Y-108956701D01*
X139637409Y-108972433D01*
X139764305Y-108982239D01*
X139930258Y-108988057D01*
X140041108Y-108990266D01*
X140520471Y-108998396D01*
X140520471Y-108859531D01*
X140516938Y-108775287D01*
X140504866Y-108731884D01*
X140484594Y-108720666D01*
X140462674Y-108714744D01*
X140466865Y-108688266D01*
X140484441Y-108652186D01*
X140511382Y-108561862D01*
X140518642Y-108445777D01*
X140506767Y-108323680D01*
X140476305Y-108215321D01*
X140472077Y-108205602D01*
X140402505Y-108106568D01*
X140305789Y-108041281D01*
X140192738Y-108011240D01*
X140152122Y-108013535D01*
X140152122Y-108258633D01*
X140206782Y-108280229D01*
X140245952Y-108344259D01*
X140266974Y-108447565D01*
X140269766Y-108502774D01*
X140262620Y-108594782D01*
X140234848Y-108655941D01*
X140221647Y-108670862D01*
X140149829Y-108711287D01*
X140084686Y-108720666D01*
X139997530Y-108720666D01*
X139997530Y-108599269D01*
X140004722Y-108458153D01*
X140027345Y-108359173D01*
X140066964Y-108296633D01*
X140084628Y-108282631D01*
X140152122Y-108258633D01*
X140152122Y-108013535D01*
X140074157Y-108017941D01*
X139960855Y-108062880D01*
X139884285Y-108124196D01*
X139851181Y-108161332D01*
X139829425Y-108197687D01*
X139816161Y-108244990D01*
X139808528Y-108314973D01*
X139803670Y-108419364D01*
X139802273Y-108460770D01*
X139793780Y-108720666D01*
X139715116Y-108720285D01*
X139632428Y-108710219D01*
X139582431Y-108673829D01*
X139550489Y-108600311D01*
X139549920Y-108598339D01*
X139537361Y-108494105D01*
X139553766Y-108392108D01*
X139593657Y-108316305D01*
X139613354Y-108285890D01*
X139610629Y-108253132D01*
X139582091Y-108202721D01*
X139561950Y-108173119D01*
X139518919Y-108115218D01*
X139486662Y-108079352D01*
X139477427Y-108073597D01*
X139429636Y-108097295D01*
X139372562Y-108167313D01*
X139353305Y-108197725D01*
X139320140Y-108285155D01*
X139301350Y-108402983D01*
X139297129Y-108533866D01*
X139307669Y-108660459D01*
G36*
X139305332Y-107161528D02*
X139312726Y-107260014D01*
X139698706Y-107388776D01*
X140084686Y-107517537D01*
X139947726Y-107557911D01*
X139863083Y-107582207D01*
X139748697Y-107614167D01*
X139622963Y-107648679D01*
X139555520Y-107666928D01*
X139300275Y-107735571D01*
X139300275Y-108018773D01*
X139567971Y-107934122D01*
X139699638Y-107892435D01*
X139858458Y-107842074D01*
X140024128Y-107789481D01*
X140171843Y-107742530D01*
X140508020Y-107635589D01*
X140523044Y-107404661D01*
X140316316Y-107342050D01*
X140187896Y-107303438D01*
X140046322Y-107261300D01*
X139921285Y-107224472D01*
X139916309Y-107223018D01*
X139831586Y-107195511D01*
X139773778Y-107171242D01*
X139751918Y-107154243D01*
X139754446Y-107150750D01*
X139788336Y-107138490D01*
X139860930Y-107115195D01*
X139963101Y-107083700D01*
X140085720Y-107046842D01*
X140153167Y-107026899D01*
X140520471Y-106918895D01*
X140520471Y-106689679D01*
X139941500Y-106506439D01*
X139779091Y-106454963D01*
X139631602Y-106408070D01*
X139505960Y-106367977D01*
X139409095Y-106336897D01*
X139347934Y-106317045D01*
X139330065Y-106311011D01*
X139311768Y-106315788D01*
X139303755Y-106353297D01*
X139304557Y-106431355D01*
X139305163Y-106443574D01*
X139312726Y-106588326D01*
X139661353Y-106683130D01*
X139788497Y-106717977D01*
X139900265Y-106749117D01*
X139986953Y-106773809D01*
X140038856Y-106789312D01*
X140047318Y-106792176D01*
X140037587Y-106804046D01*
X139987172Y-106827983D01*
X139902935Y-106861239D01*
X139791741Y-106901064D01*
X139691297Y-106934730D01*
X139297939Y-107063041D01*
X139305332Y-107161528D01*
X139305332Y-107161528D01*
G37*
X139305332Y-107161528D02*
X139312726Y-107260014D01*
X139698706Y-107388776D01*
X140084686Y-107517537D01*
X139947726Y-107557911D01*
X139863083Y-107582207D01*
X139748697Y-107614167D01*
X139622963Y-107648679D01*
X139555520Y-107666928D01*
X139300275Y-107735571D01*
X139300275Y-108018773D01*
X139567971Y-107934122D01*
X139699638Y-107892435D01*
X139858458Y-107842074D01*
X140024128Y-107789481D01*
X140171843Y-107742530D01*
X140508020Y-107635589D01*
X140523044Y-107404661D01*
X140316316Y-107342050D01*
X140187896Y-107303438D01*
X140046322Y-107261300D01*
X139921285Y-107224472D01*
X139916309Y-107223018D01*
X139831586Y-107195511D01*
X139773778Y-107171242D01*
X139751918Y-107154243D01*
X139754446Y-107150750D01*
X139788336Y-107138490D01*
X139860930Y-107115195D01*
X139963101Y-107083700D01*
X140085720Y-107046842D01*
X140153167Y-107026899D01*
X140520471Y-106918895D01*
X140520471Y-106689679D01*
X139941500Y-106506439D01*
X139779091Y-106454963D01*
X139631602Y-106408070D01*
X139505960Y-106367977D01*
X139409095Y-106336897D01*
X139347934Y-106317045D01*
X139330065Y-106311011D01*
X139311768Y-106315788D01*
X139303755Y-106353297D01*
X139304557Y-106431355D01*
X139305163Y-106443574D01*
X139312726Y-106588326D01*
X139661353Y-106683130D01*
X139788497Y-106717977D01*
X139900265Y-106749117D01*
X139986953Y-106773809D01*
X140038856Y-106789312D01*
X140047318Y-106792176D01*
X140037587Y-106804046D01*
X139987172Y-106827983D01*
X139902935Y-106861239D01*
X139791741Y-106901064D01*
X139691297Y-106934730D01*
X139297939Y-107063041D01*
X139305332Y-107161528D01*
G36*
X140520471Y-106205568D02*
X140520471Y-106068607D01*
X140518140Y-105989111D01*
X140508488Y-105947708D01*
X140487525Y-105932801D01*
X140473351Y-105931647D01*
X140444927Y-105929133D01*
X140439475Y-105913280D01*
X140456998Y-105871621D01*
X140473351Y-105839224D01*
X140512103Y-105714849D01*
X140514346Y-105579646D01*
X140485444Y-105469726D01*
X140415619Y-105367366D01*
X140312555Y-105289340D01*
X140190989Y-105246614D01*
X140184192Y-105245526D01*
X140110032Y-105239178D01*
X140003570Y-105236021D01*
X139923052Y-105236275D01*
X139923052Y-105508289D01*
X140030070Y-105514590D01*
X140118278Y-105528925D01*
X140168090Y-105548331D01*
X140236162Y-105621746D01*
X140260564Y-105708914D01*
X140240831Y-105798804D01*
X140181968Y-105875617D01*
X140142379Y-105904708D01*
X140095138Y-105921717D01*
X140026181Y-105929684D01*
X139922607Y-105931647D01*
X139820039Y-105928134D01*
X139729921Y-105918857D01*
X139669613Y-105905706D01*
X139664208Y-105903514D01*
X139599940Y-105850478D01*
X139564656Y-105773067D01*
X139558959Y-105686454D01*
X139583453Y-105605807D01*
X139638742Y-105546297D01*
X139649743Y-105540124D01*
X139716827Y-105520801D01*
X139813284Y-105510274D01*
X139923052Y-105508289D01*
X139923052Y-105236275D01*
X139882225Y-105236404D01*
X139816918Y-105238194D01*
X139655355Y-105250373D01*
X139534053Y-105275685D01*
X139444379Y-105317793D01*
X139377699Y-105380359D01*
X139338557Y-105441100D01*
X139311040Y-105525964D01*
X139301603Y-105631515D01*
X139309290Y-105739598D01*
X139333146Y-105832058D01*
X139361685Y-105880910D01*
X139407601Y-105931647D01*
X138827137Y-105931647D01*
X138827137Y-106205568D01*
X140520471Y-106205568D01*
X140520471Y-106205568D01*
G37*
X140520471Y-106205568D02*
X140520471Y-106068607D01*
X140518140Y-105989111D01*
X140508488Y-105947708D01*
X140487525Y-105932801D01*
X140473351Y-105931647D01*
X140444927Y-105929133D01*
X140439475Y-105913280D01*
X140456998Y-105871621D01*
X140473351Y-105839224D01*
X140512103Y-105714849D01*
X140514346Y-105579646D01*
X140485444Y-105469726D01*
X140415619Y-105367366D01*
X140312555Y-105289340D01*
X140190989Y-105246614D01*
X140184192Y-105245526D01*
X140110032Y-105239178D01*
X140003570Y-105236021D01*
X139923052Y-105236275D01*
X139923052Y-105508289D01*
X140030070Y-105514590D01*
X140118278Y-105528925D01*
X140168090Y-105548331D01*
X140236162Y-105621746D01*
X140260564Y-105708914D01*
X140240831Y-105798804D01*
X140181968Y-105875617D01*
X140142379Y-105904708D01*
X140095138Y-105921717D01*
X140026181Y-105929684D01*
X139922607Y-105931647D01*
X139820039Y-105928134D01*
X139729921Y-105918857D01*
X139669613Y-105905706D01*
X139664208Y-105903514D01*
X139599940Y-105850478D01*
X139564656Y-105773067D01*
X139558959Y-105686454D01*
X139583453Y-105605807D01*
X139638742Y-105546297D01*
X139649743Y-105540124D01*
X139716827Y-105520801D01*
X139813284Y-105510274D01*
X139923052Y-105508289D01*
X139923052Y-105236275D01*
X139882225Y-105236404D01*
X139816918Y-105238194D01*
X139655355Y-105250373D01*
X139534053Y-105275685D01*
X139444379Y-105317793D01*
X139377699Y-105380359D01*
X139338557Y-105441100D01*
X139311040Y-105525964D01*
X139301603Y-105631515D01*
X139309290Y-105739598D01*
X139333146Y-105832058D01*
X139361685Y-105880910D01*
X139407601Y-105931647D01*
X138827137Y-105931647D01*
X138827137Y-106205568D01*
X140520471Y-106205568D01*
G36*
X139302921Y-104636764D02*
X139314091Y-104674030D01*
X139338633Y-104686043D01*
X139349712Y-104686549D01*
X139380572Y-104688704D01*
X139385417Y-104703551D01*
X139364260Y-104743657D01*
X139349806Y-104767480D01*
X139318850Y-104842638D01*
X139303544Y-104932406D01*
X139302367Y-105026529D01*
X139313799Y-105114754D01*
X139336320Y-105186826D01*
X139368409Y-105232492D01*
X139408545Y-105241498D01*
X139419415Y-105236953D01*
X139464534Y-105203821D01*
X139520026Y-105152445D01*
X139528996Y-105143152D01*
X139570245Y-105094182D01*
X139583572Y-105051931D01*
X139574271Y-104992841D01*
X139568090Y-104969169D01*
X139553246Y-104895504D01*
X139559921Y-104843710D01*
X139583465Y-104799969D01*
X139615061Y-104759902D01*
X139654798Y-104730392D01*
X139710252Y-104709884D01*
X139789003Y-104696824D01*
X139898629Y-104689656D01*
X140046706Y-104686824D01*
X140136111Y-104686549D01*
X140520471Y-104686549D01*
X140520471Y-104437529D01*
X139300275Y-104437529D01*
X139300275Y-104562039D01*
X139302921Y-104636764D01*
X139302921Y-104636764D01*
G37*
X139302921Y-104636764D02*
X139314091Y-104674030D01*
X139338633Y-104686043D01*
X139349712Y-104686549D01*
X139380572Y-104688704D01*
X139385417Y-104703551D01*
X139364260Y-104743657D01*
X139349806Y-104767480D01*
X139318850Y-104842638D01*
X139303544Y-104932406D01*
X139302367Y-105026529D01*
X139313799Y-105114754D01*
X139336320Y-105186826D01*
X139368409Y-105232492D01*
X139408545Y-105241498D01*
X139419415Y-105236953D01*
X139464534Y-105203821D01*
X139520026Y-105152445D01*
X139528996Y-105143152D01*
X139570245Y-105094182D01*
X139583572Y-105051931D01*
X139574271Y-104992841D01*
X139568090Y-104969169D01*
X139553246Y-104895504D01*
X139559921Y-104843710D01*
X139583465Y-104799969D01*
X139615061Y-104759902D01*
X139654798Y-104730392D01*
X139710252Y-104709884D01*
X139789003Y-104696824D01*
X139898629Y-104689656D01*
X140046706Y-104686824D01*
X140136111Y-104686549D01*
X140520471Y-104686549D01*
X140520471Y-104437529D01*
X139300275Y-104437529D01*
X139300275Y-104562039D01*
X139302921Y-104636764D01*
G36*
X139309922Y-103862720D02*
X139341180Y-103979870D01*
X139397837Y-104069051D01*
X139472045Y-104131984D01*
X139503716Y-104151548D01*
X139536891Y-104165992D01*
X139579329Y-104176089D01*
X139638788Y-104182615D01*
X139723029Y-104186342D01*
X139839810Y-104188046D01*
X139996890Y-104188500D01*
X140038565Y-104188509D01*
X140520471Y-104188509D01*
X140520471Y-104068980D01*
X140515131Y-103992739D01*
X140501604Y-103936366D01*
X140493262Y-103922242D01*
X140478864Y-103883630D01*
X140493262Y-103844192D01*
X140511237Y-103779262D01*
X140518472Y-103684945D01*
X140515333Y-103580407D01*
X140502186Y-103484811D01*
X140485318Y-103429000D01*
X140415986Y-103320998D01*
X140319772Y-103253503D01*
X140191844Y-103223159D01*
X140188559Y-103222877D01*
X140131808Y-103225540D01*
X140131808Y-103466353D01*
X140196358Y-103487405D01*
X140232686Y-103521697D01*
X140260162Y-103590532D01*
X140271129Y-103681390D01*
X140265731Y-103774042D01*
X140244110Y-103848256D01*
X140230239Y-103869049D01*
X140166143Y-103905381D01*
X140093278Y-103914588D01*
X139997530Y-103914588D01*
X139997530Y-103776827D01*
X140007605Y-103645953D01*
X140036148Y-103546741D01*
X140080639Y-103485023D01*
X140131808Y-103466353D01*
X140131808Y-103225540D01*
X140048790Y-103229436D01*
X139938282Y-103275534D01*
X139854712Y-103362200D01*
X139847110Y-103374179D01*
X139822357Y-103425655D01*
X139807368Y-103489368D01*
X139800082Y-103578435D01*
X139798407Y-103684245D01*
X139798314Y-103914588D01*
X139701755Y-103914588D01*
X139626836Y-103904817D01*
X139576644Y-103879884D01*
X139573972Y-103876965D01*
X139552015Y-103821481D01*
X139543505Y-103737727D01*
X139547687Y-103645167D01*
X139563809Y-103563270D01*
X139587990Y-103514673D01*
X139607359Y-103488341D01*
X139611057Y-103460535D01*
X139595188Y-103422161D01*
X139555855Y-103364125D01*
X139489164Y-103277331D01*
X139482916Y-103269365D01*
X139459800Y-103273447D01*
X139421352Y-103307501D01*
X139378627Y-103359260D01*
X139342679Y-103416455D01*
X139334191Y-103434425D01*
X139317252Y-103499972D01*
X139305170Y-103596020D01*
X139300323Y-103703329D01*
X139300313Y-103708347D01*
X139309922Y-103862720D01*
X139309922Y-103862720D01*
G37*
X139309922Y-103862720D02*
X139341180Y-103979870D01*
X139397837Y-104069051D01*
X139472045Y-104131984D01*
X139503716Y-104151548D01*
X139536891Y-104165992D01*
X139579329Y-104176089D01*
X139638788Y-104182615D01*
X139723029Y-104186342D01*
X139839810Y-104188046D01*
X139996890Y-104188500D01*
X140038565Y-104188509D01*
X140520471Y-104188509D01*
X140520471Y-104068980D01*
X140515131Y-103992739D01*
X140501604Y-103936366D01*
X140493262Y-103922242D01*
X140478864Y-103883630D01*
X140493262Y-103844192D01*
X140511237Y-103779262D01*
X140518472Y-103684945D01*
X140515333Y-103580407D01*
X140502186Y-103484811D01*
X140485318Y-103429000D01*
X140415986Y-103320998D01*
X140319772Y-103253503D01*
X140191844Y-103223159D01*
X140188559Y-103222877D01*
X140131808Y-103225540D01*
X140131808Y-103466353D01*
X140196358Y-103487405D01*
X140232686Y-103521697D01*
X140260162Y-103590532D01*
X140271129Y-103681390D01*
X140265731Y-103774042D01*
X140244110Y-103848256D01*
X140230239Y-103869049D01*
X140166143Y-103905381D01*
X140093278Y-103914588D01*
X139997530Y-103914588D01*
X139997530Y-103776827D01*
X140007605Y-103645953D01*
X140036148Y-103546741D01*
X140080639Y-103485023D01*
X140131808Y-103466353D01*
X140131808Y-103225540D01*
X140048790Y-103229436D01*
X139938282Y-103275534D01*
X139854712Y-103362200D01*
X139847110Y-103374179D01*
X139822357Y-103425655D01*
X139807368Y-103489368D01*
X139800082Y-103578435D01*
X139798407Y-103684245D01*
X139798314Y-103914588D01*
X139701755Y-103914588D01*
X139626836Y-103904817D01*
X139576644Y-103879884D01*
X139573972Y-103876965D01*
X139552015Y-103821481D01*
X139543505Y-103737727D01*
X139547687Y-103645167D01*
X139563809Y-103563270D01*
X139587990Y-103514673D01*
X139607359Y-103488341D01*
X139611057Y-103460535D01*
X139595188Y-103422161D01*
X139555855Y-103364125D01*
X139489164Y-103277331D01*
X139482916Y-103269365D01*
X139459800Y-103273447D01*
X139421352Y-103307501D01*
X139378627Y-103359260D01*
X139342679Y-103416455D01*
X139334191Y-103434425D01*
X139317252Y-103499972D01*
X139305170Y-103596020D01*
X139300323Y-103703329D01*
X139300313Y-103708347D01*
X139309922Y-103862720D01*
G36*
X137453560Y-102823909D02*
X137479499Y-102876412D01*
X137524700Y-102941158D01*
X137573991Y-102988347D01*
X137635885Y-103020665D01*
X137718896Y-103040797D01*
X137831538Y-103051430D01*
X137982324Y-103055247D01*
X138047149Y-103055470D01*
X138189221Y-103054818D01*
X138290757Y-103052112D01*
X138361015Y-103046224D01*
X138409256Y-103036027D01*
X138444738Y-103020394D01*
X138468943Y-103004128D01*
X138571929Y-102900295D01*
X138633874Y-102778021D01*
X138652506Y-102646114D01*
X138625549Y-102513384D01*
X138606486Y-102471333D01*
X138554015Y-102370666D01*
X139376259Y-102370666D01*
X139338267Y-102444135D01*
X139308872Y-102540941D01*
X139301342Y-102659928D01*
X139315245Y-102778745D01*
X139346476Y-102868473D01*
X139405954Y-102942899D01*
X139491066Y-103006490D01*
X139499805Y-103011271D01*
X139540966Y-103031437D01*
X139582454Y-103046165D01*
X139632713Y-103056303D01*
X139700184Y-103062699D01*
X139793309Y-103066201D01*
X139920531Y-103067658D01*
X140063701Y-103067921D01*
X140520471Y-103067921D01*
X140520471Y-102794000D01*
X139678231Y-102794000D01*
X139613763Y-102717383D01*
X139562194Y-102637793D01*
X139552818Y-102562422D01*
X139576947Y-102486633D01*
X139600574Y-102446241D01*
X139634227Y-102416179D01*
X139685087Y-102394797D01*
X139760334Y-102380450D01*
X139867146Y-102371490D01*
X140012704Y-102366270D01*
X140109588Y-102364431D01*
X140508020Y-102358215D01*
X140515547Y-102227480D01*
X140523073Y-102096745D01*
X138050582Y-102096745D01*
X138050582Y-102370666D01*
X138188423Y-102377650D01*
X138284107Y-102401182D01*
X138343641Y-102445135D01*
X138373029Y-102513382D01*
X138378902Y-102582333D01*
X138372154Y-102660386D01*
X138345594Y-102712189D01*
X138310499Y-102744583D01*
X138272752Y-102770084D01*
X138230700Y-102785265D01*
X138171779Y-102792019D01*
X138083428Y-102792241D01*
X138009448Y-102789968D01*
X137898000Y-102784749D01*
X137824833Y-102776979D01*
X137778422Y-102763895D01*
X137747244Y-102742732D01*
X137729223Y-102722760D01*
X137689925Y-102639314D01*
X137683579Y-102540551D01*
X137697116Y-102483841D01*
X137745233Y-102427692D01*
X137838833Y-102390499D01*
X137977254Y-102372472D01*
X138050582Y-102370666D01*
X138050582Y-102096745D01*
X137432628Y-102096745D01*
X137432628Y-102233705D01*
X137435879Y-102315935D01*
X137447426Y-102358360D01*
X137469952Y-102370661D01*
X137470620Y-102370666D01*
X137492681Y-102376374D01*
X137490176Y-102401547D01*
X137465935Y-102451598D01*
X137428851Y-102568219D01*
X137424953Y-102699429D01*
X137453560Y-102823909D01*
X137453560Y-102823909D01*
G37*
X137453560Y-102823909D02*
X137479499Y-102876412D01*
X137524700Y-102941158D01*
X137573991Y-102988347D01*
X137635885Y-103020665D01*
X137718896Y-103040797D01*
X137831538Y-103051430D01*
X137982324Y-103055247D01*
X138047149Y-103055470D01*
X138189221Y-103054818D01*
X138290757Y-103052112D01*
X138361015Y-103046224D01*
X138409256Y-103036027D01*
X138444738Y-103020394D01*
X138468943Y-103004128D01*
X138571929Y-102900295D01*
X138633874Y-102778021D01*
X138652506Y-102646114D01*
X138625549Y-102513384D01*
X138606486Y-102471333D01*
X138554015Y-102370666D01*
X139376259Y-102370666D01*
X139338267Y-102444135D01*
X139308872Y-102540941D01*
X139301342Y-102659928D01*
X139315245Y-102778745D01*
X139346476Y-102868473D01*
X139405954Y-102942899D01*
X139491066Y-103006490D01*
X139499805Y-103011271D01*
X139540966Y-103031437D01*
X139582454Y-103046165D01*
X139632713Y-103056303D01*
X139700184Y-103062699D01*
X139793309Y-103066201D01*
X139920531Y-103067658D01*
X140063701Y-103067921D01*
X140520471Y-103067921D01*
X140520471Y-102794000D01*
X139678231Y-102794000D01*
X139613763Y-102717383D01*
X139562194Y-102637793D01*
X139552818Y-102562422D01*
X139576947Y-102486633D01*
X139600574Y-102446241D01*
X139634227Y-102416179D01*
X139685087Y-102394797D01*
X139760334Y-102380450D01*
X139867146Y-102371490D01*
X140012704Y-102366270D01*
X140109588Y-102364431D01*
X140508020Y-102358215D01*
X140515547Y-102227480D01*
X140523073Y-102096745D01*
X138050582Y-102096745D01*
X138050582Y-102370666D01*
X138188423Y-102377650D01*
X138284107Y-102401182D01*
X138343641Y-102445135D01*
X138373029Y-102513382D01*
X138378902Y-102582333D01*
X138372154Y-102660386D01*
X138345594Y-102712189D01*
X138310499Y-102744583D01*
X138272752Y-102770084D01*
X138230700Y-102785265D01*
X138171779Y-102792019D01*
X138083428Y-102792241D01*
X138009448Y-102789968D01*
X137898000Y-102784749D01*
X137824833Y-102776979D01*
X137778422Y-102763895D01*
X137747244Y-102742732D01*
X137729223Y-102722760D01*
X137689925Y-102639314D01*
X137683579Y-102540551D01*
X137697116Y-102483841D01*
X137745233Y-102427692D01*
X137838833Y-102390499D01*
X137977254Y-102372472D01*
X138050582Y-102370666D01*
X138050582Y-102096745D01*
X137432628Y-102096745D01*
X137432628Y-102233705D01*
X137435879Y-102315935D01*
X137447426Y-102358360D01*
X137469952Y-102370661D01*
X137470620Y-102370666D01*
X137492681Y-102376374D01*
X137490176Y-102401547D01*
X137465935Y-102451598D01*
X137428851Y-102568219D01*
X137424953Y-102699429D01*
X137453560Y-102823909D01*
G04 #@! TD*
%LPC*%
D16*
G04 #@! TO.C,Q1*
X152070000Y-105226000D03*
D17*
G36*
X155021756Y-104127806D02*
X155058159Y-104133206D01*
X155093857Y-104142147D01*
X155128506Y-104154545D01*
X155161774Y-104170280D01*
X155193339Y-104189199D01*
X155222897Y-104211121D01*
X155250165Y-104235835D01*
X155274879Y-104263103D01*
X155296801Y-104292661D01*
X155315720Y-104324226D01*
X155331455Y-104357494D01*
X155343853Y-104392143D01*
X155352794Y-104427841D01*
X155358194Y-104464244D01*
X155360000Y-104501000D01*
X155360000Y-105951000D01*
X155358194Y-105987756D01*
X155352794Y-106024159D01*
X155343853Y-106059857D01*
X155331455Y-106094506D01*
X155315720Y-106127774D01*
X155296801Y-106159339D01*
X155274879Y-106188897D01*
X155250165Y-106216165D01*
X155222897Y-106240879D01*
X155193339Y-106262801D01*
X155161774Y-106281720D01*
X155128506Y-106297455D01*
X155093857Y-106309853D01*
X155058159Y-106318794D01*
X155021756Y-106324194D01*
X154985000Y-106326000D01*
X154235000Y-106326000D01*
X154198244Y-106324194D01*
X154161841Y-106318794D01*
X154126143Y-106309853D01*
X154091494Y-106297455D01*
X154058226Y-106281720D01*
X154026661Y-106262801D01*
X153997103Y-106240879D01*
X153969835Y-106216165D01*
X153945121Y-106188897D01*
X153923199Y-106159339D01*
X153904280Y-106127774D01*
X153888545Y-106094506D01*
X153876147Y-106059857D01*
X153867206Y-106024159D01*
X153861806Y-105987756D01*
X153860000Y-105951000D01*
X153860000Y-104501000D01*
X153861806Y-104464244D01*
X153867206Y-104427841D01*
X153876147Y-104392143D01*
X153888545Y-104357494D01*
X153904280Y-104324226D01*
X153923199Y-104292661D01*
X153945121Y-104263103D01*
X153969835Y-104235835D01*
X153997103Y-104211121D01*
X154026661Y-104189199D01*
X154058226Y-104170280D01*
X154091494Y-104154545D01*
X154126143Y-104142147D01*
X154161841Y-104133206D01*
X154198244Y-104127806D01*
X154235000Y-104126000D01*
X154985000Y-104126000D01*
X155021756Y-104127806D01*
X155021756Y-104127806D01*
G37*
D18*
X154610000Y-105226000D03*
D17*
G36*
X153751756Y-102057806D02*
X153788159Y-102063206D01*
X153823857Y-102072147D01*
X153858506Y-102084545D01*
X153891774Y-102100280D01*
X153923339Y-102119199D01*
X153952897Y-102141121D01*
X153980165Y-102165835D01*
X154004879Y-102193103D01*
X154026801Y-102222661D01*
X154045720Y-102254226D01*
X154061455Y-102287494D01*
X154073853Y-102322143D01*
X154082794Y-102357841D01*
X154088194Y-102394244D01*
X154090000Y-102431000D01*
X154090000Y-103881000D01*
X154088194Y-103917756D01*
X154082794Y-103954159D01*
X154073853Y-103989857D01*
X154061455Y-104024506D01*
X154045720Y-104057774D01*
X154026801Y-104089339D01*
X154004879Y-104118897D01*
X153980165Y-104146165D01*
X153952897Y-104170879D01*
X153923339Y-104192801D01*
X153891774Y-104211720D01*
X153858506Y-104227455D01*
X153823857Y-104239853D01*
X153788159Y-104248794D01*
X153751756Y-104254194D01*
X153715000Y-104256000D01*
X152965000Y-104256000D01*
X152928244Y-104254194D01*
X152891841Y-104248794D01*
X152856143Y-104239853D01*
X152821494Y-104227455D01*
X152788226Y-104211720D01*
X152756661Y-104192801D01*
X152727103Y-104170879D01*
X152699835Y-104146165D01*
X152675121Y-104118897D01*
X152653199Y-104089339D01*
X152634280Y-104057774D01*
X152618545Y-104024506D01*
X152606147Y-103989857D01*
X152597206Y-103954159D01*
X152591806Y-103917756D01*
X152590000Y-103881000D01*
X152590000Y-102431000D01*
X152591806Y-102394244D01*
X152597206Y-102357841D01*
X152606147Y-102322143D01*
X152618545Y-102287494D01*
X152634280Y-102254226D01*
X152653199Y-102222661D01*
X152675121Y-102193103D01*
X152699835Y-102165835D01*
X152727103Y-102141121D01*
X152756661Y-102119199D01*
X152788226Y-102100280D01*
X152821494Y-102084545D01*
X152856143Y-102072147D01*
X152891841Y-102063206D01*
X152928244Y-102057806D01*
X152965000Y-102056000D01*
X153715000Y-102056000D01*
X153751756Y-102057806D01*
X153751756Y-102057806D01*
G37*
D18*
X153340000Y-103156000D03*
G04 #@! TD*
D19*
G04 #@! TO.C,U3*
X129220000Y-125490000D03*
X129220000Y-135650000D03*
D20*
X147000000Y-135650000D03*
D19*
X131760000Y-135650000D03*
X147000000Y-125490000D03*
X131760000Y-125490000D03*
G04 #@! TD*
D21*
G04 #@! TO.C,REF\002A\002A*
X102000000Y-101905000D03*
G04 #@! TD*
G04 #@! TO.C,REF\002A\002A*
X102000000Y-138000000D03*
G04 #@! TD*
D22*
G04 #@! TO.C,R1*
X151943000Y-108509000D03*
D23*
X151943000Y-118669000D03*
G04 #@! TD*
D24*
G04 #@! TO.C,J2*
X157785000Y-110795000D03*
X157785000Y-113335000D03*
X157785000Y-115875000D03*
D25*
X157785000Y-118415000D03*
G04 #@! TD*
D26*
G04 #@! TO.C,J3*
X105500000Y-102000000D03*
D27*
X108040000Y-102000000D03*
X110580000Y-102000000D03*
X113120000Y-102000000D03*
X115660000Y-102000000D03*
X118200000Y-102000000D03*
X120740000Y-102000000D03*
X123280000Y-102000000D03*
G04 #@! TD*
D20*
G04 #@! TO.C,U1*
X147000000Y-105170000D03*
X147000000Y-135650000D03*
X147000000Y-130570000D03*
X129300000Y-110250000D03*
X129300000Y-105170000D03*
G04 #@! TD*
D28*
G04 #@! TO.C,U2*
X101570000Y-130390000D03*
X124430000Y-130390000D03*
X101570000Y-127850000D03*
X124430000Y-127850000D03*
X101570000Y-125310000D03*
X124430000Y-125310000D03*
X101570000Y-122770000D03*
X124430000Y-122770000D03*
X101570000Y-120230000D03*
X124430000Y-120230000D03*
X101570000Y-117690000D03*
X124430000Y-117690000D03*
X101570000Y-115150000D03*
X124430000Y-115150000D03*
X101570000Y-112610000D03*
X124430000Y-112610000D03*
G04 #@! TD*
D29*
G04 #@! TO.C,J1*
X155500000Y-135650000D03*
D30*
X155500000Y-130570000D03*
G04 #@! TD*
D21*
G04 #@! TO.C,REF\002A\002A*
X158000000Y-102000000D03*
G04 #@! TD*
M02*
