M48
;DRILL file {KiCad (5.0.2)-1} date 2/7/2019 8:47:16 AM
;FORMAT={-:-/ absolute / inch / decimal}
FMAT,2
INCH,TZ
T1C0.0157
T2C0.0260
T3C0.0295
T4C0.0299
T5C0.0315
T6C0.0394
T7C0.0400
T8C0.0598
%
G90
G05
T1
X4.142Y-4.9335
X4.402Y-4.812
X5.352Y-4.532
X6.047Y-4.4808
T2
X5.0874Y-4.9406
X5.0874Y-5.3406
X5.1874Y-4.9406
X5.1874Y-5.3406
X5.7874Y-4.9406
T3
X5.987Y-4.127
X6.037Y-4.077
X6.087Y-4.127
T4
X5.7874Y-5.3406
X5.0906Y-4.1406
X5.0906Y-4.3406
X5.7874Y-4.1406
X5.7874Y-5.1406
X5.7874Y-5.3406
T5
X5.982Y-4.272
X5.982Y-4.672
T6
X4.1535Y-4.0157
X4.2535Y-4.0157
X4.3535Y-4.0157
X4.4535Y-4.0157
X4.5535Y-4.0157
X4.6535Y-4.0157
X4.7535Y-4.0157
X4.8535Y-4.0157
X6.212Y-4.362
X6.212Y-4.462
X6.212Y-4.562
X6.212Y-4.662
T7
X3.9988Y-4.4335
X3.9988Y-4.5335
X3.9988Y-4.6335
X3.9988Y-4.7335
X3.9988Y-4.8335
X3.9988Y-4.9335
X3.9988Y-5.0335
X3.9988Y-5.1335
X4.8988Y-4.4335
X4.8988Y-4.5335
X4.8988Y-4.6335
X4.8988Y-4.7335
X4.8988Y-4.8335
X4.8988Y-4.9335
X4.8988Y-5.0335
X4.8988Y-5.1335
T8
X6.122Y-5.1406
X6.122Y-5.3406
T0
M30
