G04 #@! TF.GenerationSoftware,KiCad,Pcbnew,(5.0.2)-1*
G04 #@! TF.CreationDate,2019-01-04T15:23:43-05:00*
G04 #@! TF.ProjectId,HASwitchPlate,48415377-6974-4636-9850-6c6174652e6b,rev?*
G04 #@! TF.SameCoordinates,Original*
G04 #@! TF.FileFunction,Soldermask,Top*
G04 #@! TF.FilePolarity,Negative*
%FSLAX46Y46*%
G04 Gerber Fmt 4.6, Leading zero omitted, Abs format (unit mm)*
G04 Created by KiCad (PCBNEW (5.0.2)-1) date 1/4/2019 3:23:43 PM*
%MOMM*%
%LPD*%
G01*
G04 APERTURE LIST*
%ADD10C,0.150000*%
G04 #@! TA.AperFunction,NonConductor*
%ADD11C,0.100000*%
G04 #@! TD*
G04 APERTURE END LIST*
D10*
X160000000Y-101000000D02*
X160000000Y-127000000D01*
X160000000Y-132100000D02*
X160000000Y-129000000D01*
X143500000Y-128000000D02*
G75*
G03X144500000Y-129000000I1000000J0D01*
G01*
X144500000Y-127000000D02*
G75*
G03X143500000Y-128000000I0J-1000000D01*
G01*
X144500000Y-127000000D02*
X160000000Y-127000000D01*
X144500000Y-129000000D02*
X160000000Y-129000000D01*
X118500000Y-140000000D02*
X159000000Y-140000000D01*
X101000000Y-140000000D02*
X106000000Y-140000000D01*
X108000000Y-138000000D02*
X116500000Y-138000000D01*
X117500000Y-139000000D02*
G75*
G03X118500000Y-140000000I1000000J0D01*
G01*
X117500000Y-139000000D02*
G75*
G03X116500000Y-138000000I-1000000J0D01*
G01*
X107998255Y-138000002D02*
G75*
G03X107000000Y-139000000I1745J-999998D01*
G01*
X106000000Y-140000000D02*
G75*
G03X107000000Y-139000000I0J1000000D01*
G01*
X101000000Y-100000000D02*
G75*
G03X100000000Y-101000000I0J-1000000D01*
G01*
X100000000Y-139000000D02*
G75*
G03X101000000Y-140000000I1000000J0D01*
G01*
X159000000Y-140000000D02*
G75*
G03X160000000Y-139000000I0J1000000D01*
G01*
X160000000Y-101000000D02*
G75*
G03X159000000Y-100000000I-1000000J0D01*
G01*
X143500000Y-133100000D02*
G75*
G03X144500000Y-134100000I1000000J0D01*
G01*
X144500000Y-132100000D02*
G75*
G03X143500000Y-133100000I0J-1000000D01*
G01*
X160000000Y-134100000D02*
X160000000Y-139000000D01*
X144500000Y-134100000D02*
X160000000Y-134100000D01*
X144500000Y-132100000D02*
X160000000Y-132100000D01*
X101000000Y-100000000D02*
X159000000Y-100000000D01*
X100000000Y-101000000D02*
X100000000Y-139000000D01*
D11*
G36*
X102379196Y-136749958D02*
X102615780Y-136847954D01*
X102828705Y-136990226D01*
X103009774Y-137171295D01*
X103152046Y-137384220D01*
X103250042Y-137620804D01*
X103300000Y-137871960D01*
X103300000Y-138128040D01*
X103250042Y-138379196D01*
X103152046Y-138615780D01*
X103009774Y-138828705D01*
X102828705Y-139009774D01*
X102615780Y-139152046D01*
X102379196Y-139250042D01*
X102128040Y-139300000D01*
X101871960Y-139300000D01*
X101620804Y-139250042D01*
X101384220Y-139152046D01*
X101171295Y-139009774D01*
X100990226Y-138828705D01*
X100847954Y-138615780D01*
X100749958Y-138379196D01*
X100700000Y-138128040D01*
X100700000Y-137871960D01*
X100749958Y-137620804D01*
X100847954Y-137384220D01*
X100990226Y-137171295D01*
X101171295Y-136990226D01*
X101384220Y-136847954D01*
X101620804Y-136749958D01*
X101871960Y-136700000D01*
X102128040Y-136700000D01*
X102379196Y-136749958D01*
X102379196Y-136749958D01*
G37*
G36*
X157200000Y-137350000D02*
X153800000Y-137350000D01*
X153800000Y-133950000D01*
X157200000Y-133950000D01*
X157200000Y-137350000D01*
X157200000Y-137350000D01*
G37*
G36*
X147197434Y-134317922D02*
X147392322Y-134356687D01*
X147637096Y-134458076D01*
X147637097Y-134458077D01*
X147857391Y-134605272D01*
X148044728Y-134792609D01*
X148044730Y-134792612D01*
X148191924Y-135012904D01*
X148293313Y-135257678D01*
X148345000Y-135517529D01*
X148345000Y-135782471D01*
X148293313Y-136042322D01*
X148191924Y-136287096D01*
X148191923Y-136287097D01*
X148044728Y-136507391D01*
X147857391Y-136694728D01*
X147857388Y-136694730D01*
X147637096Y-136841924D01*
X147392322Y-136943313D01*
X147197434Y-136982078D01*
X147132472Y-136995000D01*
X146867528Y-136995000D01*
X146802566Y-136982078D01*
X146607678Y-136943313D01*
X146362904Y-136841924D01*
X146142612Y-136694730D01*
X146142609Y-136694728D01*
X145955272Y-136507391D01*
X145808077Y-136287097D01*
X145808076Y-136287096D01*
X145706687Y-136042322D01*
X145655000Y-135782471D01*
X145655000Y-135517529D01*
X145706687Y-135257678D01*
X145808076Y-135012904D01*
X145955270Y-134792612D01*
X145955272Y-134792609D01*
X146142609Y-134605272D01*
X146362903Y-134458077D01*
X146362904Y-134458076D01*
X146607678Y-134356687D01*
X146802566Y-134317922D01*
X146867528Y-134305000D01*
X147132472Y-134305000D01*
X147197434Y-134317922D01*
X147197434Y-134317922D01*
G37*
G36*
X155857102Y-128907727D02*
X155995872Y-128935330D01*
X156305252Y-129063479D01*
X156583687Y-129249523D01*
X156820477Y-129486313D01*
X157006521Y-129764748D01*
X157132605Y-130069143D01*
X157134670Y-130074129D01*
X157175951Y-130281659D01*
X157200000Y-130402565D01*
X157200000Y-130737435D01*
X157134670Y-131065872D01*
X157006521Y-131375252D01*
X156820477Y-131653687D01*
X156583687Y-131890477D01*
X156305252Y-132076521D01*
X155995872Y-132204670D01*
X155886393Y-132226447D01*
X155667437Y-132270000D01*
X155332563Y-132270000D01*
X155113607Y-132226447D01*
X155004128Y-132204670D01*
X154694748Y-132076521D01*
X154416313Y-131890477D01*
X154179523Y-131653687D01*
X153993479Y-131375252D01*
X153865330Y-131065872D01*
X153800000Y-130737435D01*
X153800000Y-130402565D01*
X153824050Y-130281659D01*
X153865330Y-130074129D01*
X153867395Y-130069143D01*
X153993479Y-129764748D01*
X154179523Y-129486313D01*
X154416313Y-129249523D01*
X154694748Y-129063479D01*
X155004128Y-128935330D01*
X155142898Y-128907727D01*
X155332563Y-128870000D01*
X155667437Y-128870000D01*
X155857102Y-128907727D01*
X155857102Y-128907727D01*
G37*
G36*
X147197434Y-129237922D02*
X147392322Y-129276687D01*
X147637096Y-129378076D01*
X147854424Y-129523289D01*
X147857391Y-129525272D01*
X148044728Y-129712609D01*
X148044730Y-129712612D01*
X148191924Y-129932904D01*
X148293313Y-130177678D01*
X148345000Y-130437529D01*
X148345000Y-130702471D01*
X148293313Y-130962322D01*
X148191924Y-131207096D01*
X148086545Y-131364807D01*
X148044728Y-131427391D01*
X147857391Y-131614728D01*
X147857388Y-131614730D01*
X147637096Y-131761924D01*
X147392322Y-131863313D01*
X147197434Y-131902078D01*
X147132472Y-131915000D01*
X146867528Y-131915000D01*
X146802566Y-131902078D01*
X146607678Y-131863313D01*
X146362904Y-131761924D01*
X146142612Y-131614730D01*
X146142609Y-131614728D01*
X145955272Y-131427391D01*
X145913455Y-131364807D01*
X145808076Y-131207096D01*
X145706687Y-130962322D01*
X145655000Y-130702471D01*
X145655000Y-130437529D01*
X145706687Y-130177678D01*
X145808076Y-129932904D01*
X145955270Y-129712612D01*
X145955272Y-129712609D01*
X146142609Y-129525272D01*
X146145576Y-129523289D01*
X146362904Y-129378076D01*
X146607678Y-129276687D01*
X146802566Y-129237922D01*
X146867528Y-129225000D01*
X147132472Y-129225000D01*
X147197434Y-129237922D01*
X147197434Y-129237922D01*
G37*
G36*
X124750857Y-129332272D02*
X124951042Y-129415191D01*
X124951045Y-129415193D01*
X125115790Y-129525272D01*
X125131213Y-129535578D01*
X125284422Y-129688787D01*
X125284424Y-129688790D01*
X125284425Y-129688791D01*
X125335178Y-129764748D01*
X125404809Y-129868958D01*
X125487728Y-130069143D01*
X125530000Y-130281658D01*
X125530000Y-130498342D01*
X125487728Y-130710857D01*
X125404809Y-130911042D01*
X125404807Y-130911045D01*
X125301355Y-131065872D01*
X125284422Y-131091213D01*
X125131213Y-131244422D01*
X124951042Y-131364809D01*
X124750857Y-131447728D01*
X124538342Y-131490000D01*
X124321658Y-131490000D01*
X124109143Y-131447728D01*
X123908958Y-131364809D01*
X123728787Y-131244422D01*
X123575578Y-131091213D01*
X123558646Y-131065872D01*
X123455193Y-130911045D01*
X123455191Y-130911042D01*
X123372272Y-130710857D01*
X123330000Y-130498342D01*
X123330000Y-130281658D01*
X123372272Y-130069143D01*
X123455191Y-129868958D01*
X123524822Y-129764748D01*
X123575575Y-129688791D01*
X123575576Y-129688790D01*
X123575578Y-129688787D01*
X123728787Y-129535578D01*
X123744211Y-129525272D01*
X123908955Y-129415193D01*
X123908958Y-129415191D01*
X124109143Y-129332272D01*
X124321658Y-129290000D01*
X124538342Y-129290000D01*
X124750857Y-129332272D01*
X124750857Y-129332272D01*
G37*
G36*
X101890857Y-129332272D02*
X102091042Y-129415191D01*
X102091045Y-129415193D01*
X102255790Y-129525272D01*
X102271213Y-129535578D01*
X102424422Y-129688787D01*
X102424424Y-129688790D01*
X102424425Y-129688791D01*
X102475178Y-129764748D01*
X102544809Y-129868958D01*
X102627728Y-130069143D01*
X102670000Y-130281658D01*
X102670000Y-130498342D01*
X102627728Y-130710857D01*
X102544809Y-130911042D01*
X102544807Y-130911045D01*
X102441355Y-131065872D01*
X102424422Y-131091213D01*
X102271213Y-131244422D01*
X102091042Y-131364809D01*
X101890857Y-131447728D01*
X101678342Y-131490000D01*
X101461658Y-131490000D01*
X101249143Y-131447728D01*
X101048958Y-131364809D01*
X100868787Y-131244422D01*
X100715578Y-131091213D01*
X100698646Y-131065872D01*
X100595193Y-130911045D01*
X100595191Y-130911042D01*
X100512272Y-130710857D01*
X100470000Y-130498342D01*
X100470000Y-130281658D01*
X100512272Y-130069143D01*
X100595191Y-129868958D01*
X100664822Y-129764748D01*
X100715575Y-129688791D01*
X100715576Y-129688790D01*
X100715578Y-129688787D01*
X100868787Y-129535578D01*
X100884211Y-129525272D01*
X101048955Y-129415193D01*
X101048958Y-129415191D01*
X101249143Y-129332272D01*
X101461658Y-129290000D01*
X101678342Y-129290000D01*
X101890857Y-129332272D01*
X101890857Y-129332272D01*
G37*
G36*
X101890857Y-126792272D02*
X102091042Y-126875191D01*
X102271213Y-126995578D01*
X102424422Y-127148787D01*
X102544809Y-127328958D01*
X102627728Y-127529143D01*
X102670000Y-127741658D01*
X102670000Y-127958342D01*
X102627728Y-128170857D01*
X102544809Y-128371042D01*
X102424422Y-128551213D01*
X102271213Y-128704422D01*
X102091042Y-128824809D01*
X101890857Y-128907728D01*
X101678342Y-128950000D01*
X101461658Y-128950000D01*
X101249143Y-128907728D01*
X101048958Y-128824809D01*
X100868787Y-128704422D01*
X100715578Y-128551213D01*
X100595191Y-128371042D01*
X100512272Y-128170857D01*
X100470000Y-127958342D01*
X100470000Y-127741658D01*
X100512272Y-127529143D01*
X100595191Y-127328958D01*
X100715578Y-127148787D01*
X100868787Y-126995578D01*
X101048958Y-126875191D01*
X101249143Y-126792272D01*
X101461658Y-126750000D01*
X101678342Y-126750000D01*
X101890857Y-126792272D01*
X101890857Y-126792272D01*
G37*
G36*
X124750857Y-126792272D02*
X124951042Y-126875191D01*
X125131213Y-126995578D01*
X125284422Y-127148787D01*
X125404809Y-127328958D01*
X125487728Y-127529143D01*
X125530000Y-127741658D01*
X125530000Y-127958342D01*
X125487728Y-128170857D01*
X125404809Y-128371042D01*
X125284422Y-128551213D01*
X125131213Y-128704422D01*
X124951042Y-128824809D01*
X124750857Y-128907728D01*
X124538342Y-128950000D01*
X124321658Y-128950000D01*
X124109143Y-128907728D01*
X123908958Y-128824809D01*
X123728787Y-128704422D01*
X123575578Y-128551213D01*
X123455191Y-128371042D01*
X123372272Y-128170857D01*
X123330000Y-127958342D01*
X123330000Y-127741658D01*
X123372272Y-127529143D01*
X123455191Y-127328958D01*
X123575578Y-127148787D01*
X123728787Y-126995578D01*
X123908958Y-126875191D01*
X124109143Y-126792272D01*
X124321658Y-126750000D01*
X124538342Y-126750000D01*
X124750857Y-126792272D01*
X124750857Y-126792272D01*
G37*
G36*
X101890857Y-124252272D02*
X102091042Y-124335191D01*
X102271213Y-124455578D01*
X102424422Y-124608787D01*
X102544809Y-124788958D01*
X102627728Y-124989143D01*
X102670000Y-125201658D01*
X102670000Y-125418342D01*
X102627728Y-125630857D01*
X102544809Y-125831042D01*
X102424422Y-126011213D01*
X102271213Y-126164422D01*
X102091042Y-126284809D01*
X101890857Y-126367728D01*
X101678342Y-126410000D01*
X101461658Y-126410000D01*
X101249143Y-126367728D01*
X101048958Y-126284809D01*
X100868787Y-126164422D01*
X100715578Y-126011213D01*
X100595191Y-125831042D01*
X100512272Y-125630857D01*
X100470000Y-125418342D01*
X100470000Y-125201658D01*
X100512272Y-124989143D01*
X100595191Y-124788958D01*
X100715578Y-124608787D01*
X100868787Y-124455578D01*
X101048958Y-124335191D01*
X101249143Y-124252272D01*
X101461658Y-124210000D01*
X101678342Y-124210000D01*
X101890857Y-124252272D01*
X101890857Y-124252272D01*
G37*
G36*
X124750857Y-124252272D02*
X124951042Y-124335191D01*
X125131213Y-124455578D01*
X125284422Y-124608787D01*
X125404809Y-124788958D01*
X125487728Y-124989143D01*
X125530000Y-125201658D01*
X125530000Y-125418342D01*
X125487728Y-125630857D01*
X125404809Y-125831042D01*
X125284422Y-126011213D01*
X125131213Y-126164422D01*
X124951042Y-126284809D01*
X124750857Y-126367728D01*
X124538342Y-126410000D01*
X124321658Y-126410000D01*
X124109143Y-126367728D01*
X123908958Y-126284809D01*
X123728787Y-126164422D01*
X123575578Y-126011213D01*
X123455191Y-125831042D01*
X123372272Y-125630857D01*
X123330000Y-125418342D01*
X123330000Y-125201658D01*
X123372272Y-124989143D01*
X123455191Y-124788958D01*
X123575578Y-124608787D01*
X123728787Y-124455578D01*
X123908958Y-124335191D01*
X124109143Y-124252272D01*
X124321658Y-124210000D01*
X124538342Y-124210000D01*
X124750857Y-124252272D01*
X124750857Y-124252272D01*
G37*
G36*
X101890857Y-121712272D02*
X102091042Y-121795191D01*
X102271213Y-121915578D01*
X102424422Y-122068787D01*
X102544809Y-122248958D01*
X102627728Y-122449143D01*
X102670000Y-122661658D01*
X102670000Y-122878342D01*
X102627728Y-123090857D01*
X102544809Y-123291042D01*
X102424422Y-123471213D01*
X102271213Y-123624422D01*
X102091042Y-123744809D01*
X101890857Y-123827728D01*
X101678342Y-123870000D01*
X101461658Y-123870000D01*
X101249143Y-123827728D01*
X101048958Y-123744809D01*
X100868787Y-123624422D01*
X100715578Y-123471213D01*
X100595191Y-123291042D01*
X100512272Y-123090857D01*
X100470000Y-122878342D01*
X100470000Y-122661658D01*
X100512272Y-122449143D01*
X100595191Y-122248958D01*
X100715578Y-122068787D01*
X100868787Y-121915578D01*
X101048958Y-121795191D01*
X101249143Y-121712272D01*
X101461658Y-121670000D01*
X101678342Y-121670000D01*
X101890857Y-121712272D01*
X101890857Y-121712272D01*
G37*
G36*
X124750857Y-121712272D02*
X124951042Y-121795191D01*
X125131213Y-121915578D01*
X125284422Y-122068787D01*
X125404809Y-122248958D01*
X125487728Y-122449143D01*
X125530000Y-122661658D01*
X125530000Y-122878342D01*
X125487728Y-123090857D01*
X125404809Y-123291042D01*
X125284422Y-123471213D01*
X125131213Y-123624422D01*
X124951042Y-123744809D01*
X124750857Y-123827728D01*
X124538342Y-123870000D01*
X124321658Y-123870000D01*
X124109143Y-123827728D01*
X123908958Y-123744809D01*
X123728787Y-123624422D01*
X123575578Y-123471213D01*
X123455191Y-123291042D01*
X123372272Y-123090857D01*
X123330000Y-122878342D01*
X123330000Y-122661658D01*
X123372272Y-122449143D01*
X123455191Y-122248958D01*
X123575578Y-122068787D01*
X123728787Y-121915578D01*
X123908958Y-121795191D01*
X124109143Y-121712272D01*
X124321658Y-121670000D01*
X124538342Y-121670000D01*
X124750857Y-121712272D01*
X124750857Y-121712272D01*
G37*
G36*
X124750857Y-119172272D02*
X124951042Y-119255191D01*
X125131213Y-119375578D01*
X125284422Y-119528787D01*
X125404809Y-119708958D01*
X125487728Y-119909143D01*
X125530000Y-120121658D01*
X125530000Y-120338342D01*
X125487728Y-120550857D01*
X125404809Y-120751042D01*
X125284422Y-120931213D01*
X125131213Y-121084422D01*
X124951042Y-121204809D01*
X124750857Y-121287728D01*
X124538342Y-121330000D01*
X124321658Y-121330000D01*
X124109143Y-121287728D01*
X123908958Y-121204809D01*
X123728787Y-121084422D01*
X123575578Y-120931213D01*
X123455191Y-120751042D01*
X123372272Y-120550857D01*
X123330000Y-120338342D01*
X123330000Y-120121658D01*
X123372272Y-119909143D01*
X123455191Y-119708958D01*
X123575578Y-119528787D01*
X123728787Y-119375578D01*
X123908958Y-119255191D01*
X124109143Y-119172272D01*
X124321658Y-119130000D01*
X124538342Y-119130000D01*
X124750857Y-119172272D01*
X124750857Y-119172272D01*
G37*
G36*
X101890857Y-119172272D02*
X102091042Y-119255191D01*
X102271213Y-119375578D01*
X102424422Y-119528787D01*
X102544809Y-119708958D01*
X102627728Y-119909143D01*
X102670000Y-120121658D01*
X102670000Y-120338342D01*
X102627728Y-120550857D01*
X102544809Y-120751042D01*
X102424422Y-120931213D01*
X102271213Y-121084422D01*
X102091042Y-121204809D01*
X101890857Y-121287728D01*
X101678342Y-121330000D01*
X101461658Y-121330000D01*
X101249143Y-121287728D01*
X101048958Y-121204809D01*
X100868787Y-121084422D01*
X100715578Y-120931213D01*
X100595191Y-120751042D01*
X100512272Y-120550857D01*
X100470000Y-120338342D01*
X100470000Y-120121658D01*
X100512272Y-119909143D01*
X100595191Y-119708958D01*
X100715578Y-119528787D01*
X100868787Y-119375578D01*
X101048958Y-119255191D01*
X101249143Y-119172272D01*
X101461658Y-119130000D01*
X101678342Y-119130000D01*
X101890857Y-119172272D01*
X101890857Y-119172272D01*
G37*
G36*
X101890857Y-116632272D02*
X102091042Y-116715191D01*
X102271213Y-116835578D01*
X102424422Y-116988787D01*
X102544809Y-117168958D01*
X102627728Y-117369143D01*
X102670000Y-117581658D01*
X102670000Y-117798342D01*
X102627728Y-118010857D01*
X102544809Y-118211042D01*
X102424422Y-118391213D01*
X102271213Y-118544422D01*
X102091042Y-118664809D01*
X101890857Y-118747728D01*
X101678342Y-118790000D01*
X101461658Y-118790000D01*
X101249143Y-118747728D01*
X101048958Y-118664809D01*
X100868787Y-118544422D01*
X100715578Y-118391213D01*
X100595191Y-118211042D01*
X100512272Y-118010857D01*
X100470000Y-117798342D01*
X100470000Y-117581658D01*
X100512272Y-117369143D01*
X100595191Y-117168958D01*
X100715578Y-116988787D01*
X100868787Y-116835578D01*
X101048958Y-116715191D01*
X101249143Y-116632272D01*
X101461658Y-116590000D01*
X101678342Y-116590000D01*
X101890857Y-116632272D01*
X101890857Y-116632272D01*
G37*
G36*
X124750857Y-116632272D02*
X124951042Y-116715191D01*
X125131213Y-116835578D01*
X125284422Y-116988787D01*
X125404809Y-117168958D01*
X125487728Y-117369143D01*
X125530000Y-117581658D01*
X125530000Y-117798342D01*
X125487728Y-118010857D01*
X125404809Y-118211042D01*
X125284422Y-118391213D01*
X125131213Y-118544422D01*
X124951042Y-118664809D01*
X124750857Y-118747728D01*
X124538342Y-118790000D01*
X124321658Y-118790000D01*
X124109143Y-118747728D01*
X123908958Y-118664809D01*
X123728787Y-118544422D01*
X123575578Y-118391213D01*
X123455191Y-118211042D01*
X123372272Y-118010857D01*
X123330000Y-117798342D01*
X123330000Y-117581658D01*
X123372272Y-117369143D01*
X123455191Y-117168958D01*
X123575578Y-116988787D01*
X123728787Y-116835578D01*
X123908958Y-116715191D01*
X124109143Y-116632272D01*
X124321658Y-116590000D01*
X124538342Y-116590000D01*
X124750857Y-116632272D01*
X124750857Y-116632272D01*
G37*
G36*
X157075000Y-117645000D02*
X154925000Y-117645000D01*
X154925000Y-115495000D01*
X157075000Y-115495000D01*
X157075000Y-117645000D01*
X157075000Y-117645000D01*
G37*
G36*
X124750857Y-114092272D02*
X124951042Y-114175191D01*
X125131213Y-114295578D01*
X125284422Y-114448787D01*
X125404809Y-114628958D01*
X125487728Y-114829143D01*
X125530000Y-115041658D01*
X125530000Y-115258342D01*
X125487728Y-115470857D01*
X125404809Y-115671042D01*
X125284422Y-115851213D01*
X125131213Y-116004422D01*
X124951042Y-116124809D01*
X124750857Y-116207728D01*
X124538342Y-116250000D01*
X124321658Y-116250000D01*
X124109143Y-116207728D01*
X123908958Y-116124809D01*
X123728787Y-116004422D01*
X123575578Y-115851213D01*
X123455191Y-115671042D01*
X123372272Y-115470857D01*
X123330000Y-115258342D01*
X123330000Y-115041658D01*
X123372272Y-114829143D01*
X123455191Y-114628958D01*
X123575578Y-114448787D01*
X123728787Y-114295578D01*
X123908958Y-114175191D01*
X124109143Y-114092272D01*
X124321658Y-114050000D01*
X124538342Y-114050000D01*
X124750857Y-114092272D01*
X124750857Y-114092272D01*
G37*
G36*
X101890857Y-114092272D02*
X102091042Y-114175191D01*
X102271213Y-114295578D01*
X102424422Y-114448787D01*
X102544809Y-114628958D01*
X102627728Y-114829143D01*
X102670000Y-115041658D01*
X102670000Y-115258342D01*
X102627728Y-115470857D01*
X102544809Y-115671042D01*
X102424422Y-115851213D01*
X102271213Y-116004422D01*
X102091042Y-116124809D01*
X101890857Y-116207728D01*
X101678342Y-116250000D01*
X101461658Y-116250000D01*
X101249143Y-116207728D01*
X101048958Y-116124809D01*
X100868787Y-116004422D01*
X100715578Y-115851213D01*
X100595191Y-115671042D01*
X100512272Y-115470857D01*
X100470000Y-115258342D01*
X100470000Y-115041658D01*
X100512272Y-114829143D01*
X100595191Y-114628958D01*
X100715578Y-114448787D01*
X100868787Y-114295578D01*
X101048958Y-114175191D01*
X101249143Y-114092272D01*
X101461658Y-114050000D01*
X101678342Y-114050000D01*
X101890857Y-114092272D01*
X101890857Y-114092272D01*
G37*
G36*
X156313566Y-112996312D02*
X156509203Y-113077347D01*
X156685275Y-113194995D01*
X156835005Y-113344725D01*
X156952653Y-113520797D01*
X157033688Y-113716434D01*
X157075000Y-113924122D01*
X157075000Y-114135878D01*
X157033688Y-114343566D01*
X156952653Y-114539203D01*
X156835005Y-114715275D01*
X156685275Y-114865005D01*
X156509203Y-114982653D01*
X156313566Y-115063688D01*
X156105878Y-115105000D01*
X155894122Y-115105000D01*
X155686434Y-115063688D01*
X155490797Y-114982653D01*
X155314725Y-114865005D01*
X155164995Y-114715275D01*
X155047347Y-114539203D01*
X154966312Y-114343566D01*
X154925000Y-114135878D01*
X154925000Y-113924122D01*
X154966312Y-113716434D01*
X155047347Y-113520797D01*
X155164995Y-113344725D01*
X155314725Y-113194995D01*
X155490797Y-113077347D01*
X155686434Y-112996312D01*
X155894122Y-112955000D01*
X156105878Y-112955000D01*
X156313566Y-112996312D01*
X156313566Y-112996312D01*
G37*
G36*
X101890857Y-111552272D02*
X102091042Y-111635191D01*
X102271213Y-111755578D01*
X102424422Y-111908787D01*
X102544809Y-112088958D01*
X102627728Y-112289143D01*
X102670000Y-112501658D01*
X102670000Y-112718342D01*
X102627728Y-112930857D01*
X102544809Y-113131042D01*
X102424422Y-113311213D01*
X102271213Y-113464422D01*
X102271210Y-113464424D01*
X102271209Y-113464425D01*
X102091045Y-113584807D01*
X102091042Y-113584809D01*
X101890857Y-113667728D01*
X101678342Y-113710000D01*
X101461658Y-113710000D01*
X101249143Y-113667728D01*
X101048958Y-113584809D01*
X101048955Y-113584807D01*
X100868791Y-113464425D01*
X100868790Y-113464424D01*
X100868787Y-113464422D01*
X100715578Y-113311213D01*
X100595191Y-113131042D01*
X100512272Y-112930857D01*
X100470000Y-112718342D01*
X100470000Y-112501658D01*
X100512272Y-112289143D01*
X100595191Y-112088958D01*
X100715578Y-111908787D01*
X100868787Y-111755578D01*
X101048958Y-111635191D01*
X101249143Y-111552272D01*
X101461658Y-111510000D01*
X101678342Y-111510000D01*
X101890857Y-111552272D01*
X101890857Y-111552272D01*
G37*
G36*
X124750857Y-111552272D02*
X124951042Y-111635191D01*
X125131213Y-111755578D01*
X125284422Y-111908787D01*
X125404809Y-112088958D01*
X125487728Y-112289143D01*
X125530000Y-112501658D01*
X125530000Y-112718342D01*
X125487728Y-112930857D01*
X125404809Y-113131042D01*
X125284422Y-113311213D01*
X125131213Y-113464422D01*
X125131210Y-113464424D01*
X125131209Y-113464425D01*
X124951045Y-113584807D01*
X124951042Y-113584809D01*
X124750857Y-113667728D01*
X124538342Y-113710000D01*
X124321658Y-113710000D01*
X124109143Y-113667728D01*
X123908958Y-113584809D01*
X123908955Y-113584807D01*
X123728791Y-113464425D01*
X123728790Y-113464424D01*
X123728787Y-113464422D01*
X123575578Y-113311213D01*
X123455191Y-113131042D01*
X123372272Y-112930857D01*
X123330000Y-112718342D01*
X123330000Y-112501658D01*
X123372272Y-112289143D01*
X123455191Y-112088958D01*
X123575578Y-111908787D01*
X123728787Y-111755578D01*
X123908958Y-111635191D01*
X124109143Y-111552272D01*
X124321658Y-111510000D01*
X124538342Y-111510000D01*
X124750857Y-111552272D01*
X124750857Y-111552272D01*
G37*
G36*
X156313566Y-110456312D02*
X156509203Y-110537347D01*
X156685275Y-110654995D01*
X156835005Y-110804725D01*
X156952653Y-110980797D01*
X157033688Y-111176434D01*
X157075000Y-111384122D01*
X157075000Y-111595878D01*
X157033688Y-111803566D01*
X156952653Y-111999203D01*
X156835005Y-112175275D01*
X156685275Y-112325005D01*
X156509203Y-112442653D01*
X156313566Y-112523688D01*
X156105878Y-112565000D01*
X155894122Y-112565000D01*
X155686434Y-112523688D01*
X155490797Y-112442653D01*
X155314725Y-112325005D01*
X155164995Y-112175275D01*
X155047347Y-111999203D01*
X154966312Y-111803566D01*
X154925000Y-111595878D01*
X154925000Y-111384122D01*
X154966312Y-111176434D01*
X155047347Y-110980797D01*
X155164995Y-110804725D01*
X155314725Y-110654995D01*
X155490797Y-110537347D01*
X155686434Y-110456312D01*
X155894122Y-110415000D01*
X156105878Y-110415000D01*
X156313566Y-110456312D01*
X156313566Y-110456312D01*
G37*
G36*
X129497434Y-108917922D02*
X129692322Y-108956687D01*
X129937096Y-109058076D01*
X129937097Y-109058077D01*
X130157391Y-109205272D01*
X130344728Y-109392609D01*
X130344730Y-109392612D01*
X130491924Y-109612904D01*
X130593313Y-109857678D01*
X130645000Y-110117529D01*
X130645000Y-110382471D01*
X130593313Y-110642322D01*
X130491924Y-110887096D01*
X130491923Y-110887097D01*
X130344728Y-111107391D01*
X130157391Y-111294728D01*
X130157388Y-111294730D01*
X129937096Y-111441924D01*
X129692322Y-111543313D01*
X129497434Y-111582078D01*
X129432472Y-111595000D01*
X129167528Y-111595000D01*
X129102566Y-111582078D01*
X128907678Y-111543313D01*
X128662904Y-111441924D01*
X128442612Y-111294730D01*
X128442609Y-111294728D01*
X128255272Y-111107391D01*
X128108077Y-110887097D01*
X128108076Y-110887096D01*
X128006687Y-110642322D01*
X127955000Y-110382471D01*
X127955000Y-110117529D01*
X128006687Y-109857678D01*
X128108076Y-109612904D01*
X128255270Y-109392612D01*
X128255272Y-109392609D01*
X128442609Y-109205272D01*
X128662903Y-109058077D01*
X128662904Y-109058076D01*
X128907678Y-108956687D01*
X129102566Y-108917922D01*
X129167528Y-108905000D01*
X129432472Y-108905000D01*
X129497434Y-108917922D01*
X129497434Y-108917922D01*
G37*
G36*
X156313566Y-107916312D02*
X156509203Y-107997347D01*
X156685275Y-108114995D01*
X156835005Y-108264725D01*
X156952653Y-108440797D01*
X157033688Y-108636434D01*
X157075000Y-108844122D01*
X157075000Y-109055878D01*
X157033688Y-109263566D01*
X156952653Y-109459203D01*
X156835005Y-109635275D01*
X156685275Y-109785005D01*
X156509203Y-109902653D01*
X156313566Y-109983688D01*
X156105878Y-110025000D01*
X155894122Y-110025000D01*
X155686434Y-109983688D01*
X155490797Y-109902653D01*
X155314725Y-109785005D01*
X155164995Y-109635275D01*
X155047347Y-109459203D01*
X154966312Y-109263566D01*
X154925000Y-109055878D01*
X154925000Y-108844122D01*
X154966312Y-108636434D01*
X155047347Y-108440797D01*
X155164995Y-108264725D01*
X155314725Y-108114995D01*
X155490797Y-107997347D01*
X155686434Y-107916312D01*
X155894122Y-107875000D01*
X156105878Y-107875000D01*
X156313566Y-107916312D01*
X156313566Y-107916312D01*
G37*
G36*
X147197434Y-103837922D02*
X147392322Y-103876687D01*
X147637096Y-103978076D01*
X147637097Y-103978077D01*
X147857391Y-104125272D01*
X148044728Y-104312609D01*
X148044730Y-104312612D01*
X148191924Y-104532904D01*
X148293313Y-104777678D01*
X148345000Y-105037529D01*
X148345000Y-105302471D01*
X148293313Y-105562322D01*
X148191924Y-105807096D01*
X148191923Y-105807097D01*
X148044728Y-106027391D01*
X147857391Y-106214728D01*
X147857388Y-106214730D01*
X147637096Y-106361924D01*
X147392322Y-106463313D01*
X147197434Y-106502078D01*
X147132472Y-106515000D01*
X146867528Y-106515000D01*
X146802566Y-106502078D01*
X146607678Y-106463313D01*
X146362904Y-106361924D01*
X146142612Y-106214730D01*
X146142609Y-106214728D01*
X145955272Y-106027391D01*
X145808077Y-105807097D01*
X145808076Y-105807096D01*
X145706687Y-105562322D01*
X145655000Y-105302471D01*
X145655000Y-105037529D01*
X145706687Y-104777678D01*
X145808076Y-104532904D01*
X145955270Y-104312612D01*
X145955272Y-104312609D01*
X146142609Y-104125272D01*
X146362903Y-103978077D01*
X146362904Y-103978076D01*
X146607678Y-103876687D01*
X146802566Y-103837922D01*
X146867528Y-103825000D01*
X147132472Y-103825000D01*
X147197434Y-103837922D01*
X147197434Y-103837922D01*
G37*
G36*
X129497434Y-103837922D02*
X129692322Y-103876687D01*
X129937096Y-103978076D01*
X129937097Y-103978077D01*
X130157391Y-104125272D01*
X130344728Y-104312609D01*
X130344730Y-104312612D01*
X130491924Y-104532904D01*
X130593313Y-104777678D01*
X130645000Y-105037529D01*
X130645000Y-105302471D01*
X130593313Y-105562322D01*
X130491924Y-105807096D01*
X130491923Y-105807097D01*
X130344728Y-106027391D01*
X130157391Y-106214728D01*
X130157388Y-106214730D01*
X129937096Y-106361924D01*
X129692322Y-106463313D01*
X129497434Y-106502078D01*
X129432472Y-106515000D01*
X129167528Y-106515000D01*
X129102566Y-106502078D01*
X128907678Y-106463313D01*
X128662904Y-106361924D01*
X128442612Y-106214730D01*
X128442609Y-106214728D01*
X128255272Y-106027391D01*
X128108077Y-105807097D01*
X128108076Y-105807096D01*
X128006687Y-105562322D01*
X127955000Y-105302471D01*
X127955000Y-105037529D01*
X128006687Y-104777678D01*
X128108076Y-104532904D01*
X128255270Y-104312612D01*
X128255272Y-104312609D01*
X128442609Y-104125272D01*
X128662903Y-103978077D01*
X128662904Y-103978076D01*
X128907678Y-103876687D01*
X129102566Y-103837922D01*
X129167528Y-103825000D01*
X129432472Y-103825000D01*
X129497434Y-103837922D01*
X129497434Y-103837922D01*
G37*
G36*
X102379196Y-100749958D02*
X102615780Y-100847954D01*
X102828705Y-100990226D01*
X103009774Y-101171295D01*
X103152046Y-101384220D01*
X103250042Y-101620804D01*
X103300000Y-101871960D01*
X103300000Y-102128040D01*
X103250042Y-102379196D01*
X103152046Y-102615780D01*
X103009774Y-102828705D01*
X102828705Y-103009774D01*
X102615780Y-103152046D01*
X102379196Y-103250042D01*
X102128040Y-103300000D01*
X101871960Y-103300000D01*
X101620804Y-103250042D01*
X101384220Y-103152046D01*
X101171295Y-103009774D01*
X100990226Y-102828705D01*
X100847954Y-102615780D01*
X100749958Y-102379196D01*
X100700000Y-102128040D01*
X100700000Y-101871960D01*
X100749958Y-101620804D01*
X100847954Y-101384220D01*
X100990226Y-101171295D01*
X101171295Y-100990226D01*
X101384220Y-100847954D01*
X101620804Y-100749958D01*
X101871960Y-100700000D01*
X102128040Y-100700000D01*
X102379196Y-100749958D01*
X102379196Y-100749958D01*
G37*
G36*
X158379196Y-100749958D02*
X158615780Y-100847954D01*
X158828705Y-100990226D01*
X159009774Y-101171295D01*
X159152046Y-101384220D01*
X159250042Y-101620804D01*
X159300000Y-101871960D01*
X159300000Y-102128040D01*
X159250042Y-102379196D01*
X159152046Y-102615780D01*
X159009774Y-102828705D01*
X158828705Y-103009774D01*
X158615780Y-103152046D01*
X158379196Y-103250042D01*
X158128040Y-103300000D01*
X157871960Y-103300000D01*
X157620804Y-103250042D01*
X157384220Y-103152046D01*
X157171295Y-103009774D01*
X156990226Y-102828705D01*
X156847954Y-102615780D01*
X156749958Y-102379196D01*
X156700000Y-102128040D01*
X156700000Y-101871960D01*
X156749958Y-101620804D01*
X156847954Y-101384220D01*
X156990226Y-101171295D01*
X157171295Y-100990226D01*
X157384220Y-100847954D01*
X157620804Y-100749958D01*
X157871960Y-100700000D01*
X158128040Y-100700000D01*
X158379196Y-100749958D01*
X158379196Y-100749958D01*
G37*
G36*
X120868707Y-100957596D02*
X120945836Y-100965193D01*
X121077787Y-101005220D01*
X121143763Y-101025233D01*
X121326172Y-101122733D01*
X121486054Y-101253946D01*
X121617267Y-101413828D01*
X121714767Y-101596237D01*
X121714767Y-101596238D01*
X121774807Y-101794164D01*
X121795080Y-102000000D01*
X121774807Y-102205836D01*
X121734780Y-102337787D01*
X121714767Y-102403763D01*
X121617267Y-102586172D01*
X121486054Y-102746054D01*
X121326172Y-102877267D01*
X121143763Y-102974767D01*
X121077787Y-102994780D01*
X120945836Y-103034807D01*
X120868707Y-103042404D01*
X120791580Y-103050000D01*
X120688420Y-103050000D01*
X120611293Y-103042404D01*
X120534164Y-103034807D01*
X120402213Y-102994780D01*
X120336237Y-102974767D01*
X120153828Y-102877267D01*
X119993946Y-102746054D01*
X119862733Y-102586172D01*
X119765233Y-102403763D01*
X119745220Y-102337787D01*
X119705193Y-102205836D01*
X119684920Y-102000000D01*
X119705193Y-101794164D01*
X119765233Y-101596238D01*
X119765233Y-101596237D01*
X119862733Y-101413828D01*
X119993946Y-101253946D01*
X120153828Y-101122733D01*
X120336237Y-101025233D01*
X120402213Y-101005220D01*
X120534164Y-100965193D01*
X120611293Y-100957596D01*
X120688420Y-100950000D01*
X120791580Y-100950000D01*
X120868707Y-100957596D01*
X120868707Y-100957596D01*
G37*
G36*
X123408707Y-100957596D02*
X123485836Y-100965193D01*
X123617787Y-101005220D01*
X123683763Y-101025233D01*
X123866172Y-101122733D01*
X124026054Y-101253946D01*
X124157267Y-101413828D01*
X124254767Y-101596237D01*
X124254767Y-101596238D01*
X124314807Y-101794164D01*
X124335080Y-102000000D01*
X124314807Y-102205836D01*
X124274780Y-102337787D01*
X124254767Y-102403763D01*
X124157267Y-102586172D01*
X124026054Y-102746054D01*
X123866172Y-102877267D01*
X123683763Y-102974767D01*
X123617787Y-102994780D01*
X123485836Y-103034807D01*
X123408707Y-103042404D01*
X123331580Y-103050000D01*
X123228420Y-103050000D01*
X123151293Y-103042404D01*
X123074164Y-103034807D01*
X122942213Y-102994780D01*
X122876237Y-102974767D01*
X122693828Y-102877267D01*
X122533946Y-102746054D01*
X122402733Y-102586172D01*
X122305233Y-102403763D01*
X122285220Y-102337787D01*
X122245193Y-102205836D01*
X122224920Y-102000000D01*
X122245193Y-101794164D01*
X122305233Y-101596238D01*
X122305233Y-101596237D01*
X122402733Y-101413828D01*
X122533946Y-101253946D01*
X122693828Y-101122733D01*
X122876237Y-101025233D01*
X122942213Y-101005220D01*
X123074164Y-100965193D01*
X123151293Y-100957596D01*
X123228420Y-100950000D01*
X123331580Y-100950000D01*
X123408707Y-100957596D01*
X123408707Y-100957596D01*
G37*
G36*
X106550000Y-103050000D02*
X104450000Y-103050000D01*
X104450000Y-100950000D01*
X106550000Y-100950000D01*
X106550000Y-103050000D01*
X106550000Y-103050000D01*
G37*
G36*
X118328707Y-100957596D02*
X118405836Y-100965193D01*
X118537787Y-101005220D01*
X118603763Y-101025233D01*
X118786172Y-101122733D01*
X118946054Y-101253946D01*
X119077267Y-101413828D01*
X119174767Y-101596237D01*
X119174767Y-101596238D01*
X119234807Y-101794164D01*
X119255080Y-102000000D01*
X119234807Y-102205836D01*
X119194780Y-102337787D01*
X119174767Y-102403763D01*
X119077267Y-102586172D01*
X118946054Y-102746054D01*
X118786172Y-102877267D01*
X118603763Y-102974767D01*
X118537787Y-102994780D01*
X118405836Y-103034807D01*
X118328707Y-103042404D01*
X118251580Y-103050000D01*
X118148420Y-103050000D01*
X118071293Y-103042404D01*
X117994164Y-103034807D01*
X117862213Y-102994780D01*
X117796237Y-102974767D01*
X117613828Y-102877267D01*
X117453946Y-102746054D01*
X117322733Y-102586172D01*
X117225233Y-102403763D01*
X117205220Y-102337787D01*
X117165193Y-102205836D01*
X117144920Y-102000000D01*
X117165193Y-101794164D01*
X117225233Y-101596238D01*
X117225233Y-101596237D01*
X117322733Y-101413828D01*
X117453946Y-101253946D01*
X117613828Y-101122733D01*
X117796237Y-101025233D01*
X117862213Y-101005220D01*
X117994164Y-100965193D01*
X118071293Y-100957596D01*
X118148420Y-100950000D01*
X118251580Y-100950000D01*
X118328707Y-100957596D01*
X118328707Y-100957596D01*
G37*
G36*
X115788707Y-100957596D02*
X115865836Y-100965193D01*
X115997787Y-101005220D01*
X116063763Y-101025233D01*
X116246172Y-101122733D01*
X116406054Y-101253946D01*
X116537267Y-101413828D01*
X116634767Y-101596237D01*
X116634767Y-101596238D01*
X116694807Y-101794164D01*
X116715080Y-102000000D01*
X116694807Y-102205836D01*
X116654780Y-102337787D01*
X116634767Y-102403763D01*
X116537267Y-102586172D01*
X116406054Y-102746054D01*
X116246172Y-102877267D01*
X116063763Y-102974767D01*
X115997787Y-102994780D01*
X115865836Y-103034807D01*
X115788707Y-103042404D01*
X115711580Y-103050000D01*
X115608420Y-103050000D01*
X115531293Y-103042404D01*
X115454164Y-103034807D01*
X115322213Y-102994780D01*
X115256237Y-102974767D01*
X115073828Y-102877267D01*
X114913946Y-102746054D01*
X114782733Y-102586172D01*
X114685233Y-102403763D01*
X114665220Y-102337787D01*
X114625193Y-102205836D01*
X114604920Y-102000000D01*
X114625193Y-101794164D01*
X114685233Y-101596238D01*
X114685233Y-101596237D01*
X114782733Y-101413828D01*
X114913946Y-101253946D01*
X115073828Y-101122733D01*
X115256237Y-101025233D01*
X115322213Y-101005220D01*
X115454164Y-100965193D01*
X115531293Y-100957596D01*
X115608420Y-100950000D01*
X115711580Y-100950000D01*
X115788707Y-100957596D01*
X115788707Y-100957596D01*
G37*
G36*
X113248707Y-100957596D02*
X113325836Y-100965193D01*
X113457787Y-101005220D01*
X113523763Y-101025233D01*
X113706172Y-101122733D01*
X113866054Y-101253946D01*
X113997267Y-101413828D01*
X114094767Y-101596237D01*
X114094767Y-101596238D01*
X114154807Y-101794164D01*
X114175080Y-102000000D01*
X114154807Y-102205836D01*
X114114780Y-102337787D01*
X114094767Y-102403763D01*
X113997267Y-102586172D01*
X113866054Y-102746054D01*
X113706172Y-102877267D01*
X113523763Y-102974767D01*
X113457787Y-102994780D01*
X113325836Y-103034807D01*
X113248707Y-103042404D01*
X113171580Y-103050000D01*
X113068420Y-103050000D01*
X112991293Y-103042404D01*
X112914164Y-103034807D01*
X112782213Y-102994780D01*
X112716237Y-102974767D01*
X112533828Y-102877267D01*
X112373946Y-102746054D01*
X112242733Y-102586172D01*
X112145233Y-102403763D01*
X112125220Y-102337787D01*
X112085193Y-102205836D01*
X112064920Y-102000000D01*
X112085193Y-101794164D01*
X112145233Y-101596238D01*
X112145233Y-101596237D01*
X112242733Y-101413828D01*
X112373946Y-101253946D01*
X112533828Y-101122733D01*
X112716237Y-101025233D01*
X112782213Y-101005220D01*
X112914164Y-100965193D01*
X112991293Y-100957596D01*
X113068420Y-100950000D01*
X113171580Y-100950000D01*
X113248707Y-100957596D01*
X113248707Y-100957596D01*
G37*
G36*
X110708707Y-100957596D02*
X110785836Y-100965193D01*
X110917787Y-101005220D01*
X110983763Y-101025233D01*
X111166172Y-101122733D01*
X111326054Y-101253946D01*
X111457267Y-101413828D01*
X111554767Y-101596237D01*
X111554767Y-101596238D01*
X111614807Y-101794164D01*
X111635080Y-102000000D01*
X111614807Y-102205836D01*
X111574780Y-102337787D01*
X111554767Y-102403763D01*
X111457267Y-102586172D01*
X111326054Y-102746054D01*
X111166172Y-102877267D01*
X110983763Y-102974767D01*
X110917787Y-102994780D01*
X110785836Y-103034807D01*
X110708707Y-103042404D01*
X110631580Y-103050000D01*
X110528420Y-103050000D01*
X110451293Y-103042404D01*
X110374164Y-103034807D01*
X110242213Y-102994780D01*
X110176237Y-102974767D01*
X109993828Y-102877267D01*
X109833946Y-102746054D01*
X109702733Y-102586172D01*
X109605233Y-102403763D01*
X109585220Y-102337787D01*
X109545193Y-102205836D01*
X109524920Y-102000000D01*
X109545193Y-101794164D01*
X109605233Y-101596238D01*
X109605233Y-101596237D01*
X109702733Y-101413828D01*
X109833946Y-101253946D01*
X109993828Y-101122733D01*
X110176237Y-101025233D01*
X110242213Y-101005220D01*
X110374164Y-100965193D01*
X110451293Y-100957596D01*
X110528420Y-100950000D01*
X110631580Y-100950000D01*
X110708707Y-100957596D01*
X110708707Y-100957596D01*
G37*
G36*
X108168707Y-100957596D02*
X108245836Y-100965193D01*
X108377787Y-101005220D01*
X108443763Y-101025233D01*
X108626172Y-101122733D01*
X108786054Y-101253946D01*
X108917267Y-101413828D01*
X109014767Y-101596237D01*
X109014767Y-101596238D01*
X109074807Y-101794164D01*
X109095080Y-102000000D01*
X109074807Y-102205836D01*
X109034780Y-102337787D01*
X109014767Y-102403763D01*
X108917267Y-102586172D01*
X108786054Y-102746054D01*
X108626172Y-102877267D01*
X108443763Y-102974767D01*
X108377787Y-102994780D01*
X108245836Y-103034807D01*
X108168707Y-103042404D01*
X108091580Y-103050000D01*
X107988420Y-103050000D01*
X107911293Y-103042404D01*
X107834164Y-103034807D01*
X107702213Y-102994780D01*
X107636237Y-102974767D01*
X107453828Y-102877267D01*
X107293946Y-102746054D01*
X107162733Y-102586172D01*
X107065233Y-102403763D01*
X107045220Y-102337787D01*
X107005193Y-102205836D01*
X106984920Y-102000000D01*
X107005193Y-101794164D01*
X107065233Y-101596238D01*
X107065233Y-101596237D01*
X107162733Y-101413828D01*
X107293946Y-101253946D01*
X107453828Y-101122733D01*
X107636237Y-101025233D01*
X107702213Y-101005220D01*
X107834164Y-100965193D01*
X107911293Y-100957596D01*
X107988420Y-100950000D01*
X108091580Y-100950000D01*
X108168707Y-100957596D01*
X108168707Y-100957596D01*
G37*
M02*
