G04 #@! TF.GenerationSoftware,KiCad,Pcbnew,(5.0.2)-1*
G04 #@! TF.CreationDate,2019-02-07T08:47:28-05:00*
G04 #@! TF.ProjectId,HASwitchPlate,48415377-6974-4636-9850-6c6174652e6b,rev?*
G04 #@! TF.SameCoordinates,Original*
G04 #@! TF.FileFunction,Profile,NP*
%FSLAX46Y46*%
G04 Gerber Fmt 4.6, Leading zero omitted, Abs format (unit mm)*
G04 Created by KiCad (PCBNEW (5.0.2)-1) date 2/7/2019 8:47:28 AM*
%MOMM*%
%LPD*%
G01*
G04 APERTURE LIST*
%ADD10C,0.150000*%
G04 APERTURE END LIST*
D10*
X160000000Y-101000000D02*
X160000000Y-122000000D01*
X160000000Y-132100000D02*
X160000000Y-124000000D01*
X141500000Y-123000000D02*
G75*
G03X142500000Y-124000000I1000000J0D01*
G01*
X142500000Y-122000000D02*
G75*
G03X141500000Y-123000000I0J-1000000D01*
G01*
X142500000Y-122000000D02*
X160000000Y-122000000D01*
X142500000Y-124000000D02*
X160000000Y-124000000D01*
X118500000Y-140000000D02*
X159000000Y-140000000D01*
X101000000Y-140000000D02*
X106000000Y-140000000D01*
X108000000Y-138000000D02*
X116500000Y-138000000D01*
X117500000Y-139000000D02*
G75*
G03X118500000Y-140000000I1000000J0D01*
G01*
X117500000Y-139000000D02*
G75*
G03X116500000Y-138000000I-1000000J0D01*
G01*
X107998255Y-138000002D02*
G75*
G03X107000000Y-139000000I1745J-999998D01*
G01*
X106000000Y-140000000D02*
G75*
G03X107000000Y-139000000I0J1000000D01*
G01*
X101000000Y-100000000D02*
G75*
G03X100000000Y-101000000I0J-1000000D01*
G01*
X100000000Y-139000000D02*
G75*
G03X101000000Y-140000000I1000000J0D01*
G01*
X159000000Y-140000000D02*
G75*
G03X160000000Y-139000000I0J1000000D01*
G01*
X160000000Y-101000000D02*
G75*
G03X159000000Y-100000000I-1000000J0D01*
G01*
X141500000Y-133100000D02*
G75*
G03X142500000Y-134100000I1000000J0D01*
G01*
X142500000Y-132100000D02*
G75*
G03X141500000Y-133100000I0J-1000000D01*
G01*
X160000000Y-134100000D02*
X160000000Y-139000000D01*
X142500000Y-134100000D02*
X160000000Y-134100000D01*
X142500000Y-132100000D02*
X160000000Y-132100000D01*
X101000000Y-100000000D02*
X159000000Y-100000000D01*
X100000000Y-101000000D02*
X100000000Y-139000000D01*
M02*
